<?xml version="1.0" encoding="UTF-8" standalone="no"?>
<!-- Created with Inkscape (http://www.inkscape.org/) -->

<svg
   xmlns:dc="http://purl.org/dc/elements/1.1/"
   xmlns:cc="http://creativecommons.org/ns#"
   xmlns:rdf="http://www.w3.org/1999/02/22-rdf-syntax-ns#"
   xmlns:svg="http://www.w3.org/2000/svg"
   xmlns="http://www.w3.org/2000/svg"
   xmlns:inkscape="http://www.inkscape.org/namespaces/inkscape"
   version="1.1"
   width="765"
   height="370"
   id="svg2"
   xml:space="preserve"><metadata
     id="metadata8"><rdf:RDF><cc:Work
         rdf:about=""><dc:format>image/svg+xml</dc:format><dc:type
           rdf:resource="http://purl.org/dc/dcmitype/StillImage" /></cc:Work></rdf:RDF></metadata><defs
     id="defs6"><clipPath
       id="clipPath76"><path
         d="m 1955,5242 0,1821 1544,0 0,-1821 -1544,0 z"
         inkscape:connector-curvature="0"
         id="path78" /></clipPath></defs><g
     transform="matrix(1.25,0,0,-1.25,0,990)"
     id="g10"><g
       transform="scale(0.1,0.1)"
       id="g12"><path
         d="m 1955,5242 1544,0 0,1821"
         inkscape:connector-curvature="0"
         id="path14"
         style="fill:none;stroke:#000000;stroke-width:15;stroke-linecap:butt;stroke-linejoin:round;stroke-miterlimit:10;stroke-opacity:1;stroke-dasharray:none" /><path
         d="m 1955,5242 0,45"
         inkscape:connector-curvature="0"
         id="path16"
         style="fill:none;stroke:#000000;stroke-width:15;stroke-linecap:butt;stroke-linejoin:round;stroke-miterlimit:10;stroke-opacity:1;stroke-dasharray:none" /><g
         transform="scale(10,10)"
         id="g18"><text
           transform="matrix(1,0,0,-1,189.5,502.6)"
           id="text20"><tspan
             x="0"
             y="0"
             id="tspan22"
             style="font-size:24px;font-variant:normal;font-weight:normal;writing-mode:lr-tb;fill:#000000;fill-opacity:1;fill-rule:nonzero;stroke:none;font-family:Symbol;-inkscape-font-specification:Symbol">0</tspan></text>
</g><path
         d="m 2470,5242 0,45"
         inkscape:connector-curvature="0"
         id="path24"
         style="fill:none;stroke:#000000;stroke-width:15;stroke-linecap:butt;stroke-linejoin:round;stroke-miterlimit:10;stroke-opacity:1;stroke-dasharray:none" /><g
         transform="scale(10,10)"
         id="g26"><text
           transform="matrix(1,0,0,-1,229,502.6)"
           id="text28"><tspan
             x="0 12 24"
             y="0"
             id="tspan30"
             style="font-size:24px;font-variant:normal;font-weight:normal;writing-mode:lr-tb;fill:#000000;fill-opacity:1;fill-rule:nonzero;stroke:none;font-family:Symbol;-inkscape-font-specification:Symbol">100</tspan></text>
</g><path
         d="m 2984,5242 0,45"
         inkscape:connector-curvature="0"
         id="path32"
         style="fill:none;stroke:#000000;stroke-width:15;stroke-linecap:butt;stroke-linejoin:round;stroke-miterlimit:10;stroke-opacity:1;stroke-dasharray:none" /><g
         transform="scale(10,10)"
         id="g34"><text
           transform="matrix(1,0,0,-1,280.4,502.6)"
           id="text36"><tspan
             x="0 12 24"
             y="0"
             id="tspan38"
             style="font-size:24px;font-variant:normal;font-weight:normal;writing-mode:lr-tb;fill:#000000;fill-opacity:1;fill-rule:nonzero;stroke:none;font-family:Symbol;-inkscape-font-specification:Symbol">200</tspan></text>
</g><path
         d="m 3499,5626 -38,0"
         inkscape:connector-curvature="0"
         id="path40"
         style="fill:none;stroke:#000000;stroke-width:15;stroke-linecap:butt;stroke-linejoin:round;stroke-miterlimit:10;stroke-opacity:1;stroke-dasharray:none" /><g
         transform="scale(10,10)"
         id="g42"><text
           transform="matrix(1,0,0,-1,357.1,555.4)"
           id="text44"><tspan
             x="0 12 18"
             y="0"
             id="tspan46"
             style="font-size:24px;font-variant:normal;font-weight:normal;writing-mode:lr-tb;fill:#000000;fill-opacity:1;fill-rule:nonzero;stroke:none;font-family:Symbol;-inkscape-font-specification:Symbol">0.5</tspan></text>
</g><path
         d="m 3499,6059 -38,0"
         inkscape:connector-curvature="0"
         id="path48"
         style="fill:none;stroke:#000000;stroke-width:15;stroke-linecap:butt;stroke-linejoin:round;stroke-miterlimit:10;stroke-opacity:1;stroke-dasharray:none" /><g
         transform="scale(10,10)"
         id="g50"><text
           transform="matrix(1,0,0,-1,357.1,598.7)"
           id="text52"><tspan
             x="0"
             y="0"
             id="tspan54"
             style="font-size:24px;font-variant:normal;font-weight:normal;writing-mode:lr-tb;fill:#000000;fill-opacity:1;fill-rule:nonzero;stroke:none;font-family:Symbol;-inkscape-font-specification:Symbol">1</tspan></text>
</g><path
         d="m 3499,6491 -38,0"
         inkscape:connector-curvature="0"
         id="path56"
         style="fill:none;stroke:#000000;stroke-width:15;stroke-linecap:butt;stroke-linejoin:round;stroke-miterlimit:10;stroke-opacity:1;stroke-dasharray:none" /><g
         transform="scale(10,10)"
         id="g58"><text
           transform="matrix(1,0,0,-1,357.1,641.9)"
           id="text60"><tspan
             x="0"
             y="0"
             id="tspan62"
             style="font-size:24px;font-variant:normal;font-weight:normal;writing-mode:lr-tb;fill:#000000;fill-opacity:1;fill-rule:nonzero;stroke:none;font-family:Symbol;-inkscape-font-specification:Symbol">2</tspan></text>
</g><path
         d="m 3499,7063 -38,0"
         inkscape:connector-curvature="0"
         id="path64"
         style="fill:none;stroke:#000000;stroke-width:15;stroke-linecap:butt;stroke-linejoin:round;stroke-miterlimit:10;stroke-opacity:1;stroke-dasharray:none" /><g
         transform="scale(10,10)"
         id="g66"><text
           transform="matrix(1,0,0,-1,357.1,699.1)"
           id="text68"><tspan
             x="0"
             y="0"
             id="tspan70"
             style="font-size:24px;font-variant:normal;font-weight:normal;writing-mode:lr-tb;fill:#000000;fill-opacity:1;fill-rule:nonzero;stroke:none;font-family:Symbol;-inkscape-font-specification:Symbol">5</tspan></text>
</g><g
         id="g72"><g
           clip-path="url(#clipPath76)"
           id="g74"><path
             d="m 2006,6539 26,-237 26,-146 26,-98 25,-69 26,-51 26,-39 25,-32 26,-25 26,-22 26,-18 25,-15 26,-14 26,-13 26,-11 25,-11 26,-10 26,-10 26,-9 25,-9 26,-10 26,-9 26,-9 25,-9 26,-9 26,-10 26,-9 25,-9 26,-10 26,-9 25,-10 26,-10 26,-10 26,-9 25,-10 26,-10 26,-10 26,-10 25,-10 26,-9 26,-10 26,-10 25,-10 26,-10 26,-9 26,-10 25,-10 26,-9 26,-10 26,-9 25,-10 26,-9 26,-9 26,-9 25,-9 26,-10 26,-9 25,-8 26,-9"
             inkscape:connector-curvature="0"
             id="path80"
             style="fill:none;stroke:#000000;stroke-width:20;stroke-linecap:butt;stroke-linejoin:round;stroke-miterlimit:10;stroke-opacity:1;stroke-dasharray:72, 36, 0.7, 36;stroke-dashoffset:0" /><path
             d="m 2006,6866 26,-207 26,-127 26,-87 25,-62 26,-46 26,-37 25,-28 26,-23 26,-20 26,-17 25,-16 26,-15 26,-14 26,-14 25,-14 26,-14 26,-13 26,-14 25,-14 26,-15 26,-14 26,-14 25,-15 26,-15 26,-14 26,-15 25,-15 26,-14 26,-15 25,-14 26,-15 26,-14 26,-15 25,-14 26,-14 26,-14 26,-14 25,-13 26,-14 26,-13 26,-13 25,-13 26,-13 26,-13 26,-12 25,-13 26,-12 26,-12 26,-12 25,-11 26,-12 26,-11 26,-12 25,-11 26,-11 26,-11 25,-10 26,-11"
             inkscape:connector-curvature="0"
             id="path82"
             style="fill:none;stroke:#000000;stroke-width:15;stroke-linecap:butt;stroke-linejoin:round;stroke-miterlimit:10;stroke-opacity:1;stroke-dasharray:144, 36;stroke-dashoffset:0" /><path
             d="m 2006,6328 26,114 26,80 26,52 25,31 26,22 26,6 25,-16 26,-31 26,-42 26,-51 25,-56 26,-62 26,-71 26,-70 25,-56 26,-56 26,-68 26,-65 25,-53 26,-47 26,-44 26,-41 25,-40 26,-39 26,-37 26,-36 25,-35 26,-33 26,-32 25,-32 26,-29 26,-29 26,-28 25,-27 26,-27 26,-25 26,-25 25,-24 26,-23 26,-23 26,-22 25,-21 26,-21 26,-21 26,-20 25,-20 26,-19 26,-19 26,-19 25,-19 26,-18 26,-17 26,-18 25,-17 26,-17 26,-17 25,-17 26,-16"
             inkscape:connector-curvature="0"
             id="path84"
             style="fill:none;stroke:#000000;stroke-width:15;stroke-linecap:butt;stroke-linejoin:round;stroke-miterlimit:10;stroke-opacity:1;stroke-dasharray:none" /></g></g><g
         transform="scale(10,10)"
         id="g86"><text
           transform="matrix(1,0,0,-1,324.2,689.7)"
           id="text88"><tspan
             x="0"
             y="0"
             id="tspan90"
             style="font-size:24px;font-variant:normal;font-weight:normal;writing-mode:lr-tb;fill:#000000;fill-opacity:1;fill-rule:nonzero;stroke:none;font-family:Symbol;-inkscape-font-specification:Symbol">µ</tspan></text>
</g><path
         d="m 3242,4955.4 479.75,0 0,216 -479.75,0 0,-216 z"
         inkscape:connector-curvature="0"
         id="path92"
         style="fill:#ffffff;fill-opacity:1;fill-rule:nonzero;stroke:none" /><g
         transform="scale(10,10)"
         id="g94"><text
           transform="matrix(1,0,0,-1,324.2,501.3)"
           id="text96"><tspan
             x="0 14.664 22.656 39.984001"
             y="0"
             id="tspan98"
             style="font-size:24px;font-variant:normal;font-weight:normal;writing-mode:lr-tb;fill:#000000;fill-opacity:1;fill-rule:nonzero;stroke:none;font-family:Times New Roman;-inkscape-font-specification:Times-Roman">T(K)</tspan></text>
</g></g></g></svg>
