<?xml version="1.0" encoding="UTF-8" standalone="no"?>
<!-- Created with Inkscape (http://www.inkscape.org/) -->

<svg
   xmlns:dc="http://purl.org/dc/elements/1.1/"
   xmlns:cc="http://creativecommons.org/ns#"
   xmlns:rdf="http://www.w3.org/1999/02/22-rdf-syntax-ns#"
   xmlns:svg="http://www.w3.org/2000/svg"
   xmlns="http://www.w3.org/2000/svg"
   xmlns:inkscape="http://www.inkscape.org/namespaces/inkscape"
   version="1.1"
   width="765"
   height="260"
   id="svg2"
   xml:space="preserve"><metadata
     id="metadata8"><rdf:RDF><cc:Work
         rdf:about=""><dc:format>image/svg+xml</dc:format><dc:type
           rdf:resource="http://purl.org/dc/dcmitype/StillImage" /></cc:Work></rdf:RDF></metadata><defs
     id="defs6"><clipPath
       id="clipPath68"><path
         d="m 1440,5940 0,1980 3960,0 0,-1980 -3960,0 z"
         inkscape:connector-curvature="0"
         id="path70" /></clipPath></defs><g
     transform="matrix(1.25,0,0,-1.25,0,990)"
     id="g10"><g
       transform="scale(0.1,0.1)"
       id="g12"><path
         d="m 1440,5940 3960,0 0,1980 -3960,0 0,-1980 z"
         inkscape:connector-curvature="0"
         id="path14"
         style="fill:#ffffff;fill-opacity:1;fill-rule:nonzero;stroke:none" /><path
         d="m 1440,5940 3960,0"
         inkscape:connector-curvature="0"
         id="path16"
         style="fill:none;stroke:#000000;stroke-width:15;stroke-linecap:butt;stroke-linejoin:round;stroke-miterlimit:10;stroke-opacity:1;stroke-dasharray:none" /><path
         d="m 1440,7920 0,-1980"
         inkscape:connector-curvature="0"
         id="path18"
         style="fill:none;stroke:#000000;stroke-width:15;stroke-linecap:butt;stroke-linejoin:round;stroke-miterlimit:10;stroke-opacity:1;stroke-dasharray:none" /><path
         d="m 1440,5940 0,79"
         inkscape:connector-curvature="0"
         id="path20"
         style="fill:none;stroke:#000000;stroke-width:15;stroke-linecap:butt;stroke-linejoin:round;stroke-miterlimit:10;stroke-opacity:1;stroke-dasharray:none" /><path
         d="m 1723,5940 0,79"
         inkscape:connector-curvature="0"
         id="path22"
         style="fill:none;stroke:#000000;stroke-width:15;stroke-linecap:butt;stroke-linejoin:round;stroke-miterlimit:10;stroke-opacity:1;stroke-dasharray:none" /><path
         d="m 2006,5940 0,79"
         inkscape:connector-curvature="0"
         id="path24"
         style="fill:none;stroke:#000000;stroke-width:15;stroke-linecap:butt;stroke-linejoin:round;stroke-miterlimit:10;stroke-opacity:1;stroke-dasharray:none" /><path
         d="m 2289,5940 0,79"
         inkscape:connector-curvature="0"
         id="path26"
         style="fill:none;stroke:#000000;stroke-width:15;stroke-linecap:butt;stroke-linejoin:round;stroke-miterlimit:10;stroke-opacity:1;stroke-dasharray:none" /><path
         d="m 2571,5940 0,79"
         inkscape:connector-curvature="0"
         id="path28"
         style="fill:none;stroke:#000000;stroke-width:15;stroke-linecap:butt;stroke-linejoin:round;stroke-miterlimit:10;stroke-opacity:1;stroke-dasharray:none" /><path
         d="m 2854,5940 0,79"
         inkscape:connector-curvature="0"
         id="path30"
         style="fill:none;stroke:#000000;stroke-width:15;stroke-linecap:butt;stroke-linejoin:round;stroke-miterlimit:10;stroke-opacity:1;stroke-dasharray:none" /><path
         d="m 3137,5940 0,79"
         inkscape:connector-curvature="0"
         id="path32"
         style="fill:none;stroke:#000000;stroke-width:15;stroke-linecap:butt;stroke-linejoin:round;stroke-miterlimit:10;stroke-opacity:1;stroke-dasharray:none" /><path
         d="m 3420,5940 0,79"
         inkscape:connector-curvature="0"
         id="path34"
         style="fill:none;stroke:#000000;stroke-width:15;stroke-linecap:butt;stroke-linejoin:round;stroke-miterlimit:10;stroke-opacity:1;stroke-dasharray:none" /><path
         d="m 3703,5940 0,79"
         inkscape:connector-curvature="0"
         id="path36"
         style="fill:none;stroke:#000000;stroke-width:15;stroke-linecap:butt;stroke-linejoin:round;stroke-miterlimit:10;stroke-opacity:1;stroke-dasharray:none" /><path
         d="m 3986,5940 0,79"
         inkscape:connector-curvature="0"
         id="path38"
         style="fill:none;stroke:#000000;stroke-width:15;stroke-linecap:butt;stroke-linejoin:round;stroke-miterlimit:10;stroke-opacity:1;stroke-dasharray:none" /><path
         d="m 4269,5940 0,79"
         inkscape:connector-curvature="0"
         id="path40"
         style="fill:none;stroke:#000000;stroke-width:15;stroke-linecap:butt;stroke-linejoin:round;stroke-miterlimit:10;stroke-opacity:1;stroke-dasharray:none" /><path
         d="m 4551,5940 0,79"
         inkscape:connector-curvature="0"
         id="path42"
         style="fill:none;stroke:#000000;stroke-width:15;stroke-linecap:butt;stroke-linejoin:round;stroke-miterlimit:10;stroke-opacity:1;stroke-dasharray:none" /><path
         d="m 4834,5940 0,79"
         inkscape:connector-curvature="0"
         id="path44"
         style="fill:none;stroke:#000000;stroke-width:15;stroke-linecap:butt;stroke-linejoin:round;stroke-miterlimit:10;stroke-opacity:1;stroke-dasharray:none" /><path
         d="m 5117,5940 0,79"
         inkscape:connector-curvature="0"
         id="path46"
         style="fill:none;stroke:#000000;stroke-width:15;stroke-linecap:butt;stroke-linejoin:round;stroke-miterlimit:10;stroke-opacity:1;stroke-dasharray:none" /><path
         d="m 1440,6173 0,0"
         inkscape:connector-curvature="0"
         id="path48"
         style="fill:none;stroke:#000000;stroke-width:15;stroke-linecap:butt;stroke-linejoin:round;stroke-miterlimit:10;stroke-opacity:1;stroke-dasharray:none" /><path
         d="m 1440,6406 0,0"
         inkscape:connector-curvature="0"
         id="path50"
         style="fill:none;stroke:#000000;stroke-width:15;stroke-linecap:butt;stroke-linejoin:round;stroke-miterlimit:10;stroke-opacity:1;stroke-dasharray:none" /><path
         d="m 1440,6639 0,0"
         inkscape:connector-curvature="0"
         id="path52"
         style="fill:none;stroke:#000000;stroke-width:15;stroke-linecap:butt;stroke-linejoin:round;stroke-miterlimit:10;stroke-opacity:1;stroke-dasharray:none" /><path
         d="m 1440,6872 0,0"
         inkscape:connector-curvature="0"
         id="path54"
         style="fill:none;stroke:#000000;stroke-width:15;stroke-linecap:butt;stroke-linejoin:round;stroke-miterlimit:10;stroke-opacity:1;stroke-dasharray:none" /><path
         d="m 1440,7104 0,0"
         inkscape:connector-curvature="0"
         id="path56"
         style="fill:none;stroke:#000000;stroke-width:15;stroke-linecap:butt;stroke-linejoin:round;stroke-miterlimit:10;stroke-opacity:1;stroke-dasharray:none" /><path
         d="m 1440,7337 0,0"
         inkscape:connector-curvature="0"
         id="path58"
         style="fill:none;stroke:#000000;stroke-width:15;stroke-linecap:butt;stroke-linejoin:round;stroke-miterlimit:10;stroke-opacity:1;stroke-dasharray:none" /><path
         d="m 1440,7570 0,0"
         inkscape:connector-curvature="0"
         id="path60"
         style="fill:none;stroke:#000000;stroke-width:15;stroke-linecap:butt;stroke-linejoin:round;stroke-miterlimit:10;stroke-opacity:1;stroke-dasharray:none" /><path
         d="m 1440,7803 0,0"
         inkscape:connector-curvature="0"
         id="path62"
         style="fill:none;stroke:#000000;stroke-width:15;stroke-linecap:butt;stroke-linejoin:round;stroke-miterlimit:10;stroke-opacity:1;stroke-dasharray:none" /><g
         id="g64"><g
           clip-path="url(#clipPath68)"
           id="g66"><path
             d="m 1468,7920 3,-111 3,-107 3,-102 3,-98 2,-93 3,-89 3,-85 3,-82 3,-77 3,-74 2,-71 3,-67 3,-64 3,-61 3,-58 3,-55 2,-52 3,-50 3,-47 3,-44 3,-42 3,-39 2,-38 3,-35 3,-33 3,-30 3,-29 2,-27 3,-25 3,-23 3,-22 3,-20 3,-18 2,-16 3,-16 3,-13 3,-12 3,-11 3,-10 2,-8 3,-7 3,-6 3,-5 3,-3 3,-3 2,-1 3,-1 3,0 3,2 3,2 3,3 2,4 3,4 3,6 3,6 3,7 3,7 2,8 3,9 3,9 3,10 3,10 2,11 3,11 3,12 3,12 3,13 3,13 2,13 3,14 3,14 3,14 3,14 3,15 2,15 3,16 3,15 3,16 3,16 3,16 2,16 3,17 3,16 3,17 3,17 3,16 2,17 3,17 3,17 3,17 3,17 3,17 2,17 3,17 3,17 3,17 3,17 2,17 3,16 3,17 3,17 3,16 3,16 2,17 3,16 3,16 3,16 3,15 3,16 2,15 3,15 3,16 3,14 3,15 3,15 2,14 3,14 3,14 3,14 3,13 3,13 2,13 3,13 3,13 3,12 3,12 3,12 2,12 3,11 3,11 3,11 3,11 2,10 3,10 3,10 3,9 3,10 3,9 2,8 3,9 3,8 3,8 3,7 3,8 2,7 3,7 3,6 3,6 3,6 3,6 2,5 3,5 3,5 3,4 3,5 3,4 2,3 3,4 3,3 3,3 3,2 3,2 2,2 3,2 3,1 3,2 3,1 5,0 3,1 3,-1 3,0 3,-1 2,-1 3,-1 3,-1 3,-2 3,-2 3,-2 2,-3 3,-2 3,-3 3,-3 3,-4 3,-3 2,-4 3,-4 3,-5 3,-4 3,-5 3,-5 2,-5 3,-5 3,-6 3,-6 3,-6 3,-6 2,-6 3,-7 3,-6 3,-7 3,-7 2,-8 3,-7 3,-8 3,-7 3,-8 3,-8 2,-8 3,-9 3,-8 3,-9 3,-9 3,-8 2,-9 3,-10 3,-9 3,-9 3,-10 3,-9 2,-10 3,-10 3,-10 3,-10 3,-10 3,-10 2,-10 3,-11 3,-10 3,-10 3,-11 3,-11 2,-10 3,-11 3,-11 3,-11 3,-11 2,-10 3,-11 3,-11 3,-11 3,-11 3,-12 2,-11 3,-11 3,-11 3,-11 3,-11 3,-11 2,-11 3,-12 3,-11 3,-11 3,-11 3,-11 2,-11 3,-11 3,-11 3,-11 3,-11 3,-11 2,-11 3,-11 3,-11 3,-10 3,-11 3,-11 2,-10 3,-11 3,-10 3,-11 3,-10 2,-11 3,-10 3,-10 3,-10 3,-10 3,-10 2,-10 3,-10 3,-9 3,-10 3,-9 3,-10 2,-9 3,-9 3,-9 3,-9 3,-9 3,-9 2,-9 3,-8 3,-9 3,-8 3,-8 3,-9 2,-8 3,-8 3,-7 3,-8 3,-8 3,-7 2,-7 3,-8 3,-7 3,-7 3,-7 2,-6 3,-7 3,-6 3,-7 3,-6 3,-6 2,-6 3,-6 3,-5 3,-6 3,-5 3,-6 2,-5 3,-5 3,-5 3,-5 3,-4 3,-5 2,-4 3,-4 3,-4 3,-4 3,-4 3,-4 2,-3 3,-4 3,-3 3,-3 3,-3 3,-3 2,-3 3,-3 3,-2 3,-3 3,-2 2,-2 3,-2 3,-2 3,-2 3,-2 3,-1 2,-2 3,-1 3,-1 3,-1 3,-1 3,-1 2,-1 3,-1 6,0 3,-1 14,0 3,1 3,0 2,1 3,0 3,1 3,1 3,1 3,1 2,1 3,1 3,1 3,2 3,1 2,2 3,1 3,2 3,2 3,1 3,2 2,2 3,2 3,2 3,3 3,2 3,2 2,2 3,3 3,2 3,3 3,2 3,3 2,3 3,3 3,2 3,3 3,3 3,3 2,3 3,3 3,3 3,3 3,3 3,3 2,3 3,3 3,4 3,3 3,3 2,3 3,3 3,4 3,3 3,3 3,4 2,3 3,3 3,4 3,3 3,3 3,4 2,3 3,4 3,3 3,3 3,4 3,3 2,3 3,3 3,4 3,3 3,3 3,4 2,3 3,3 3,3 3,3 3,3 3,4 2,3 3,3 3,3 3,3 3,3 2,3 3,2 3,3 3,3 3,3 3,3 2,2 3,3 3,3 3,2 3,3 3,2 2,3 3,2 3,2 3,3 3,2 3,2 2,2 3,2 3,2 3,2 3,2 3,2 2,2 3,2 3,2 3,1 3,2 3,1 2,2 3,1 3,2 3,1 3,1 2,2 3,1 3,1 3,1 3,1 3,1 2,0 3,1 3,1 3,1 3,0 3,1 2,0 3,1 9,0 3,1 11,0 3,-1 8,0 3,-1 3,0 3,-1 3,0 2,-1 3,-1 3,0 3,-1 3,-1 2,-1 3,-1 3,-1 3,-1 3,-1 3,-1 2,-1 3,-2 3,-1 3,-1 3,-2 3,-1 2,-2 3,-1 3,-2 3,-1 3,-2 3,-2 2,-2 3,-1 3,-2 3,-2 3,-2 3,-2 2,-2 3,-2 3,-2 3,-2 3,-3 3,-2 2,-2 3,-2 3,-3 3,-2 3,-2 2,-3 3,-2 3,-3 3,-2 3,-3 3,-2 2,-3 3,-2 3,-3 3,-2 3,-3 3,-3 2,-2 3,-3 3,-3 3,-2 3,-3 3,-3 2,-2 3,-3 3,-3 3,-3 3,-2 3,-3 2,-3 3,-3 3,-2 3,-3 3,-3 3,-3 2,-3 3,-2 3,-3 3,-3 3,-3 2,-2 3,-3 3,-3 3,-3 3,-2 3,-3 2,-3 3,-3 3,-2 3,-3 3,-3 3,-2 2,-3 3,-2 3,-3 3,-3 3,-2 3,-3 2,-2 3,-3 3,-2 3,-2 3,-3 3,-2 2,-3 3,-2 3,-2 3,-3 3,-2 3,-2 2,-2 3,-2 3,-3 3,-2 3,-2 2,-2 3,-2 3,-2 3,-2 3,-2 3,-1 2,-2 3,-2 3,-2 3,-2 3,-1 3,-2 2,-2 3,-1 3,-2 3,-1 3,-2 3,-1 2,-2 3,-1 3,-1 3,-1 3,-2 3,-1 2,-1 3,-1 3,-1 3,-1 3,-1 3,-1 2,-1 3,-1 3,-1 3,-1 3,0 2,-1 3,-1 3,0 3,-1 3,-1 5,0 3,-1 3,0 3,-1 8,0 3,-1 26,0 3,1 8,0 3,1 6,0 2,1 3,0 3,1 3,0 3,1 2,1 3,0 3,1 3,1 3,0 3,1 2,1 3,1 3,0 3,1 3,1 3,1 2,1 3,1 3,1 3,1 3,1 3,1 2,1 3,1 3,1 3,1 3,1 3,2 2,1 3,1 3,1 3,1 3,2 3,1 2,1 3,2 3,1 3,1 3,1 2,2 3,1 3,2 3,1 3,1 3,2 2,1 3,1 3,2 3,1 3,2 3,1 2,1 3,2 3,1 3,2 3,1 3,1 2,2 3,1 3,2 3,1 3,2 3,1 2,1 3,2 3,1 3,1 3,2 3,1 2,2 3,1 3,1 3,2 3,1 2,1 3,1 3,2 3,1 3,1 3,1 2,2 3,1 3,1 3,1 3,1 3,2 2,1 3,1 3,1 3,1 3,1 3,1 2,1 3,1 3,1 3,1 3,1 3,1 2,1 3,1 3,1 3,0 3,1 3,1 2,1 3,0 3,1 3,1 3,0 2,1 3,1 3,0 3,1 3,0 3,1 2,0 3,1 3,0 3,1 6,0 2,1 6,0 3,1 17,0 3,1 11,0 3,-1 14,0 3,-1 8,0 3,-1 6,0 3,-1 2,0 3,-1 3,0 3,-1 3,0 3,-1 2,0 3,-1 3,-1 3,0 3,-1 3,0 2,-1 3,-1 3,-1 3,0 3,-1 3,-1 2,-1 3,-1 3,-1 3,0 3,-1 3,-1 2,-1 3,-1 3,-1 3,-1 3,-1 2,-1 3,-1 3,-1 3,-1 3,-1 3,-1 2,-1 3,-1 3,-2 3,-1 3,-1 3,-1 2,-1 3,-1 3,-1 3,-2 3,-1 3,-1 2,-1 3,-1 3,-2 3,-1 3,-1 3,-1 2,-1 3,-2 3,-1 3,-1 3,-1 3,-2 2,-1 3,-1 3,-1 3,-2 3,-1 2,-1 3,-1 3,-2 3,-1 3,-1 3,-1 2,-2 3,-1 3,-1 3,-1 3,-2 3,-1 2,-1 3,-1 3,-1 3,-2 3,-1 3,-1 2,-1 3,-1 3,-1 3,-2 3,-1 3,-1 2,-1 3,-1 3,-1 3,-1 3,-1 3,-1 2,-1 3,-1 3,-1 3,-1 3,-1 2,-1 3,-1 3,-1 3,-1 3,-1 3,-1 2,-1 3,-1 3,0 3,-1 3,-1 3,-1 2,-1 3,0 3,-1 3,-1 3,-1 3,0 2,-1 3,-1 3,0 3,-1 3,0 3,-1 2,0 3,-1 3,-1 3,0 3,-1 5,0 3,-1 3,0 3,-1 5,0 3,-1 9,0 3,-1 11,0 3,-1 37,0 2,1 15,0 2,1 6,0 3,1 8,0 3,1 3,0 3,1 5,0 3,1 3,0 3,1 3,0 3,1 2,0 3,1 3,0 3,1 3,0 3,1 2,0 3,1 3,1 3,0 3,1 3,1 2,0 3,1 3,0 3,1 3,1 3,0 2,1 3,1 3,1 3,0 3,1 2,1 3,0 3,1 3,1 3,1 3,0 2,1 3,1 3,1 3,0 3,1 3,1 2,1 3,1 3,0 3,1 3,1 3,1 2,0 3,1 3,1 3,1 3,1 3,0 2,1 3,1 3,1 3,0 3,1 3,1 2,1 3,0 3,1 3,1 3,1 2,0 3,1 3,1 3,1 3,0 3,1 2,1 3,0 3,1 3,1 3,0 3,1 2,1 3,0 3,1 3,0 3,1 3,1 2,0 3,1 3,0 3,1 3,0 3,1 2,0 3,1 3,0 3,1 3,0 3,1 2,0 3,1 3,0 3,1 5,0 3,1 6,0 3,1 5,0 3,1 9,0 3,1 11,0 3,1 53,0 3,-1 12,0 2,-1 9,0 3,-1 8,0 3,-1 6,0 3,-1 2,0 3,-1 6,0 3,-1 3,0 2,-1 3,0 3,-1 6,0 3,-1 2,0 3,-1 3,-1 3,0 3,-1 2,0 3,-1 3,0 3,-1 3,0 3,-1 2,-1 3,0 3,-1 3,-1 3,0 3,-1 2,0 3,-1 3,-1 3,0 3,-1 3,-1 2,0 3,-1 3,-1 3,0 3,-1 3,-1 2,0 3,-1 3,-1 3,-1 3,0 3,-1 2,-1 3,0 3,-1 3,-1 3,-1 2,0 3,-1 3,-1 3,0 3,-1 3,-1 2,-1 3,0 3,-1 3,-1 3,0 3,-1 2,-1 3,0 3,-1 3,-1 3,0 3,-1 2,-1 3,0 3,-1 3,-1 3,0 3,-1 2,-1 3,0 3,-1 3,-1 3,0 3,-1 2,0 3,-1 3,-1 3,0 3,-1 2,0 3,-1 3,0 3,-1 3,0 3,-1 2,0 3,-1 3,0 3,-1 3,0 3,-1 2,0 3,-1 3,0 3,-1 6,0 2,-1 6,0 3,-1 6,0 2,-1 6,0 3,-1 8,0 3,-1 9,0 2,-1 17,0 3,-1 51,0 3,1 17,0 3,1 8,0 3,1 9,0 2,1 9,0 3,1 5,0 3,1 6,0 3,1 5,0 3,1 6,0 3,1 3,0 2,1 6,0 3,1 3,0 3,1 2,0 3,1 3,0 3,1 5,0 3,1 3,0 3,1 3,0 3,1 2,0 3,1 3,0 3,1 3,0 3,1 2,0 3,1 3,0 3,1 3,0 3,1 2,0 3,1 3,0 3,1 3,0 3,1 2,0 3,1 6,0 3,1 3,0 2,1 3,0 3,1"
             inkscape:connector-curvature="0"
             id="path72"
             style="fill:none;stroke:#004dcc;stroke-width:25;stroke-linecap:butt;stroke-linejoin:round;stroke-miterlimit:10;stroke-opacity:1;stroke-dasharray:none" /><path
             d="m 1440,6115 2546,0"
             inkscape:connector-curvature="0"
             id="path74"
             style="fill:none;stroke:#cc4d00;stroke-width:20;stroke-linecap:butt;stroke-linejoin:round;stroke-miterlimit:10;stroke-opacity:1;stroke-dasharray:144, 36;stroke-dashoffset:0" /></g></g><path
         d="m 5340,5804.4 120,0 0,216 -120,0 0,-216 z"
         inkscape:connector-curvature="0"
         id="path76"
         style="fill:#ffffff;fill-opacity:1;fill-rule:nonzero;stroke:none" /><g
         transform="scale(10,10)"
         id="g78"><text
           transform="matrix(1,0,0,-1,534,586.2)"
           id="text80"><tspan
             x="0"
             y="0"
             id="tspan82"
             style="font-size:24px;font-variant:normal;font-weight:normal;writing-mode:lr-tb;fill:#000000;fill-opacity:1;fill-rule:nonzero;stroke:none;font-family:Times New Roman;-inkscape-font-specification:Times-Roman">x</tspan></text>
</g></g></g></svg>
