<?xml version="1.0" encoding="UTF-8" standalone="no"?>
<!-- Created with Inkscape (http://www.inkscape.org/) -->

<svg
   xmlns:dc="http://purl.org/dc/elements/1.1/"
   xmlns:cc="http://creativecommons.org/ns#"
   xmlns:rdf="http://www.w3.org/1999/02/22-rdf-syntax-ns#"
   xmlns:svg="http://www.w3.org/2000/svg"
   xmlns="http://www.w3.org/2000/svg"
   xmlns:inkscape="http://www.inkscape.org/namespaces/inkscape"
   version="1.1"
   width="765"
   height="380"
   id="svg2"
   xml:space="preserve"><metadata
     id="metadata8"><rdf:RDF><cc:Work
         rdf:about=""><dc:format>image/svg+xml</dc:format><dc:type
           rdf:resource="http://purl.org/dc/dcmitype/StillImage" /></cc:Work></rdf:RDF></metadata><defs
     id="defs6" /><g
     transform="matrix(1.25,0,0,-1.25,0,990)"
     id="g10"><g
       transform="scale(0.1,0.1)"
       id="g12"><path
         d="m 1440,4930 1980,0 0,2800 -1980,0 0,-2800 z"
         inkscape:connector-curvature="0"
         id="path14"
         style="fill:#ffffff;fill-opacity:1;fill-rule:nonzero;stroke:none" /><path
         d="m 1440,4930 1980,0 0,2800 -1980,0 0,-2800"
         inkscape:connector-curvature="0"
         id="path16"
         style="fill:none;stroke:#000000;stroke-width:15;stroke-linecap:butt;stroke-linejoin:round;stroke-miterlimit:10;stroke-opacity:1;stroke-dasharray:none" /><path
         d="m 1440,4930 0,0"
         inkscape:connector-curvature="0"
         id="path18"
         style="fill:none;stroke:#000000;stroke-width:15;stroke-linecap:butt;stroke-linejoin:round;stroke-miterlimit:10;stroke-opacity:1;stroke-dasharray:none" /><path
         d="m 3420,4930 0,0"
         inkscape:connector-curvature="0"
         id="path20"
         style="fill:none;stroke:#000000;stroke-width:15;stroke-linecap:butt;stroke-linejoin:round;stroke-miterlimit:10;stroke-opacity:1;stroke-dasharray:none" /><path
         d="m 1440,7730 0,0"
         inkscape:connector-curvature="0"
         id="path22"
         style="fill:none;stroke:#000000;stroke-width:15;stroke-linecap:butt;stroke-linejoin:round;stroke-miterlimit:10;stroke-opacity:1;stroke-dasharray:none" /><path
         d="m 3420,7730 0,0"
         inkscape:connector-curvature="0"
         id="path24"
         style="fill:none;stroke:#000000;stroke-width:15;stroke-linecap:butt;stroke-linejoin:round;stroke-miterlimit:10;stroke-opacity:1;stroke-dasharray:none" /><path
         d="m 1440,4930 0,0"
         inkscape:connector-curvature="0"
         id="path26"
         style="fill:none;stroke:#000000;stroke-width:15;stroke-linecap:butt;stroke-linejoin:round;stroke-miterlimit:10;stroke-opacity:1;stroke-dasharray:none" /><path
         d="m 1440,7730 0,0"
         inkscape:connector-curvature="0"
         id="path28"
         style="fill:none;stroke:#000000;stroke-width:15;stroke-linecap:butt;stroke-linejoin:round;stroke-miterlimit:10;stroke-opacity:1;stroke-dasharray:none" /><path
         d="m 3420,4930 0,0"
         inkscape:connector-curvature="0"
         id="path30"
         style="fill:none;stroke:#000000;stroke-width:15;stroke-linecap:butt;stroke-linejoin:round;stroke-miterlimit:10;stroke-opacity:1;stroke-dasharray:none" /><path
         d="m 3420,7730 0,0"
         inkscape:connector-curvature="0"
         id="path32"
         style="fill:none;stroke:#000000;stroke-width:15;stroke-linecap:butt;stroke-linejoin:round;stroke-miterlimit:10;stroke-opacity:1;stroke-dasharray:none" /><path
         d="m 1975,5909 -20,1 -2,0 -18,2 -20,2 -20,1 -19,2 -20,2 -20,1 -20,1 -79,0 -20,-1 -20,-1 -19,-1 -20,-1 -20,-2 -20,-2 -20,-2 -12,-1 -7,0 -20,-1 -10,1 -10,3 -20,20 -1,5 1,5 5,23 10,28 5,12 6,16 11,28 3,8 7,20 9,28 4,16 3,12 7,28 5,28 4,28 0,1 4,27 3,28 1,28 1,28 -1,28 -1,28 -3,28 -4,27 0,1 -4,28 -5,28 -7,28 -3,13 -4,15 -9,28 -7,20 -3,8 -10,28 -7,21 -3,7 -10,28 -7,25 -1,3 1,5 20,20 10,3 10,1 20,0 7,-1 12,-1 20,-2 20,-2 20,-1 20,-2 19,-1 20,-1 20,-1 59,0 20,1 20,0 20,2 20,1 19,2 20,1 20,2 18,2 2,0 20,1 11,-1 8,-2 20,-9 9,-17 -6,-28 -3,-6 -8,-22 -11,-28 -1,-2 -10,-26 -9,-28 0,0 -10,-28 -7,-28 -3,-14 -4,-14 -6,-28 -4,-28 -3,-28 -2,-28 -1,-20 0,-8 -1,-28 1,-28 0,-8 1,-20 2,-28 3,-28 4,-28 6,-28 4,-14 3,-14 7,-28 10,-28 0,0 9,-28 10,-26 1,-2 10,-28 9,-27 0,-1 7,-28 -7,-17 -20,-9 -8,-2 -11,-1"
         inkscape:connector-curvature="0"
         id="path34"
         style="fill:none;stroke:#660000;stroke-width:15;stroke-linecap:butt;stroke-linejoin:round;stroke-miterlimit:10;stroke-opacity:1;stroke-dasharray:none" /><path
         d="m 1800,6134 13,-28 0,-28 -17,-19 -19,-8 -20,2 -20,12 -10,13 1,28 9,24 3,4 17,17 20,3 19,-14 4,-6"
         inkscape:connector-curvature="0"
         id="path36"
         style="fill:none;stroke:#660000;stroke-width:15;stroke-linecap:butt;stroke-linejoin:round;stroke-miterlimit:10;stroke-opacity:1;stroke-dasharray:none" /><path
         d="m 1796,6521 -19,-15 -20,3 -17,17 -3,4 -9,24 -1,28 10,13 20,12 20,2 19,-8 17,-19 0,-28 -13,-28 -4,-5"
         inkscape:connector-curvature="0"
         id="path38"
         style="fill:none;stroke:#660000;stroke-width:15;stroke-linecap:butt;stroke-linejoin:round;stroke-miterlimit:10;stroke-opacity:1;stroke-dasharray:none" /><path
         d="m 2179,6862 13,-13 20,-4 20,0 20,1 20,1 19,1 20,2 20,1 20,2 20,0 19,1 20,0 20,1 20,-1 20,0 19,-1 20,0 20,-2 20,-1 20,-2 19,-1 20,-1 20,-1 20,0 20,4 13,13 -4,28 -9,27 -1,1 -10,28 -9,28 0,0 -11,28 -8,28 -1,2 -8,26 -7,28 -5,26 0,2 -6,28 -4,28 -2,28 -2,28 -1,28 1,28 1,28 2,28 3,28 4,28 4,21 1,7 6,28 8,28 5,17 3,11 10,28 7,19 3,9 11,28 6,15 5,13 9,28 -5,28 -9,5 -20,3 -20,1 -20,-1 -20,-2 -19,-1 -20,-1 -20,-2 -20,-1 -20,0 -16,-1 -3,0 -20,-1 -40,0 -20,1 -3,0 -16,1 -20,0 -20,1 -20,2 -20,1 -19,1 -20,2 -20,1 -20,-1 -20,-3 -9,-5 -3,-28 9,-28 3,-9 7,-19 10,-28 3,-9 7,-19 10,-28 3,-11 5,-17 8,-28 6,-28 1,-7 4,-21 4,-28 3,-28 2,-28 1,-28 1,-28 -1,-28 -2,-28 -2,-28 -4,-28 -6,-28 0,-2 -5,-26 -7,-28 -8,-26 -1,-2 -8,-28 -11,-28 0,0 -10,-28 -10,-23 -2,-5 -9,-28 -2,-28"
         inkscape:connector-curvature="0"
         id="path40"
         style="fill:none;stroke:#660000;stroke-width:15;stroke-linecap:butt;stroke-linejoin:round;stroke-miterlimit:10;stroke-opacity:1;stroke-dasharray:none" /><path
         d="m 2390,7002 0,0 20,-12 20,-3 20,3 20,12 0,0 4,28 -4,18 -4,10 -16,22 -13,6 -7,3 -6,-3 -14,-6 -16,-22 -4,-10 -4,-18 4,-28"
         inkscape:connector-curvature="0"
         id="path42"
         style="fill:none;stroke:#660000;stroke-width:15;stroke-linecap:butt;stroke-linejoin:round;stroke-miterlimit:10;stroke-opacity:1;stroke-dasharray:none" /><path
         d="m 2450,7447 -20,-8 -20,8 -3,3 -17,26 0,2 -4,28 4,14 11,14 9,4 20,3 20,-3 9,-4 11,-14 4,-14 -4,-28 0,-2 -17,-26 -3,-3"
         inkscape:connector-curvature="0"
         id="path44"
         style="fill:none;stroke:#660000;stroke-width:15;stroke-linecap:butt;stroke-linejoin:round;stroke-miterlimit:10;stroke-opacity:1;stroke-dasharray:none" /><path
         d="m 2874,6750 -8,-2 -20,-9 -7,-17 7,-28 0,-1 9,-27 10,-28 1,-2 10,-26 9,-28 0,0 10,-28 7,-28 3,-14 4,-14 6,-28 4,-28 3,-28 2,-28 1,-20 0,-8 1,-28 -1,-28 0,-8 -1,-20 -2,-28 -3,-28 -4,-28 -6,-28 -4,-14 -3,-14 -7,-28 -10,-28 0,0 -9,-28 -10,-26 -1,-2 -11,-28 -8,-22 -3,-6 -6,-28 9,-17 20,-9 8,-2 11,-1 20,1 2,0 18,2 20,2 20,1 19,2 20,2 20,1 20,1 79,0 20,-1 20,-1 19,-1 20,-1 20,-2 20,-2 20,-2 12,-1 7,0 20,-1 10,1 10,3 20,20 1,5 -1,3 -7,25 -10,28 -3,8 -7,20 -10,28 -3,8 -7,20 -9,28 -4,16 -3,12 -7,28 -5,28 -4,28 0,1 -4,27 -3,28 -1,28 -1,28 1,28 1,28 3,28 4,27 0,1 4,28 5,28 7,28 3,13 4,15 9,28 7,20 3,8 11,28 6,16 5,12 10,28 5,23 1,5 -1,5 -20,20 -10,3 -10,1 -20,0 -7,-1 -12,-1 -20,-2 -20,-2 -20,-1 -20,-2 -19,-1 -20,-1 -20,-1 -59,0 -20,1 -20,0 -20,2 -20,1 -19,2 -20,1 -20,2 -18,2 -2,0 -20,1 -11,-1"
         inkscape:connector-curvature="0"
         id="path46"
         style="fill:none;stroke:#660000;stroke-width:15;stroke-linecap:butt;stroke-linejoin:round;stroke-miterlimit:10;stroke-opacity:1;stroke-dasharray:none" /><path
         d="m 3060,6526 4,-6 19,-14 20,3 17,17 3,4 9,24 1,28 -10,13 -20,12 -20,2 -19,-8 -17,-19 0,-28 13,-28"
         inkscape:connector-curvature="0"
         id="path48"
         style="fill:none;stroke:#660000;stroke-width:15;stroke-linecap:butt;stroke-linejoin:round;stroke-miterlimit:10;stroke-opacity:1;stroke-dasharray:none" /><path
         d="m 3060,6134 -13,-28 0,-28 17,-19 19,-8 20,2 20,12 10,13 -1,28 -9,24 -3,4 -17,17 -20,3 -19,-14 -4,-6"
         inkscape:connector-curvature="0"
         id="path50"
         style="fill:none;stroke:#660000;stroke-width:15;stroke-linecap:butt;stroke-linejoin:round;stroke-miterlimit:10;stroke-opacity:1;stroke-dasharray:none" /><path
         d="m 2681,5798 -2,-28 -9,-28 -2,-5 -10,-23 -10,-28 0,0 -11,-28 -8,-28 -1,-2 -8,-26 -7,-28 -5,-26 0,-2 -6,-28 -4,-28 -2,-28 -2,-28 -1,-28 1,-28 1,-28 2,-28 3,-28 4,-28 4,-20 1,-8 6,-28 8,-28 5,-17 3,-11 10,-28 7,-19 3,-9 10,-28 7,-18 3,-10 9,-28 -3,-28 -9,-5 -20,-3 -20,-1 -20,1 -20,2 -19,1 -20,2 -20,1 -20,1 -20,1 -19,0 -20,1 -40,0 -20,-1 -19,0 -20,-1 -20,-1 -20,-1 -20,-2 -19,-1 -20,-2 -20,-1 -20,1 -20,3 -9,5 -5,28 9,28 5,13 6,15 11,28 3,9 7,19 10,28 3,11 5,17 8,28 6,28 1,8 4,20 4,28 3,28 2,28 1,28 1,28 -1,28 -2,28 -2,28 -4,28 -6,28 0,2 -5,26 -7,28 -8,26 -1,2 -8,28 -11,28 0,0 -9,28 -10,28 -1,1 -9,27 -4,28 13,14 20,3 20,0 20,-1 20,-1 19,-1 20,-2 20,-1 20,-1 20,-1 19,-1 80,0 19,1 20,1 20,1 20,1 20,2 19,1 20,1 20,1 20,0 20,-3 13,-14"
         inkscape:connector-curvature="0"
         id="path52"
         style="fill:none;stroke:#660000;stroke-width:15;stroke-linecap:butt;stroke-linejoin:round;stroke-miterlimit:10;stroke-opacity:1;stroke-dasharray:none" /><path
         d="m 2470,5658 4,-28 -4,-18 -4,-10 -16,-21 -14,-7 -6,-2 -7,2 -13,7 -16,21 -4,10 -4,18 4,28 0,0 20,12 20,4 20,-4 20,-12 0,0"
         inkscape:connector-curvature="0"
         id="path54"
         style="fill:none;stroke:#660000;stroke-width:15;stroke-linecap:butt;stroke-linejoin:round;stroke-miterlimit:10;stroke-opacity:1;stroke-dasharray:none" /><path
         d="m 2407,5210 -17,-26 0,-2 -4,-28 4,-14 11,-14 9,-4 20,-3 20,3 9,4 11,14 4,14 -4,28 0,2 -17,26 -3,3 -20,8 -20,-8 -3,-3"
         inkscape:connector-curvature="0"
         id="path56"
         style="fill:none;stroke:#660000;stroke-width:15;stroke-linecap:butt;stroke-linejoin:round;stroke-miterlimit:10;stroke-opacity:1;stroke-dasharray:none" /><path
         d="m 2290,4930 1,0 20,5 20,4 20,2 20,2 19,2 20,1 40,0 20,-1 19,-2 20,-2 20,-2 20,-4 20,-5 1,0"
         inkscape:connector-curvature="0"
         id="path58"
         style="fill:none;stroke:#000000;stroke-width:15;stroke-linecap:round;stroke-linejoin:round;stroke-miterlimit:10;stroke-opacity:1;stroke-dasharray:144, 36;stroke-dashoffset:0" /><path
         d="m 2950,4930 -5,1 -20,4 -20,5 -20,7 -19,9 -4,2 -16,6 -20,11 -16,11 -4,2 -20,14 -12,12 -7,6 -20,22 0,0 -20,24 -3,4 -17,26 -1,2 -16,28 -3,6 -10,22 -9,25 -2,3 -10,28 -7,28 -1,7 -5,21 -5,28 -4,28 -2,28 -1,28 0,28 1,28 1,28 3,28 5,28 6,28 1,2 6,26 9,28 5,13 5,15 13,28 1,3 13,25 7,12 11,16 9,14 11,14 9,11 17,17 3,3 19,18 11,7 9,8 20,12 16,8 4,2 20,10 19,8 20,6 8,2 12,4 20,5 20,5 19,3 20,3 20,2 20,1 20,1 19,1 20,-1 20,0 20,-1 20,-2 19,-2 20,-3 20,-4 20,-4 20,-6 5,-2 14,-4 20,-6 20,-9 17,-9 3,-1 20,-10 19,-15 3,-2 17,-12 16,-16 4,-4 0,-836"
         inkscape:connector-curvature="0"
         id="path60"
         style="fill:none;stroke:#000000;stroke-width:15;stroke-linecap:round;stroke-linejoin:round;stroke-miterlimit:10;stroke-opacity:1;stroke-dasharray:144, 36;stroke-dashoffset:0" /><path
         d="m 3420,5722 -20,20 0,0 -20,19 -12,9 -7,6 -20,14 -17,8 -3,2 -20,11 -20,8 -19,7 -2,0 -18,7 -20,5 -20,5 -20,3 -19,3 -20,2 -20,1 -20,1 -20,0 -19,-1 -20,-1 -20,-1 -20,-3 -20,-3 -19,-4 -20,-5 -20,-7 -5,-2 -15,-4 -20,-8 -19,-10 -11,-6 -9,-5 -20,-12 -14,-11 -6,-4 -20,-17 -7,-7 -12,-13 -13,-15 -7,-8 -14,-20 -6,-8 -12,-20 -8,-15 -6,-13 -12,-28 -2,-5 -8,-23 -8,-28 -3,-16 -4,-12 -5,-28 -3,-28 -2,-28 -1,-28 0,-28 1,-28 3,-28 4,-28 6,-28 1,-3 5,-25 9,-28 5,-14 5,-14 14,-28 1,-3 14,-25 6,-10 12,-18 8,-10 15,-18 5,-6 19,-19 4,-3 16,-15 19,-13 1,-1 20,-13 20,-11 8,-3 11,-6 20,-9 20,-6 20,-6 7,-1 13,-4 19,-5 20,-3 20,-3 20,-2 20,-1 59,0 20,2 20,2 19,3 20,4 20,5 6,2 14,3 20,6 19,7 20,9 5,3 15,7 20,11 14,10 6,4 19,14 11,10 9,8 18,20 2,2"
         inkscape:connector-curvature="0"
         id="path62"
         style="fill:none;stroke:#000000;stroke-width:15;stroke-linecap:round;stroke-linejoin:round;stroke-miterlimit:10;stroke-opacity:1;stroke-dasharray:144, 36;stroke-dashoffset:0" /><path
         d="m 3420,5026 -14,-12 -6,-6 -20,-16 -10,-6 -9,-7 -20,-12 -20,-8 -3,-1 -17,-8 -20,-8 -19,-5 -20,-5 -12,-2 190,0"
         inkscape:connector-curvature="0"
         id="path64"
         style="fill:none;stroke:#000000;stroke-width:15;stroke-linecap:round;stroke-linejoin:round;stroke-miterlimit:10;stroke-opacity:1;stroke-dasharray:144, 36;stroke-dashoffset:0" /><path
         d="m 3420,5960 -5,6 -15,16 -9,12 -11,14 -9,14 -10,18 -6,10 -13,28 -1,2 -12,26 -8,25 -1,3 -9,28 -6,28 -4,22 -1,6 -5,28 -2,28 -2,28 -1,28 1,28 2,28 2,28 5,28 1,7 4,21 6,28 9,28 1,3 8,25 12,26 1,2 13,28 6,10 10,18 9,14 11,14 9,12 15,16 5,6"
         inkscape:connector-curvature="0"
         id="path66"
         style="fill:none;stroke:#000000;stroke-width:15;stroke-linecap:round;stroke-linejoin:round;stroke-miterlimit:10;stroke-opacity:1;stroke-dasharray:144, 36;stroke-dashoffset:0" /><path
         d="m 3420,6655 -14,-17 -6,-8 -14,-20 -6,-10 -10,-18 -9,-19 -4,-9 -12,-28 -4,-14 -5,-14 -8,-28 -5,-28 -2,-13 -3,-15 -3,-28 -2,-28 -1,-28 1,-28 2,-28 3,-28 3,-15 2,-13 5,-28 8,-28 5,-14 4,-14 12,-28 4,-8 9,-20 10,-18 6,-10 14,-20 6,-8 14,-17"
         inkscape:connector-curvature="0"
         id="path68"
         style="fill:none;stroke:#000000;stroke-width:15;stroke-linecap:round;stroke-linejoin:round;stroke-miterlimit:10;stroke-opacity:1;stroke-dasharray:144, 36;stroke-dashoffset:0" /><path
         d="m 3420,6894 -4,-4 -16,-16 -17,-12 -3,-2 -19,-15 -20,-10 -3,-1 -17,-9 -20,-9 -20,-6 -14,-4 -5,-2 -20,-6 -20,-4 -20,-4 -20,-3 -19,-2 -20,-2 -20,-1 -59,0 -20,1 -20,1 -20,2 -20,3 -19,3 -20,5 -20,5 -12,4 -8,2 -20,6 -19,8 -20,10 -4,2 -16,8 -20,12 -9,8 -11,7 -19,18 -3,3 -17,18 -9,10 -11,14 -9,14 -11,16 -7,12 -13,25 -1,3 -13,28 -5,15 -5,13 -9,28 -6,26 -1,2 -6,28 -5,28 -3,28 -1,28 -1,28 0,28 1,28 2,28 4,28 5,28 5,21 1,7 7,28 10,28 2,4 9,24 10,22 3,6 16,28 1,2 17,26 3,4 20,24 0,0 20,22 7,6 12,12 20,14 4,2 16,11 20,11 16,6 4,2 19,9 20,7 20,5 20,4 5,1 470,0"
         inkscape:connector-curvature="0"
         id="path70"
         style="fill:none;stroke:#000000;stroke-width:15;stroke-linecap:round;stroke-linejoin:round;stroke-miterlimit:10;stroke-opacity:1;stroke-dasharray:144, 36;stroke-dashoffset:0" /><path
         d="m 3230,7730 12,-2 20,-5 19,-5 20,-8 17,-8 3,-1 20,-8 20,-12 9,-7 10,-6 20,-16 6,-6 14,-12 0,96"
         inkscape:connector-curvature="0"
         id="path72"
         style="fill:none;stroke:#000000;stroke-width:15;stroke-linecap:round;stroke-linejoin:round;stroke-miterlimit:10;stroke-opacity:1;stroke-dasharray:144, 36;stroke-dashoffset:0" /><path
         d="m 3420,7588 -2,2 -18,20 -9,8 -11,10 -19,15 -6,3 -14,10 -20,12 -15,6 -5,3 -20,9 -19,8 -20,5 -14,3 -6,2 -20,5 -20,4 -19,3 -20,2 -20,2 -20,0 -20,1 -19,-1 -20,-1 -20,-2 -20,-3 -20,-3 -19,-5 -13,-4 -7,-1 -20,-5 -20,-7 -20,-9 -11,-6 -8,-3 -20,-10 -20,-14 -1,-1 -19,-13 -16,-15 -4,-3 -19,-19 -5,-6 -15,-17 -8,-11 -12,-18 -6,-10 -14,-25 -1,-3 -14,-28 -5,-14 -5,-14 -9,-28 -5,-25 -1,-3 -6,-28 -4,-28 -3,-28 -1,-28 0,-28 1,-28 2,-28 3,-28 5,-28 4,-12 3,-16 8,-28 8,-23 2,-5 12,-28 6,-13 8,-15 12,-19 6,-9 14,-20 7,-8 13,-15 12,-13 7,-7 20,-17 6,-4 14,-11 20,-12 9,-5 11,-6 19,-10 20,-7 15,-5 5,-2 20,-7 20,-5 19,-4 20,-3 20,-2 20,-2 20,-1 19,-1 20,1 20,0 20,1 20,2 19,3 20,3 20,5 20,5 18,7 2,1 19,6 20,8 20,11 3,2 17,9 20,13 7,6 12,9 20,19 0,0 20,20"
         inkscape:connector-curvature="0"
         id="path74"
         style="fill:none;stroke:#000000;stroke-width:15;stroke-linecap:round;stroke-linejoin:round;stroke-miterlimit:10;stroke-opacity:1;stroke-dasharray:144, 36;stroke-dashoffset:0" /><path
         d="m 2570,7730 -1,0 -20,-5 -20,-3 -20,-3 -20,-2 -19,-2 -20,-1 -40,0 -20,1 -19,2 -20,2 -20,3 -20,3 -20,5 -1,0"
         inkscape:connector-curvature="0"
         id="path76"
         style="fill:none;stroke:#000000;stroke-width:15;stroke-linecap:round;stroke-linejoin:round;stroke-miterlimit:10;stroke-opacity:1;stroke-dasharray:144, 36;stroke-dashoffset:0" /><path
         d="m 1910,7730 5,-1 20,-4 20,-5 20,-7 19,-9 4,-2 16,-6 20,-11 16,-11 4,-2 20,-14 12,-12 7,-6 20,-22 0,0 20,-24 3,-4 17,-26 1,-2 16,-28 3,-6 10,-22 9,-24 2,-4 10,-28 7,-28 1,-7 5,-21 5,-28 4,-28 2,-28 1,-28 0,-28 -1,-28 -1,-28 -3,-28 -5,-28 -6,-28 -1,-2 -6,-26 -9,-28 -5,-13 -5,-15 -13,-28 -1,-3 -13,-25 -7,-12 -11,-16 -9,-14 -11,-14 -9,-10 -17,-18 -3,-3 -19,-18 -11,-7 -9,-8 -20,-12 -16,-8 -4,-2 -20,-10 -19,-8 -20,-6 -8,-2 -12,-4 -20,-5 -20,-5 -19,-3 -20,-3 -20,-2 -20,-1 -20,-1 -59,0 -20,1 -20,2 -19,2 -20,3 -20,4 -20,4 -20,6 -5,2 -14,4 -20,6 -20,9 -17,9 -3,1 -20,10 -19,15 -3,2 -17,12 -16,16 -4,4 0,836"
         inkscape:connector-curvature="0"
         id="path78"
         style="fill:none;stroke:#000000;stroke-width:15;stroke-linecap:round;stroke-linejoin:round;stroke-miterlimit:10;stroke-opacity:1;stroke-dasharray:144, 36;stroke-dashoffset:0" /><path
         d="m 1440,6938 20,-20 0,0 20,-19 12,-9 7,-6 20,-13 17,-9 3,-2 20,-11 20,-8 19,-6 2,-1 18,-7 20,-5 20,-5 20,-3 19,-3 20,-2 20,-1 20,0 20,-1 19,1 20,1 20,2 20,2 20,3 19,4 20,5 20,7 5,2 15,5 20,7 19,10 11,6 9,5 20,12 14,11 6,4 20,17 7,7 12,13 13,15 7,8 14,20 6,9 12,19 8,15 6,13 12,28 2,5 8,23 8,28 3,16 4,12 5,28 3,28 2,28 1,28 0,28 -1,28 -3,28 -4,28 -6,28 -1,3 -5,25 -9,28 -5,14 -5,14 -14,28 -1,3 -14,25 -6,10 -12,18 -8,11 -15,17 -5,6 -19,19 -4,3 -16,15 -19,13 -1,1 -20,14 -20,10 -8,3 -11,6 -20,9 -20,7 -20,5 -7,1 -13,4 -19,5 -20,3 -20,3 -20,2 -20,1 -19,1 -20,-1 -20,0 -20,-2 -20,-2 -19,-3 -20,-4 -20,-5 -6,-2 -14,-3 -20,-5 -19,-8 -20,-9 -5,-3 -15,-6 -20,-12 -14,-10 -6,-3 -19,-15 -11,-10 -9,-8 -18,-20 -2,-2"
         inkscape:connector-curvature="0"
         id="path80"
         style="fill:none;stroke:#000000;stroke-width:15;stroke-linecap:round;stroke-linejoin:round;stroke-miterlimit:10;stroke-opacity:1;stroke-dasharray:144, 36;stroke-dashoffset:0" /><path
         d="m 1440,7634 14,12 6,6 20,16 10,6 9,7 20,12 20,8 3,1 17,8 20,8 19,5 20,5 12,2 -190,0"
         inkscape:connector-curvature="0"
         id="path82"
         style="fill:none;stroke:#000000;stroke-width:15;stroke-linecap:round;stroke-linejoin:round;stroke-miterlimit:10;stroke-opacity:1;stroke-dasharray:144, 36;stroke-dashoffset:0" /><path
         d="m 1440,6700 5,-6 15,-16 9,-12 11,-14 9,-14 10,-18 6,-10 13,-28 1,-2 12,-26 8,-25 1,-3 9,-28 6,-28 4,-21 1,-7 5,-28 2,-28 2,-28 1,-28 -1,-28 -2,-28 -2,-28 -5,-28 -1,-6 -4,-22 -6,-28 -9,-28 -1,-3 -8,-25 -12,-26 -1,-2 -13,-28 -6,-10 -10,-18 -9,-14 -11,-14 -9,-12 -15,-16 -5,-6"
         inkscape:connector-curvature="0"
         id="path84"
         style="fill:none;stroke:#000000;stroke-width:15;stroke-linecap:round;stroke-linejoin:round;stroke-miterlimit:10;stroke-opacity:1;stroke-dasharray:144, 36;stroke-dashoffset:0" /><path
         d="m 1440,6005 14,17 6,8 14,20 6,10 10,18 9,20 4,8 12,28 4,14 5,14 8,28 5,28 2,13 3,15 3,28 2,28 1,28 -1,28 -2,28 -3,28 -3,15 -2,13 -5,28 -8,28 -5,14 -4,14 -12,28 -4,9 -9,19 -10,18 -6,10 -14,20 -6,8 -14,17"
         inkscape:connector-curvature="0"
         id="path86"
         style="fill:none;stroke:#000000;stroke-width:15;stroke-linecap:round;stroke-linejoin:round;stroke-miterlimit:10;stroke-opacity:1;stroke-dasharray:144, 36;stroke-dashoffset:0" /><path
         d="m 1440,5766 4,4 16,16 17,12 3,2 19,15 20,10 3,1 17,9 20,9 20,6 14,4 5,2 20,6 20,4 20,4 20,3 19,2 20,2 20,1 20,0 20,1 19,-1 20,-1 20,-1 20,-2 20,-3 19,-3 20,-5 20,-5 12,-4 8,-2 20,-6 19,-8 20,-10 4,-2 16,-8 20,-12 9,-8 11,-7 19,-18 3,-3 17,-17 9,-11 11,-14 9,-14 11,-16 7,-12 13,-25 1,-3 13,-28 5,-15 5,-13 9,-28 6,-26 1,-2 6,-28 5,-28 3,-28 1,-28 1,-28 0,-28 -1,-28 -2,-28 -4,-28 -5,-28 -5,-21 -1,-7 -7,-28 -10,-28 -2,-3 -9,-25 -10,-22 -3,-6 -16,-28 -1,-2 -17,-26 -3,-4 -20,-24 0,0 -20,-22 -7,-6 -12,-12 -20,-14 -4,-2 -16,-11 -20,-11 -16,-6 -4,-2 -19,-9 -20,-7 -20,-5 -20,-4 -5,-1 -470,0"
         inkscape:connector-curvature="0"
         id="path88"
         style="fill:none;stroke:#000000;stroke-width:15;stroke-linecap:round;stroke-linejoin:round;stroke-miterlimit:10;stroke-opacity:1;stroke-dasharray:144, 36;stroke-dashoffset:0" /><path
         d="m 1630,4930 -12,2 -20,5 -19,5 -20,8 -17,8 -3,1 -20,8 -20,12 -9,7 -10,6 -20,16 -6,6 -14,12 0,-96"
         inkscape:connector-curvature="0"
         id="path90"
         style="fill:none;stroke:#000000;stroke-width:15;stroke-linecap:round;stroke-linejoin:round;stroke-miterlimit:10;stroke-opacity:1;stroke-dasharray:144, 36;stroke-dashoffset:0" /><path
         d="m 1440,5072 2,-2 18,-20 9,-8 11,-10 19,-14 6,-4 14,-10 20,-11 15,-7 5,-3 20,-9 19,-7 20,-6 14,-3 6,-2 20,-5 20,-4 19,-3 20,-2 20,-2 59,0 20,1 20,2 20,3 20,3 19,5 13,4 7,1 20,6 20,6 20,9 11,6 8,3 20,11 20,13 1,1 19,13 16,15 4,3 19,19 5,6 15,18 8,10 12,18 6,10 14,25 1,3 14,28 5,14 5,14 9,28 5,25 1,3 6,28 4,28 3,28 1,28 0,28 -1,28 -2,28 -3,28 -5,28 -4,12 -3,16 -8,28 -8,23 -2,5 -12,28 -6,13 -8,15 -12,20 -6,8 -14,20 -7,8 -13,15 -12,13 -7,7 -20,17 -6,4 -14,11 -20,12 -9,5 -11,6 -19,10 -20,8 -15,4 -5,2 -20,7 -20,5 -19,4 -20,3 -20,3 -20,1 -20,1 -19,1 -20,0 -20,-1 -20,-1 -20,-2 -19,-3 -20,-3 -20,-5 -20,-5 -18,-7 -2,0 -19,-7 -20,-8 -20,-11 -3,-2 -17,-8 -20,-14 -7,-6 -12,-9 -20,-19 0,0 -20,-20"
         inkscape:connector-curvature="0"
         id="path92"
         style="fill:none;stroke:#000000;stroke-width:15;stroke-linecap:round;stroke-linejoin:round;stroke-miterlimit:10;stroke-opacity:1;stroke-dasharray:144, 36;stroke-dashoffset:0" /><path
         d="m 1973,6274 2,-13 1,-15 3,-28 5,-28 8,-28 2,-9 5,-19 10,-28 5,-11 7,-17 13,-25 1,-3 17,-28 2,-3 17,-25 3,-3 19,-23 2,-2 18,-19 12,-9 8,-7 20,-14 12,-7 8,-5 19,-11 20,-8 13,-4 7,-3 20,-7 20,-6 19,-4 20,-4 20,-2 15,-2 5,-1 20,-2 19,-2 20,-1 40,0 20,1 19,2 20,2 5,1 15,2 20,2 20,4 19,4 20,6 20,7 7,3 13,4 20,8 19,11 8,5 12,7 20,14 8,7 12,9 18,19 2,2 19,23 3,3 17,25 2,3 17,28 1,3 13,25 7,17 5,11 10,28 5,19 2,9 8,28 5,28 3,28 1,15 2,13 2,28 0,56 -2,28 -2,13 -1,15 -3,28 -5,28 -8,28 -2,9 -5,19 -10,28 -5,11 -7,17 -13,25 -1,3 -17,28 -2,3 -17,25 -3,3 -19,23 -2,2 -18,19 -12,9 -8,7 -20,15 -12,6 -8,5 -19,11 -20,8 -13,4 -7,3 -20,7 -20,6 -19,4 -20,4 -20,3 -15,1 -5,1 -20,2 -19,2 -20,1 -40,0 -20,-1 -19,-2 -20,-2 -5,-1 -15,-1 -20,-3 -20,-4 -19,-4 -20,-6 -20,-7 -7,-3 -13,-4 -20,-8 -19,-11 -8,-5 -12,-6 -20,-15 -8,-7 -12,-9 -18,-19 -2,-2 -19,-23 -3,-3 -17,-25 -2,-3 -17,-28 -1,-3 -13,-25 -7,-17 -5,-11 -10,-28 -5,-19 -2,-9 -8,-28 -5,-28 -3,-28 -1,-15 -2,-13 -2,-28 0,-56 2,-28"
         inkscape:connector-curvature="0"
         id="path94"
         style="fill:none;stroke:#000000;stroke-width:15;stroke-linecap:round;stroke-linejoin:round;stroke-miterlimit:10;stroke-opacity:1;stroke-dasharray:144, 36;stroke-dashoffset:0" /><path
         d="m 1994,6302 0,-8 1,-20 3,-28 4,-28 6,-28 6,-20 2,-8 9,-28 9,-21 3,-7 13,-28 4,-6 12,-22 8,-11 12,-17 7,-9 17,-19 3,-3 20,-19 7,-6 13,-11 20,-13 6,-4 13,-9 20,-10 20,-8 3,-1 17,-7 20,-7 19,-6 20,-4 20,-3 5,-1 15,-3 20,-3 19,-1 20,-2 40,0 20,2 19,1 20,3 15,3 5,1 20,3 20,4 19,6 20,7 17,7 3,1 20,8 20,10 13,9 6,4 20,13 13,11 7,6 20,19 3,3 17,19 7,9 12,17 8,11 12,22 4,6 13,28 3,7 9,21 9,28 2,8 6,20 6,28 4,28 3,28 1,20 0,8 1,28 -1,28 0,8 -1,20 -3,28 -4,28 -6,28 -6,20 -2,8 -9,28 -9,21 -3,7 -13,28 -4,7 -12,21 -8,11 -12,17 -7,9 -17,19 -3,3 -20,19 -7,6 -13,11 -20,13 -6,4 -13,9 -20,10 -20,8 -3,1 -17,8 -20,7 -19,5 -20,4 -20,3 -5,1 -15,3 -20,3 -19,2 -20,1 -40,0 -20,-1 -19,-2 -20,-3 -15,-3 -5,-1 -20,-3 -20,-4 -19,-5 -20,-7 -17,-8 -3,-1 -20,-8 -20,-10 -13,-9 -6,-4 -20,-13 -13,-11 -7,-6 -20,-19 -3,-3 -17,-19 -7,-9 -12,-17 -8,-11 -12,-21 -4,-7 -13,-28 -3,-7 -9,-21 -9,-28 -2,-8 -6,-20 -6,-28 -4,-28 -3,-28 -1,-20 0,-8 -1,-28 1,-28"
         inkscape:connector-curvature="0"
         id="path96"
         style="fill:none;stroke:#000000;stroke-width:15;stroke-linecap:round;stroke-linejoin:round;stroke-miterlimit:10;stroke-opacity:1;stroke-dasharray:144, 36;stroke-dashoffset:0" /><path
         d="m 1704.72,6416.8 144.555,0 0,117 -144.555,0 0,-117 z"
         inkscape:connector-curvature="0"
         id="path98"
         style="fill:#ffffff;fill-opacity:1;fill-rule:nonzero;stroke:none" /><g
         transform="scale(10,10)"
         id="g100"><text
           transform="matrix(1,0,0,-1,170.472,644.8)"
           id="text102"><tspan
             x="0 7.2280002"
             y="0"
             id="tspan104"
             style="font-size:13px;font-variant:normal;font-weight:normal;writing-mode:lr-tb;fill:#000000;fill-opacity:1;fill-rule:nonzero;stroke:none;font-family:Helvetica;-inkscape-font-specification:Helvetica">45</tspan></text>
</g><path
         d="m 1921.72,5853.8 144.555,0 0,117 -144.555,0 0,-117 z"
         inkscape:connector-curvature="0"
         id="path106"
         style="fill:#ffffff;fill-opacity:1;fill-rule:nonzero;stroke:none" /><g
         transform="scale(10,10)"
         id="g108"><text
           transform="matrix(1,0,0,-1,192.172,588.5)"
           id="text110"><tspan
             x="0 7.2280002"
             y="0"
             id="tspan112"
             style="font-size:13px;font-variant:normal;font-weight:normal;writing-mode:lr-tb;fill:#000000;fill-opacity:1;fill-rule:nonzero;stroke:none;font-family:Helvetica;-inkscape-font-specification:Helvetica">55</tspan></text>
</g><path
         d="m 1012.42,7747.6 2835.16,0 0,144 -2835.16,0 0,-144 z"
         inkscape:connector-curvature="0"
         id="path114"
         style="fill:#ffffff;fill-opacity:1;fill-rule:nonzero;stroke:none" /><g
         transform="scale(10,10)"
         id="g116"><text
           transform="matrix(1,0,0,-1,101.242,778.6)"
           id="text118"><tspan
             x="0 10.672 18.672001 25.775999 31.104 39.104 46.208 50.208 58.208 65.311996 73.311996 79.536003 83.984001 88.431999 96.431999 100.432 104.88 112.88 116.88 124.88 131.98399 139.088 143.088 153.75999 161.75999 167.088 175.088 187.536 191.98399 199.98399 212.43201 216.43201 221.75999 229.75999"
             y="0"
             id="tspan120"
             style="font-size:16px;font-variant:normal;font-weight:normal;writing-mode:lr-tb;fill:#000000;fill-opacity:1;fill-rule:nonzero;stroke:none;font-family:Times New Roman;-inkscape-font-specification:Times-Roman">Charge density in bcc Chromium (10</tspan></text>
<text
           transform="matrix(1,0,0,-1,339.002,783.88008)"
           id="text122"><tspan
             x="0 3.5697601"
             y="0"
             id="tspan124"
             style="font-size:10.72000027px;font-variant:normal;font-weight:normal;writing-mode:lr-tb;fill:#000000;fill-opacity:1;fill-rule:nonzero;stroke:none;font-family:Times New Roman;-inkscape-font-specification:Times-Roman">-3</tspan></text>
<text
           transform="matrix(1,0,0,-1,351.93169,778.6)"
           id="text126"><tspan
             x="0 7.1040001 11.104 19.104 23.104"
             y="0"
             id="tspan128"
             style="font-size:16px;font-variant:normal;font-weight:normal;writing-mode:lr-tb;fill:#000000;fill-opacity:1;fill-rule:nonzero;stroke:none;font-family:Times New Roman;-inkscape-font-specification:Times-Roman">a.u.)</tspan></text>
</g></g></g></svg>
