<?xml version="1.0" encoding="UTF-8" standalone="no"?>
<!-- Created with Inkscape (http://www.inkscape.org/) -->

<svg
   xmlns:dc="http://purl.org/dc/elements/1.1/"
   xmlns:cc="http://creativecommons.org/ns#"
   xmlns:rdf="http://www.w3.org/1999/02/22-rdf-syntax-ns#"
   xmlns:svg="http://www.w3.org/2000/svg"
   xmlns="http://www.w3.org/2000/svg"
   xmlns:inkscape="http://www.inkscape.org/namespaces/inkscape"
   version="1.1"
   width="765"
   height="350"
   id="svg2"
   xml:space="preserve"><metadata
     id="metadata8"><rdf:RDF><cc:Work
         rdf:about=""><dc:format>image/svg+xml</dc:format><dc:type
           rdf:resource="http://purl.org/dc/dcmitype/StillImage" /></cc:Work></rdf:RDF></metadata><defs
     id="defs6"><clipPath
       id="clipPath72"><path
         d="m 1548,5508 0,2160 2160,0 0,-2160 -2160,0 z"
         inkscape:connector-curvature="0"
         id="path74" /></clipPath></defs><g
     transform="matrix(1.25,0,0,-1.25,0,990)"
     id="g10"><g
       transform="scale(0.1,0.1)"
       id="g12"><path
         d="m 1440,5400 2376,0"
         inkscape:connector-curvature="0"
         id="path14"
         style="fill:none;stroke:#000000;stroke-width:15;stroke-linecap:butt;stroke-linejoin:round;stroke-miterlimit:10;stroke-opacity:1;stroke-dasharray:none" /><path
         d="m 1440,7776 0,-2376"
         inkscape:connector-curvature="0"
         id="path16"
         style="fill:none;stroke:#000000;stroke-width:15;stroke-linecap:butt;stroke-linejoin:round;stroke-miterlimit:10;stroke-opacity:1;stroke-dasharray:none" /><path
         d="m 1714,5400 0,36"
         inkscape:connector-curvature="0"
         id="path18"
         style="fill:none;stroke:#000000;stroke-width:15;stroke-linecap:butt;stroke-linejoin:round;stroke-miterlimit:10;stroke-opacity:1;stroke-dasharray:none" /><path
         d="m 2046,5400 0,59"
         inkscape:connector-curvature="0"
         id="path20"
         style="fill:none;stroke:#000000;stroke-width:15;stroke-linecap:butt;stroke-linejoin:round;stroke-miterlimit:10;stroke-opacity:1;stroke-dasharray:none" /><g
         transform="scale(10,10)"
         id="g22"><text
           transform="matrix(1,0,0,-1,198.6,518.4)"
           id="text24"><tspan
             x="0"
             y="0"
             id="tspan26"
             style="font-size:24px;font-variant:normal;font-weight:normal;writing-mode:lr-tb;fill:#000000;fill-opacity:1;fill-rule:nonzero;stroke:none;font-family:Symbol;-inkscape-font-specification:Symbol">1</tspan></text>
</g><path
         d="m 2379,5400 0,36"
         inkscape:connector-curvature="0"
         id="path28"
         style="fill:none;stroke:#000000;stroke-width:15;stroke-linecap:butt;stroke-linejoin:round;stroke-miterlimit:10;stroke-opacity:1;stroke-dasharray:none" /><path
         d="m 2711,5400 0,59"
         inkscape:connector-curvature="0"
         id="path30"
         style="fill:none;stroke:#000000;stroke-width:15;stroke-linecap:butt;stroke-linejoin:round;stroke-miterlimit:10;stroke-opacity:1;stroke-dasharray:none" /><g
         transform="scale(10,10)"
         id="g32"><text
           transform="matrix(1,0,0,-1,265.1,518.4)"
           id="text34"><tspan
             x="0"
             y="0"
             id="tspan36"
             style="font-size:24px;font-variant:normal;font-weight:normal;writing-mode:lr-tb;fill:#000000;fill-opacity:1;fill-rule:nonzero;stroke:none;font-family:Symbol;-inkscape-font-specification:Symbol">2</tspan></text>
</g><path
         d="m 3043,5400 0,36"
         inkscape:connector-curvature="0"
         id="path38"
         style="fill:none;stroke:#000000;stroke-width:15;stroke-linecap:butt;stroke-linejoin:round;stroke-miterlimit:10;stroke-opacity:1;stroke-dasharray:none" /><path
         d="m 3376,5400 0,59"
         inkscape:connector-curvature="0"
         id="path40"
         style="fill:none;stroke:#000000;stroke-width:15;stroke-linecap:butt;stroke-linejoin:round;stroke-miterlimit:10;stroke-opacity:1;stroke-dasharray:none" /><g
         transform="scale(10,10)"
         id="g42"><text
           transform="matrix(1,0,0,-1,331.6,518.4)"
           id="text44"><tspan
             x="0"
             y="0"
             id="tspan46"
             style="font-size:24px;font-variant:normal;font-weight:normal;writing-mode:lr-tb;fill:#000000;fill-opacity:1;fill-rule:nonzero;stroke:none;font-family:Symbol;-inkscape-font-specification:Symbol">3</tspan></text>
</g><path
         d="m 3708,5400 0,36"
         inkscape:connector-curvature="0"
         id="path48"
         style="fill:none;stroke:#000000;stroke-width:15;stroke-linecap:butt;stroke-linejoin:round;stroke-miterlimit:10;stroke-opacity:1;stroke-dasharray:none" /><path
         d="m 1440,5508 59,0"
         inkscape:connector-curvature="0"
         id="path50"
         style="fill:none;stroke:#000000;stroke-width:15;stroke-linecap:butt;stroke-linejoin:round;stroke-miterlimit:10;stroke-opacity:1;stroke-dasharray:none" /><path
         d="m 1440,5778 36,0"
         inkscape:connector-curvature="0"
         id="path52"
         style="fill:none;stroke:#000000;stroke-width:15;stroke-linecap:butt;stroke-linejoin:round;stroke-miterlimit:10;stroke-opacity:1;stroke-dasharray:none" /><path
         d="m 1440,6048 59,0"
         inkscape:connector-curvature="0"
         id="path54"
         style="fill:none;stroke:#000000;stroke-width:15;stroke-linecap:butt;stroke-linejoin:round;stroke-miterlimit:10;stroke-opacity:1;stroke-dasharray:none" /><path
         d="m 1440,6318 36,0"
         inkscape:connector-curvature="0"
         id="path56"
         style="fill:none;stroke:#000000;stroke-width:15;stroke-linecap:butt;stroke-linejoin:round;stroke-miterlimit:10;stroke-opacity:1;stroke-dasharray:none" /><path
         d="m 1440,6588 59,0"
         inkscape:connector-curvature="0"
         id="path58"
         style="fill:none;stroke:#000000;stroke-width:15;stroke-linecap:butt;stroke-linejoin:round;stroke-miterlimit:10;stroke-opacity:1;stroke-dasharray:none" /><path
         d="m 1440,6858 36,0"
         inkscape:connector-curvature="0"
         id="path60"
         style="fill:none;stroke:#000000;stroke-width:15;stroke-linecap:butt;stroke-linejoin:round;stroke-miterlimit:10;stroke-opacity:1;stroke-dasharray:none" /><path
         d="m 1440,7128 59,0"
         inkscape:connector-curvature="0"
         id="path62"
         style="fill:none;stroke:#000000;stroke-width:15;stroke-linecap:butt;stroke-linejoin:round;stroke-miterlimit:10;stroke-opacity:1;stroke-dasharray:none" /><path
         d="m 1440,7398 36,0"
         inkscape:connector-curvature="0"
         id="path64"
         style="fill:none;stroke:#000000;stroke-width:15;stroke-linecap:butt;stroke-linejoin:round;stroke-miterlimit:10;stroke-opacity:1;stroke-dasharray:none" /><path
         d="m 1440,7668 59,0"
         inkscape:connector-curvature="0"
         id="path66"
         style="fill:none;stroke:#000000;stroke-width:15;stroke-linecap:butt;stroke-linejoin:round;stroke-miterlimit:10;stroke-opacity:1;stroke-dasharray:none" /><g
         id="g68"><g
           clip-path="url(#clipPath72)"
           id="g70"><path
             d="m 1553,6337 17,-3 18,-2 18,-3 18,-3 18,-3 18,-3 17,-4 18,-3 18,-4 18,-4 18,-5 18,-4 17,-5 18,-4 18,-5 18,-6 18,-5 18,-5 17,-6 18,-6 18,-6 18,-6 18,-6 18,-6 17,-7 18,-6 18,-7 18,-7 18,-7 18,-7 17,-7 18,-7 18,-7 18,-8 18,-7 18,-8 17,-7 18,-8 18,-7 18,-8 18,-8 18,-8 17,-7 18,-8 18,-8 18,-8 18,-8 18,-8 17,-8 18,-8 18,-7 18,-8 18,-8 18,-8 17,-8 18,-8 18,-8 18,-7 18,-8 18,-8 17,-7 18,-8 18,-7 18,-8 18,-7 18,-8 17,-7 18,-7 18,-7 18,-7 18,-8 18,-6 17,-7 18,-7 18,-7 18,-7 18,-6 18,-7 17,-6 18,-7 18,-6 18,-6 18,-6 18,-6 17,-6 18,-6 18,-6 18,-5 18,-6 18,-5 17,-6 18,-5 18,-5 18,-5 18,-5 18,-5 17,-5 18,-5 18,-5 18,-4 18,-5 18,-4 17,-5 18,-4 18,-4 18,-4 18,-4 18,-4 17,-4 18,-4 18,-3 18,-4 18,-4 18,-3 17,-3 18,-4 18,-3 18,-3 18,-3 18,-3 17,-3 18,-3 18,-3 18,-3 18,-3 18,-2 17,-3 18,-3 18,-2 18,-2 18,-3 18,-2 17,-2 18,-3 18,-2 18,-2 18,-2 18,-2 17,-2 18,-2 18,-2 18,-2 18,-1 18,-2 17,-2 18,-1 18,-2 18,-2 18,-1 18,-2 17,-1 18,-2 18,-1 18,-1 18,-2 18,-1 17,-1 18,-1 18,-2 18,-1 18,-1 18,-1 17,-1 18,-1 18,-1 18,-1 18,-1 18,-1 17,-1 18,-1 18,-1 18,-1 18,-1 18,0 17,-1 18,-1 18,-1 18,-1 18,0 18,-1 17,-1 18,0 18,-1 18,-1 18,0 18,-1 17,0 18,-1 18,-1 18,0 18,-1 18,0 17,-1 18,0 18,-1 18,0 18,-1 18,0 17,-1 36,0 18,-1 18,0 18,-1 35,0 18,-1 36,0 18,-1 35,0 18,-1 18,0"
             inkscape:connector-curvature="0"
             id="path76"
             style="fill:none;stroke:#ff0000;stroke-width:15;stroke-linecap:butt;stroke-linejoin:round;stroke-miterlimit:10;stroke-opacity:1;stroke-dasharray:none" /><g
             transform="scale(1.41362,1.41362)"
             id="g78"><path
               d="m 1098.6,16300 12.02,-1384.4 12.74,-1141.7 12.73,-956.4 12.73,-812.9 12.74,-698.2 12.73,-606.2 12.03,-530.6 12.73,-468.26 12.73,-415.96 12.74,-371.38 12.73,-333.9 12.73,-300.65 12.03,-273.05 12.73,-248.3 12.74,-227.08 12.73,-207.98 12.73,-190.29 12.73,-176.14 12.03,-162.7 12.73,-150.68 12.74,-140.07 12.73,-129.45 12.73,-121.67 12.74,-113.19 12.02,-105.4 12.74,-99.04 12.73,-93.38 12.73,-87.01 12.74,-82.06 12.73,-77.81 12.03,-72.86 12.73,-68.62 12.73,-65.08 12.73,-61.55 12.74,-58.71 12.73,-55.18 12.03,-52.35 12.73,-50.22 12.73,-46.69 12.74,-45.27 12.73,-43.16 12.73,-40.32 12.03,-38.91 12.73,-37.49 12.74,-35.37 12.73,-33.25 12.73,-32.54 12.74,-31.12 12.02,-29.01 12.74,-28.29 12.73,-26.88 12.73,-26.18 12.73,-24.76 12.74,-23.34 12.02,-23.34 12.74,-21.93 12.73,-20.52 12.73,-20.51 12.74,-19.1 12.73,-18.4 12.03,-18.39 12.73,-16.98 12.73,-16.27 12.74,-16.27 12.73,-14.85 12.73,-14.86 12.03,-14.15 12.73,-14.14 12.73,-12.74 12.74,-12.73 12.73,-12.03 12.73,-12.02 12.03,-11.32 12.73,-11.32 12.74,-10.61 12.73,-9.9 12.73,-9.91 12.74,-9.9 12.02,-9.2 12.74,-8.49 12.73,-9.19 12.73,-7.78 12.74,-8.49 12.73,-7.78 12.03,-7.08 12.73,-7.78 12.73,-7.07 12.73,-6.37 12.74,-6.37 12.73,-6.36 12.03,-6.37 12.73,-6.37 12.73,-5.66 12.74,-5.66 12.73,-4.95 12.73,-5.66 12.03,-4.95 12.73,-4.95 12.74,-4.95 12.73,-4.25 12.73,-4.95 12.74,-4.24 12.02,-4.25 12.73,-4.24 12.74,-3.54 12.73,-4.24 12.73,-3.54 12.74,-3.54 12.02,-3.53 12.74,-3.54 12.73,-3.54 12.73,-2.83 12.74,-3.53 12.73,-2.83 12.03,-2.83 12.73,-2.83 12.73,-2.83 12.74,-2.83 12.73,-2.83 12.73,-2.12 12.03,-2.83 12.73,-2.13 12.73,-2.12 12.74,-2.83 12.73,-2.12 12.73,-2.12 12.03,-2.13 12.73,-1.41 12.74,-2.12 12.73,-2.12 12.73,-2.13 12.74,-1.41 12.02,-2.12 12.74,-1.42 12.73,-1.41 12.73,-2.13 12.74,-1.41 12.73,-1.41 12.02,-1.42 12.74,-1.41 12.73,-1.42 12.73,-1.41 12.74,-1.42 12.73,-1.41 12.03,-1.42 12.73,-0.71 12.73,-1.41 12.74,-1.42 12.73,-0.7 12.73,-1.42 12.03,-0.71 12.73,-1.41 12.74,-0.71 12.73,-1.41 12.73,-0.71 12.74,-0.71 12.02,-1.41 12.73,-0.71 12.74,-0.71 12.73,-0.7 12.73,-1.42 12.74,-0.71 12.02,-0.7 12.74,-0.71 12.73,-0.71 12.73,-0.71 12.74,-0.7 12.73,-0.71 12.03,-0.71 12.73,-0.71 12.73,-0.7 12.74,-0.71 12.73,0 12.73,-0.71 12.03,-0.71 12.73,-0.7 12.73,-0.71 12.74,0 12.73,-0.71 12.73,-0.7 12.03,-0.71 12.73,0 12.74,-0.71 12.73,-0.71 12.73,0 12.74,-0.7 12.02,0 12.74,-0.71 12.73,-0.71 12.73,0 12.74,-0.71 12.73,0 12.02,-0.7 12.74,0 12.73,-0.71 12.73,0 12.74,-0.71 12.73,0 12.03,-0.71 25.46,0 12.74,-0.7 12.73,0 12.73,-0.71 24.76,0 12.74,-0.71 25.46,0 12.74,-0.71 24.75,0 12.74,-0.7 12.73,0"
               inkscape:connector-curvature="0"
               id="path80"
               style="fill:none;stroke:#ff0000;stroke-width:10.6111002;stroke-linecap:butt;stroke-linejoin:round;stroke-miterlimit:10;stroke-opacity:1;stroke-dasharray:101.866, 25.4665;stroke-dashoffset:0" /></g><path
             d="m 1553,5715 17,20 18,21 18,20 18,19 18,19 18,19 17,18 18,18 18,17 18,17 18,16 18,16 17,15 18,15 18,14 18,13 18,13 18,12 17,12 18,11 18,10 18,10 18,9 18,9 17,7 18,8 18,6 18,6 18,5 18,5 17,4 18,3 18,3 18,3 18,1 18,2 53,0 18,-1 18,-2 18,-1 17,-3 18,-3 18,-3 18,-3 18,-4 18,-5 17,-5 18,-5 18,-5 18,-6 18,-6 18,-6 17,-6 18,-7 18,-7 18,-7 18,-7 18,-8 17,-8 18,-7 18,-8 18,-8 18,-8 18,-8 17,-9 18,-8 18,-8 18,-8 18,-9 18,-8 17,-8 18,-9 18,-8 18,-8 18,-8 18,-8 17,-9 18,-8 18,-7 18,-8 18,-8 18,-8 17,-7 18,-8 18,-7 18,-8 18,-7 18,-7 17,-7 18,-6 18,-7 18,-7 18,-6 18,-7 17,-6 18,-6 18,-6 18,-6 18,-5 18,-6 17,-5 18,-6 18,-5 18,-5 18,-5 18,-5 17,-5 18,-4 18,-5 18,-4 18,-5 18,-4 17,-4 18,-4 18,-4 18,-3 18,-4 18,-4 17,-3 18,-4 18,-3 18,-3 18,-3 18,-3 17,-3 18,-3 18,-3 18,-3 18,-2 18,-3 17,-2 18,-3 18,-2 18,-2 18,-3 18,-2 17,-2 18,-2 18,-2 18,-2 18,-2 18,-2 17,-1 18,-2 18,-2 18,-2 18,-1 18,-2 17,-1 18,-2 18,-1 18,-1 18,-2 18,-1 17,-1 18,-2 18,-1 18,-1 18,-1 18,-1 17,-1 18,-1 18,-1 18,-1 18,-1 18,-1 17,-1 18,-1 18,-1 18,-1 18,-1 18,0 17,-1 18,-1 18,-1 18,0 18,-1 18,-1 17,0 18,-1 18,-1 18,0 18,-1 18,0 17,-1 18,-1 18,0 18,-1 18,0 18,-1 17,0 18,-1 36,0 18,-1 18,0 17,-1 36,0 18,-1 18,0 18,-1 35,0 18,-1 36,0 18,-1 53,0 18,-1"
             inkscape:connector-curvature="0"
             id="path82"
             style="fill:none;stroke:#00ff00;stroke-width:15;stroke-linecap:butt;stroke-linejoin:round;stroke-miterlimit:10;stroke-opacity:1;stroke-dasharray:none" /><g
             transform="scale(3.6508,3.6508)"
             id="g84"><path
               d="m 425.386,16300 9.587,0 4.931,-2108.9 4.93,-1841.2 4.931,-1474.5 4.93,-1198.88 4.657,-988.01 4.93,-823.38 4.931,-693.55 4.93,-589.73 4.93,-505.1 4.931,-436.06 4.656,-379.1 4.931,-331.71 4.93,-291.44 4.931,-257.48 4.93,-228.72 4.93,-204.06 4.657,-182.7 4.93,-164.35 4.931,-147.91 4.93,-134.22 4.931,-121.62 4.93,-110.66 4.657,-101.07 4.93,-92.31 4.931,-84.64 4.93,-78.06 4.93,-71.77 4.931,-66.01 4.656,-61.36 4.931,-56.7 4.93,-52.59 4.931,-48.76 4.93,-45.47 4.93,-42.45 4.657,-39.45 4.93,-36.97 4.931,-34.52 4.93,-32.59 4.931,-30.41 4.93,-28.48 4.657,-26.85 4.93,-25.2 4.931,-23.83 4.93,-22.46 4.93,-21.09 4.931,-20 4.656,-18.9 4.931,-17.8 4.93,-16.98 4.931,-15.89 4.93,-15.34 4.93,-14.24 4.657,-13.7 4.93,-13.15 4.931,-12.32 4.93,-11.78 4.931,-11.23 4.93,-10.68 4.657,-10.14 4.93,-9.58 4.931,-9.32 4.93,-8.76 4.93,-8.49 4.931,-7.95 4.656,-7.67 4.931,-7.39 4.93,-7.12 4.931,-6.58 4.93,-6.57 4.93,-6.03 4.657,-6.02 4.93,-5.48 4.931,-5.48 4.93,-5.2 4.931,-4.94 4.93,-4.93 4.657,-4.65 4.93,-4.38 4.931,-4.11 4.93,-4.11 4.93,-3.84 4.931,-3.83 4.656,-3.56 4.931,-3.56 4.93,-3.29 4.931,-3.29 4.93,-3.28 4.93,-3.02 4.657,-2.74 4.93,-2.74 4.931,-2.73 4.93,-2.47 4.931,-2.74 4.93,-2.19 4.657,-2.47 4.93,-2.19 4.93,-2.19 4.931,-1.92 4.93,-2.19 4.931,-1.91 4.656,-1.92 4.931,-1.65 4.93,-1.91 4.931,-1.65 4.93,-1.64 4.93,-1.64 4.657,-1.37 4.93,-1.65 4.931,-1.37 4.93,-1.37 4.931,-1.36 4.93,-1.1 4.657,-1.37 4.93,-1.1 4.93,-1.37 4.932,-1.09 4.93,-1.1 4.93,-1.09 4.66,-1.1 4.93,-0.82 4.93,-1.1 4.93,-0.82 4.93,-0.82 4.93,-1.09 4.65,-0.83 4.94,-0.82 4.93,-0.82 4.93,-0.82 4.93,-0.55 4.93,-0.82 4.65,-0.82 4.93,-0.55 4.93,-0.82 4.93,-0.55 4.94,-0.55 4.93,-0.55 4.65,-0.82 4.93,-0.55 4.93,-0.54 4.93,-0.55 4.93,-0.55 4.93,-0.27 4.66,-0.55 4.93,-0.55 4.93,-0.55 4.93,-0.27 4.93,-0.55 4.93,-0.55 4.66,-0.27 4.93,-0.55 4.93,-0.27 4.93,-0.28 4.93,-0.54 4.93,-0.28 4.66,-0.27 4.93,-0.55 4.93,-0.27 4.93,-0.28 4.93,-0.27 4.93,-0.27 4.66,-0.28 4.93,-0.27 4.93,-0.28 4.93,-0.27 4.93,-0.27 4.93,-0.28 4.66,-0.27 4.93,-0.28 4.93,-0.27 4.93,-0.27 4.93,-0.28 4.93,0 4.65,-0.27 4.93,-0.28 4.94,-0.27 4.93,0 4.93,-0.27 4.93,-0.28 4.65,0 4.93,-0.27 4.93,-0.27 4.93,0 4.93,-0.28 4.94,0 4.65,-0.27 4.93,-0.28 4.93,0 4.93,-0.27 4.93,0 4.93,-0.27 4.66,0 4.93,-0.28 9.86,0 4.93,-0.27 4.93,0 4.66,-0.28 9.86,0 4.93,-0.27 4.93,0 4.93,-0.27 9.59,0 4.93,-0.28 9.86,0 4.93,-0.27 14.52,0 4.93,-0.28"
               inkscape:connector-curvature="0"
               id="path86"
               style="fill:none;stroke:#00ff00;stroke-width:4.10868979;stroke-linecap:butt;stroke-linejoin:round;stroke-miterlimit:10;stroke-opacity:1;stroke-dasharray:39.4434, 9.86086;stroke-dashoffset:0" /></g><path
             d="m 1553,5611 17,22 18,23 18,25 18,27 18,28 18,29 17,31 18,32 18,32 18,33 18,34 18,35 17,35 18,35 18,35 18,35 18,35 18,35 17,34 18,34 18,33 18,32 18,31 18,30 17,30 18,28 18,26 18,26 18,24 18,23 17,21 18,20 18,18 18,16 18,15 18,13 17,12 18,10 18,8 18,7 18,5 18,4 17,2 18,0 18,-1 18,-2 18,-4 18,-5 17,-6 18,-8 18,-8 18,-10 18,-11 18,-12 17,-13 18,-13 18,-15 18,-15 18,-15 18,-17 17,-17 18,-17 18,-18 18,-18 18,-19 18,-18 17,-19 18,-20 18,-19 18,-19 18,-19 18,-20 17,-19 18,-19 18,-19 18,-19 18,-19 18,-19 17,-18 18,-18 18,-18 18,-18 18,-17 18,-17 17,-17 18,-16 18,-16 18,-15 18,-16 18,-15 17,-14 18,-14 18,-14 18,-14 18,-13 18,-13 17,-12 18,-12 18,-12 18,-11 18,-11 18,-11 17,-10 18,-10 18,-10 18,-9 18,-9 18,-9 17,-9 18,-8 18,-8 18,-8 18,-7 18,-7 17,-7 18,-7 18,-7 18,-6 18,-6 18,-6 17,-5 18,-6 18,-5 18,-5 18,-5 18,-5 17,-5 18,-4 18,-4 18,-5 18,-4 18,-4 17,-3 18,-4 18,-3 18,-4 18,-3 18,-3 17,-3 18,-3 18,-3 18,-3 18,-3 18,-2 17,-3 18,-2 18,-3 18,-2 18,-2 18,-2 17,-2 18,-2 18,-2 18,-2 18,-2 18,-2 17,-1 18,-2 18,-2 18,-1 18,-2 18,-1 17,-2 18,-1 18,-1 18,-2 18,-1 18,-1 17,-1 18,-1 18,-1 18,-1 18,-1 18,-2 17,0 18,-1 18,-1 18,-1 18,-1 18,-1 17,-1 18,-1 18,0 18,-1 18,-1 18,-1 17,0 18,-1 18,0 18,-1 18,-1 18,0 17,-1 18,0 18,-1 18,-1 18,0 18,-1 35,0 18,-1 18,0 18,-1 18,0 17,-1 36,0 18,-1 18,0 18,-1 35,0 18,-1 18,0"
             inkscape:connector-curvature="0"
             id="path88"
             style="fill:none;stroke:#0000ff;stroke-width:15;stroke-linecap:butt;stroke-linejoin:round;stroke-miterlimit:10;stroke-opacity:1;stroke-dasharray:none" /><g
             transform="scale(3.6508,3.6508)"
             id="g90"><path
               d="m 425.386,16300 73.135,0 4.931,-1570.3 4.93,-1472 4.93,-1265 4.657,-1092.6 4.93,-948.58 4.931,-827.49 4.93,-724.77 4.931,-637.94 4.93,-563.17 4.657,-499.07 4.93,-444.01 4.931,-396.08 4.93,-354.44 4.93,-318.01 4.931,-286.24 4.656,-258.3 4.931,-233.65 4.93,-211.73 4.931,-192.29 4.93,-175.3 4.93,-159.69 4.657,-146 4.93,-133.67 4.931,-122.71 4.93,-112.85 4.931,-103.54 4.93,-95.87 4.657,-88.2 4.93,-81.63 4.931,-75.6 4.93,-69.85 4.93,-64.91 4.931,-60.54 4.656,-56.15 4.931,-52.32 4.93,-48.75 4.931,-45.47 4.93,-42.73 4.93,-39.72 4.657,-37.25 4.93,-34.79 4.931,-32.87 4.93,-30.68 4.931,-28.76 4.93,-27.39 4.657,-25.47 4.93,-24.11 4.931,-22.46 4.93,-21.37 4.93,-20.26 4.931,-18.9 4.656,-18.08 4.931,-16.99 4.93,-16.16 4.931,-15.34 4.93,-14.24 4.93,-13.69 4.657,-13.15 4.93,-12.33 4.931,-11.5 4.93,-11.23 4.931,-10.41 4.93,-10.14 4.657,-9.58 4.93,-9.04 4.931,-8.77 4.93,-8.22 4.93,-7.66 4.931,-7.67 4.656,-7.13 4.931,-6.84 4.93,-6.3 4.931,-6.3 4.93,-6.03 4.93,-5.48 4.657,-5.48 4.93,-5.2 4.931,-4.93 4.93,-4.66 4.931,-4.65 4.93,-4.39 4.657,-4.11 4.93,-3.83 4.93,-3.84 4.931,-3.83 4.93,-3.56 4.931,-3.29 4.656,-3.28 4.931,-3.02 4.93,-3.01 4.931,-2.74 4.93,-2.74 4.93,-2.74 4.657,-2.46 4.93,-2.47 4.931,-2.46 4.93,-2.2 4.931,-2.19 4.93,-1.91 4.657,-2.2 4.93,-1.91 4.93,-1.92 4.932,-1.64 4.93,-1.65 4.93,-1.64 4.66,-1.64 4.93,-1.65 4.93,-1.37 4.93,-1.64 4.93,-1.37 4.93,-1.37 4.65,-1.1 4.94,-1.36 4.93,-1.1 4.93,-1.1 4.93,-1.09 4.93,-1.1 4.65,-1.09 4.93,-1.1 4.93,-0.82 4.93,-1.1 4.94,-0.82 4.93,-0.82 4.65,-0.82 4.93,-0.82 4.93,-0.82 4.93,-0.83 4.93,-0.82 4.93,-0.55 4.66,-0.82 4.93,-0.55 4.93,-0.82 4.93,-0.55 4.93,-0.54 4.93,-0.55 4.66,-0.55 4.93,-0.55 4.93,-0.54 4.93,-0.55 4.93,-0.55 4.93,-0.55 4.66,-0.27 4.93,-0.55 4.93,-0.55 4.93,-0.27 4.93,-0.55 4.93,-0.27 4.66,-0.55 4.93,-0.27 4.93,-0.28 4.93,-0.55 4.93,-0.27 4.93,-0.27 4.66,-0.28 4.93,-0.27 4.93,-0.28 4.93,-0.27 4.93,-0.27 4.93,-0.55 4.65,0 4.93,-0.28 4.94,-0.27 4.93,-0.27 4.93,-0.28 4.93,-0.27 4.65,-0.28 4.93,-0.27 4.93,0 4.93,-0.27 4.93,-0.28 4.94,-0.27 4.65,0 4.93,-0.27 4.93,0 4.93,-0.28 4.93,-0.27 4.93,0 4.66,-0.28 4.93,0 4.93,-0.27 4.93,-0.27 4.93,0 4.93,-0.28 9.59,0 4.93,-0.27 4.93,0 4.93,-0.28 4.93,0 4.66,-0.27 9.86,0 4.93,-0.27 4.93,0 4.93,-0.28 9.59,0 4.93,-0.27 4.93,0"
               inkscape:connector-curvature="0"
               id="path92"
               style="fill:none;stroke:#0000ff;stroke-width:4.10868979;stroke-linecap:butt;stroke-linejoin:round;stroke-miterlimit:10;stroke-opacity:1;stroke-dasharray:39.4434, 9.86086;stroke-dashoffset:0" /></g></g></g><path
         d="m 2179,7192.8 90,0 0,162 -90,0 0,-162 z"
         inkscape:connector-curvature="0"
         id="path94"
         style="fill:#ffffff;fill-opacity:1;fill-rule:nonzero;stroke:none" /><g
         transform="scale(10,10)"
         id="g96"><text
           transform="matrix(1,0,0,-1,217.9,723.6)"
           id="text98"><tspan
             x="0"
             y="0"
             id="tspan100"
             style="font-size:18px;font-style:italic;font-variant:normal;writing-mode:lr-tb;fill:#000000;fill-opacity:1;fill-rule:nonzero;stroke:none;font-family:Times New Roman;-inkscape-font-specification:Times-Italic">s</tspan></text>
</g><path
         d="m 2372,7030.8 100.078,0 0,162 -100.078,0 0,-162 z"
         inkscape:connector-curvature="0"
         id="path102"
         style="fill:#ffffff;fill-opacity:1;fill-rule:nonzero;stroke:none" /><g
         transform="scale(10,10)"
         id="g104"><text
           transform="matrix(1,0,0,-1,237.2,707.4)"
           id="text106"><tspan
             x="0"
             y="0"
             id="tspan108"
             style="font-size:18px;font-style:italic;font-variant:normal;writing-mode:lr-tb;fill:#000000;fill-opacity:1;fill-rule:nonzero;stroke:none;font-family:Times New Roman;-inkscape-font-specification:Times-Italic">p</tspan></text>
</g><path
         d="m 2698,6868.8 100.078,0 0,162 -100.078,0 0,-162 z"
         inkscape:connector-curvature="0"
         id="path110"
         style="fill:#ffffff;fill-opacity:1;fill-rule:nonzero;stroke:none" /><g
         transform="scale(10,10)"
         id="g112"><text
           transform="matrix(1,0,0,-1,269.8,691.2)"
           id="text114"><tspan
             x="0"
             y="0"
             id="tspan116"
             style="font-size:18px;font-style:italic;font-variant:normal;writing-mode:lr-tb;fill:#000000;fill-opacity:1;fill-rule:nonzero;stroke:none;font-family:Times New Roman;-inkscape-font-specification:Times-Italic">d</tspan></text>
</g><path
         d="m 3176,7030.8 665.266,0 0,162 -665.266,0 0,-162 z"
         inkscape:connector-curvature="0"
         id="path118"
         style="fill:#ffffff;fill-opacity:1;fill-rule:nonzero;stroke:none" /><g
         transform="scale(10,10)"
         id="g120"><text
           transform="matrix(1,0,0,-1,317.6,707.4)"
           id="text122"><tspan
             x="0 12.006 25.002001 35.514 41.507999 51.515999 56.52"
             y="0"
             id="tspan124"
             style="font-size:18px;font-variant:normal;font-weight:normal;writing-mode:lr-tb;fill:#000000;fill-opacity:1;fill-rule:nonzero;stroke:none;font-family:Helvetica;-inkscape-font-specification:Helvetica">EH=-0.5</tspan></text>
</g><path
         d="m 3642,5162.4 79.918,0 0,216 -79.918,0 0,-216 z"
         inkscape:connector-curvature="0"
         id="path126"
         style="fill:#ffffff;fill-opacity:1;fill-rule:nonzero;stroke:none" /><g
         transform="scale(10,10)"
         id="g128"><text
           transform="matrix(1,0,0,-1,364.2,522)"
           id="text130"><tspan
             x="0"
             y="0"
             id="tspan132"
             style="font-size:24px;font-style:italic;font-variant:normal;writing-mode:lr-tb;fill:#000000;fill-opacity:1;fill-rule:nonzero;stroke:none;font-family:Times New Roman;-inkscape-font-specification:Times-Italic">r</tspan></text>
</g></g></g></svg>
