<?xml version="1.0" encoding="UTF-8" standalone="no"?>
<!-- Created with Inkscape (http://www.inkscape.org/) -->

<svg
   xmlns:dc="http://purl.org/dc/elements/1.1/"
   xmlns:cc="http://creativecommons.org/ns#"
   xmlns:rdf="http://www.w3.org/1999/02/22-rdf-syntax-ns#"
   xmlns:svg="http://www.w3.org/2000/svg"
   xmlns="http://www.w3.org/2000/svg"
   xmlns:inkscape="http://www.inkscape.org/namespaces/inkscape"
   version="1.1"
   width="765"
   height="270pt"
   id="svg2"
   xml:space="preserve"><metadata
     id="metadata8"><rdf:RDF><cc:Work
         rdf:about=""><dc:format>image/svg+xml</dc:format><dc:type
           rdf:resource="http://purl.org/dc/dcmitype/StillImage" /></cc:Work></rdf:RDF></metadata><defs
     id="defs6"><clipPath
       id="clipPath164"><path
         d="m 1584,5960 0,1800 2880,0 0,-1800 -2880,0 z"
         inkscape:connector-curvature="0"
         id="path166" /></clipPath><clipPath
       id="clipPath190"><path
         d="m 1584,5960 0,1800 2880,0 0,-1800 -2880,0 z"
         inkscape:connector-curvature="0"
         id="path192" /></clipPath><clipPath
       id="clipPath232"><path
         d="m 1584,5960 0,1800 2880,0 0,-1800 -2880,0 z"
         inkscape:connector-curvature="0"
         id="path234" /></clipPath><clipPath
       id="clipPath258"><path
         d="m 1584,5960 0,1800 2880,0 0,-1800 -2880,0 z"
         inkscape:connector-curvature="0"
         id="path260" /></clipPath></defs><g
     transform="matrix(1.25,0,0,-1.25,0,990)"
     id="g10"><g
       transform="scale(0.1,0.1)"
       id="g12"><path
         d="m 1440,5870 3168,0 0,1980 -3168,0 0,-1980 z"
         inkscape:connector-curvature="0"
         id="path14"
         style="fill:#ffffff;fill-opacity:1;fill-rule:nonzero;stroke:none" /><path
         d="m 1440,5870 3168,0"
         inkscape:connector-curvature="0"
         id="path16"
         style="fill:none;stroke:#000000;stroke-width:15;stroke-linecap:butt;stroke-linejoin:round;stroke-miterlimit:10;stroke-opacity:1;stroke-dasharray:none" /><path
         d="m 1440,7850 0,-1980"
         inkscape:connector-curvature="0"
         id="path18"
         style="fill:none;stroke:#000000;stroke-width:15;stroke-linecap:butt;stroke-linejoin:round;stroke-miterlimit:10;stroke-opacity:1;stroke-dasharray:none" /><path
         d="m 1584,5870 0,49"
         inkscape:connector-curvature="0"
         id="path20"
         style="fill:none;stroke:#000000;stroke-width:15;stroke-linecap:butt;stroke-linejoin:round;stroke-miterlimit:10;stroke-opacity:1;stroke-dasharray:none" /><g
         transform="scale(10,10)"
         id="g22"><text
           transform="matrix(1,0,0,-1,152.4,565.4)"
           id="text24"><tspan
             x="0"
             y="0"
             id="tspan26"
             style="font-size:24px;font-variant:normal;font-weight:normal;writing-mode:lr-tb;fill:#000000;fill-opacity:1;fill-rule:nonzero;stroke:none;font-family:Symbol;-inkscape-font-specification:Symbol">0</tspan></text>
</g><path
         d="m 1995,5870 0,30"
         inkscape:connector-curvature="0"
         id="path28"
         style="fill:none;stroke:#000000;stroke-width:15;stroke-linecap:butt;stroke-linejoin:round;stroke-miterlimit:10;stroke-opacity:1;stroke-dasharray:none" /><path
         d="m 2407,5870 0,49"
         inkscape:connector-curvature="0"
         id="path30"
         style="fill:none;stroke:#000000;stroke-width:15;stroke-linecap:butt;stroke-linejoin:round;stroke-miterlimit:10;stroke-opacity:1;stroke-dasharray:none" /><g
         transform="scale(10,10)"
         id="g32"><text
           transform="matrix(1,0,0,-1,234.7,565.4)"
           id="text34"><tspan
             x="0"
             y="0"
             id="tspan36"
             style="font-size:24px;font-variant:normal;font-weight:normal;writing-mode:lr-tb;fill:#000000;fill-opacity:1;fill-rule:nonzero;stroke:none;font-family:Symbol;-inkscape-font-specification:Symbol">2</tspan></text>
</g><path
         d="m 2818,5870 0,30"
         inkscape:connector-curvature="0"
         id="path38"
         style="fill:none;stroke:#000000;stroke-width:15;stroke-linecap:butt;stroke-linejoin:round;stroke-miterlimit:10;stroke-opacity:1;stroke-dasharray:none" /><path
         d="m 3230,5870 0,49"
         inkscape:connector-curvature="0"
         id="path40"
         style="fill:none;stroke:#000000;stroke-width:15;stroke-linecap:butt;stroke-linejoin:round;stroke-miterlimit:10;stroke-opacity:1;stroke-dasharray:none" /><g
         transform="scale(10,10)"
         id="g42"><text
           transform="matrix(1,0,0,-1,317,565.4)"
           id="text44"><tspan
             x="0"
             y="0"
             id="tspan46"
             style="font-size:24px;font-variant:normal;font-weight:normal;writing-mode:lr-tb;fill:#000000;fill-opacity:1;fill-rule:nonzero;stroke:none;font-family:Symbol;-inkscape-font-specification:Symbol">4</tspan></text>
</g><path
         d="m 3641,5870 0,30"
         inkscape:connector-curvature="0"
         id="path48"
         style="fill:none;stroke:#000000;stroke-width:15;stroke-linecap:butt;stroke-linejoin:round;stroke-miterlimit:10;stroke-opacity:1;stroke-dasharray:none" /><path
         d="m 4053,5870 0,49"
         inkscape:connector-curvature="0"
         id="path50"
         style="fill:none;stroke:#000000;stroke-width:15;stroke-linecap:butt;stroke-linejoin:round;stroke-miterlimit:10;stroke-opacity:1;stroke-dasharray:none" /><g
         transform="scale(10,10)"
         id="g52"><text
           transform="matrix(1,0,0,-1,399.3,565.4)"
           id="text54"><tspan
             x="0"
             y="0"
             id="tspan56"
             style="font-size:24px;font-variant:normal;font-weight:normal;writing-mode:lr-tb;fill:#000000;fill-opacity:1;fill-rule:nonzero;stroke:none;font-family:Symbol;-inkscape-font-specification:Symbol">6</tspan></text>
</g><path
         d="m 4464,5870 0,30"
         inkscape:connector-curvature="0"
         id="path58"
         style="fill:none;stroke:#000000;stroke-width:15;stroke-linecap:butt;stroke-linejoin:round;stroke-miterlimit:10;stroke-opacity:1;stroke-dasharray:none" /><path
         d="m 1440,5944 79,0"
         inkscape:connector-curvature="0"
         id="path60"
         style="fill:none;stroke:#000000;stroke-width:15;stroke-linecap:butt;stroke-linejoin:round;stroke-miterlimit:10;stroke-opacity:1;stroke-dasharray:none" /><g
         transform="scale(10,10)"
         id="g62"><text
           transform="matrix(1,0,0,-1,111.624,587.2)"
           id="text64"><tspan
             x="0 13.176"
             y="0"
             id="tspan66"
             style="font-size:24px;font-variant:normal;font-weight:normal;writing-mode:lr-tb;fill:#000000;fill-opacity:1;fill-rule:nonzero;stroke:none;font-family:Symbol;-inkscape-font-specification:Symbol">−5</tspan></text>
</g><path
         d="m 1440,6062 48,0"
         inkscape:connector-curvature="0"
         id="path68"
         style="fill:none;stroke:#000000;stroke-width:15;stroke-linecap:butt;stroke-linejoin:round;stroke-miterlimit:10;stroke-opacity:1;stroke-dasharray:none" /><path
         d="m 1440,6179 79,0"
         inkscape:connector-curvature="0"
         id="path70"
         style="fill:none;stroke:#000000;stroke-width:15;stroke-linecap:butt;stroke-linejoin:round;stroke-miterlimit:10;stroke-opacity:1;stroke-dasharray:none" /><g
         transform="scale(10,10)"
         id="g72"><text
           transform="matrix(1,0,0,-1,124.8,610.7)"
           id="text74"><tspan
             x="0"
             y="0"
             id="tspan76"
             style="font-size:24px;font-variant:normal;font-weight:normal;writing-mode:lr-tb;fill:#000000;fill-opacity:1;fill-rule:nonzero;stroke:none;font-family:Symbol;-inkscape-font-specification:Symbol">0</tspan></text>
</g><path
         d="m 1440,6296 48,0"
         inkscape:connector-curvature="0"
         id="path78"
         style="fill:none;stroke:#000000;stroke-width:15;stroke-linecap:butt;stroke-linejoin:round;stroke-miterlimit:10;stroke-opacity:1;stroke-dasharray:none" /><path
         d="m 1440,6413 79,0"
         inkscape:connector-curvature="0"
         id="path80"
         style="fill:none;stroke:#000000;stroke-width:15;stroke-linecap:butt;stroke-linejoin:round;stroke-miterlimit:10;stroke-opacity:1;stroke-dasharray:none" /><g
         transform="scale(10,10)"
         id="g82"><text
           transform="matrix(1,0,0,-1,124.8,634.1)"
           id="text84"><tspan
             x="0"
             y="0"
             id="tspan86"
             style="font-size:24px;font-variant:normal;font-weight:normal;writing-mode:lr-tb;fill:#000000;fill-opacity:1;fill-rule:nonzero;stroke:none;font-family:Symbol;-inkscape-font-specification:Symbol">5</tspan></text>
</g><path
         d="m 1440,6530 48,0"
         inkscape:connector-curvature="0"
         id="path88"
         style="fill:none;stroke:#000000;stroke-width:15;stroke-linecap:butt;stroke-linejoin:round;stroke-miterlimit:10;stroke-opacity:1;stroke-dasharray:none" /><path
         d="m 1440,6647 79,0"
         inkscape:connector-curvature="0"
         id="path90"
         style="fill:none;stroke:#000000;stroke-width:15;stroke-linecap:butt;stroke-linejoin:round;stroke-miterlimit:10;stroke-opacity:1;stroke-dasharray:none" /><g
         transform="scale(10,10)"
         id="g92"><text
           transform="matrix(1,0,0,-1,112.8,657.5)"
           id="text94"><tspan
             x="0 12"
             y="0"
             id="tspan96"
             style="font-size:24px;font-variant:normal;font-weight:normal;writing-mode:lr-tb;fill:#000000;fill-opacity:1;fill-rule:nonzero;stroke:none;font-family:Symbol;-inkscape-font-specification:Symbol">10</tspan></text>
</g><path
         d="m 1440,6765 48,0"
         inkscape:connector-curvature="0"
         id="path98"
         style="fill:none;stroke:#000000;stroke-width:15;stroke-linecap:butt;stroke-linejoin:round;stroke-miterlimit:10;stroke-opacity:1;stroke-dasharray:none" /><path
         d="m 1440,6882 79,0"
         inkscape:connector-curvature="0"
         id="path100"
         style="fill:none;stroke:#000000;stroke-width:15;stroke-linecap:butt;stroke-linejoin:round;stroke-miterlimit:10;stroke-opacity:1;stroke-dasharray:none" /><g
         transform="scale(10,10)"
         id="g102"><text
           transform="matrix(1,0,0,-1,112.8,681)"
           id="text104"><tspan
             x="0 12"
             y="0"
             id="tspan106"
             style="font-size:24px;font-variant:normal;font-weight:normal;writing-mode:lr-tb;fill:#000000;fill-opacity:1;fill-rule:nonzero;stroke:none;font-family:Symbol;-inkscape-font-specification:Symbol">15</tspan></text>
</g><path
         d="m 1440,6999 48,0"
         inkscape:connector-curvature="0"
         id="path108"
         style="fill:none;stroke:#000000;stroke-width:15;stroke-linecap:butt;stroke-linejoin:round;stroke-miterlimit:10;stroke-opacity:1;stroke-dasharray:none" /><path
         d="m 1440,7116 79,0"
         inkscape:connector-curvature="0"
         id="path110"
         style="fill:none;stroke:#000000;stroke-width:15;stroke-linecap:butt;stroke-linejoin:round;stroke-miterlimit:10;stroke-opacity:1;stroke-dasharray:none" /><g
         transform="scale(10,10)"
         id="g112"><text
           transform="matrix(1,0,0,-1,112.8,704.4)"
           id="text114"><tspan
             x="0 12"
             y="0"
             id="tspan116"
             style="font-size:24px;font-variant:normal;font-weight:normal;writing-mode:lr-tb;fill:#000000;fill-opacity:1;fill-rule:nonzero;stroke:none;font-family:Symbol;-inkscape-font-specification:Symbol">20</tspan></text>
</g><path
         d="m 1440,7233 48,0"
         inkscape:connector-curvature="0"
         id="path118"
         style="fill:none;stroke:#000000;stroke-width:15;stroke-linecap:butt;stroke-linejoin:round;stroke-miterlimit:10;stroke-opacity:1;stroke-dasharray:none" /><path
         d="m 1440,7350 79,0"
         inkscape:connector-curvature="0"
         id="path120"
         style="fill:none;stroke:#000000;stroke-width:15;stroke-linecap:butt;stroke-linejoin:round;stroke-miterlimit:10;stroke-opacity:1;stroke-dasharray:none" /><g
         transform="scale(10,10)"
         id="g122"><text
           transform="matrix(1,0,0,-1,112.8,727.8)"
           id="text124"><tspan
             x="0 12"
             y="0"
             id="tspan126"
             style="font-size:24px;font-variant:normal;font-weight:normal;writing-mode:lr-tb;fill:#000000;fill-opacity:1;fill-rule:nonzero;stroke:none;font-family:Symbol;-inkscape-font-specification:Symbol">25</tspan></text>
</g><path
         d="m 1440,7468 48,0"
         inkscape:connector-curvature="0"
         id="path128"
         style="fill:none;stroke:#000000;stroke-width:15;stroke-linecap:butt;stroke-linejoin:round;stroke-miterlimit:10;stroke-opacity:1;stroke-dasharray:none" /><path
         d="m 1440,7585 79,0"
         inkscape:connector-curvature="0"
         id="path130"
         style="fill:none;stroke:#000000;stroke-width:15;stroke-linecap:butt;stroke-linejoin:round;stroke-miterlimit:10;stroke-opacity:1;stroke-dasharray:none" /><g
         transform="scale(10,10)"
         id="g132"><text
           transform="matrix(1,0,0,-1,112.8,751.3)"
           id="text134"><tspan
             x="0 12"
             y="0"
             id="tspan136"
             style="font-size:24px;font-variant:normal;font-weight:normal;writing-mode:lr-tb;fill:#000000;fill-opacity:1;fill-rule:nonzero;stroke:none;font-family:Symbol;-inkscape-font-specification:Symbol">30</tspan></text>
</g><path
         d="m 1440,7702 48,0"
         inkscape:connector-curvature="0"
         id="path138"
         style="fill:none;stroke:#000000;stroke-width:15;stroke-linecap:butt;stroke-linejoin:round;stroke-miterlimit:10;stroke-opacity:1;stroke-dasharray:none" /><path
         d="m 1440,7819 79,0"
         inkscape:connector-curvature="0"
         id="path140"
         style="fill:none;stroke:#000000;stroke-width:15;stroke-linecap:butt;stroke-linejoin:round;stroke-miterlimit:10;stroke-opacity:1;stroke-dasharray:none" /><g
         transform="scale(10,10)"
         id="g142"><text
           transform="matrix(1,0,0,-1,112.8,774.7)"
           id="text144"><tspan
             x="0 12"
             y="0"
             id="tspan146"
             style="font-size:24px;font-variant:normal;font-weight:normal;writing-mode:lr-tb;fill:#000000;fill-opacity:1;fill-rule:nonzero;stroke:none;font-family:Symbol;-inkscape-font-specification:Symbol">35</tspan></text>
</g><path
         d="m 2744.04,5308.4 559.914,0 0,216 -559.914,0 0,-216 z"
         inkscape:connector-curvature="0"
         id="path148"
         style="fill:#ffffff;fill-opacity:1;fill-rule:nonzero;stroke:none" /><g
         transform="scale(10,10)"
         id="g150"><text
           transform="matrix(1,0,0,-1,274.404,536.6)"
           id="text152"><tspan
             x="0"
             y="0"
             id="tspan154"
             style="font-size:24px;font-style:italic;font-variant:normal;writing-mode:lr-tb;fill:#000000;fill-opacity:1;fill-rule:nonzero;stroke:none;font-family:Times New Roman;-inkscape-font-specification:Times-Italic">E</tspan></text>
<text
           transform="matrix(1,0,0,-1,289.0681,531.84805)"
           id="text156"><tspan
             x="0 12.51024 19.649759"
             y="0"
             id="tspan158"
             style="font-size:16.07999992px;font-variant:normal;font-weight:normal;writing-mode:lr-tb;fill:#000000;fill-opacity:1;fill-rule:nonzero;stroke:none;font-family:Times New Roman;-inkscape-font-specification:Times-Roman">max</tspan></text>
</g><g
         id="g160"><g
           clip-path="url(#clipPath164)"
           id="g162"><path
             d="m 2818,7585 360,0"
             inkscape:connector-curvature="0"
             id="path168"
             style="fill:none;stroke:#808080;stroke-width:20;stroke-linecap:butt;stroke-linejoin:round;stroke-miterlimit:10;stroke-opacity:1;stroke-dasharray:none" /></g></g><path
         d="m 2998,7644 -59,-59 59,-60 60,60 -60,59"
         inkscape:connector-curvature="0"
         id="path170"
         style="fill:#ffffff;fill-opacity:1;fill-rule:nonzero;stroke:none" /><path
         d="m 2998,7644 -59,-59 59,-60 60,60 -60,59 z"
         inkscape:connector-curvature="0"
         id="path172"
         style="fill:none;stroke:#000000;stroke-width:10;stroke-linecap:butt;stroke-linejoin:round;stroke-miterlimit:10;stroke-opacity:1;stroke-dasharray:none" /><path
         d="m 3250,7455.4 853.195,0 0,216 -853.195,0 0,-216 z"
         inkscape:connector-curvature="0"
         id="path174"
         style="fill:#ffffff;fill-opacity:1;fill-rule:nonzero;stroke:none" /><g
         transform="scale(10,10)"
         id="g176"><text
           transform="matrix(1,0,0,-1,331,751.3)"
           id="text178"><tspan
             x="0 7.9920001 19.992001 31.992001 39.984001"
             y="0"
             id="tspan180"
             style="font-size:24px;font-variant:normal;font-weight:normal;writing-mode:lr-tb;fill:#000000;fill-opacity:1;fill-rule:nonzero;stroke:none;font-family:Times New Roman;-inkscape-font-specification:Times-Roman">(45) </tspan></text>
<text
           transform="matrix(1,0,0,-1,376.9844,751.3)"
           id="text182"><tspan
             x="0 9.3360004 21.336"
             y="0"
             id="tspan184"
             style="font-size:24px;font-style:italic;font-variant:normal;writing-mode:lr-tb;fill:#000000;fill-opacity:1;fill-rule:nonzero;stroke:none;font-family:Times New Roman;-inkscape-font-specification:Times-Italic">spd</tspan></text>
</g><g
         id="g186"><g
           clip-path="url(#clipPath190)"
           id="g188"><path
             d="m 1584,7760 411,-635 412,-295 411,-432 412,-304 411,-86 412,-31 411,-17"
             inkscape:connector-curvature="0"
             id="path194"
             style="fill:none;stroke:#808080;stroke-width:20;stroke-linecap:butt;stroke-linejoin:round;stroke-miterlimit:10;stroke-opacity:1;stroke-dasharray:none" /></g></g><path
         d="m 1584,7819 -59,-59 59,-59 59,59 -59,59"
         inkscape:connector-curvature="0"
         id="path196"
         style="fill:#ffffff;fill-opacity:1;fill-rule:nonzero;stroke:none" /><path
         d="m 1584,7819 -59,-59 59,-59 59,59 -59,59 z"
         inkscape:connector-curvature="0"
         id="path198"
         style="fill:none;stroke:#000000;stroke-width:10;stroke-linecap:butt;stroke-linejoin:round;stroke-miterlimit:10;stroke-opacity:1;stroke-dasharray:none" /><path
         d="m 1995,7184 -59,-59 59,-60 60,60 -60,59"
         inkscape:connector-curvature="0"
         id="path200"
         style="fill:#ffffff;fill-opacity:1;fill-rule:nonzero;stroke:none" /><path
         d="m 1995,7184 -59,-59 59,-60 60,60 -60,59 z"
         inkscape:connector-curvature="0"
         id="path202"
         style="fill:none;stroke:#000000;stroke-width:10;stroke-linecap:butt;stroke-linejoin:round;stroke-miterlimit:10;stroke-opacity:1;stroke-dasharray:none" /><path
         d="m 2407,6890 -60,-60 60,-59 59,59 -59,60"
         inkscape:connector-curvature="0"
         id="path204"
         style="fill:#ffffff;fill-opacity:1;fill-rule:nonzero;stroke:none" /><path
         d="m 2407,6890 -60,-60 60,-59 59,59 -59,60 z"
         inkscape:connector-curvature="0"
         id="path206"
         style="fill:none;stroke:#000000;stroke-width:10;stroke-linecap:butt;stroke-linejoin:round;stroke-miterlimit:10;stroke-opacity:1;stroke-dasharray:none" /><path
         d="m 2818,6457 -59,-59 59,-60 60,60 -60,59"
         inkscape:connector-curvature="0"
         id="path208"
         style="fill:#ffffff;fill-opacity:1;fill-rule:nonzero;stroke:none" /><path
         d="m 2818,6457 -59,-59 59,-60 60,60 -60,59 z"
         inkscape:connector-curvature="0"
         id="path210"
         style="fill:none;stroke:#000000;stroke-width:10;stroke-linecap:butt;stroke-linejoin:round;stroke-miterlimit:10;stroke-opacity:1;stroke-dasharray:none" /><path
         d="m 3230,6153 -60,-59 60,-60 59,60 -59,59"
         inkscape:connector-curvature="0"
         id="path212"
         style="fill:#ffffff;fill-opacity:1;fill-rule:nonzero;stroke:none" /><path
         d="m 3230,6153 -60,-59 60,-60 59,60 -59,59 z"
         inkscape:connector-curvature="0"
         id="path214"
         style="fill:none;stroke:#000000;stroke-width:10;stroke-linecap:butt;stroke-linejoin:round;stroke-miterlimit:10;stroke-opacity:1;stroke-dasharray:none" /><path
         d="m 3641,6068 -59,-60 59,-59 60,59 -60,60"
         inkscape:connector-curvature="0"
         id="path216"
         style="fill:#ffffff;fill-opacity:1;fill-rule:nonzero;stroke:none" /><path
         d="m 3641,6068 -59,-60 59,-59 60,59 -60,60 z"
         inkscape:connector-curvature="0"
         id="path218"
         style="fill:none;stroke:#000000;stroke-width:10;stroke-linecap:butt;stroke-linejoin:round;stroke-miterlimit:10;stroke-opacity:1;stroke-dasharray:none" /><path
         d="m 4053,6036 -60,-59 60,-60 59,60 -59,59"
         inkscape:connector-curvature="0"
         id="path220"
         style="fill:#ffffff;fill-opacity:1;fill-rule:nonzero;stroke:none" /><path
         d="m 4053,6036 -60,-59 60,-60 59,60 -59,59 z"
         inkscape:connector-curvature="0"
         id="path222"
         style="fill:none;stroke:#000000;stroke-width:10;stroke-linecap:butt;stroke-linejoin:round;stroke-miterlimit:10;stroke-opacity:1;stroke-dasharray:none" /><path
         d="m 4464,6020 -59,-60 59,-59 59,59 -59,60"
         inkscape:connector-curvature="0"
         id="path224"
         style="fill:#ffffff;fill-opacity:1;fill-rule:nonzero;stroke:none" /><path
         d="m 4464,6020 -59,-60 59,-59 59,59 -59,60 z"
         inkscape:connector-curvature="0"
         id="path226"
         style="fill:none;stroke:#000000;stroke-width:10;stroke-linecap:butt;stroke-linejoin:round;stroke-miterlimit:10;stroke-opacity:1;stroke-dasharray:none" /><g
         id="g228"><g
           clip-path="url(#clipPath232)"
           id="g230"><path
             d="m 2818,7350 360,0"
             inkscape:connector-curvature="0"
             id="path236"
             style="fill:none;stroke:#000000;stroke-width:20;stroke-linecap:butt;stroke-linejoin:round;stroke-miterlimit:10;stroke-opacity:1;stroke-dasharray:none" /></g></g><path
         d="m 3058.3,7350.4 c 0,33.14 -26.86,60 -60,60 -33.14,0 -60,-26.86 -60,-60 0,-33.13 26.86,-60 60,-60 33.14,0 60,26.87 60,60"
         inkscape:connector-curvature="0"
         id="path238"
         style="fill:#ffffff;fill-opacity:1;fill-rule:nonzero;stroke:none" /><path
         d="m 3058.3,7350.4 c 0,33.14 -26.86,60 -60,60 -33.14,0 -60,-26.86 -60,-60 0,-33.13 26.86,-60 60,-60 33.14,0 60,26.87 60,60 z"
         inkscape:connector-curvature="0"
         id="path240"
         style="fill:none;stroke:#000000;stroke-width:20;stroke-linecap:butt;stroke-linejoin:round;stroke-miterlimit:10;stroke-opacity:1;stroke-dasharray:none" /><path
         d="m 3250,7220.4 933.113,0 0,216 -933.113,0 0,-216 z"
         inkscape:connector-curvature="0"
         id="path242"
         style="fill:#ffffff;fill-opacity:1;fill-rule:nonzero;stroke:none" /><g
         transform="scale(10,10)"
         id="g244"><text
           transform="matrix(1,0,0,-1,331,727.8)"
           id="text246"><tspan
             x="0 7.9920001 19.992001 31.992001 39.984001"
             y="0"
             id="tspan248"
             style="font-size:24px;font-variant:normal;font-weight:normal;writing-mode:lr-tb;fill:#000000;fill-opacity:1;fill-rule:nonzero;stroke:none;font-family:Times New Roman;-inkscape-font-specification:Times-Roman">(80) </tspan></text>
<text
           transform="matrix(1,0,0,-1,376.9844,727.8)"
           id="text250"><tspan
             x="0 9.3360004 21.336 33.335999"
             y="0"
             id="tspan252"
             style="font-size:24px;font-style:italic;font-variant:normal;writing-mode:lr-tb;fill:#000000;fill-opacity:1;fill-rule:nonzero;stroke:none;font-family:Times New Roman;-inkscape-font-specification:Times-Italic">spdf</tspan></text>
</g><g
         id="g254"><g
           clip-path="url(#clipPath258)"
           id="g256"><path
             d="m 1584,7049 411,-713 412,-151 411,-97 412,-67 411,-32 412,-18 411,-11"
             inkscape:connector-curvature="0"
             id="path262"
             style="fill:none;stroke:#000000;stroke-width:20;stroke-linecap:butt;stroke-linejoin:round;stroke-miterlimit:10;stroke-opacity:1;stroke-dasharray:none" /></g></g><path
         d="m 1644,7048.6 c 0,33.14 -26.86,60 -60,60 -33.14,0 -60,-26.86 -60,-60 0,-33.14 26.86,-60 60,-60 33.14,0 60,26.86 60,60"
         inkscape:connector-curvature="0"
         id="path264"
         style="fill:#ffffff;fill-opacity:1;fill-rule:nonzero;stroke:none" /><path
         d="m 1644,7048.6 c 0,33.14 -26.86,60 -60,60 -33.14,0 -60,-26.86 -60,-60 0,-33.14 26.86,-60 60,-60 33.14,0 60,26.86 60,60 z"
         inkscape:connector-curvature="0"
         id="path266"
         style="fill:none;stroke:#000000;stroke-width:20;stroke-linecap:butt;stroke-linejoin:round;stroke-miterlimit:10;stroke-opacity:1;stroke-dasharray:none" /><path
         d="m 2055.4,6336 c 0,33.14 -26.86,60 -60,60 -33.14,0 -60,-26.86 -60,-60 0,-33.14 26.86,-60 60,-60 33.14,0 60,26.86 60,60"
         inkscape:connector-curvature="0"
         id="path268"
         style="fill:#ffffff;fill-opacity:1;fill-rule:nonzero;stroke:none" /><path
         d="m 2055.4,6336 c 0,33.14 -26.86,60 -60,60 -33.14,0 -60,-26.86 -60,-60 0,-33.14 26.86,-60 60,-60 33.14,0 60,26.86 60,60 z"
         inkscape:connector-curvature="0"
         id="path270"
         style="fill:none;stroke:#000000;stroke-width:20;stroke-linecap:butt;stroke-linejoin:round;stroke-miterlimit:10;stroke-opacity:1;stroke-dasharray:none" /><path
         d="m 2466.9,6184.8 c 0,33.14 -26.86,60 -60,60 -33.14,0 -60,-26.86 -60,-60 0,-33.14 26.86,-60 60,-60 33.14,0 60,26.86 60,60"
         inkscape:connector-curvature="0"
         id="path272"
         style="fill:#ffffff;fill-opacity:1;fill-rule:nonzero;stroke:none" /><path
         d="m 2466.9,6184.8 c 0,33.14 -26.86,60 -60,60 -33.14,0 -60,-26.86 -60,-60 0,-33.14 26.86,-60 60,-60 33.14,0 60,26.86 60,60 z"
         inkscape:connector-curvature="0"
         id="path274"
         style="fill:none;stroke:#000000;stroke-width:20;stroke-linecap:butt;stroke-linejoin:round;stroke-miterlimit:10;stroke-opacity:1;stroke-dasharray:none" /><path
         d="m 2878.3,6087.7 c 0,33.14 -26.86,60 -60,60 -33.14,0 -60,-26.86 -60,-60 0,-33.14 26.86,-60 60,-60 33.14,0 60,26.86 60,60"
         inkscape:connector-curvature="0"
         id="path276"
         style="fill:#ffffff;fill-opacity:1;fill-rule:nonzero;stroke:none" /><path
         d="m 2878.3,6087.7 c 0,33.14 -26.86,60 -60,60 -33.14,0 -60,-26.86 -60,-60 0,-33.14 26.86,-60 60,-60 33.14,0 60,26.86 60,60 z"
         inkscape:connector-curvature="0"
         id="path278"
         style="fill:none;stroke:#000000;stroke-width:20;stroke-linecap:butt;stroke-linejoin:round;stroke-miterlimit:10;stroke-opacity:1;stroke-dasharray:none" /><path
         d="m 3289.7,6021.5 c 0,33.14 -26.86,60 -60,60 -33.14,0 -60,-26.86 -60,-60 0,-33.14 26.86,-60 60,-60 33.14,0 60,26.86 60,60"
         inkscape:connector-curvature="0"
         id="path280"
         style="fill:#ffffff;fill-opacity:1;fill-rule:nonzero;stroke:none" /><path
         d="m 3289.7,6021.5 c 0,33.14 -26.86,60 -60,60 -33.14,0 -60,-26.86 -60,-60 0,-33.14 26.86,-60 60,-60 33.14,0 60,26.86 60,60 z"
         inkscape:connector-curvature="0"
         id="path282"
         style="fill:none;stroke:#000000;stroke-width:20;stroke-linecap:butt;stroke-linejoin:round;stroke-miterlimit:10;stroke-opacity:1;stroke-dasharray:none" /><path
         d="m 3701.1,5988.8 c 0,33.14 -26.86,60 -60,60 -33.14,0 -60,-26.86 -60,-60 0,-33.14 26.86,-60 60,-60 33.14,0 60,26.86 60,60"
         inkscape:connector-curvature="0"
         id="path284"
         style="fill:#ffffff;fill-opacity:1;fill-rule:nonzero;stroke:none" /><path
         d="m 3701.1,5988.8 c 0,33.14 -26.86,60 -60,60 -33.14,0 -60,-26.86 -60,-60 0,-33.14 26.86,-60 60,-60 33.14,0 60,26.86 60,60 z"
         inkscape:connector-curvature="0"
         id="path286"
         style="fill:none;stroke:#000000;stroke-width:20;stroke-linecap:butt;stroke-linejoin:round;stroke-miterlimit:10;stroke-opacity:1;stroke-dasharray:none" /><path
         d="m 4112.6,5971.1 c 0,33.14 -26.86,60 -60,60 -33.14,0 -60,-26.86 -60,-60 0,-33.14 26.86,-60 60,-60 33.14,0 60,26.86 60,60"
         inkscape:connector-curvature="0"
         id="path288"
         style="fill:#ffffff;fill-opacity:1;fill-rule:nonzero;stroke:none" /><path
         d="m 4112.6,5971.1 c 0,33.14 -26.86,60 -60,60 -33.14,0 -60,-26.86 -60,-60 0,-33.14 26.86,-60 60,-60 33.14,0 60,26.86 60,60 z"
         inkscape:connector-curvature="0"
         id="path290"
         style="fill:none;stroke:#000000;stroke-width:20;stroke-linecap:butt;stroke-linejoin:round;stroke-miterlimit:10;stroke-opacity:1;stroke-dasharray:none" /><path
         d="m 4524,5960 c 0,33.14 -26.86,60 -60,60 -33.14,0 -60,-26.86 -60,-60 0,-33.14 26.86,-60 60,-60 33.14,0 60,26.86 60,60"
         inkscape:connector-curvature="0"
         id="path292"
         style="fill:#ffffff;fill-opacity:1;fill-rule:nonzero;stroke:none" /><path
         d="m 4524,5960 c 0,33.14 -26.86,60 -60,60 -33.14,0 -60,-26.86 -60,-60 0,-33.14 26.86,-60 60,-60 33.14,0 60,26.86 60,60 z"
         inkscape:connector-curvature="0"
         id="path294"
         style="fill:none;stroke:#000000;stroke-width:20;stroke-linecap:butt;stroke-linejoin:round;stroke-miterlimit:10;stroke-opacity:1;stroke-dasharray:none" /><path
         d="m 3058.3,7116.1 c 0,33.14 -26.86,60 -60,60 -33.14,0 -60,-26.86 -60,-60 0,-33.14 26.86,-60 60,-60 33.14,0 60,26.86 60,60"
         inkscape:connector-curvature="0"
         id="path296"
         style="fill:#ffffff;fill-opacity:1;fill-rule:nonzero;stroke:none" /><path
         d="m 3058.3,7116.1 c 0,33.14 -26.86,60 -60,60 -33.14,0 -60,-26.86 -60,-60 0,-33.14 26.86,-60 60,-60 33.14,0 60,26.86 60,60 z"
         inkscape:connector-curvature="0"
         id="path298"
         style="fill:none;stroke:#ff0000;stroke-width:15;stroke-linecap:butt;stroke-linejoin:round;stroke-miterlimit:10;stroke-opacity:1;stroke-dasharray:none" /><path
         d="m 3250,6986.4 1352.87,0 0,216 -1352.87,0 0,-216 z"
         inkscape:connector-curvature="0"
         id="path300"
         style="fill:#ffffff;fill-opacity:1;fill-rule:nonzero;stroke:none" /><g
         transform="scale(10,10)"
         id="g302"><text
           transform="matrix(1,0,0,-1,325,704.4)"
           id="text304"><tspan
             x="0 7.9920001 19.992001 31.992001 43.992001 51.984001 57.984001 69.984001 77.975998 89.975998 100.632 112.632 124.632"
             y="0"
             id="tspan306"
             style="font-size:24px;font-variant:normal;font-weight:normal;writing-mode:lr-tb;fill:#000000;fill-opacity:1;fill-rule:nonzero;stroke:none;font-family:Times New Roman;-inkscape-font-specification:Times-Roman">(125) 2-kappa</tspan></text>
</g><path
         d="m 2466.9,6184.8 c 0,33.14 -26.86,60 -60,60 -33.14,0 -60,-26.86 -60,-60 0,-33.14 26.86,-60 60,-60 33.14,0 60,26.86 60,60"
         inkscape:connector-curvature="0"
         id="path308"
         style="fill:#ffffff;fill-opacity:1;fill-rule:nonzero;stroke:none" /><path
         d="m 2466.9,6184.8 c 0,33.14 -26.86,60 -60,60 -33.14,0 -60,-26.86 -60,-60 0,-33.14 26.86,-60 60,-60 33.14,0 60,26.86 60,60 z"
         inkscape:connector-curvature="0"
         id="path310"
         style="fill:none;stroke:#ff0000;stroke-width:15;stroke-linecap:butt;stroke-linejoin:round;stroke-miterlimit:10;stroke-opacity:1;stroke-dasharray:none" /></g></g></svg>
