<?xml version="1.0" encoding="UTF-8" standalone="no"?>
<!-- Created with Inkscape (http://www.inkscape.org/) -->

<svg
   xmlns:dc="http://purl.org/dc/elements/1.1/"
   xmlns:cc="http://creativecommons.org/ns#"
   xmlns:rdf="http://www.w3.org/1999/02/22-rdf-syntax-ns#"
   xmlns:svg="http://www.w3.org/2000/svg"
   xmlns="http://www.w3.org/2000/svg"
   xmlns:inkscape="http://www.inkscape.org/namespaces/inkscape"
   version="1.1"
   width="765"
   height="270pt"
   id="svg2"
   xml:space="preserve"><metadata
     id="metadata8"><rdf:RDF><cc:Work
         rdf:about=""><dc:format>image/svg+xml</dc:format><dc:type
           rdf:resource="http://purl.org/dc/dcmitype/StillImage" /></cc:Work></rdf:RDF></metadata><defs
     id="defs6"><clipPath
       id="clipPath164"><path
         d="m 1584,5960 0,1800 2880,0 0,-1800 -2880,0 z"
         inkscape:connector-curvature="0"
         id="path166" /></clipPath><clipPath
       id="clipPath186"><path
         d="m 1584,5960 0,1800 2880,0 0,-1800 -2880,0 z"
         inkscape:connector-curvature="0"
         id="path188" /></clipPath><clipPath
       id="clipPath208"><path
         d="m 1584,5960 0,1800 2880,0 0,-1800 -2880,0 z"
         inkscape:connector-curvature="0"
         id="path210" /></clipPath><clipPath
       id="clipPath234"><path
         d="m 1584,5960 0,1800 2880,0 0,-1800 -2880,0 z"
         inkscape:connector-curvature="0"
         id="path236" /></clipPath><clipPath
       id="clipPath276"><path
         d="m 1584,5960 0,1800 2880,0 0,-1800 -2880,0 z"
         inkscape:connector-curvature="0"
         id="path278" /></clipPath><clipPath
       id="clipPath302"><path
         d="m 1584,5960 0,1800 2880,0 0,-1800 -2880,0 z"
         inkscape:connector-curvature="0"
         id="path304" /></clipPath></defs><g
     transform="matrix(1.25,0,0,-1.25,0,990)"
     id="g10"><g
       transform="scale(0.1,0.1)"
       id="g12"><path
         d="m 1440,5870 3168,0 0,1980 -3168,0 0,-1980 z"
         inkscape:connector-curvature="0"
         id="path14"
         style="fill:#ffffff;fill-opacity:1;fill-rule:nonzero;stroke:none" /><path
         d="m 1440,5870 3168,0"
         inkscape:connector-curvature="0"
         id="path16"
         style="fill:none;stroke:#000000;stroke-width:15;stroke-linecap:butt;stroke-linejoin:round;stroke-miterlimit:10;stroke-opacity:1;stroke-dasharray:none" /><path
         d="m 1440,7850 0,-1980"
         inkscape:connector-curvature="0"
         id="path18"
         style="fill:none;stroke:#000000;stroke-width:15;stroke-linecap:butt;stroke-linejoin:round;stroke-miterlimit:10;stroke-opacity:1;stroke-dasharray:none" /><path
         d="m 1584,5870 0,49"
         inkscape:connector-curvature="0"
         id="path20"
         style="fill:none;stroke:#000000;stroke-width:15;stroke-linecap:butt;stroke-linejoin:round;stroke-miterlimit:10;stroke-opacity:1;stroke-dasharray:none" /><g
         transform="scale(10,10)"
         id="g22"><text
           transform="matrix(1,0,0,-1,152.4,565.4)"
           id="text24"><tspan
             x="0"
             y="0"
             id="tspan26"
             style="font-size:24px;font-variant:normal;font-weight:normal;writing-mode:lr-tb;fill:#000000;fill-opacity:1;fill-rule:nonzero;stroke:none;font-family:Symbol;-inkscape-font-specification:Symbol">0</tspan></text>
</g><path
         d="m 1995,5870 0,30"
         inkscape:connector-curvature="0"
         id="path28"
         style="fill:none;stroke:#000000;stroke-width:15;stroke-linecap:butt;stroke-linejoin:round;stroke-miterlimit:10;stroke-opacity:1;stroke-dasharray:none" /><path
         d="m 2407,5870 0,49"
         inkscape:connector-curvature="0"
         id="path30"
         style="fill:none;stroke:#000000;stroke-width:15;stroke-linecap:butt;stroke-linejoin:round;stroke-miterlimit:10;stroke-opacity:1;stroke-dasharray:none" /><g
         transform="scale(10,10)"
         id="g32"><text
           transform="matrix(1,0,0,-1,234.7,565.4)"
           id="text34"><tspan
             x="0"
             y="0"
             id="tspan36"
             style="font-size:24px;font-variant:normal;font-weight:normal;writing-mode:lr-tb;fill:#000000;fill-opacity:1;fill-rule:nonzero;stroke:none;font-family:Symbol;-inkscape-font-specification:Symbol">2</tspan></text>
</g><path
         d="m 2818,5870 0,30"
         inkscape:connector-curvature="0"
         id="path38"
         style="fill:none;stroke:#000000;stroke-width:15;stroke-linecap:butt;stroke-linejoin:round;stroke-miterlimit:10;stroke-opacity:1;stroke-dasharray:none" /><path
         d="m 3230,5870 0,49"
         inkscape:connector-curvature="0"
         id="path40"
         style="fill:none;stroke:#000000;stroke-width:15;stroke-linecap:butt;stroke-linejoin:round;stroke-miterlimit:10;stroke-opacity:1;stroke-dasharray:none" /><g
         transform="scale(10,10)"
         id="g42"><text
           transform="matrix(1,0,0,-1,317,565.4)"
           id="text44"><tspan
             x="0"
             y="0"
             id="tspan46"
             style="font-size:24px;font-variant:normal;font-weight:normal;writing-mode:lr-tb;fill:#000000;fill-opacity:1;fill-rule:nonzero;stroke:none;font-family:Symbol;-inkscape-font-specification:Symbol">4</tspan></text>
</g><path
         d="m 3641,5870 0,30"
         inkscape:connector-curvature="0"
         id="path48"
         style="fill:none;stroke:#000000;stroke-width:15;stroke-linecap:butt;stroke-linejoin:round;stroke-miterlimit:10;stroke-opacity:1;stroke-dasharray:none" /><path
         d="m 4053,5870 0,49"
         inkscape:connector-curvature="0"
         id="path50"
         style="fill:none;stroke:#000000;stroke-width:15;stroke-linecap:butt;stroke-linejoin:round;stroke-miterlimit:10;stroke-opacity:1;stroke-dasharray:none" /><g
         transform="scale(10,10)"
         id="g52"><text
           transform="matrix(1,0,0,-1,399.3,565.4)"
           id="text54"><tspan
             x="0"
             y="0"
             id="tspan56"
             style="font-size:24px;font-variant:normal;font-weight:normal;writing-mode:lr-tb;fill:#000000;fill-opacity:1;fill-rule:nonzero;stroke:none;font-family:Symbol;-inkscape-font-specification:Symbol">6</tspan></text>
</g><path
         d="m 4464,5870 0,30"
         inkscape:connector-curvature="0"
         id="path58"
         style="fill:none;stroke:#000000;stroke-width:15;stroke-linecap:butt;stroke-linejoin:round;stroke-miterlimit:10;stroke-opacity:1;stroke-dasharray:none" /><path
         d="m 1440,5944 79,0"
         inkscape:connector-curvature="0"
         id="path60"
         style="fill:none;stroke:#000000;stroke-width:15;stroke-linecap:butt;stroke-linejoin:round;stroke-miterlimit:10;stroke-opacity:1;stroke-dasharray:none" /><g
         transform="scale(10,10)"
         id="g62"><text
           transform="matrix(1,0,0,-1,111.624,587.2)"
           id="text64"><tspan
             x="0 13.176"
             y="0"
             id="tspan66"
             style="font-size:24px;font-variant:normal;font-weight:normal;writing-mode:lr-tb;fill:#000000;fill-opacity:1;fill-rule:nonzero;stroke:none;font-family:Symbol;-inkscape-font-specification:Symbol">−5</tspan></text>
</g><path
         d="m 1440,6062 48,0"
         inkscape:connector-curvature="0"
         id="path68"
         style="fill:none;stroke:#000000;stroke-width:15;stroke-linecap:butt;stroke-linejoin:round;stroke-miterlimit:10;stroke-opacity:1;stroke-dasharray:none" /><path
         d="m 1440,6179 79,0"
         inkscape:connector-curvature="0"
         id="path70"
         style="fill:none;stroke:#000000;stroke-width:15;stroke-linecap:butt;stroke-linejoin:round;stroke-miterlimit:10;stroke-opacity:1;stroke-dasharray:none" /><g
         transform="scale(10,10)"
         id="g72"><text
           transform="matrix(1,0,0,-1,124.8,610.7)"
           id="text74"><tspan
             x="0"
             y="0"
             id="tspan76"
             style="font-size:24px;font-variant:normal;font-weight:normal;writing-mode:lr-tb;fill:#000000;fill-opacity:1;fill-rule:nonzero;stroke:none;font-family:Symbol;-inkscape-font-specification:Symbol">0</tspan></text>
</g><path
         d="m 1440,6296 48,0"
         inkscape:connector-curvature="0"
         id="path78"
         style="fill:none;stroke:#000000;stroke-width:15;stroke-linecap:butt;stroke-linejoin:round;stroke-miterlimit:10;stroke-opacity:1;stroke-dasharray:none" /><path
         d="m 1440,6413 79,0"
         inkscape:connector-curvature="0"
         id="path80"
         style="fill:none;stroke:#000000;stroke-width:15;stroke-linecap:butt;stroke-linejoin:round;stroke-miterlimit:10;stroke-opacity:1;stroke-dasharray:none" /><g
         transform="scale(10,10)"
         id="g82"><text
           transform="matrix(1,0,0,-1,124.8,634.1)"
           id="text84"><tspan
             x="0"
             y="0"
             id="tspan86"
             style="font-size:24px;font-variant:normal;font-weight:normal;writing-mode:lr-tb;fill:#000000;fill-opacity:1;fill-rule:nonzero;stroke:none;font-family:Symbol;-inkscape-font-specification:Symbol">5</tspan></text>
</g><path
         d="m 1440,6530 48,0"
         inkscape:connector-curvature="0"
         id="path88"
         style="fill:none;stroke:#000000;stroke-width:15;stroke-linecap:butt;stroke-linejoin:round;stroke-miterlimit:10;stroke-opacity:1;stroke-dasharray:none" /><path
         d="m 1440,6647 79,0"
         inkscape:connector-curvature="0"
         id="path90"
         style="fill:none;stroke:#000000;stroke-width:15;stroke-linecap:butt;stroke-linejoin:round;stroke-miterlimit:10;stroke-opacity:1;stroke-dasharray:none" /><g
         transform="scale(10,10)"
         id="g92"><text
           transform="matrix(1,0,0,-1,112.8,657.5)"
           id="text94"><tspan
             x="0 12"
             y="0"
             id="tspan96"
             style="font-size:24px;font-variant:normal;font-weight:normal;writing-mode:lr-tb;fill:#000000;fill-opacity:1;fill-rule:nonzero;stroke:none;font-family:Symbol;-inkscape-font-specification:Symbol">10</tspan></text>
</g><path
         d="m 1440,6765 48,0"
         inkscape:connector-curvature="0"
         id="path98"
         style="fill:none;stroke:#000000;stroke-width:15;stroke-linecap:butt;stroke-linejoin:round;stroke-miterlimit:10;stroke-opacity:1;stroke-dasharray:none" /><path
         d="m 1440,6882 79,0"
         inkscape:connector-curvature="0"
         id="path100"
         style="fill:none;stroke:#000000;stroke-width:15;stroke-linecap:butt;stroke-linejoin:round;stroke-miterlimit:10;stroke-opacity:1;stroke-dasharray:none" /><g
         transform="scale(10,10)"
         id="g102"><text
           transform="matrix(1,0,0,-1,112.8,681)"
           id="text104"><tspan
             x="0 12"
             y="0"
             id="tspan106"
             style="font-size:24px;font-variant:normal;font-weight:normal;writing-mode:lr-tb;fill:#000000;fill-opacity:1;fill-rule:nonzero;stroke:none;font-family:Symbol;-inkscape-font-specification:Symbol">15</tspan></text>
</g><path
         d="m 1440,6999 48,0"
         inkscape:connector-curvature="0"
         id="path108"
         style="fill:none;stroke:#000000;stroke-width:15;stroke-linecap:butt;stroke-linejoin:round;stroke-miterlimit:10;stroke-opacity:1;stroke-dasharray:none" /><path
         d="m 1440,7116 79,0"
         inkscape:connector-curvature="0"
         id="path110"
         style="fill:none;stroke:#000000;stroke-width:15;stroke-linecap:butt;stroke-linejoin:round;stroke-miterlimit:10;stroke-opacity:1;stroke-dasharray:none" /><g
         transform="scale(10,10)"
         id="g112"><text
           transform="matrix(1,0,0,-1,112.8,704.4)"
           id="text114"><tspan
             x="0 12"
             y="0"
             id="tspan116"
             style="font-size:24px;font-variant:normal;font-weight:normal;writing-mode:lr-tb;fill:#000000;fill-opacity:1;fill-rule:nonzero;stroke:none;font-family:Symbol;-inkscape-font-specification:Symbol">20</tspan></text>
</g><path
         d="m 1440,7233 48,0"
         inkscape:connector-curvature="0"
         id="path118"
         style="fill:none;stroke:#000000;stroke-width:15;stroke-linecap:butt;stroke-linejoin:round;stroke-miterlimit:10;stroke-opacity:1;stroke-dasharray:none" /><path
         d="m 1440,7350 79,0"
         inkscape:connector-curvature="0"
         id="path120"
         style="fill:none;stroke:#000000;stroke-width:15;stroke-linecap:butt;stroke-linejoin:round;stroke-miterlimit:10;stroke-opacity:1;stroke-dasharray:none" /><g
         transform="scale(10,10)"
         id="g122"><text
           transform="matrix(1,0,0,-1,112.8,727.8)"
           id="text124"><tspan
             x="0 12"
             y="0"
             id="tspan126"
             style="font-size:24px;font-variant:normal;font-weight:normal;writing-mode:lr-tb;fill:#000000;fill-opacity:1;fill-rule:nonzero;stroke:none;font-family:Symbol;-inkscape-font-specification:Symbol">25</tspan></text>
</g><path
         d="m 1440,7468 48,0"
         inkscape:connector-curvature="0"
         id="path128"
         style="fill:none;stroke:#000000;stroke-width:15;stroke-linecap:butt;stroke-linejoin:round;stroke-miterlimit:10;stroke-opacity:1;stroke-dasharray:none" /><path
         d="m 1440,7585 79,0"
         inkscape:connector-curvature="0"
         id="path130"
         style="fill:none;stroke:#000000;stroke-width:15;stroke-linecap:butt;stroke-linejoin:round;stroke-miterlimit:10;stroke-opacity:1;stroke-dasharray:none" /><g
         transform="scale(10,10)"
         id="g132"><text
           transform="matrix(1,0,0,-1,112.8,751.3)"
           id="text134"><tspan
             x="0 12"
             y="0"
             id="tspan136"
             style="font-size:24px;font-variant:normal;font-weight:normal;writing-mode:lr-tb;fill:#000000;fill-opacity:1;fill-rule:nonzero;stroke:none;font-family:Symbol;-inkscape-font-specification:Symbol">30</tspan></text>
</g><path
         d="m 1440,7702 48,0"
         inkscape:connector-curvature="0"
         id="path138"
         style="fill:none;stroke:#000000;stroke-width:15;stroke-linecap:butt;stroke-linejoin:round;stroke-miterlimit:10;stroke-opacity:1;stroke-dasharray:none" /><path
         d="m 1440,7819 79,0"
         inkscape:connector-curvature="0"
         id="path140"
         style="fill:none;stroke:#000000;stroke-width:15;stroke-linecap:butt;stroke-linejoin:round;stroke-miterlimit:10;stroke-opacity:1;stroke-dasharray:none" /><g
         transform="scale(10,10)"
         id="g142"><text
           transform="matrix(1,0,0,-1,112.8,774.7)"
           id="text144"><tspan
             x="0 12"
             y="0"
             id="tspan146"
             style="font-size:24px;font-variant:normal;font-weight:normal;writing-mode:lr-tb;fill:#000000;fill-opacity:1;fill-rule:nonzero;stroke:none;font-family:Symbol;-inkscape-font-specification:Symbol">35</tspan></text>
</g><path
         d="m 2744.04,5308.4 559.914,0 0,216 -559.914,0 0,-216 z"
         inkscape:connector-curvature="0"
         id="path148"
         style="fill:#ffffff;fill-opacity:1;fill-rule:nonzero;stroke:none" /><g
         transform="scale(10,10)"
         id="g150"><text
           transform="matrix(1,0,0,-1,274.404,536.6)"
           id="text152"><tspan
             x="0"
             y="0"
             id="tspan154"
             style="font-size:24px;font-style:italic;font-variant:normal;writing-mode:lr-tb;fill:#000000;fill-opacity:1;fill-rule:nonzero;stroke:none;font-family:Times New Roman;-inkscape-font-specification:Times-Italic">E</tspan></text>
<text
           transform="matrix(1,0,0,-1,289.0681,531.84805)"
           id="text156"><tspan
             x="0 12.51024 19.649759"
             y="0"
             id="tspan158"
             style="font-size:16.07999992px;font-variant:normal;font-weight:normal;writing-mode:lr-tb;fill:#000000;fill-opacity:1;fill-rule:nonzero;stroke:none;font-family:Times New Roman;-inkscape-font-specification:Times-Roman">max</tspan></text>
</g><g
         id="g160"><g
           clip-path="url(#clipPath164)"
           id="g162"><path
             d="m 2818,7772 360,0"
             inkscape:connector-curvature="0"
             id="path168"
             style="fill:none;stroke:#993399;stroke-width:20;stroke-linecap:butt;stroke-linejoin:round;stroke-miterlimit:10;stroke-opacity:1;stroke-dasharray:none" /></g></g><path
         d="m 2951,7725 95,0 0,95 -95,0 0,-95 z"
         inkscape:connector-curvature="0"
         id="path170"
         style="fill:#ffffff;fill-opacity:1;fill-rule:nonzero;stroke:none" /><path
         d="m 2951,7725 95,0 0,95 -95,0 0,-95 z"
         inkscape:connector-curvature="0"
         id="path172"
         style="fill:none;stroke:#000000;stroke-width:10;stroke-linecap:butt;stroke-linejoin:round;stroke-miterlimit:10;stroke-opacity:1;stroke-dasharray:none" /><path
         d="m 3250,7642.4 1259.75,0 0,216 -1259.75,0 0,-216 z"
         inkscape:connector-curvature="0"
         id="path174"
         style="fill:#ffffff;fill-opacity:1;fill-rule:nonzero;stroke:none" /><g
         transform="scale(10,10)"
         id="g176"><text
           transform="matrix(1,0,0,-1,337,770)"
           id="text178"><tspan
             x="0 7.9920001 19.992001 31.992001 39.984001 45.984001 60.647999 77.975998 91.32"
             y="0"
             id="tspan180"
             style="font-size:24px;font-variant:normal;font-weight:normal;writing-mode:lr-tb;fill:#000000;fill-opacity:1;fill-rule:nonzero;stroke:none;font-family:Times New Roman;-inkscape-font-specification:Times-Roman">( 0) LAPW</tspan></text>
</g><g
         id="g182"><g
           clip-path="url(#clipPath186)"
           id="g184"><path
             d="m 3641,6712 412,-526 411,-148"
             inkscape:connector-curvature="0"
             id="path190"
             style="fill:none;stroke:#993399;stroke-width:20;stroke-linecap:butt;stroke-linejoin:round;stroke-miterlimit:10;stroke-opacity:1;stroke-dasharray:none" /></g></g><path
         d="m 3594,6664 95,0 0,95 -95,0 0,-95 z"
         inkscape:connector-curvature="0"
         id="path192"
         style="fill:#ffffff;fill-opacity:1;fill-rule:nonzero;stroke:none" /><path
         d="m 3594,6664 95,0 0,95 -95,0 0,-95 z"
         inkscape:connector-curvature="0"
         id="path194"
         style="fill:none;stroke:#000000;stroke-width:10;stroke-linecap:butt;stroke-linejoin:round;stroke-miterlimit:10;stroke-opacity:1;stroke-dasharray:none" /><path
         d="m 4005,6138 95,0 0,95 -95,0 0,-95 z"
         inkscape:connector-curvature="0"
         id="path196"
         style="fill:#ffffff;fill-opacity:1;fill-rule:nonzero;stroke:none" /><path
         d="m 4005,6138 95,0 0,95 -95,0 0,-95 z"
         inkscape:connector-curvature="0"
         id="path198"
         style="fill:none;stroke:#000000;stroke-width:10;stroke-linecap:butt;stroke-linejoin:round;stroke-miterlimit:10;stroke-opacity:1;stroke-dasharray:none" /><path
         d="m 4416,5991 96,0 0,95 -96,0 0,-95 z"
         inkscape:connector-curvature="0"
         id="path200"
         style="fill:#ffffff;fill-opacity:1;fill-rule:nonzero;stroke:none" /><path
         d="m 4416,5991 96,0 0,95 -96,0 0,-95 z"
         inkscape:connector-curvature="0"
         id="path202"
         style="fill:none;stroke:#000000;stroke-width:10;stroke-linecap:butt;stroke-linejoin:round;stroke-miterlimit:10;stroke-opacity:1;stroke-dasharray:none" /><g
         id="g204"><g
           clip-path="url(#clipPath208)"
           id="g206"><path
             d="m 2818,7538 360,0"
             inkscape:connector-curvature="0"
             id="path212"
             style="fill:none;stroke:#808080;stroke-width:20;stroke-linecap:butt;stroke-linejoin:round;stroke-miterlimit:10;stroke-opacity:1;stroke-dasharray:none" /></g></g><path
         d="m 2998,7597 -59,-59 59,-60 60,60 -60,59"
         inkscape:connector-curvature="0"
         id="path214"
         style="fill:#ffffff;fill-opacity:1;fill-rule:nonzero;stroke:none" /><path
         d="m 2998,7597 -59,-59 59,-60 60,60 -60,59 z"
         inkscape:connector-curvature="0"
         id="path216"
         style="fill:none;stroke:#000000;stroke-width:10;stroke-linecap:butt;stroke-linejoin:round;stroke-miterlimit:10;stroke-opacity:1;stroke-dasharray:none" /><path
         d="m 3250,7408.4 913.195,0 0,216 -913.195,0 0,-216 z"
         inkscape:connector-curvature="0"
         id="path218"
         style="fill:#ffffff;fill-opacity:1;fill-rule:nonzero;stroke:none" /><g
         transform="scale(10,10)"
         id="g220"><text
           transform="matrix(1,0,0,-1,337,746.6)"
           id="text222"><tspan
             x="0 7.9920001 19.992001 31.992001 39.984001"
             y="0"
             id="tspan224"
             style="font-size:24px;font-variant:normal;font-weight:normal;writing-mode:lr-tb;fill:#000000;fill-opacity:1;fill-rule:nonzero;stroke:none;font-family:Times New Roman;-inkscape-font-specification:Times-Roman">(45) </tspan></text>
<text
           transform="matrix(1,0,0,-1,382.9844,746.6)"
           id="text226"><tspan
             x="0 9.3360004 21.336"
             y="0"
             id="tspan228"
             style="font-size:24px;font-style:italic;font-variant:normal;writing-mode:lr-tb;fill:#000000;fill-opacity:1;fill-rule:nonzero;stroke:none;font-family:Times New Roman;-inkscape-font-specification:Times-Italic">spd</tspan></text>
</g><g
         id="g230"><g
           clip-path="url(#clipPath234)"
           id="g232"><path
             d="m 1584,7760 411,-635 412,-295 411,-432 412,-304 411,-86 412,-31 411,-17"
             inkscape:connector-curvature="0"
             id="path238"
             style="fill:none;stroke:#808080;stroke-width:20;stroke-linecap:butt;stroke-linejoin:round;stroke-miterlimit:10;stroke-opacity:1;stroke-dasharray:none" /></g></g><path
         d="m 1584,7819 -59,-59 59,-59 59,59 -59,59"
         inkscape:connector-curvature="0"
         id="path240"
         style="fill:#ffffff;fill-opacity:1;fill-rule:nonzero;stroke:none" /><path
         d="m 1584,7819 -59,-59 59,-59 59,59 -59,59 z"
         inkscape:connector-curvature="0"
         id="path242"
         style="fill:none;stroke:#000000;stroke-width:10;stroke-linecap:butt;stroke-linejoin:round;stroke-miterlimit:10;stroke-opacity:1;stroke-dasharray:none" /><path
         d="m 1995,7184 -59,-59 59,-60 60,60 -60,59"
         inkscape:connector-curvature="0"
         id="path244"
         style="fill:#ffffff;fill-opacity:1;fill-rule:nonzero;stroke:none" /><path
         d="m 1995,7184 -59,-59 59,-60 60,60 -60,59 z"
         inkscape:connector-curvature="0"
         id="path246"
         style="fill:none;stroke:#000000;stroke-width:10;stroke-linecap:butt;stroke-linejoin:round;stroke-miterlimit:10;stroke-opacity:1;stroke-dasharray:none" /><path
         d="m 2407,6890 -60,-60 60,-59 59,59 -59,60"
         inkscape:connector-curvature="0"
         id="path248"
         style="fill:#ffffff;fill-opacity:1;fill-rule:nonzero;stroke:none" /><path
         d="m 2407,6890 -60,-60 60,-59 59,59 -59,60 z"
         inkscape:connector-curvature="0"
         id="path250"
         style="fill:none;stroke:#000000;stroke-width:10;stroke-linecap:butt;stroke-linejoin:round;stroke-miterlimit:10;stroke-opacity:1;stroke-dasharray:none" /><path
         d="m 2818,6457 -59,-59 59,-60 60,60 -60,59"
         inkscape:connector-curvature="0"
         id="path252"
         style="fill:#ffffff;fill-opacity:1;fill-rule:nonzero;stroke:none" /><path
         d="m 2818,6457 -59,-59 59,-60 60,60 -60,59 z"
         inkscape:connector-curvature="0"
         id="path254"
         style="fill:none;stroke:#000000;stroke-width:10;stroke-linecap:butt;stroke-linejoin:round;stroke-miterlimit:10;stroke-opacity:1;stroke-dasharray:none" /><path
         d="m 3230,6153 -60,-59 60,-60 59,60 -59,59"
         inkscape:connector-curvature="0"
         id="path256"
         style="fill:#ffffff;fill-opacity:1;fill-rule:nonzero;stroke:none" /><path
         d="m 3230,6153 -60,-59 60,-60 59,60 -59,59 z"
         inkscape:connector-curvature="0"
         id="path258"
         style="fill:none;stroke:#000000;stroke-width:10;stroke-linecap:butt;stroke-linejoin:round;stroke-miterlimit:10;stroke-opacity:1;stroke-dasharray:none" /><path
         d="m 3641,6068 -59,-60 59,-59 60,59 -60,60"
         inkscape:connector-curvature="0"
         id="path260"
         style="fill:#ffffff;fill-opacity:1;fill-rule:nonzero;stroke:none" /><path
         d="m 3641,6068 -59,-60 59,-59 60,59 -60,60 z"
         inkscape:connector-curvature="0"
         id="path262"
         style="fill:none;stroke:#000000;stroke-width:10;stroke-linecap:butt;stroke-linejoin:round;stroke-miterlimit:10;stroke-opacity:1;stroke-dasharray:none" /><path
         d="m 4053,6036 -60,-59 60,-60 59,60 -59,59"
         inkscape:connector-curvature="0"
         id="path264"
         style="fill:#ffffff;fill-opacity:1;fill-rule:nonzero;stroke:none" /><path
         d="m 4053,6036 -60,-59 60,-60 59,60 -59,59 z"
         inkscape:connector-curvature="0"
         id="path266"
         style="fill:none;stroke:#000000;stroke-width:10;stroke-linecap:butt;stroke-linejoin:round;stroke-miterlimit:10;stroke-opacity:1;stroke-dasharray:none" /><path
         d="m 4464,6020 -59,-60 59,-59 59,59 -59,60"
         inkscape:connector-curvature="0"
         id="path268"
         style="fill:#ffffff;fill-opacity:1;fill-rule:nonzero;stroke:none" /><path
         d="m 4464,6020 -59,-60 59,-59 59,59 -59,60 z"
         inkscape:connector-curvature="0"
         id="path270"
         style="fill:none;stroke:#000000;stroke-width:10;stroke-linecap:butt;stroke-linejoin:round;stroke-miterlimit:10;stroke-opacity:1;stroke-dasharray:none" /><g
         id="g272"><g
           clip-path="url(#clipPath276)"
           id="g274"><path
             d="m 2818,7304 360,0"
             inkscape:connector-curvature="0"
             id="path280"
             style="fill:none;stroke:#000000;stroke-width:20;stroke-linecap:butt;stroke-linejoin:round;stroke-miterlimit:10;stroke-opacity:1;stroke-dasharray:none" /></g></g><path
         d="m 3058.3,7303.5 c 0,33.14 -26.86,60 -60,60 -33.14,0 -60,-26.86 -60,-60 0,-33.14 26.86,-60 60,-60 33.14,0 60,26.86 60,60"
         inkscape:connector-curvature="0"
         id="path282"
         style="fill:#ffffff;fill-opacity:1;fill-rule:nonzero;stroke:none" /><path
         d="m 3058.3,7303.5 c 0,33.14 -26.86,60 -60,60 -33.14,0 -60,-26.86 -60,-60 0,-33.14 26.86,-60 60,-60 33.14,0 60,26.86 60,60 z"
         inkscape:connector-curvature="0"
         id="path284"
         style="fill:none;stroke:#000000;stroke-width:20;stroke-linecap:butt;stroke-linejoin:round;stroke-miterlimit:10;stroke-opacity:1;stroke-dasharray:none" /><path
         d="m 3250,7174.4 993.113,0 0,216 -993.113,0 0,-216 z"
         inkscape:connector-curvature="0"
         id="path286"
         style="fill:#ffffff;fill-opacity:1;fill-rule:nonzero;stroke:none" /><g
         transform="scale(10,10)"
         id="g288"><text
           transform="matrix(1,0,0,-1,337,723.2)"
           id="text290"><tspan
             x="0 7.9920001 19.992001 31.992001 39.984001"
             y="0"
             id="tspan292"
             style="font-size:24px;font-variant:normal;font-weight:normal;writing-mode:lr-tb;fill:#000000;fill-opacity:1;fill-rule:nonzero;stroke:none;font-family:Times New Roman;-inkscape-font-specification:Times-Roman">(80) </tspan></text>
<text
           transform="matrix(1,0,0,-1,382.9844,723.2)"
           id="text294"><tspan
             x="0 9.3360004 21.336 33.335999"
             y="0"
             id="tspan296"
             style="font-size:24px;font-style:italic;font-variant:normal;writing-mode:lr-tb;fill:#000000;fill-opacity:1;fill-rule:nonzero;stroke:none;font-family:Times New Roman;-inkscape-font-specification:Times-Italic">spdf</tspan></text>
</g><g
         id="g298"><g
           clip-path="url(#clipPath302)"
           id="g300"><path
             d="m 1584,7049 411,-713 412,-151 411,-97 412,-67 411,-32 412,-18 411,-11"
             inkscape:connector-curvature="0"
             id="path306"
             style="fill:none;stroke:#000000;stroke-width:20;stroke-linecap:butt;stroke-linejoin:round;stroke-miterlimit:10;stroke-opacity:1;stroke-dasharray:none" /></g></g><path
         d="m 1644,7048.6 c 0,33.14 -26.86,60 -60,60 -33.14,0 -60,-26.86 -60,-60 0,-33.14 26.86,-60 60,-60 33.14,0 60,26.86 60,60"
         inkscape:connector-curvature="0"
         id="path308"
         style="fill:#ffffff;fill-opacity:1;fill-rule:nonzero;stroke:none" /><path
         d="m 1644,7048.6 c 0,33.14 -26.86,60 -60,60 -33.14,0 -60,-26.86 -60,-60 0,-33.14 26.86,-60 60,-60 33.14,0 60,26.86 60,60 z"
         inkscape:connector-curvature="0"
         id="path310"
         style="fill:none;stroke:#000000;stroke-width:20;stroke-linecap:butt;stroke-linejoin:round;stroke-miterlimit:10;stroke-opacity:1;stroke-dasharray:none" /><path
         d="m 2055.4,6336 c 0,33.14 -26.86,60 -60,60 -33.14,0 -60,-26.86 -60,-60 0,-33.14 26.86,-60 60,-60 33.14,0 60,26.86 60,60"
         inkscape:connector-curvature="0"
         id="path312"
         style="fill:#ffffff;fill-opacity:1;fill-rule:nonzero;stroke:none" /><path
         d="m 2055.4,6336 c 0,33.14 -26.86,60 -60,60 -33.14,0 -60,-26.86 -60,-60 0,-33.14 26.86,-60 60,-60 33.14,0 60,26.86 60,60 z"
         inkscape:connector-curvature="0"
         id="path314"
         style="fill:none;stroke:#000000;stroke-width:20;stroke-linecap:butt;stroke-linejoin:round;stroke-miterlimit:10;stroke-opacity:1;stroke-dasharray:none" /><path
         d="m 2466.9,6184.8 c 0,33.14 -26.86,60 -60,60 -33.14,0 -60,-26.86 -60,-60 0,-33.14 26.86,-60 60,-60 33.14,0 60,26.86 60,60"
         inkscape:connector-curvature="0"
         id="path316"
         style="fill:#ffffff;fill-opacity:1;fill-rule:nonzero;stroke:none" /><path
         d="m 2466.9,6184.8 c 0,33.14 -26.86,60 -60,60 -33.14,0 -60,-26.86 -60,-60 0,-33.14 26.86,-60 60,-60 33.14,0 60,26.86 60,60 z"
         inkscape:connector-curvature="0"
         id="path318"
         style="fill:none;stroke:#000000;stroke-width:20;stroke-linecap:butt;stroke-linejoin:round;stroke-miterlimit:10;stroke-opacity:1;stroke-dasharray:none" /><path
         d="m 2878.3,6087.7 c 0,33.14 -26.86,60 -60,60 -33.14,0 -60,-26.86 -60,-60 0,-33.14 26.86,-60 60,-60 33.14,0 60,26.86 60,60"
         inkscape:connector-curvature="0"
         id="path320"
         style="fill:#ffffff;fill-opacity:1;fill-rule:nonzero;stroke:none" /><path
         d="m 2878.3,6087.7 c 0,33.14 -26.86,60 -60,60 -33.14,0 -60,-26.86 -60,-60 0,-33.14 26.86,-60 60,-60 33.14,0 60,26.86 60,60 z"
         inkscape:connector-curvature="0"
         id="path322"
         style="fill:none;stroke:#000000;stroke-width:20;stroke-linecap:butt;stroke-linejoin:round;stroke-miterlimit:10;stroke-opacity:1;stroke-dasharray:none" /><path
         d="m 3289.7,6021.5 c 0,33.14 -26.86,60 -60,60 -33.14,0 -60,-26.86 -60,-60 0,-33.14 26.86,-60 60,-60 33.14,0 60,26.86 60,60"
         inkscape:connector-curvature="0"
         id="path324"
         style="fill:#ffffff;fill-opacity:1;fill-rule:nonzero;stroke:none" /><path
         d="m 3289.7,6021.5 c 0,33.14 -26.86,60 -60,60 -33.14,0 -60,-26.86 -60,-60 0,-33.14 26.86,-60 60,-60 33.14,0 60,26.86 60,60 z"
         inkscape:connector-curvature="0"
         id="path326"
         style="fill:none;stroke:#000000;stroke-width:20;stroke-linecap:butt;stroke-linejoin:round;stroke-miterlimit:10;stroke-opacity:1;stroke-dasharray:none" /><path
         d="m 3701.1,5988.8 c 0,33.14 -26.86,60 -60,60 -33.14,0 -60,-26.86 -60,-60 0,-33.14 26.86,-60 60,-60 33.14,0 60,26.86 60,60"
         inkscape:connector-curvature="0"
         id="path328"
         style="fill:#ffffff;fill-opacity:1;fill-rule:nonzero;stroke:none" /><path
         d="m 3701.1,5988.8 c 0,33.14 -26.86,60 -60,60 -33.14,0 -60,-26.86 -60,-60 0,-33.14 26.86,-60 60,-60 33.14,0 60,26.86 60,60 z"
         inkscape:connector-curvature="0"
         id="path330"
         style="fill:none;stroke:#000000;stroke-width:20;stroke-linecap:butt;stroke-linejoin:round;stroke-miterlimit:10;stroke-opacity:1;stroke-dasharray:none" /><path
         d="m 4112.6,5971.1 c 0,33.14 -26.86,60 -60,60 -33.14,0 -60,-26.86 -60,-60 0,-33.14 26.86,-60 60,-60 33.14,0 60,26.86 60,60"
         inkscape:connector-curvature="0"
         id="path332"
         style="fill:#ffffff;fill-opacity:1;fill-rule:nonzero;stroke:none" /><path
         d="m 4112.6,5971.1 c 0,33.14 -26.86,60 -60,60 -33.14,0 -60,-26.86 -60,-60 0,-33.14 26.86,-60 60,-60 33.14,0 60,26.86 60,60 z"
         inkscape:connector-curvature="0"
         id="path334"
         style="fill:none;stroke:#000000;stroke-width:20;stroke-linecap:butt;stroke-linejoin:round;stroke-miterlimit:10;stroke-opacity:1;stroke-dasharray:none" /><path
         d="m 4524,5960 c 0,33.14 -26.86,60 -60,60 -33.14,0 -60,-26.86 -60,-60 0,-33.14 26.86,-60 60,-60 33.14,0 60,26.86 60,60"
         inkscape:connector-curvature="0"
         id="path336"
         style="fill:#ffffff;fill-opacity:1;fill-rule:nonzero;stroke:none" /><path
         d="m 4524,5960 c 0,33.14 -26.86,60 -60,60 -33.14,0 -60,-26.86 -60,-60 0,-33.14 26.86,-60 60,-60 33.14,0 60,26.86 60,60 z"
         inkscape:connector-curvature="0"
         id="path338"
         style="fill:none;stroke:#000000;stroke-width:20;stroke-linecap:butt;stroke-linejoin:round;stroke-miterlimit:10;stroke-opacity:1;stroke-dasharray:none" /><path
         d="m 3058.3,7069.2 c 0,33.14 -26.86,60 -60,60 -33.14,0 -60,-26.86 -60,-60 0,-33.14 26.86,-60 60,-60 33.14,0 60,26.86 60,60"
         inkscape:connector-curvature="0"
         id="path340"
         style="fill:#ffffff;fill-opacity:1;fill-rule:nonzero;stroke:none" /><path
         d="m 3058.3,7069.2 c 0,33.14 -26.86,60 -60,60 -33.14,0 -60,-26.86 -60,-60 0,-33.14 26.86,-60 60,-60 33.14,0 60,26.86 60,60 z"
         inkscape:connector-curvature="0"
         id="path342"
         style="fill:none;stroke:#ff0000;stroke-width:15;stroke-linecap:butt;stroke-linejoin:round;stroke-miterlimit:10;stroke-opacity:1;stroke-dasharray:none" /><path
         d="m 3250,6939.4 1352.87,0 0,216 -1352.87,0 0,-216 z"
         inkscape:connector-curvature="0"
         id="path344"
         style="fill:#ffffff;fill-opacity:1;fill-rule:nonzero;stroke:none" /><g
         transform="scale(10,10)"
         id="g346"><text
           transform="matrix(1,0,0,-1,325,699.7)"
           id="text348"><tspan
             x="0 7.9920001 19.992001 31.992001 43.992001 51.984001 57.984001 69.984001 77.975998 89.975998 100.632 112.632 124.632"
             y="0"
             id="tspan350"
             style="font-size:24px;font-variant:normal;font-weight:normal;writing-mode:lr-tb;fill:#000000;fill-opacity:1;fill-rule:nonzero;stroke:none;font-family:Times New Roman;-inkscape-font-specification:Times-Roman">(125) 2-kappa</tspan></text>
</g><path
         d="m 2466.9,6184.8 c 0,33.14 -26.86,60 -60,60 -33.14,0 -60,-26.86 -60,-60 0,-33.14 26.86,-60 60,-60 33.14,0 60,26.86 60,60"
         inkscape:connector-curvature="0"
         id="path352"
         style="fill:#ffffff;fill-opacity:1;fill-rule:nonzero;stroke:none" /><path
         d="m 2466.9,6184.8 c 0,33.14 -26.86,60 -60,60 -33.14,0 -60,-26.86 -60,-60 0,-33.14 26.86,-60 60,-60 33.14,0 60,26.86 60,60 z"
         inkscape:connector-curvature="0"
         id="path354"
         style="fill:none;stroke:#ff0000;stroke-width:15;stroke-linecap:butt;stroke-linejoin:round;stroke-miterlimit:10;stroke-opacity:1;stroke-dasharray:none" /></g></g></svg>
