<?xml version="1.0" encoding="UTF-8" standalone="no"?>
<!-- Created with Inkscape (http://www.inkscape.org/) -->

<svg
   xmlns:dc="http://purl.org/dc/elements/1.1/"
   xmlns:cc="http://creativecommons.org/ns#"
   xmlns:rdf="http://www.w3.org/1999/02/22-rdf-syntax-ns#"
   xmlns:svg="http://www.w3.org/2000/svg"
   xmlns="http://www.w3.org/2000/svg"
   xmlns:inkscape="http://www.inkscape.org/namespaces/inkscape"
   version="1.1"
   width="765"
   height="229pt"
   id="svg2"
   xml:space="preserve"><metadata
     id="metadata8"><rdf:RDF><cc:Work
         rdf:about=""><dc:format>image/svg+xml</dc:format><dc:type
           rdf:resource="http://purl.org/dc/dcmitype/StillImage" /></cc:Work></rdf:RDF></metadata><defs
     id="defs6"><clipPath
       id="clipPath128"><path
         d="m 360,5946 0,1800 2160,0 0,-1800 -2160,0 z"
         inkscape:connector-curvature="0"
         id="path130" /></clipPath><clipPath
       id="clipPath252"><path
         d="m 3510,5946 0,1800 1800,0 0,-1800 -1800,0 z"
         inkscape:connector-curvature="0"
         id="path254" /></clipPath></defs><g
     transform="matrix(1.25,0,0,-1.25,0,990)"
     id="g10"><g
       transform="scale(0.1,0.1)"
       id="g12"><path
         d="m 252,5856 2376,0 0,1980 -2376,0 0,-1980 z"
         inkscape:connector-curvature="0"
         id="path14"
         style="fill:#ffffff;fill-opacity:1;fill-rule:nonzero;stroke:none" /><path
         d="m 1367,5856 0,1980"
         inkscape:connector-curvature="0"
         id="path16"
         style="fill:none;stroke:#000000;stroke-width:15;stroke-linecap:butt;stroke-linejoin:round;stroke-miterlimit:10;stroke-opacity:1;stroke-dasharray:none" /><path
         d="m 252,7030 2376,0"
         inkscape:connector-curvature="0"
         id="path18"
         style="fill:none;stroke:#000000;stroke-width:15;stroke-linecap:butt;stroke-linejoin:round;stroke-miterlimit:10;stroke-opacity:1;stroke-dasharray:none" /><path
         d="m 504,7015 0,29"
         inkscape:connector-curvature="0"
         id="path20"
         style="fill:none;stroke:#000000;stroke-width:15;stroke-linecap:butt;stroke-linejoin:round;stroke-miterlimit:10;stroke-opacity:1;stroke-dasharray:none" /><path
         d="m 792,7005 0,49"
         inkscape:connector-curvature="0"
         id="path22"
         style="fill:none;stroke:#000000;stroke-width:15;stroke-linecap:butt;stroke-linejoin:round;stroke-miterlimit:10;stroke-opacity:1;stroke-dasharray:none" /><g
         transform="scale(10,10)"
         id="g24"><text
           transform="matrix(1,0,0,-1,57.6121,678.9)"
           id="text26"><tspan
             x="0 13.176 25.176001 31.176001"
             y="0"
             id="tspan28"
             style="font-size:24px;font-variant:normal;font-weight:normal;writing-mode:lr-tb;fill:#000000;fill-opacity:1;fill-rule:nonzero;stroke:none;font-family:Symbol;-inkscape-font-specification:Symbol">−0.4</tspan></text>
</g><path
         d="m 1080,7015 0,29"
         inkscape:connector-curvature="0"
         id="path30"
         style="fill:none;stroke:#000000;stroke-width:15;stroke-linecap:butt;stroke-linejoin:round;stroke-miterlimit:10;stroke-opacity:1;stroke-dasharray:none" /><path
         d="m 1368,7005 0,49"
         inkscape:connector-curvature="0"
         id="path32"
         style="fill:none;stroke:#000000;stroke-width:15;stroke-linecap:butt;stroke-linejoin:round;stroke-miterlimit:10;stroke-opacity:1;stroke-dasharray:none" /><g
         transform="scale(10,10)"
         id="g34"><text
           transform="matrix(1,0,0,-1,130.8,678.9)"
           id="text36"><tspan
             x="0"
             y="0"
             id="tspan38"
             style="font-size:24px;font-variant:normal;font-weight:normal;writing-mode:lr-tb;fill:#000000;fill-opacity:1;fill-rule:nonzero;stroke:none;font-family:Symbol;-inkscape-font-specification:Symbol">0</tspan></text>
</g><path
         d="m 1656,7015 0,29"
         inkscape:connector-curvature="0"
         id="path40"
         style="fill:none;stroke:#000000;stroke-width:15;stroke-linecap:butt;stroke-linejoin:round;stroke-miterlimit:10;stroke-opacity:1;stroke-dasharray:none" /><path
         d="m 1944,7005 0,49"
         inkscape:connector-curvature="0"
         id="path42"
         style="fill:none;stroke:#000000;stroke-width:15;stroke-linecap:butt;stroke-linejoin:round;stroke-miterlimit:10;stroke-opacity:1;stroke-dasharray:none" /><g
         transform="scale(10,10)"
         id="g44"><text
           transform="matrix(1,0,0,-1,179.4,678.9)"
           id="text46"><tspan
             x="0 12 18"
             y="0"
             id="tspan48"
             style="font-size:24px;font-variant:normal;font-weight:normal;writing-mode:lr-tb;fill:#000000;fill-opacity:1;fill-rule:nonzero;stroke:none;font-family:Symbol;-inkscape-font-specification:Symbol">0.4</tspan></text>
</g><path
         d="m 2232,7015 0,29"
         inkscape:connector-curvature="0"
         id="path50"
         style="fill:none;stroke:#000000;stroke-width:15;stroke-linecap:butt;stroke-linejoin:round;stroke-miterlimit:10;stroke-opacity:1;stroke-dasharray:none" /><path
         d="m 2520,7005 0,49"
         inkscape:connector-curvature="0"
         id="path52"
         style="fill:none;stroke:#000000;stroke-width:15;stroke-linecap:butt;stroke-linejoin:round;stroke-miterlimit:10;stroke-opacity:1;stroke-dasharray:none" /><g
         transform="scale(10,10)"
         id="g54"><text
           transform="matrix(1,0,0,-1,237,678.9)"
           id="text56"><tspan
             x="0 12 18"
             y="0"
             id="tspan58"
             style="font-size:24px;font-variant:normal;font-weight:normal;writing-mode:lr-tb;fill:#000000;fill-opacity:1;fill-rule:nonzero;stroke:none;font-family:Symbol;-inkscape-font-specification:Symbol">0.8</tspan></text>
</g><path
         d="m 1337,5946 60,0"
         inkscape:connector-curvature="0"
         id="path60"
         style="fill:none;stroke:#000000;stroke-width:15;stroke-linecap:butt;stroke-linejoin:round;stroke-miterlimit:10;stroke-opacity:1;stroke-dasharray:none" /><g
         transform="scale(10,10)"
         id="g62"><text
           transform="matrix(1,0,0,-1,114.5,587.4)"
           id="text64"><tspan
             x="0"
             y="0"
             id="tspan66"
             style="font-size:24px;font-variant:normal;font-weight:normal;writing-mode:lr-tb;fill:#000000;fill-opacity:1;fill-rule:nonzero;stroke:none;font-family:Symbol;-inkscape-font-specification:Symbol">0</tspan></text>
</g><path
         d="m 1349,6081 36,0"
         inkscape:connector-curvature="0"
         id="path68"
         style="fill:none;stroke:#000000;stroke-width:15;stroke-linecap:butt;stroke-linejoin:round;stroke-miterlimit:10;stroke-opacity:1;stroke-dasharray:none" /><path
         d="m 1337,6217 60,0"
         inkscape:connector-curvature="0"
         id="path70"
         style="fill:none;stroke:#000000;stroke-width:15;stroke-linecap:butt;stroke-linejoin:round;stroke-miterlimit:10;stroke-opacity:1;stroke-dasharray:none" /><g
         transform="scale(10,10)"
         id="g72"><text
           transform="matrix(1,0,0,-1,114.5,614.5)"
           id="text74"><tspan
             x="0"
             y="0"
             id="tspan76"
             style="font-size:24px;font-variant:normal;font-weight:normal;writing-mode:lr-tb;fill:#000000;fill-opacity:1;fill-rule:nonzero;stroke:none;font-family:Symbol;-inkscape-font-specification:Symbol">2</tspan></text>
</g><path
         d="m 1349,6352 36,0"
         inkscape:connector-curvature="0"
         id="path78"
         style="fill:none;stroke:#000000;stroke-width:15;stroke-linecap:butt;stroke-linejoin:round;stroke-miterlimit:10;stroke-opacity:1;stroke-dasharray:none" /><path
         d="m 1337,6488 60,0"
         inkscape:connector-curvature="0"
         id="path80"
         style="fill:none;stroke:#000000;stroke-width:15;stroke-linecap:butt;stroke-linejoin:round;stroke-miterlimit:10;stroke-opacity:1;stroke-dasharray:none" /><g
         transform="scale(10,10)"
         id="g82"><text
           transform="matrix(1,0,0,-1,114.5,641.6)"
           id="text84"><tspan
             x="0"
             y="0"
             id="tspan86"
             style="font-size:24px;font-variant:normal;font-weight:normal;writing-mode:lr-tb;fill:#000000;fill-opacity:1;fill-rule:nonzero;stroke:none;font-family:Symbol;-inkscape-font-specification:Symbol">4</tspan></text>
</g><path
         d="m 1349,6623 36,0"
         inkscape:connector-curvature="0"
         id="path88"
         style="fill:none;stroke:#000000;stroke-width:15;stroke-linecap:butt;stroke-linejoin:round;stroke-miterlimit:10;stroke-opacity:1;stroke-dasharray:none" /><path
         d="m 1337,6759 60,0"
         inkscape:connector-curvature="0"
         id="path90"
         style="fill:none;stroke:#000000;stroke-width:15;stroke-linecap:butt;stroke-linejoin:round;stroke-miterlimit:10;stroke-opacity:1;stroke-dasharray:none" /><g
         transform="scale(10,10)"
         id="g92"><text
           transform="matrix(1,0,0,-1,114.5,668.7)"
           id="text94"><tspan
             x="0"
             y="0"
             id="tspan96"
             style="font-size:24px;font-variant:normal;font-weight:normal;writing-mode:lr-tb;fill:#000000;fill-opacity:1;fill-rule:nonzero;stroke:none;font-family:Symbol;-inkscape-font-specification:Symbol">6</tspan></text>
</g><path
         d="m 1349,6894 36,0"
         inkscape:connector-curvature="0"
         id="path98"
         style="fill:none;stroke:#000000;stroke-width:15;stroke-linecap:butt;stroke-linejoin:round;stroke-miterlimit:10;stroke-opacity:1;stroke-dasharray:none" /><path
         d="m 1337,7030 60,0"
         inkscape:connector-curvature="0"
         id="path100"
         style="fill:none;stroke:#000000;stroke-width:15;stroke-linecap:butt;stroke-linejoin:round;stroke-miterlimit:10;stroke-opacity:1;stroke-dasharray:none" /><path
         d="m 1349,7165 36,0"
         inkscape:connector-curvature="0"
         id="path102"
         style="fill:none;stroke:#000000;stroke-width:15;stroke-linecap:butt;stroke-linejoin:round;stroke-miterlimit:10;stroke-opacity:1;stroke-dasharray:none" /><path
         d="m 1337,7300 60,0"
         inkscape:connector-curvature="0"
         id="path104"
         style="fill:none;stroke:#000000;stroke-width:15;stroke-linecap:butt;stroke-linejoin:round;stroke-miterlimit:10;stroke-opacity:1;stroke-dasharray:none" /><g
         transform="scale(10,10)"
         id="g106"><text
           transform="matrix(1,0,0,-1,102.5,722.8)"
           id="text108"><tspan
             x="0 12"
             y="0"
             id="tspan110"
             style="font-size:24px;font-variant:normal;font-weight:normal;writing-mode:lr-tb;fill:#000000;fill-opacity:1;fill-rule:nonzero;stroke:none;font-family:Symbol;-inkscape-font-specification:Symbol">10</tspan></text>
</g><path
         d="m 1349,7436 36,0"
         inkscape:connector-curvature="0"
         id="path112"
         style="fill:none;stroke:#000000;stroke-width:15;stroke-linecap:butt;stroke-linejoin:round;stroke-miterlimit:10;stroke-opacity:1;stroke-dasharray:none" /><path
         d="m 1337,7571 60,0"
         inkscape:connector-curvature="0"
         id="path114"
         style="fill:none;stroke:#000000;stroke-width:15;stroke-linecap:butt;stroke-linejoin:round;stroke-miterlimit:10;stroke-opacity:1;stroke-dasharray:none" /><g
         transform="scale(10,10)"
         id="g116"><text
           transform="matrix(1,0,0,-1,102.5,749.9)"
           id="text118"><tspan
             x="0 12"
             y="0"
             id="tspan120"
             style="font-size:24px;font-variant:normal;font-weight:normal;writing-mode:lr-tb;fill:#000000;fill-opacity:1;fill-rule:nonzero;stroke:none;font-family:Symbol;-inkscape-font-specification:Symbol">12</tspan></text>
</g><path
         d="m 1349,7707 36,0"
         inkscape:connector-curvature="0"
         id="path122"
         style="fill:none;stroke:#000000;stroke-width:15;stroke-linecap:butt;stroke-linejoin:round;stroke-miterlimit:10;stroke-opacity:1;stroke-dasharray:none" /><g
         id="g124"><g
           clip-path="url(#clipPath128)"
           id="g126"><path
             d="m 360,5946 145,0 2,1 24,0 2,1 15,0 2,1 13,0 2,1 11,0 2,1 9,0 2,1 9,0 2,1 8,0 3,1 6,0 2,1 7,0 2,1 6,0 2,1 7,0 2,1 7,0 2,1 4,0 2,1 7,0 2,1 4,0 2,1 5,0 2,1 4,0 2,1 5,0 2,1 4,0 2,1 5,0 2,1 4,0 2,1 5,0 2,1 2,0 2,1 4,0 3,1 2,0 2,1 4,0 2,1 2,0 3,1 4,0 2,1 2,0 2,1 3,0 2,1 2,0 2,1 2,0 2,1 3,0 2,1 2,0 2,1 2,0 2,1 3,0 2,1 2,0 2,1 2,0 2,1 2,0 3,1 2,1 2,0 2,1 2,0 2,1 3,1 2,0 2,1 2,1 2,0 2,1 3,1 2,0 2,1 2,1 2,1 2,0 3,1 2,1 2,1 2,1 2,1 2,1 2,1 3,1 2,1 2,2 2,1 2,2 2,1 3,2 2,1 2,2 2,1 2,2 2,2 3,1 2,2 2,2 2,2 2,2 2,2 3,2 2,2 2,2 2,2 2,2 2,2 2,2 3,2 2,3 2,2 2,2 2,3 2,2 3,3 2,2 2,3 2,3 2,3 2,4 3,3 2,4 2,4 2,3 2,3 2,3 3,2 2,3 2,2 2,3 2,2 2,3 2,2 3,2 2,2 2,2 2,2 2,3 2,2 3,2 2,2 2,2 2,2 2,2 2,2 3,2 2,1 2,2 2,2 2,2 2,2 3,2 2,2 2,2 2,1 2,3 2,3 2,5 3,5 2,7 2,6 2,7 2,6 2,7 3,5 2,6 2,5 2,5 2,4 2,5 3,4 2,4 2,4 2,5 2,4 2,5 3,4 2,4 2,4 2,5 2,4 2,4 2,5 3,4 2,5 2,4 2,4 2,5 2,5 3,5 2,5 2,5 2,5 2,6 2,6 3,6 2,6 2,7 2,7 2,6 2,7 3,6 2,6 2,6 2,6 2,5 2,5 2,5 3,4 2,4 2,4 2,3 2,3 2,2 3,3 2,2 2,2 2,3 2,2 2,2 3,2 2,2 2,2 2,2 2,1 2,2 3,2 2,1 2,2 2,2 2,2 2,2 2,3 3,3 2,4 2,4 2,4 2,4 2,5 3,5 2,6 2,5 2,5 2,5 2,6 3,5 2,5 2,5 2,6 2,5 2,6 3,6 2,5 2,7 2,6 2,6 2,7 2,7 3,7 2,7 2,8 2,7 2,7 2,8 3,8 2,8 2,8 2,8 2,8 2,8 3,8 2,8 2,9 2,8 2,9 2,10 3,10 2,10 2,11 2,10 2,10 2,11 2,10 3,11 2,11 2,14 2,9 2,7 2,8 3,7 2,6 2,7 2,6 2,5 2,6 3,5 2,5 2,6 2,5 2,5 2,4 3,5 2,4 2,3 2,4 2,3 2,3 2,4 3,3 2,3 2,3 2,3 2,3 2,3 3,3 2,3 2,3 2,2 2,3 2,3 3,3 2,3 2,3 2,3 2,3 2,3 3,3 2,3 2,2 2,2 2,2 2,2 2,2 3,2 2,1 2,2 2,1 2,2 2,1 3,1 2,2 2,1 2,2 2,1 2,2 3,1 2,2 2,1 2,2 2,2 2,2 3,2 2,2 2,2 2,2 2,3 2,2 2,3 3,3 2,2 2,3 2,3 2,3 2,3 3,3 2,3 2,3 2,3 2,3 2,4 3,3 2,4 2,4 2,4 2,4 2,4 3,5 2,4 2,5 2,4 2,5 2,5 2,4 3,5 2,5 2,5 2,4 2,5 2,4 3,4 2,3 2,4 2,4 2,4 2,5 3,4 2,5 2,5 2,5 2,5 2,5 3,6 2,6 2,8 2,13 2,11 2,7 2,5 3,5 2,5 2,4 2,4 2,4 2,4 3,3 2,3 2,3 2,3 2,3 2,3 3,3 2,3 2,2 2,3 2,3 2,3 3,2 2,3 2,3 2,2 2,3 2,3 2,2 3,2 2,2 2,2 2,1 2,2 2,1 3,1 2,2 2,1 2,1 2,1 2,1 3,1 2,1 2,1 2,1 2,1 2,1 3,1 2,1 2,1 2,1 2,1 2,1 2,1 3,1 2,1 2,1 2,1 2,1 2,1 3,1 2,1 2,1 2,0 2,1 2,1 3,1 2,1 2,1 2,1 2,1 2,1 3,1 2,0 2,1 2,1 2,1 2,1 2,1 3,1 2,0 2,1 2,1 2,1 2,1 3,1 2,1 2,0 2,1 2,1 2,1 3,1 2,0 2,1 2,1 2,1 2,1 3,0 2,1 2,1 2,1 2,1 2,0 2,1 3,1 2,1 2,1 2,0 2,1 2,1 3,1 2,0 2,1 2,1 2,1 2,0 3,1 2,1 2,0 2,1 2,1 2,1 3,0 2,1 2,1 2,0 2,1 2,1 2,1 3,0 2,1 2,1 2,0 2,1 2,1 3,0 2,1 2,1 2,0 2,1 2,0 3,1 2,1 2,0 2,1 2,1 2,0 3,1 2,1 2,0 2,1 2,0 2,1 2,1 3,0 2,1 2,0 2,1 2,1 2,0 3,1 2,0 2,1 2,1 2,0 2,1 3,0 2,1 2,0 2,1 2,0 2,1 3,1 2,0 2,1 2,0 2,1 2,0 2,1 3,0 2,1 2,0 2,1 2,0 2,1 3,0 2,1 2,0 2,1 2,0 2,1 3,0 2,1 2,0 2,1 2,0 2,1 3,0 2,1 2,0 2,1 4,0 2,1 3,0 2,1 4,0 2,1 2,0 3,1 4,0 2,1 4,0 3,1 4,0 2,1 4,0 3,1 4,0 2,1 4,0 2,1 5,0 2,1 4,0 2,1 7,0 2,1 4,0 3,1 6,0 2,1 5,0 2,1 6,0 2,1 7,0 2,1 6,0 3,1 6,0 2,1 5,0 2,1 2,0 2,1 2,0 2,1 3,0 2,1 2,1 2,0 2,1 2,1 2,0 3,1 2,1 2,1 2,0 2,1 2,1 3,1 2,1 2,1 2,0 2,1 2,1 3,1 2,1 2,1 2,0 2,1 2,1 3,1 2,0 2,1 2,1 2,1 2,0 2,1 3,1 2,0 2,1 2,1 2,0 2,1 3,1 2,0 2,1 2,1 2,0 2,1 3,1 2,0 2,1 2,1 2,0 2,1 3,0 2,1 2,1 2,0 2,1 2,0 2,1 3,1 2,0 2,1 2,1 2,1 2,1 3,1 2,1 2,1 2,1 2,2 2,1 3,1 2,2 2,1 2,1 2,2 2,1 3,2 2,1 2,2 2,1 2,1 2,1 2,2 3,1 2,1 2,1 2,1 2,2 2,1 3,1 2,1 2,1 2,1 2,2 2,1 3,1 2,1 2,1 2,1 2,1 2,2 3,1 2,1 2,1 2,1 2,1 2,2 2,1 3,1 2,1 2,1 2,1 2,1 2,2 3,1 2,1 2,1 2,1 2,1 2,1 3,1 2,1 2,2 2,1 2,1 2,1 3,1 2,1 2,1 2,1 2,1 2,1 2,1 3,1 2,1 2,1 2,2 2,1 2,1 3,1 2,1 2,1 2,1 2,1 2,1 3,1 2,1 2,2 2,1 2,1 2,1 3,1 2,1 2,1 2,1 2,2 2,1 2,1 3,1 2,1 2,1 2,1 2,1 2,2 3,1 2,1 2,1 2,1 2,1 2,2 3,1 2,1 2,1 2,1 2,1 2,1 3,2 2,1 2,1 2,1"
             inkscape:connector-curvature="0"
             id="path132"
             style="fill:none;stroke:#ff0000;stroke-width:15;stroke-linecap:butt;stroke-linejoin:round;stroke-miterlimit:10;stroke-opacity:1;stroke-dasharray:none" /></g></g><path
         d="m 3420,5856 1980,0 0,1980 -1980,0 0,-1980 z"
         inkscape:connector-curvature="0"
         id="path134"
         style="fill:#ffffff;fill-opacity:1;fill-rule:nonzero;stroke:none" /><path
         d="m 3420,5856 1980,0"
         inkscape:connector-curvature="0"
         id="path136"
         style="fill:none;stroke:#000000;stroke-width:15;stroke-linecap:butt;stroke-linejoin:round;stroke-miterlimit:10;stroke-opacity:1;stroke-dasharray:none" /><path
         d="m 3420,7836 0,-1980"
         inkscape:connector-curvature="0"
         id="path138"
         style="fill:none;stroke:#000000;stroke-width:15;stroke-linecap:butt;stroke-linejoin:round;stroke-miterlimit:10;stroke-opacity:1;stroke-dasharray:none" /><path
         d="m 3630,5856 0,30"
         inkscape:connector-curvature="0"
         id="path140"
         style="fill:none;stroke:#000000;stroke-width:15;stroke-linecap:butt;stroke-linejoin:round;stroke-miterlimit:10;stroke-opacity:1;stroke-dasharray:none" /><path
         d="m 3870,5856 0,50"
         inkscape:connector-curvature="0"
         id="path142"
         style="fill:none;stroke:#000000;stroke-width:15;stroke-linecap:butt;stroke-linejoin:round;stroke-miterlimit:10;stroke-opacity:1;stroke-dasharray:none" /><g
         transform="scale(10,10)"
         id="g144"><text
           transform="matrix(1,0,0,-1,365.412,564)"
           id="text146"><tspan
             x="0 13.176 25.176001 31.176001"
             y="0"
             id="tspan148"
             style="font-size:24px;font-variant:normal;font-weight:normal;writing-mode:lr-tb;fill:#000000;fill-opacity:1;fill-rule:nonzero;stroke:none;font-family:Symbol;-inkscape-font-specification:Symbol">−0.4</tspan></text>
</g><path
         d="m 4110,5856 0,30"
         inkscape:connector-curvature="0"
         id="path150"
         style="fill:none;stroke:#000000;stroke-width:15;stroke-linecap:butt;stroke-linejoin:round;stroke-miterlimit:10;stroke-opacity:1;stroke-dasharray:none" /><path
         d="m 4350,5856 0,50"
         inkscape:connector-curvature="0"
         id="path152"
         style="fill:none;stroke:#000000;stroke-width:15;stroke-linecap:butt;stroke-linejoin:round;stroke-miterlimit:10;stroke-opacity:1;stroke-dasharray:none" /><g
         transform="scale(10,10)"
         id="g154"><text
           transform="matrix(1,0,0,-1,429,564)"
           id="text156"><tspan
             x="0"
             y="0"
             id="tspan158"
             style="font-size:24px;font-variant:normal;font-weight:normal;writing-mode:lr-tb;fill:#000000;fill-opacity:1;fill-rule:nonzero;stroke:none;font-family:Symbol;-inkscape-font-specification:Symbol">0</tspan></text>
</g><path
         d="m 4590,5856 0,30"
         inkscape:connector-curvature="0"
         id="path160"
         style="fill:none;stroke:#000000;stroke-width:15;stroke-linecap:butt;stroke-linejoin:round;stroke-miterlimit:10;stroke-opacity:1;stroke-dasharray:none" /><path
         d="m 4830,5856 0,50"
         inkscape:connector-curvature="0"
         id="path162"
         style="fill:none;stroke:#000000;stroke-width:15;stroke-linecap:butt;stroke-linejoin:round;stroke-miterlimit:10;stroke-opacity:1;stroke-dasharray:none" /><g
         transform="scale(10,10)"
         id="g164"><text
           transform="matrix(1,0,0,-1,468,564)"
           id="text166"><tspan
             x="0 12 18"
             y="0"
             id="tspan168"
             style="font-size:24px;font-variant:normal;font-weight:normal;writing-mode:lr-tb;fill:#000000;fill-opacity:1;fill-rule:nonzero;stroke:none;font-family:Symbol;-inkscape-font-specification:Symbol">0.4</tspan></text>
</g><path
         d="m 5070,5856 0,30"
         inkscape:connector-curvature="0"
         id="path170"
         style="fill:none;stroke:#000000;stroke-width:15;stroke-linecap:butt;stroke-linejoin:round;stroke-miterlimit:10;stroke-opacity:1;stroke-dasharray:none" /><path
         d="m 5310,5856 0,50"
         inkscape:connector-curvature="0"
         id="path172"
         style="fill:none;stroke:#000000;stroke-width:15;stroke-linecap:butt;stroke-linejoin:round;stroke-miterlimit:10;stroke-opacity:1;stroke-dasharray:none" /><g
         transform="scale(10,10)"
         id="g174"><text
           transform="matrix(1,0,0,-1,516,564)"
           id="text176"><tspan
             x="0 12 18"
             y="0"
             id="tspan178"
             style="font-size:24px;font-variant:normal;font-weight:normal;writing-mode:lr-tb;fill:#000000;fill-opacity:1;fill-rule:nonzero;stroke:none;font-family:Symbol;-inkscape-font-specification:Symbol">0.8</tspan></text>
</g><path
         d="m 3420,5946 50,0"
         inkscape:connector-curvature="0"
         id="path180"
         style="fill:none;stroke:#000000;stroke-width:15;stroke-linecap:butt;stroke-linejoin:round;stroke-miterlimit:10;stroke-opacity:1;stroke-dasharray:none" /><g
         transform="scale(10,10)"
         id="g182"><text
           transform="matrix(1,0,0,-1,322.8,587.4)"
           id="text184"><tspan
             x="0"
             y="0"
             id="tspan186"
             style="font-size:24px;font-variant:normal;font-weight:normal;writing-mode:lr-tb;fill:#000000;fill-opacity:1;fill-rule:nonzero;stroke:none;font-family:Symbol;-inkscape-font-specification:Symbol">0</tspan></text>
</g><path
         d="m 3420,6102 30,0"
         inkscape:connector-curvature="0"
         id="path188"
         style="fill:none;stroke:#000000;stroke-width:15;stroke-linecap:butt;stroke-linejoin:round;stroke-miterlimit:10;stroke-opacity:1;stroke-dasharray:none" /><path
         d="m 3420,6259 50,0"
         inkscape:connector-curvature="0"
         id="path190"
         style="fill:none;stroke:#000000;stroke-width:15;stroke-linecap:butt;stroke-linejoin:round;stroke-miterlimit:10;stroke-opacity:1;stroke-dasharray:none" /><g
         transform="scale(10,10)"
         id="g192"><text
           transform="matrix(1,0,0,-1,310.8,618.7)"
           id="text194"><tspan
             x="0 12"
             y="0"
             id="tspan196"
             style="font-size:24px;font-variant:normal;font-weight:normal;writing-mode:lr-tb;fill:#000000;fill-opacity:1;fill-rule:nonzero;stroke:none;font-family:Symbol;-inkscape-font-specification:Symbol">10</tspan></text>
</g><path
         d="m 3420,6415 30,0"
         inkscape:connector-curvature="0"
         id="path198"
         style="fill:none;stroke:#000000;stroke-width:15;stroke-linecap:butt;stroke-linejoin:round;stroke-miterlimit:10;stroke-opacity:1;stroke-dasharray:none" /><path
         d="m 3420,6571 50,0"
         inkscape:connector-curvature="0"
         id="path200"
         style="fill:none;stroke:#000000;stroke-width:15;stroke-linecap:butt;stroke-linejoin:round;stroke-miterlimit:10;stroke-opacity:1;stroke-dasharray:none" /><g
         transform="scale(10,10)"
         id="g202"><text
           transform="matrix(1,0,0,-1,310.8,649.9)"
           id="text204"><tspan
             x="0 12"
             y="0"
             id="tspan206"
             style="font-size:24px;font-variant:normal;font-weight:normal;writing-mode:lr-tb;fill:#000000;fill-opacity:1;fill-rule:nonzero;stroke:none;font-family:Symbol;-inkscape-font-specification:Symbol">20</tspan></text>
</g><path
         d="m 3420,6728 30,0"
         inkscape:connector-curvature="0"
         id="path208"
         style="fill:none;stroke:#000000;stroke-width:15;stroke-linecap:butt;stroke-linejoin:round;stroke-miterlimit:10;stroke-opacity:1;stroke-dasharray:none" /><path
         d="m 3420,6884 50,0"
         inkscape:connector-curvature="0"
         id="path210"
         style="fill:none;stroke:#000000;stroke-width:15;stroke-linecap:butt;stroke-linejoin:round;stroke-miterlimit:10;stroke-opacity:1;stroke-dasharray:none" /><g
         transform="scale(10,10)"
         id="g212"><text
           transform="matrix(1,0,0,-1,310.8,681.2)"
           id="text214"><tspan
             x="0 12"
             y="0"
             id="tspan216"
             style="font-size:24px;font-variant:normal;font-weight:normal;writing-mode:lr-tb;fill:#000000;fill-opacity:1;fill-rule:nonzero;stroke:none;font-family:Symbol;-inkscape-font-specification:Symbol">30</tspan></text>
</g><path
         d="m 3420,7040 30,0"
         inkscape:connector-curvature="0"
         id="path218"
         style="fill:none;stroke:#000000;stroke-width:15;stroke-linecap:butt;stroke-linejoin:round;stroke-miterlimit:10;stroke-opacity:1;stroke-dasharray:none" /><path
         d="m 3420,7196 50,0"
         inkscape:connector-curvature="0"
         id="path220"
         style="fill:none;stroke:#000000;stroke-width:15;stroke-linecap:butt;stroke-linejoin:round;stroke-miterlimit:10;stroke-opacity:1;stroke-dasharray:none" /><g
         transform="scale(10,10)"
         id="g222"><text
           transform="matrix(1,0,0,-1,310.8,712.4)"
           id="text224"><tspan
             x="0 12"
             y="0"
             id="tspan226"
             style="font-size:24px;font-variant:normal;font-weight:normal;writing-mode:lr-tb;fill:#000000;fill-opacity:1;fill-rule:nonzero;stroke:none;font-family:Symbol;-inkscape-font-specification:Symbol">40</tspan></text>
</g><path
         d="m 3420,7353 30,0"
         inkscape:connector-curvature="0"
         id="path228"
         style="fill:none;stroke:#000000;stroke-width:15;stroke-linecap:butt;stroke-linejoin:round;stroke-miterlimit:10;stroke-opacity:1;stroke-dasharray:none" /><path
         d="m 3420,7509 50,0"
         inkscape:connector-curvature="0"
         id="path230"
         style="fill:none;stroke:#000000;stroke-width:15;stroke-linecap:butt;stroke-linejoin:round;stroke-miterlimit:10;stroke-opacity:1;stroke-dasharray:none" /><g
         transform="scale(10,10)"
         id="g232"><text
           transform="matrix(1,0,0,-1,310.8,743.7)"
           id="text234"><tspan
             x="0 12"
             y="0"
             id="tspan236"
             style="font-size:24px;font-variant:normal;font-weight:normal;writing-mode:lr-tb;fill:#000000;fill-opacity:1;fill-rule:nonzero;stroke:none;font-family:Symbol;-inkscape-font-specification:Symbol">50</tspan></text>
</g><path
         d="m 3420,7665 30,0"
         inkscape:connector-curvature="0"
         id="path238"
         style="fill:none;stroke:#000000;stroke-width:15;stroke-linecap:butt;stroke-linejoin:round;stroke-miterlimit:10;stroke-opacity:1;stroke-dasharray:none" /><path
         d="m 3420,7822 50,0"
         inkscape:connector-curvature="0"
         id="path240"
         style="fill:none;stroke:#000000;stroke-width:15;stroke-linecap:butt;stroke-linejoin:round;stroke-miterlimit:10;stroke-opacity:1;stroke-dasharray:none" /><g
         transform="scale(10,10)"
         id="g242"><text
           transform="matrix(1,0,0,-1,310.8,775)"
           id="text244"><tspan
             x="0 12"
             y="0"
             id="tspan246"
             style="font-size:24px;font-variant:normal;font-weight:normal;writing-mode:lr-tb;fill:#000000;fill-opacity:1;fill-rule:nonzero;stroke:none;font-family:Symbol;-inkscape-font-specification:Symbol">60</tspan></text>
</g><g
         id="g248"><g
           clip-path="url(#clipPath252)"
           id="g250"><path
             d="m 3510,5946 94,0 1,1 2,1 2,1 2,0 2,1 1,0 2,1 2,0 2,1 2,0 1,1 2,0 2,1 2,0 2,1 10,0 2,1 4,0 2,1 3,0 2,1 4,0 1,1 8,0 1,1 9,0 2,1 9,0 2,1 5,0 2,1 4,0 2,1 5,0 2,1 7,0 2,1 9,0 2,1 5,0 2,1 7,0 2,1 5,0 2,1 5,0 2,1 4,0 2,1 5,0 2,1 3,0 2,1 6,0 1,1 6,0 2,1 3,0 2,1 5,0 2,1 2,0 2,1 3,0 2,1 2,0 2,1 3,0 2,1 2,0 2,1 3,0 2,1 2,0 2,1 2,0 1,1 2,0 2,1 2,0 2,1 1,1 2,0 2,1 2,1 2,0 1,1 2,1 2,0 2,1 2,1 1,1 2,0 2,1 2,1 2,1 1,1 2,1 2,1 2,1 2,1 1,2 2,1 2,1 2,2 2,1 1,1 2,2 2,2 2,2 2,2 1,2 2,2 2,2 2,3 2,3 1,2 2,3 2,5 2,8 2,10 1,15 2,22 2,26 2,10 2,0 1,4 2,3 2,3 2,1 2,-2 1,-2 2,7 2,8 2,6 2,8 1,9 2,9 2,6 2,4 2,4 1,4 2,4 2,5 2,6 2,5 1,4 2,5 2,5 2,7 2,8 1,10 2,13 2,16 2,16 2,18 1,24 2,31 2,40 2,30 2,-7 1,-36 2,-46 2,-45 2,-29 2,-13 1,-12 2,-12 2,-14 2,-18 2,-13 1,-5 2,-6 2,-3 2,2 2,8 1,7 2,-12 2,-27 2,-21 2,-18 1,-12 2,-8 2,-8 2,-6 2,-5 1,0 2,-3 2,-9 2,-5 2,-2 1,-3 2,3 2,56 2,113 2,128 1,199 2,169 2,44 2,11 2,-2 1,-26 2,-52 2,-64 2,-62 2,-52 1,-45 2,-26 2,-13 2,-11 2,-1 1,12 2,7 2,-3 2,-4 2,-28 1,-28 2,-5 2,-2 2,-1 2,8 1,9 2,-12 2,-15 2,-3 2,2 1,8 2,11 2,14 2,17 2,30 1,39 2,35 2,32 2,30 2,39 1,38 2,19 2,3 2,-8 2,-13 1,-17 2,-34 2,-53 2,-41 2,-28 1,-35 2,-42 2,-60 2,-91 2,-64 1,-19 2,-13 2,-7 2,-5 2,-5 1,-4 2,-2 2,-8 2,-9 2,-6 1,-6 2,-3 2,-5 2,-3 2,-2 1,0 2,2 2,5 2,6 2,3 1,4 2,1 2,-2 2,2 2,3 1,4 2,3 2,4 2,4 2,6 1,8 2,11 2,9 2,7 2,8 1,11 2,19 2,22 2,15 2,12 1,22 2,33 2,39 2,43 2,46 1,27 2,13 2,22 2,24 2,30 1,37 2,36 2,45 2,36 2,9 1,3 2,-6 2,-2 2,24 2,16 1,4 2,30 2,95 2,83 2,11 1,-18 2,-28 2,-21 2,-11 2,15 1,30 2,59 2,229 2,-129 2,-376 1,-92 2,-54 2,-51 2,-42 2,-35 1,-29 2,-23 2,-15 2,-12 2,-12 1,-12 2,-12 2,-9 2,-6 2,-3 1,-1 2,-4 2,-7 2,-7 2,-1 1,-2 2,-6 2,-4 2,-8 2,-12 1,-5 2,-3 2,-3 4,0 1,3 2,11 2,7 2,-1 2,-1 1,1 2,11 2,25 2,2 2,-64 1,-68 2,-28 2,-22 2,-20 2,-20 1,-23 2,-21 2,-16 2,-13 2,-9 1,-8 2,-4 2,-1 4,0 1,-1 36,0 2,-1 15,0 1,-1 22,0 2,-1 3,0 2,-1 7,0 2,-1 2,0 2,-1 11,0 1,-1 24,0 2,-1 14,0 2,-1 11,0 1,-1 11,0 2,-1 9,0 2,-1 5,0 2,-1 5,0 2,-1 7,0 2,-1 9,0 2,-1 9,0 2,-1 9,0 2,-1 9,0 1,-1 9,0 2,-1 9,0 2,-1 9,0 2,-1 12,0 2,-1 2,0 2,-1 7,0 2,-1 3,0 2,-1 7,0 2,-1 7,0 2,-1 6,0 1,-1 6,0 2,-1 9,0 1,-1 4,0 2,-1 5,0 2,-1 7,0 2,-1 5,0 2,-1 7,0 2,-1 13,0 2,-1 1,0 2,-1 7,0 2,-1 7,0 2,-1 6,0 1,-1 9,0 2,1 2,0 2,-1 7,0 2,-1 2,-2 1,-2 2,-3 4,0 2,-1 1,0 2,-1 4,0 2,-1 3,0 2,-1 2,0 2,-1 1,0 2,-1 6,0 1,-1 8,0 1,-1 9,0 2,1 4,0 2,-2 14,0 2,-1 20,0 1,-1 11,0 2,2 2,3 2,3 1,4 2,7 2,5 2,4 2,6 1,7 2,8 2,9 2,6 2,5 1,5 2,2 2,0 2,1 2,1 1,2 2,3 2,4 2,4 2,4 1,4 2,5 2,5 2,3 2,0 1,-2 2,-1 2,-1 2,-1 2,-2 1,-2 2,-3 2,-4 2,-2 2,-1 1,-1 2,-3 2,-2 2,-1 2,0 1,-1 2,0 2,-1 2,-1 3,0 2,-1 2,0 2,-1 2,3 1,1 2,-1 2,-1 4,0 1,-3 2,-5 2,-1 2,-1 2,-1 1,0 2,-1 2,-1 2,0 2,-1 1,-1 2,0 2,-1 2,0 2,-1 16,0 2,-1 3,0 2,-1 2,0 2,-2 1,-1 2,0 2,-1 2,-1 2,0 1,-1 2,0 2,-1 2,-1 11,0 1,1 2,0 2,1 2,0 2,1 1,2 2,2 2,3 2,2 2,1 5,0 2,1 2,1 1,2 2,1 6,0 1,3 2,-1 2,-3 5,0 2,1 4,0 2,1 3,0 2,1 5,0 2,1 7,0 2,1 2,1 13,0 1,-1 6,0 2,-1 1,0 2,-1 4,0 2,-1 3,0 2,-1 13,0 1,1 2,1 2,-2 9,0 2,-1 5,0 2,-1 9,0"
             inkscape:connector-curvature="0"
             id="path256"
             style="fill:none;stroke:#ff0000;stroke-width:15;stroke-linecap:butt;stroke-linejoin:round;stroke-miterlimit:10;stroke-opacity:1;stroke-dasharray:none" /><path
             d="m 3510,5946 128,0 2,1 1,1 2,1 2,0 2,1 2,0 1,1 2,0 2,1 2,0 2,1 1,0 2,1 2,0 2,1 3,0 2,-1 2,1 5,0 2,1 4,0 2,1 3,0 2,1 4,0 1,1 8,0 1,1 13,0 2,1 7,0 2,1 5,0 2,1 5,0 2,1 4,0 2,1 12,0 2,1 9,0 2,1 7,0 2,1 7,0 2,1 5,0 2,1 7,0 2,1 5,0 2,1 7,0 2,1 7,0 2,1 7,0 2,1 6,0 1,1 6,0 2,1 5,0 2,1 3,0 2,1 6,0 1,1 6,0 2,1 3,0 2,1 4,0 1,1 4,0 2,1 3,0 2,1 4,0 2,1 3,0 2,1 4,0 1,1 2,0 2,1 4,0 1,1 2,0 2,1 2,0 2,1 1,0 2,1 2,0 2,1 2,0 1,1 2,0 2,1 2,0 2,1 1,1 2,0 2,1 2,0 2,1 1,1 2,0 2,1 2,1 2,0 1,1 2,1 2,1 2,1 2,1 1,1 2,1 2,1 2,1 2,1 1,1 2,1 2,1 2,1 2,2 1,1 2,2 2,2 2,1 2,2 1,2 2,2 2,2 2,2 2,2 1,3 2,2 2,3 2,3 2,3 1,3 2,4 2,5 2,11 2,14 1,9 2,2 2,1 2,1 2,1 1,1 2,1 4,0 2,-1 1,-1 4,0 2,1 2,1 1,1 2,1 2,1 2,1 2,1 1,1 2,-1 7,0 2,2 2,6 2,9 2,7 1,6 2,9 2,7 2,6 2,5 1,7 2,8 2,11 2,12 2,13 1,16 2,15 2,2 2,-4 2,0 1,1 2,2 2,1 2,1 2,6 1,0 2,-22 2,-30 2,-19 2,-12 1,-9 2,-6 2,-5 2,-5 2,-5 1,-4 2,-3 2,-3 2,-4 2,-7 1,-8 2,-11 2,-9 2,-6 2,-4 1,-5 2,-7 2,-6 2,-6 2,-4 1,-3 2,-3 2,-2 2,-3 2,-2 1,1 2,2 2,3 2,15 2,93 1,107 2,37 2,27 2,39 2,45 1,56 2,72 2,34 2,-27 2,-31 1,3 2,18 2,-4 2,-17 2,-8 1,-6 2,-3 2,-2 2,1 2,9 1,7 2,1 2,-5 2,-7 2,-11 1,-8 2,-6 2,-7 2,-9 2,-10 1,-11 2,-13 2,-12 2,-13 2,-12 1,-2 2,4 2,-1 2,-3 2,4 1,9 2,11 2,15 2,21 2,29 1,30 2,24 2,27 2,20 2,0 1,-10 2,-16 2,-35 2,-41 2,-30 1,-26 2,-24 2,-20 2,-12 2,-9 1,-11 2,-11 2,-7 2,-5 2,-8 1,-5 2,-5 2,-22 2,-30 2,-49 1,-70 2,-41 2,-7 2,-3 2,-4 1,-3 2,-3 2,-3 2,-2 2,0 1,-4 2,-5 2,-4 2,-2 2,-2 1,-2 2,-2 2,-1 2,-1 5,0 2,2 2,1 2,6 1,5 2,3 2,5 2,0 2,-2 1,3 2,2 2,2 2,3 2,3 1,3 2,6 2,6 2,2 2,-1 1,0 2,5 2,9 2,9 2,8 1,10 2,10 2,8 2,15 2,22 1,18 2,15 2,18 2,17 2,18 1,18 2,14 2,3 2,-2 2,1 1,7 2,9 2,11 2,11 2,12 1,17 2,20 2,18 2,19 2,19 1,20 2,23 2,23 2,23 2,19 1,15 2,8 2,11 2,8 2,-3 1,2 2,6 2,5 2,-2 2,-19 1,-45 2,-53 2,-46 2,-6 2,43 1,39 2,15 2,13 2,23 2,31 1,27 2,25 2,27 2,59 2,85 1,137 2,474 2,306 2,-440 2,-480 1,-152 2,-69 2,-45 2,-35 2,-37 1,-37 2,-32 2,-30 2,-24 2,-17 1,-11 2,-8 2,-6 2,-5 2,0 1,-4 2,-10 2,-4 2,-4 2,-6 1,3 2,11 2,14 2,0 2,-53 1,-59 2,-26 2,-19 2,-17 2,-17 1,-19 2,-19 2,-15 2,-12 2,-10 1,-7 2,-5 2,0 2,2 2,1 1,0 2,1 2,1 2,0 2,1 3,0 2,-1 2,0 2,-1 1,0 2,-1 2,-1 2,-1 2,-1 1,-1 2,-1 2,-1 2,-1 2,-1 1,-1 2,0 2,-1 2,-1 2,0 1,-1 2,0 2,-1 2,0 2,-1 1,-1 2,0 2,-1 2,-1 3,0 2,-1 6,0 1,-1 4,0 2,-1 5,0 2,-1 4,0 1,-1 6,0 2,-1 3,0 2,-1 4,0 1,-1 6,0 2,-1 3,0 2,-1 4,0 1,-1 6,0 2,-1 3,0 2,-1 2,0 2,-1 1,0 2,-1 4,0 2,-1 5,0 2,-1 3,0 2,-1 4,0 2,-1 5,0 2,-1 3,0 2,-1 6,0 1,-1 8,0 1,-1 6,0 2,-1 7,0 2,-1 3,0 2,-1 2,0 2,-1 5,0 2,-1 5,0 2,-1 4,0 1,-1 4,0 2,-1 3,0 2,-1 4,0 2,-1 5,0 2,-1 5,0 2,-1 4,0 1,-1 6,0 2,-1 1,0 2,-1 4,0 2,-1 3,0 2,-1 7,0 2,-1 2,1 3,0 2,-1 2,-1 4,0 1,-1 4,0 2,-1 5,0 2,-1 5,0 2,-1 4,0 2,-1 5,0 2,-1 3,0 2,-1 9,0 2,1 2,0 2,-1 3,0 2,-1 2,-1 2,-1 1,-3 2,-2 2,-1 2,0 2,-1 1,0 2,-1 2,0 2,-1 3,0 2,-1 2,-1 11,0 2,-1 1,0 2,-1 4,0 2,-1 7,0 2,-1 7,0 2,-1 9,0 1,-1 8,0 1,-1 18,0 2,-1 7,0 2,2 2,1 2,-2 2,-1 7,0 2,1 1,3 2,6 2,10 2,11 2,11 1,12 2,12 2,13 2,14 2,14 1,12 2,4 2,1 2,2 2,3 1,4 2,4 2,2 2,1 2,-3 1,-5 2,-5 2,-4 2,-5 2,-4 1,-3 2,-2 2,-1 2,-2 2,-1 1,-1 2,-1 2,-1 2,-1 2,0 1,-1 2,1 2,1 2,-1 2,-1 1,-1 2,-1 2,-1 2,-4 2,-4 1,-1 2,-1 6,0 1,-1 2,-1 2,0 2,-1 2,-1 1,-1 2,-1 2,0 2,-1 2,-1 1,-1 2,-1 2,-1 2,-1 2,-2 1,-1 2,-1 2,0 2,-1 2,0 1,-1 2,0 2,-1 5,0 2,1 2,0 2,1 2,0 1,7 2,-3 2,-10 2,1 2,1 1,1 2,2 2,3 2,2 2,1 1,1 2,0 2,-1 2,1 2,0 1,2 2,0 2,1 2,1 3,0 2,1 2,0 2,1 2,3 1,1 2,-1 4,0 2,2 1,1 2,0 2,-1 2,-2 2,0 1,-1 4,0 2,-1 3,0 2,-1 2,0"
             inkscape:connector-curvature="0"
             id="path258"
             style="fill:none;stroke:#00ff00;stroke-width:15;stroke-linecap:butt;stroke-linejoin:round;stroke-miterlimit:10;stroke-opacity:1;stroke-dasharray:none" /></g></g></g></g></svg>
