<?xml version="1.0" encoding="UTF-8" standalone="no"?>
<!-- Created with Inkscape (http://www.inkscape.org/) -->

<svg
   xmlns:dc="http://purl.org/dc/elements/1.1/"
   xmlns:cc="http://creativecommons.org/ns#"
   xmlns:rdf="http://www.w3.org/1999/02/22-rdf-syntax-ns#"
   xmlns:svg="http://www.w3.org/2000/svg"
   xmlns="http://www.w3.org/2000/svg"
   xmlns:inkscape="http://www.inkscape.org/namespaces/inkscape"
   version="1.1"
   width="765"
   height="221pt"
   id="svg2"
   xml:space="preserve"><metadata
     id="metadata8"><rdf:RDF><cc:Work
         rdf:about=""><dc:format>image/svg+xml</dc:format><dc:type
           rdf:resource="http://purl.org/dc/dcmitype/StillImage" /></cc:Work></rdf:RDF></metadata><defs
     id="defs6"><clipPath
       id="clipPath114"><path
         d="m 1530,6030 0,1800 1800,0 0,-1800 -1800,0 z"
         inkscape:connector-curvature="0"
         id="path116" /></clipPath></defs><g
     transform="matrix(1.25,0,0,-1.25,0,990)"
     id="g10"><g
       transform="scale(0.1,0.1)"
       id="g12"><path
         d="m 1440,5940 1980,0 0,1980 -1980,0 0,-1980 z"
         inkscape:connector-curvature="0"
         id="path14"
         style="fill:#ffffff;fill-opacity:1;fill-rule:nonzero;stroke:none" /><path
         d="m 1440,5940 1980,0"
         inkscape:connector-curvature="0"
         id="path16"
         style="fill:none;stroke:#000000;stroke-width:15;stroke-linecap:butt;stroke-linejoin:round;stroke-miterlimit:10;stroke-opacity:1;stroke-dasharray:none" /><path
         d="m 1440,7920 0,-1980"
         inkscape:connector-curvature="0"
         id="path18"
         style="fill:none;stroke:#000000;stroke-width:15;stroke-linecap:butt;stroke-linejoin:round;stroke-miterlimit:10;stroke-opacity:1;stroke-dasharray:none" /><path
         d="m 1650,5940 0,30"
         inkscape:connector-curvature="0"
         id="path20"
         style="fill:none;stroke:#000000;stroke-width:15;stroke-linecap:butt;stroke-linejoin:round;stroke-miterlimit:10;stroke-opacity:1;stroke-dasharray:none" /><path
         d="m 1890,5940 0,49"
         inkscape:connector-curvature="0"
         id="path22"
         style="fill:none;stroke:#000000;stroke-width:15;stroke-linecap:butt;stroke-linejoin:round;stroke-miterlimit:10;stroke-opacity:1;stroke-dasharray:none" /><g
         transform="scale(10,10)"
         id="g24"><text
           transform="matrix(1,0,0,-1,167.412,572.4)"
           id="text26"><tspan
             x="0 13.176 25.176001 31.176001"
             y="0"
             id="tspan28"
             style="font-size:24px;font-variant:normal;font-weight:normal;writing-mode:lr-tb;fill:#000000;fill-opacity:1;fill-rule:nonzero;stroke:none;font-family:Symbol;-inkscape-font-specification:Symbol">−0.4</tspan></text>
</g><path
         d="m 2130,5940 0,30"
         inkscape:connector-curvature="0"
         id="path30"
         style="fill:none;stroke:#000000;stroke-width:15;stroke-linecap:butt;stroke-linejoin:round;stroke-miterlimit:10;stroke-opacity:1;stroke-dasharray:none" /><path
         d="m 2370,5940 0,49"
         inkscape:connector-curvature="0"
         id="path32"
         style="fill:none;stroke:#000000;stroke-width:15;stroke-linecap:butt;stroke-linejoin:round;stroke-miterlimit:10;stroke-opacity:1;stroke-dasharray:none" /><g
         transform="scale(10,10)"
         id="g34"><text
           transform="matrix(1,0,0,-1,231,572.4)"
           id="text36"><tspan
             x="0"
             y="0"
             id="tspan38"
             style="font-size:24px;font-variant:normal;font-weight:normal;writing-mode:lr-tb;fill:#000000;fill-opacity:1;fill-rule:nonzero;stroke:none;font-family:Symbol;-inkscape-font-specification:Symbol">0</tspan></text>
</g><path
         d="m 2610,5940 0,30"
         inkscape:connector-curvature="0"
         id="path40"
         style="fill:none;stroke:#000000;stroke-width:15;stroke-linecap:butt;stroke-linejoin:round;stroke-miterlimit:10;stroke-opacity:1;stroke-dasharray:none" /><path
         d="m 2850,5940 0,49"
         inkscape:connector-curvature="0"
         id="path42"
         style="fill:none;stroke:#000000;stroke-width:15;stroke-linecap:butt;stroke-linejoin:round;stroke-miterlimit:10;stroke-opacity:1;stroke-dasharray:none" /><g
         transform="scale(10,10)"
         id="g44"><text
           transform="matrix(1,0,0,-1,270,572.4)"
           id="text46"><tspan
             x="0 12 18"
             y="0"
             id="tspan48"
             style="font-size:24px;font-variant:normal;font-weight:normal;writing-mode:lr-tb;fill:#000000;fill-opacity:1;fill-rule:nonzero;stroke:none;font-family:Symbol;-inkscape-font-specification:Symbol">0.4</tspan></text>
</g><path
         d="m 3090,5940 0,30"
         inkscape:connector-curvature="0"
         id="path50"
         style="fill:none;stroke:#000000;stroke-width:15;stroke-linecap:butt;stroke-linejoin:round;stroke-miterlimit:10;stroke-opacity:1;stroke-dasharray:none" /><path
         d="m 3330,5940 0,49"
         inkscape:connector-curvature="0"
         id="path52"
         style="fill:none;stroke:#000000;stroke-width:15;stroke-linecap:butt;stroke-linejoin:round;stroke-miterlimit:10;stroke-opacity:1;stroke-dasharray:none" /><g
         transform="scale(10,10)"
         id="g54"><text
           transform="matrix(1,0,0,-1,318,572.4)"
           id="text56"><tspan
             x="0 12 18"
             y="0"
             id="tspan58"
             style="font-size:24px;font-variant:normal;font-weight:normal;writing-mode:lr-tb;fill:#000000;fill-opacity:1;fill-rule:nonzero;stroke:none;font-family:Symbol;-inkscape-font-specification:Symbol">0.8</tspan></text>
</g><path
         d="m 1440,6030 49,0"
         inkscape:connector-curvature="0"
         id="path60"
         style="fill:none;stroke:#000000;stroke-width:15;stroke-linecap:butt;stroke-linejoin:round;stroke-miterlimit:10;stroke-opacity:1;stroke-dasharray:none" /><g
         transform="scale(10,10)"
         id="g62"><text
           transform="matrix(1,0,0,-1,124.8,595.8)"
           id="text64"><tspan
             x="0"
             y="0"
             id="tspan66"
             style="font-size:24px;font-variant:normal;font-weight:normal;writing-mode:lr-tb;fill:#000000;fill-opacity:1;fill-rule:nonzero;stroke:none;font-family:Symbol;-inkscape-font-specification:Symbol">0</tspan></text>
</g><path
         d="m 1440,6233 30,0"
         inkscape:connector-curvature="0"
         id="path68"
         style="fill:none;stroke:#000000;stroke-width:15;stroke-linecap:butt;stroke-linejoin:round;stroke-miterlimit:10;stroke-opacity:1;stroke-dasharray:none" /><path
         d="m 1440,6437 49,0"
         inkscape:connector-curvature="0"
         id="path70"
         style="fill:none;stroke:#000000;stroke-width:15;stroke-linecap:butt;stroke-linejoin:round;stroke-miterlimit:10;stroke-opacity:1;stroke-dasharray:none" /><g
         transform="scale(10,10)"
         id="g72"><text
           transform="matrix(1,0,0,-1,112.8,636.5)"
           id="text74"><tspan
             x="0 12"
             y="0"
             id="tspan76"
             style="font-size:24px;font-variant:normal;font-weight:normal;writing-mode:lr-tb;fill:#000000;fill-opacity:1;fill-rule:nonzero;stroke:none;font-family:Symbol;-inkscape-font-specification:Symbol">10</tspan></text>
</g><path
         d="m 1440,6640 30,0"
         inkscape:connector-curvature="0"
         id="path78"
         style="fill:none;stroke:#000000;stroke-width:15;stroke-linecap:butt;stroke-linejoin:round;stroke-miterlimit:10;stroke-opacity:1;stroke-dasharray:none" /><path
         d="m 1440,6843 50,0"
         inkscape:connector-curvature="0"
         id="path80"
         style="fill:none;stroke:#000000;stroke-width:15;stroke-linecap:butt;stroke-linejoin:round;stroke-miterlimit:10;stroke-opacity:1;stroke-dasharray:none" /><g
         transform="scale(10,10)"
         id="g82"><text
           transform="matrix(1,0,0,-1,112.8,677.1)"
           id="text84"><tspan
             x="0 12"
             y="0"
             id="tspan86"
             style="font-size:24px;font-variant:normal;font-weight:normal;writing-mode:lr-tb;fill:#000000;fill-opacity:1;fill-rule:nonzero;stroke:none;font-family:Symbol;-inkscape-font-specification:Symbol">20</tspan></text>
</g><path
         d="m 1440,7046 30,0"
         inkscape:connector-curvature="0"
         id="path88"
         style="fill:none;stroke:#000000;stroke-width:15;stroke-linecap:butt;stroke-linejoin:round;stroke-miterlimit:10;stroke-opacity:1;stroke-dasharray:none" /><path
         d="m 1440,7250 50,0"
         inkscape:connector-curvature="0"
         id="path90"
         style="fill:none;stroke:#000000;stroke-width:15;stroke-linecap:butt;stroke-linejoin:round;stroke-miterlimit:10;stroke-opacity:1;stroke-dasharray:none" /><g
         transform="scale(10,10)"
         id="g92"><text
           transform="matrix(1,0,0,-1,112.8,717.8)"
           id="text94"><tspan
             x="0 12"
             y="0"
             id="tspan96"
             style="font-size:24px;font-variant:normal;font-weight:normal;writing-mode:lr-tb;fill:#000000;fill-opacity:1;fill-rule:nonzero;stroke:none;font-family:Symbol;-inkscape-font-specification:Symbol">30</tspan></text>
</g><path
         d="m 1440,7453 30,0"
         inkscape:connector-curvature="0"
         id="path98"
         style="fill:none;stroke:#000000;stroke-width:15;stroke-linecap:butt;stroke-linejoin:round;stroke-miterlimit:10;stroke-opacity:1;stroke-dasharray:none" /><path
         d="m 1440,7656 50,0"
         inkscape:connector-curvature="0"
         id="path100"
         style="fill:none;stroke:#000000;stroke-width:15;stroke-linecap:butt;stroke-linejoin:round;stroke-miterlimit:10;stroke-opacity:1;stroke-dasharray:none" /><g
         transform="scale(10,10)"
         id="g102"><text
           transform="matrix(1,0,0,-1,112.8,758.4)"
           id="text104"><tspan
             x="0 12"
             y="0"
             id="tspan106"
             style="font-size:24px;font-variant:normal;font-weight:normal;writing-mode:lr-tb;fill:#000000;fill-opacity:1;fill-rule:nonzero;stroke:none;font-family:Symbol;-inkscape-font-specification:Symbol">40</tspan></text>
</g><path
         d="m 1440,7860 30,0"
         inkscape:connector-curvature="0"
         id="path108"
         style="fill:none;stroke:#000000;stroke-width:15;stroke-linecap:butt;stroke-linejoin:round;stroke-miterlimit:10;stroke-opacity:1;stroke-dasharray:none" /><g
         id="g110"><g
           clip-path="url(#clipPath114)"
           id="g112"><path
             d="m 1530,6030 92,0 2,1 1,0 2,1 2,1 2,0 2,5 1,1 2,-3 2,1 2,0 2,1 1,0 2,1 2,0 2,1 2,0 1,1 2,0 2,1 2,0 2,1 1,0 2,1 9,0 2,1 4,0 1,1 4,0 2,1 3,0 2,1 4,0 2,1 3,0 2,1 4,0 1,1 8,0 1,1 6,0 2,1 3,0 2,1 5,0 2,1 6,0 1,1 4,0 2,1 3,0 2,1 4,0 2,1 3,0 2,1 4,0 1,1 6,0 2,1 5,0 2,1 2,0 1,1 4,0 2,1 3,0 2,1 4,0 2,1 1,0 2,1 4,0 2,1 3,0 2,1 2,0 2,1 1,0 2,1 2,0 2,1 2,0 1,1 2,0 2,1 2,0 2,1 1,0 2,1 2,0 2,1 2,0 1,1 2,0 2,1 2,1 2,0 1,1 2,0 2,1 2,1 2,1 1,1 2,1 2,0 2,1 2,1 1,1 2,1 2,1 2,1 2,0 1,1 2,1 2,1 2,1 2,2 1,1 2,1 2,1 2,2 2,1 1,2 2,1 2,2 2,2 2,2 1,2 2,2 2,3 2,2 2,3 1,5 2,4 2,3 2,4 2,4 1,5 2,6 2,6 2,7 2,7 1,15 2,32 2,31 2,27 2,11 1,-19 2,-8 2,8 2,3 2,3 1,5 2,7 2,21 2,14 2,-3 1,5 2,7 2,9 2,9 2,11 1,8 2,4 2,7 2,7 2,5 1,6 2,7 2,9 2,9 2,10 1,12 2,13 2,17 2,19 2,23 1,26 2,31 2,39 2,50 2,57 1,-52 2,-107 2,-51 2,-34 2,-20 1,-22 2,-19 2,-17 2,-16 2,-12 1,-7 2,-6 2,-7 2,-1 2,4 1,-2 2,-13 2,-19 2,-26 2,-22 1,-14 2,-17 2,-14 2,-9 2,-11 1,-7 2,-2 2,-1 2,0 2,1 1,24 2,-41 2,90 2,267 2,151 1,87 2,169 2,113 2,82 2,91 1,-39 2,-132 2,-130 2,-87 2,-71 1,-36 2,-22 2,-21 2,-34 2,-24 1,-7 2,10 2,6 2,0 2,8 1,7 2,-3 2,-16 2,-21 2,-24 1,-18 2,-6 2,9 2,14 2,19 1,19 2,16 2,13 2,19 2,21 1,15 2,29 2,51 2,64 2,56 1,55 2,26 2,12 2,24 2,-38 1,-80 2,-58 2,-31 2,-38 2,-61 1,-28 2,-32 2,-98 2,-147 2,-70 1,-6 2,-9 2,-13 2,-18 2,-10 1,-14 2,-6 2,-8 2,-6 2,-4 1,-3 4,0 2,-7 2,-6 1,-1 2,2 2,6 2,5 2,3 1,4 2,4 2,4 2,3 2,4 1,11 2,2 2,-4 2,5 2,8 1,12 2,9 2,10 2,10 2,12 1,12 2,13 2,19 2,23 2,20 1,29 2,40 2,56 2,67 2,63 1,53 2,36 2,35 2,50 2,37 1,53 2,71 2,34 2,-5 2,-13 1,21 2,19 2,-11 2,-9 2,2 1,9 2,20 2,195 2,155 2,-107 1,-101 2,-34 2,8 2,35 2,97 1,55 2,-4 2,433 2,-186 2,-570 1,-101 2,-137 2,-41 2,-40 2,-29 1,-31 2,-28 2,-21 2,-18 2,-12 1,-34 2,-32 2,-10 2,-11 2,-6 1,-6 2,-6 2,-6 2,-9 2,-4 1,1 2,8 2,-6 2,-12 2,-3 1,-3 2,3 2,1 2,17 2,17 1,-6 2,-18 2,-10 2,-10 2,-1 1,12 2,1 2,25 2,-23 2,-46 1,-59 2,-50 2,-18 2,-49 2,-36 1,-29 2,-24 2,-20 2,-14 2,-10 1,-6 2,-3 2,0 2,1 2,1 1,0 2,1 2,0 2,-1 2,-2 1,1 26,0 1,-1 2,0 2,-1 2,0 2,-1 9,0 1,1 2,3 2,-3 2,-4 2,1 3,0 2,-1 25,0 2,-1 13,0 1,-1 13,0 2,-1 5,0 2,-1 2,0 2,-1 1,0 2,-1 6,0 1,-1 6,0 2,-1 7,0 2,-1 7,0 2,-1 10,0 2,-1 13,0 2,-1 9,0 1,-1 8,0 1,-1 6,0 2,-1 5,0 2,-1 5,0 2,-1 4,0 1,-1 4,0 2,-1 3,0 2,-1 7,0 2,-1 6,0 1,-1 6,0 2,-1 3,0 2,-1 7,0 2,-1 5,0 2,-1 4,0 2,-1 5,0 2,-1 9,0 2,-1 1,0 2,-1 4,0 2,-1 5,0 2,-1 5,0 2,-1 5,0 2,-1 6,0 1,-1 9,0 2,-1 4,0 2,-1 1,0 2,-1 4,0 2,-1 3,0 2,-1 2,-1 5,0 2,1 2,-1 2,0 1,-1 4,0 2,-1 3,0 2,-1 4,0 2,-1 5,0 2,-1 2,0 1,-1 2,0 2,-1 5,0 2,-1 2,0 2,-1 2,0 1,-1 2,-1 2,0 2,-2 2,-1 1,-1 4,0 2,-1 3,0 2,-1 4,0 2,-1 3,0 2,-1 5,0 2,-1 4,0 2,-1 5,0 2,-1 7,0 2,-1 3,0 2,-1 2,0 2,-1 3,0 2,-1 6,0 1,-2 2,5 2,-1 2,-8 2,2 1,-1 2,0 2,-1 4,0 1,-1 6,0 2,-1 3,0 2,-1 11,0 2,1 3,0 2,2 2,5 2,5 1,6 2,7 2,7 2,8 2,9 1,9 2,11 2,12 2,10 2,4 1,5 2,6 2,4 2,6 2,6 1,5 2,-1 2,-1 2,1 2,-1 1,-1 4,0 2,1 5,0 2,1 2,0 2,1 1,1 2,2 2,1 2,2 3,0 2,-4 2,-10 2,-3 2,-1 1,-1 2,-1 2,0 2,-1 2,1 1,1 6,0 2,-1 1,-1 2,-3 2,-4 2,-1 2,-1 1,-1 2,-2 2,-1 2,-1 2,-1 1,0 2,-1 7,0 2,-1 2,6 2,-5 2,-9 1,2 2,-2 2,0 2,-1 2,-1 3,0 2,-1 2,0 2,-1 3,0 2,-1 2,0 2,-1 1,0 2,-1 2,3 2,0 2,-5 1,1 2,-1 2,-1 4,0 1,-1 2,1 2,-2 2,5 2,3 1,-3 2,2 2,1 2,2 2,0 1,1 2,1 2,0 2,1 2,0 1,1 4,0 2,-1 2,7 1,2 2,-4 2,2 2,1 2,-1 1,-1 2,1 2,0 2,1 2,1 1,2 2,-4 2,29 2,1 2,-25 1,6 2,-2 2,0 2,-1 2,0 1,-1 4,0 2,-1 2,0 1,-1 2,-1 6,0 1,1 2,-1 2,-2 16,0 2,1 16,0 2,-1 2,2 2,2 1,-2 2,-1 2,0 2,-1 2,0 1,-1 13,0 2,1 2,0 1,-1 4,0"
             inkscape:connector-curvature="0"
             id="path118"
             style="fill:none;stroke:#000000;stroke-width:15;stroke-linecap:butt;stroke-linejoin:round;stroke-miterlimit:10;stroke-opacity:1;stroke-dasharray:none" /><path
             d="m 1530,6030 187,0 2,1 45,0 2,1 23,0 2,1 16,0 2,1 13,0 1,1 9,0 2,1 7,0 2,1 6,0 1,1 6,0 2,1 3,0 2,1 4,0 1,1 2,0 2,1 2,0 2,1 3,0 2,1 2,0 2,1 1,0 2,1 2,0 2,1 2,1 1,0 2,1 2,1 2,1 2,0 1,1 2,1 2,1 2,2 2,1 1,1 2,2 2,1 2,2 2,2 1,3 2,3 2,2 2,3 2,3 1,4 2,4 2,5 2,5 2,6 1,12 2,26 2,26 2,23 2,10 1,-15 2,-6 2,6 2,4 2,3 1,5 2,7 2,21 2,14 2,-2 1,5 2,8 2,9 2,8 2,11 1,8 2,5 2,7 2,7 2,6 1,6 2,8 2,8 2,10 2,9 1,12 2,12 2,14 2,18 2,21 1,23 2,28 2,34 2,46 2,54 1,-44 2,-90 2,-41 2,-27 2,-16 1,-17 2,-15 2,-14 2,-11 2,-10 1,-5 2,-4 2,-5 2,0 2,6 1,-1 2,-11 2,-16 2,-23 2,-21 1,-11 2,-16 2,-12 2,-9 2,-10 1,-6 2,-2 2,-1 2,0 2,1 1,21 2,-37 2,85 2,252 2,143 1,82 2,162 2,108 2,72 2,82 1,-40 2,-123 2,-118 2,-80 2,-66 1,-34 2,-21 2,-22 2,-33 2,-24 1,-8 2,6 2,4 2,-2 2,5 1,3 2,-5 2,-17 2,-23 2,-23 1,-18 2,-7 2,6 2,11 2,15 1,13 2,12 2,10 2,16 2,17 1,13 2,24 2,43 2,53 2,47 1,46 2,22 2,9 2,19 2,-32 1,-66 2,-47 2,-22 2,-30 2,-53 1,-23 2,-27 2,-90 2,-138 2,-64 1,-4 2,-6 2,-11 2,-15 2,-8 1,-12 2,-5 2,-6 2,-4 2,-3 1,-1 4,0 2,-5 2,-5 1,-1 2,3 2,7 2,4 2,4 1,4 2,5 2,3 2,4 2,4 1,12 2,2 2,-3 2,5 2,8 1,12 2,9 2,10 2,10 2,12 1,12 2,12 2,19 2,21 2,21 1,28 2,39 2,52 2,64 2,60 1,51 2,35 2,36 2,50 2,37 1,53 2,72 2,34 2,-3 2,-12 1,23 2,19 2,-11 2,-6 2,3 1,11 2,21 2,193 2,155 2,-103 1,-98 2,-32 2,8 2,35 2,96 1,54 2,-4 2,430 2,-189 2,-571 1,-102 2,-137 2,-41 2,-40 2,-30 1,-32 2,-27 2,-21 2,-18 2,-13 1,-33 2,-31 2,-10 2,-11 2,-6 1,-6 2,-5 2,-7 2,-8 2,-4 1,2 2,5 2,-6 2,-9 2,-2 1,-3 2,3 2,2 2,16 2,18 1,-6 2,-17 2,-9 2,-10 2,0 1,12 2,1 2,26 2,-23 2,-45 1,-58 2,-50 2,-16 2,-49 2,-35 1,-29 2,-24 2,-19 2,-14 2,-10 1,-6 2,-3 9,0 2,-1 2,-1 2,-2 5,0 2,-1 3,0 2,-1 4,0 2,-1 1,0 2,-1 2,0 2,-1 2,0 1,-1 2,-1 2,-1 2,0 2,-1 1,0 2,-1 2,0 2,-1 3,0 2,1 2,-2 2,-2 5,0 2,-1 4,0 1,-1 8,0 1,-1 6,0 2,-1 5,0 2,-1 5,0 2,-1 5,0 2,-1 6,0 1,-1 6,0 2,-1 3,0 2,-1 2,0 2,-1 1,0 2,-1 6,0 1,-1 6,0 2,-1 7,0 2,-1 7,0 2,-1 9,0 1,-1 11,0 2,-1 11,0 2,-1 9,0 1,-1 9,0 2,-1 9,0 2,-1 7,0 2,-1 5,0 2,-1 11,0 2,-1 11,0 1,-1 11,0 2,-1 13,0 1,-1 17,0 1,-1 11,0 2,-1 16,0 2,-1 18,0 2,-1 11,0 1,-1 13,0 2,-1 12,0 2,-1 15,0 1,-1 13,0 2,-1 7,0 2,-1 2,-1 16,0 2,-1 18,0 1,-1 20,0 2,-1 13,0 1,-1 2,2 2,0 2,-4 2,1 9,0 1,-1 29,0 2,1 2,2 2,1 1,2 2,2 2,3 2,2 2,3 1,3 2,3 2,4 2,3 2,2 1,1 2,2 2,1 2,2 2,2 1,1 8,0 1,-1 4,0 2,1 14,0 2,1 4,0 1,1 2,-2 2,-3 2,-1 2,0 1,-1 15,0 2,-1 1,0 2,-1 2,-1 4,0 1,-1 2,0 2,-1 7,0 2,-1 2,0 2,1 3,0 2,2 2,-2 2,-4 1,1 2,-1 7,0 2,-1 9,0 2,-1 11,0 2,-1 9,0 1,-1 6,0 2,1 1,-1 2,1 7,0 2,1 13,0 2,2 1,1 2,-2 2,1 4,0 1,-1 8,0 1,1 2,-1 2,2 2,0 2,-1 19,0 2,-1 4,0 2,1 1,0 2,-1 18,0 2,1 29,0 2,-1 5,0 2,1 16,0"
             inkscape:connector-curvature="0"
             id="path120"
             style="fill:none;stroke:#b2b2b2;stroke-width:15;stroke-linecap:butt;stroke-linejoin:round;stroke-miterlimit:10;stroke-opacity:1;stroke-dasharray:none" /><path
             d="m 1530,6030 196,0 2,1 54,0 2,1 25,0 2,1 20,0 1,1 11,0 2,1 9,0 2,1 7,0 2,1 5,0 2,1 5,0 2,1 6,0 1,1 4,0 2,1 2,0 1,1 2,0 2,1 2,0 2,1 1,0 2,1 2,0 2,1 2,1 1,1 2,1 2,1 2,1 2,1 1,2 2,2 2,1 2,2 2,2 1,2 2,3 2,3 2,3 2,4 1,7 2,17 2,16 2,14 2,7 1,-10 2,-4 2,4 2,2 2,2 1,2 2,2 2,1 2,1 2,-1 1,-2 2,1 2,1 2,2 2,2 1,3 2,1 2,2 2,1 2,1 1,0 2,2 2,1 2,1 2,1 1,1 2,1 2,2 2,3 2,3 1,4 2,4 2,4 2,7 2,13 1,-3 2,-13 2,-2 2,-2 2,-1 1,-1 2,-1 2,-2 2,-2 2,1 1,2 2,1 2,0 2,5 2,9 1,3 2,-7 2,-10 2,-16 2,-18 1,-10 2,-13 2,-11 2,-7 2,-8 1,-4 2,-2 2,-2 4,0 1,19 2,-39 2,81 2,238 2,130 1,67 2,142 2,88 2,38 2,45 1,-41 2,-100 2,-97 2,-58 2,-45 1,-25 2,-15 2,-17 2,-26 2,-20 1,-8 2,8 2,4 2,-1 2,6 1,4 2,1 2,-7 2,-11 2,-13 1,-11 2,-4 2,6 2,9 2,12 1,10 2,9 2,7 2,10 2,13 1,9 2,16 2,29 2,34 2,30 1,28 2,15 2,9 2,18 2,-20 1,-44 2,-28 2,-5 2,-15 2,-41 1,-13 2,-19 2,-83 2,-130 2,-59 1,0 2,-2 2,-8 2,-13 2,-6 1,-10 2,-3 2,-4 2,-3 2,-2 1,0 2,1 2,1 2,-5 2,-5 1,-2 2,2 2,5 2,3 2,3 1,3 2,3 2,1 2,1 2,1 1,5 2,1 2,-2 2,1 2,4 1,7 2,4 2,5 2,6 2,6 1,6 2,6 2,9 2,11 2,11 1,15 2,19 2,29 2,35 2,31 1,24 2,14 2,9 2,13 2,6 1,11 2,11 2,3 2,-4 2,-9 1,-3 2,-2 2,2 2,2 2,-2 1,-3 2,0 2,15 2,-2 2,-42 1,-39 2,-19 2,-14 2,-7 2,5 1,-20 2,-31 2,12 2,14 2,-1 1,3 2,-7 2,-6 2,1 2,3 1,2 2,1 2,2 2,1 2,10 1,-8 2,-13 2,4 2,2 2,3 1,2 2,3 2,1 2,-1 2,4 1,7 2,10 2,1 2,-1 2,5 1,4 2,6 2,6 2,19 2,21 1,-1 2,-14 2,-6 2,-7 2,2 1,15 2,3 2,28 2,-21 2,-44 1,-56 2,-48 2,-16 2,-46 2,-34 1,-27 2,-23 2,-17 2,-13 2,-9 1,-6 2,-3 2,0 2,1 7,0 2,-1 2,-1 1,0 2,-1 6,0 1,-1 4,0 2,-1 3,0 2,-1 2,0 2,-1 2,0 1,-1 2,-1 2,0 2,-1 2,0 1,-1 6,0 2,-1 1,1 2,0 2,-1 2,-2 9,0 2,-1 9,0 1,-1 9,0 2,-1 9,0 2,-1 7,0 2,-1 7,0 2,-1 5,0 2,-1 4,0 2,-1 3,0 2,-1 7,0 2,-1 11,0 2,-1 12,0 2,-1 16,0 2,-1 16,0 2,-1 13,0 1,-1 13,0 2,-1 7,0 2,-1 12,0 2,-1 16,0 2,-1 16,0 2,-1 22,0 2,-1 19,0 2,-1 27,0 2,-1 14,0 2,-1 16,0 2,-1 20,0 2,-1 18,0 2,-1 7,0 2,-1 16,0 2,-1 36,0 1,-1 13,0 2,-1 2,1 1,-1 2,2 2,-1 2,-3 2,1 39,0 2,1 2,1 2,1 1,2 2,1 2,2 2,2 2,3 1,2 2,2 2,4 2,2 2,1 1,1 2,1 2,1 2,2 2,2 1,1 2,-1 6,0 1,-1 4,0 2,1 16,0 2,1 3,0 2,-1 2,-3 2,-1 5,0 2,-1 11,0 2,-1 3,0 2,-1 4,0 1,-1 6,0 2,-1 9,0 1,1 2,-1 2,3 2,-2 2,-4 1,1 2,-1 9,0 2,-1 11,0 2,-1 12,0 2,-1 16,0 2,1 7,0 2,1 11,0 2,2 1,1 2,-1 18,0 2,1 2,0 2,-1 104,0"
             inkscape:connector-curvature="0"
             id="path122"
             style="fill:none;stroke:#ff0000;stroke-width:15;stroke-linecap:butt;stroke-linejoin:round;stroke-miterlimit:10;stroke-opacity:1;stroke-dasharray:144, 36;stroke-dashoffset:0" /><path
             d="m 1530,6030 243,0 2,1 47,0 1,1 26,0 1,1 13,0 2,1 11,0 1,1 8,0 1,1 8,0 1,1 4,0 2,1 3,0 2,1 4,0 2,1 1,0 2,1 2,1 2,0 2,1 1,1 2,1 2,1 2,1 2,1 1,2 2,1 2,2 2,2 2,2 1,5 2,9 2,10 2,8 2,4 1,-5 2,-2 2,3 2,1 2,1 1,4 2,4 2,20 2,13 2,-1 1,7 2,7 2,7 2,7 2,8 1,6 2,4 2,5 2,6 2,5 1,6 2,6 2,7 2,9 2,9 1,10 2,11 2,12 2,15 2,18 1,19 2,24 2,30 2,38 2,41 1,-40 2,-78 2,-37 2,-26 2,-15 1,-16 2,-13 2,-12 2,-11 2,-10 1,-7 2,-5 2,-5 2,-5 2,-4 1,-3 2,-4 2,-6 2,-7 2,-3 1,-2 2,-2 2,-1 2,-2 2,-2 1,-2 4,0 2,1 2,1 1,2 2,2 2,4 2,13 2,14 1,15 2,20 2,19 2,35 2,37 1,2 2,-23 2,-21 2,-23 2,-21 1,-10 2,-6 2,-4 2,-7 2,-4 1,-1 2,-1 2,-1 2,0 2,-1 1,-1 2,-6 2,-11 2,-11 2,-10 1,-6 2,-4 2,0 2,2 2,3 1,3 2,3 2,3 2,6 2,4 1,4 2,8 2,14 2,19 2,17 1,17 2,7 2,1 2,2 2,-13 1,-23 2,-18 2,-17 2,-15 2,-11 1,-10 2,-8 2,-8 2,-8 2,-5 1,-4 2,-4 2,-3 2,-2 2,-3 1,-2 2,-1 2,-2 2,-1 2,-1 1,-1 2,-1 7,0 2,1 2,1 2,2 2,1 1,1 2,1 2,3 2,3 2,3 1,7 2,1 2,-1 2,4 2,4 1,5 2,5 2,5 2,5 2,5 1,6 2,6 2,9 2,11 2,9 1,14 2,20 2,24 2,29 2,28 1,26 2,22 2,27 2,37 2,31 1,42 2,61 2,31 2,2 2,-3 1,25 2,21 2,-13 2,-9 2,6 1,14 2,21 2,178 2,157 2,-61 1,-59 2,-13 2,22 2,42 2,91 1,75 2,26 2,418 2,-203 2,-570 1,-105 2,-131 2,-34 2,-42 2,-32 1,-33 2,-30 2,-22 2,-19 2,-23 1,-26 2,-17 2,-14 2,-12 2,-10 1,-8 2,-8 2,-8 2,-8 2,-7 1,-6 2,-4 2,-7 2,-8 2,-8 1,-5 2,-4 2,-4 2,-3 2,-4 1,-4 2,-3 2,-3 2,-3 2,-2 1,-2 2,-2 2,-2 2,-2 2,-2 1,-2 2,-1 2,-2 2,-2 2,-2 1,-1 2,-1 2,-2 2,-1 2,0 1,-1 4,0 2,-1 5,0 2,-1 13,0 1,-1 24,0 2,-1 12,0 2,-1 9,0 2,-1 21,0 2,-1 25,0 2,-1 25,0 2,-1 25,0 2,-1 36,0 2,-1 40,0 1,-1 45,0 2,-1 49,0 2,-1 63,0 1,-1 40,0 2,-1 47,0 1,-1 54,0 2,-1 20,0 2,1 3,0 2,1 2,0 2,1 2,0 1,1 2,1 2,1 2,0 2,1 3,0 2,1 4,0 1,1 31,0 2,1 2,-1 14,0 2,-1 2,1 12,0 2,-1 13,0 1,-1 51,0 2,-1 176,0"
             inkscape:connector-curvature="0"
             id="path124"
             style="fill:none;stroke:#00ff00;stroke-width:15;stroke-linecap:butt;stroke-linejoin:round;stroke-miterlimit:10;stroke-opacity:1;stroke-dasharray:144, 36;stroke-dashoffset:0" /></g></g></g></g></svg>
