<?xml version="1.0" encoding="UTF-8" standalone="no"?>
<!-- Created with Inkscape (http://www.inkscape.org/) -->

<svg
   xmlns:dc="http://purl.org/dc/elements/1.1/"
   xmlns:cc="http://creativecommons.org/ns#"
   xmlns:rdf="http://www.w3.org/1999/02/22-rdf-syntax-ns#"
   xmlns:svg="http://www.w3.org/2000/svg"
   xmlns="http://www.w3.org/2000/svg"
   xmlns:inkscape="http://www.inkscape.org/namespaces/inkscape"
   version="1.1"
   width="765"
   height="182pt"
   id="svg2"
   xml:space="preserve"><metadata
     id="metadata8"><rdf:RDF><cc:Work
         rdf:about=""><dc:format>image/svg+xml</dc:format><dc:type
           rdf:resource="http://purl.org/dc/dcmitype/StillImage" /></cc:Work></rdf:RDF></metadata><defs
     id="defs6"><clipPath
       id="clipPath162"><path
         d="m 1440,6320 0,1584 3960,0 0,-1584 -3960,0 z"
         inkscape:connector-curvature="0"
         id="path164" /></clipPath></defs><g
     transform="matrix(1.25,0,0,-1.25,0,990)"
     id="g10"><g
       transform="scale(0.1,0.1)"
       id="g12"><path
         d="m 1440,6320 3960,0 0,1584 -3960,0 0,-1584 z"
         inkscape:connector-curvature="0"
         id="path14"
         style="fill:#ffffff;fill-opacity:1;fill-rule:nonzero;stroke:none" /><path
         d="m 1440,6320 3960,0 0,1584 -3960,0 0,-1584"
         inkscape:connector-curvature="0"
         id="path16"
         style="fill:none;stroke:#000000;stroke-width:15;stroke-linecap:butt;stroke-linejoin:round;stroke-miterlimit:10;stroke-opacity:1;stroke-dasharray:none" /><path
         d="m 1440,6320 0,40"
         inkscape:connector-curvature="0"
         id="path18"
         style="fill:none;stroke:#000000;stroke-width:15;stroke-linecap:butt;stroke-linejoin:round;stroke-miterlimit:10;stroke-opacity:1;stroke-dasharray:none" /><g
         transform="scale(10,10)"
         id="g20"><text
           transform="matrix(1,0,0,-1,125.412,610.4)"
           id="text22"><tspan
             x="0 13.176 25.176001"
             y="0"
             id="tspan24"
             style="font-size:24px;font-variant:normal;font-weight:normal;writing-mode:lr-tb;fill:#000000;fill-opacity:1;fill-rule:nonzero;stroke:none;font-family:Symbol;-inkscape-font-specification:Symbol">−10</tspan></text>
</g><path
         d="m 1704,6320 0,24"
         inkscape:connector-curvature="0"
         id="path26"
         style="fill:none;stroke:#000000;stroke-width:15;stroke-linecap:butt;stroke-linejoin:round;stroke-miterlimit:10;stroke-opacity:1;stroke-dasharray:none" /><path
         d="m 1968,6320 0,40"
         inkscape:connector-curvature="0"
         id="path28"
         style="fill:none;stroke:#000000;stroke-width:15;stroke-linecap:butt;stroke-linejoin:round;stroke-miterlimit:10;stroke-opacity:1;stroke-dasharray:none" /><g
         transform="scale(10,10)"
         id="g30"><text
           transform="matrix(1,0,0,-1,184.212,610.4)"
           id="text32"><tspan
             x="0 13.176"
             y="0"
             id="tspan34"
             style="font-size:24px;font-variant:normal;font-weight:normal;writing-mode:lr-tb;fill:#000000;fill-opacity:1;fill-rule:nonzero;stroke:none;font-family:Symbol;-inkscape-font-specification:Symbol">−8</tspan></text>
</g><path
         d="m 2232,6320 0,24"
         inkscape:connector-curvature="0"
         id="path36"
         style="fill:none;stroke:#000000;stroke-width:15;stroke-linecap:butt;stroke-linejoin:round;stroke-miterlimit:10;stroke-opacity:1;stroke-dasharray:none" /><path
         d="m 2496,6320 0,40"
         inkscape:connector-curvature="0"
         id="path38"
         style="fill:none;stroke:#000000;stroke-width:15;stroke-linecap:butt;stroke-linejoin:round;stroke-miterlimit:10;stroke-opacity:1;stroke-dasharray:none" /><g
         transform="scale(10,10)"
         id="g40"><text
           transform="matrix(1,0,0,-1,237.012,610.4)"
           id="text42"><tspan
             x="0 13.176"
             y="0"
             id="tspan44"
             style="font-size:24px;font-variant:normal;font-weight:normal;writing-mode:lr-tb;fill:#000000;fill-opacity:1;fill-rule:nonzero;stroke:none;font-family:Symbol;-inkscape-font-specification:Symbol">−6</tspan></text>
</g><path
         d="m 2760,6320 0,24"
         inkscape:connector-curvature="0"
         id="path46"
         style="fill:none;stroke:#000000;stroke-width:15;stroke-linecap:butt;stroke-linejoin:round;stroke-miterlimit:10;stroke-opacity:1;stroke-dasharray:none" /><path
         d="m 3024,6320 0,40"
         inkscape:connector-curvature="0"
         id="path48"
         style="fill:none;stroke:#000000;stroke-width:15;stroke-linecap:butt;stroke-linejoin:round;stroke-miterlimit:10;stroke-opacity:1;stroke-dasharray:none" /><g
         transform="scale(10,10)"
         id="g50"><text
           transform="matrix(1,0,0,-1,289.812,610.4)"
           id="text52"><tspan
             x="0 13.176"
             y="0"
             id="tspan54"
             style="font-size:24px;font-variant:normal;font-weight:normal;writing-mode:lr-tb;fill:#000000;fill-opacity:1;fill-rule:nonzero;stroke:none;font-family:Symbol;-inkscape-font-specification:Symbol">−4</tspan></text>
</g><path
         d="m 3288,6320 0,24"
         inkscape:connector-curvature="0"
         id="path56"
         style="fill:none;stroke:#000000;stroke-width:15;stroke-linecap:butt;stroke-linejoin:round;stroke-miterlimit:10;stroke-opacity:1;stroke-dasharray:none" /><path
         d="m 3552,6320 0,40"
         inkscape:connector-curvature="0"
         id="path58"
         style="fill:none;stroke:#000000;stroke-width:15;stroke-linecap:butt;stroke-linejoin:round;stroke-miterlimit:10;stroke-opacity:1;stroke-dasharray:none" /><g
         transform="scale(10,10)"
         id="g60"><text
           transform="matrix(1,0,0,-1,342.612,610.4)"
           id="text62"><tspan
             x="0 13.176"
             y="0"
             id="tspan64"
             style="font-size:24px;font-variant:normal;font-weight:normal;writing-mode:lr-tb;fill:#000000;fill-opacity:1;fill-rule:nonzero;stroke:none;font-family:Symbol;-inkscape-font-specification:Symbol">−2</tspan></text>
</g><path
         d="m 3816,6320 0,24"
         inkscape:connector-curvature="0"
         id="path66"
         style="fill:none;stroke:#000000;stroke-width:15;stroke-linecap:butt;stroke-linejoin:round;stroke-miterlimit:10;stroke-opacity:1;stroke-dasharray:none" /><path
         d="m 4080,6320 0,40"
         inkscape:connector-curvature="0"
         id="path68"
         style="fill:none;stroke:#000000;stroke-width:15;stroke-linecap:butt;stroke-linejoin:round;stroke-miterlimit:10;stroke-opacity:1;stroke-dasharray:none" /><g
         transform="scale(10,10)"
         id="g70"><text
           transform="matrix(1,0,0,-1,402,610.4)"
           id="text72"><tspan
             x="0"
             y="0"
             id="tspan74"
             style="font-size:24px;font-variant:normal;font-weight:normal;writing-mode:lr-tb;fill:#000000;fill-opacity:1;fill-rule:nonzero;stroke:none;font-family:Symbol;-inkscape-font-specification:Symbol">0</tspan></text>
</g><path
         d="m 4344,6320 0,24"
         inkscape:connector-curvature="0"
         id="path76"
         style="fill:none;stroke:#000000;stroke-width:15;stroke-linecap:butt;stroke-linejoin:round;stroke-miterlimit:10;stroke-opacity:1;stroke-dasharray:none" /><path
         d="m 4608,6320 0,40"
         inkscape:connector-curvature="0"
         id="path78"
         style="fill:none;stroke:#000000;stroke-width:15;stroke-linecap:butt;stroke-linejoin:round;stroke-miterlimit:10;stroke-opacity:1;stroke-dasharray:none" /><g
         transform="scale(10,10)"
         id="g80"><text
           transform="matrix(1,0,0,-1,454.8,610.4)"
           id="text82"><tspan
             x="0"
             y="0"
             id="tspan84"
             style="font-size:24px;font-variant:normal;font-weight:normal;writing-mode:lr-tb;fill:#000000;fill-opacity:1;fill-rule:nonzero;stroke:none;font-family:Symbol;-inkscape-font-specification:Symbol">2</tspan></text>
</g><path
         d="m 4872,6320 0,24"
         inkscape:connector-curvature="0"
         id="path86"
         style="fill:none;stroke:#000000;stroke-width:15;stroke-linecap:butt;stroke-linejoin:round;stroke-miterlimit:10;stroke-opacity:1;stroke-dasharray:none" /><path
         d="m 5136,6320 0,40"
         inkscape:connector-curvature="0"
         id="path88"
         style="fill:none;stroke:#000000;stroke-width:15;stroke-linecap:butt;stroke-linejoin:round;stroke-miterlimit:10;stroke-opacity:1;stroke-dasharray:none" /><g
         transform="scale(10,10)"
         id="g90"><text
           transform="matrix(1,0,0,-1,507.6,610.4)"
           id="text92"><tspan
             x="0"
             y="0"
             id="tspan94"
             style="font-size:24px;font-variant:normal;font-weight:normal;writing-mode:lr-tb;fill:#000000;fill-opacity:1;fill-rule:nonzero;stroke:none;font-family:Symbol;-inkscape-font-specification:Symbol">4</tspan></text>
</g><path
         d="m 5400,6320 0,24"
         inkscape:connector-curvature="0"
         id="path96"
         style="fill:none;stroke:#000000;stroke-width:15;stroke-linecap:butt;stroke-linejoin:round;stroke-miterlimit:10;stroke-opacity:1;stroke-dasharray:none" /><path
         d="m 1440,7904 0,-40"
         inkscape:connector-curvature="0"
         id="path98"
         style="fill:none;stroke:#000000;stroke-width:15;stroke-linecap:butt;stroke-linejoin:round;stroke-miterlimit:10;stroke-opacity:1;stroke-dasharray:none" /><path
         d="m 1704,7904 0,-24"
         inkscape:connector-curvature="0"
         id="path100"
         style="fill:none;stroke:#000000;stroke-width:15;stroke-linecap:butt;stroke-linejoin:round;stroke-miterlimit:10;stroke-opacity:1;stroke-dasharray:none" /><path
         d="m 1968,7904 0,-40"
         inkscape:connector-curvature="0"
         id="path102"
         style="fill:none;stroke:#000000;stroke-width:15;stroke-linecap:butt;stroke-linejoin:round;stroke-miterlimit:10;stroke-opacity:1;stroke-dasharray:none" /><path
         d="m 2232,7904 0,-24"
         inkscape:connector-curvature="0"
         id="path104"
         style="fill:none;stroke:#000000;stroke-width:15;stroke-linecap:butt;stroke-linejoin:round;stroke-miterlimit:10;stroke-opacity:1;stroke-dasharray:none" /><path
         d="m 2496,7904 0,-40"
         inkscape:connector-curvature="0"
         id="path106"
         style="fill:none;stroke:#000000;stroke-width:15;stroke-linecap:butt;stroke-linejoin:round;stroke-miterlimit:10;stroke-opacity:1;stroke-dasharray:none" /><path
         d="m 2760,7904 0,-24"
         inkscape:connector-curvature="0"
         id="path108"
         style="fill:none;stroke:#000000;stroke-width:15;stroke-linecap:butt;stroke-linejoin:round;stroke-miterlimit:10;stroke-opacity:1;stroke-dasharray:none" /><path
         d="m 3024,7904 0,-40"
         inkscape:connector-curvature="0"
         id="path110"
         style="fill:none;stroke:#000000;stroke-width:15;stroke-linecap:butt;stroke-linejoin:round;stroke-miterlimit:10;stroke-opacity:1;stroke-dasharray:none" /><path
         d="m 3288,7904 0,-24"
         inkscape:connector-curvature="0"
         id="path112"
         style="fill:none;stroke:#000000;stroke-width:15;stroke-linecap:butt;stroke-linejoin:round;stroke-miterlimit:10;stroke-opacity:1;stroke-dasharray:none" /><path
         d="m 3552,7904 0,-40"
         inkscape:connector-curvature="0"
         id="path114"
         style="fill:none;stroke:#000000;stroke-width:15;stroke-linecap:butt;stroke-linejoin:round;stroke-miterlimit:10;stroke-opacity:1;stroke-dasharray:none" /><path
         d="m 3816,7904 0,-24"
         inkscape:connector-curvature="0"
         id="path116"
         style="fill:none;stroke:#000000;stroke-width:15;stroke-linecap:butt;stroke-linejoin:round;stroke-miterlimit:10;stroke-opacity:1;stroke-dasharray:none" /><path
         d="m 4080,7904 0,-40"
         inkscape:connector-curvature="0"
         id="path118"
         style="fill:none;stroke:#000000;stroke-width:15;stroke-linecap:butt;stroke-linejoin:round;stroke-miterlimit:10;stroke-opacity:1;stroke-dasharray:none" /><path
         d="m 4344,7904 0,-24"
         inkscape:connector-curvature="0"
         id="path120"
         style="fill:none;stroke:#000000;stroke-width:15;stroke-linecap:butt;stroke-linejoin:round;stroke-miterlimit:10;stroke-opacity:1;stroke-dasharray:none" /><path
         d="m 4608,7904 0,-40"
         inkscape:connector-curvature="0"
         id="path122"
         style="fill:none;stroke:#000000;stroke-width:15;stroke-linecap:butt;stroke-linejoin:round;stroke-miterlimit:10;stroke-opacity:1;stroke-dasharray:none" /><path
         d="m 4872,7904 0,-24"
         inkscape:connector-curvature="0"
         id="path124"
         style="fill:none;stroke:#000000;stroke-width:15;stroke-linecap:butt;stroke-linejoin:round;stroke-miterlimit:10;stroke-opacity:1;stroke-dasharray:none" /><path
         d="m 5136,7904 0,-40"
         inkscape:connector-curvature="0"
         id="path126"
         style="fill:none;stroke:#000000;stroke-width:15;stroke-linecap:butt;stroke-linejoin:round;stroke-miterlimit:10;stroke-opacity:1;stroke-dasharray:none" /><path
         d="m 5400,7904 0,-24"
         inkscape:connector-curvature="0"
         id="path128"
         style="fill:none;stroke:#000000;stroke-width:15;stroke-linecap:butt;stroke-linejoin:round;stroke-miterlimit:10;stroke-opacity:1;stroke-dasharray:none" /><path
         d="m 1440,6320 99,0"
         inkscape:connector-curvature="0"
         id="path130"
         style="fill:none;stroke:#000000;stroke-width:15;stroke-linecap:butt;stroke-linejoin:round;stroke-miterlimit:10;stroke-opacity:1;stroke-dasharray:none" /><g
         transform="scale(10,10)"
         id="g132"><text
           transform="matrix(1,0,0,-1,124.8,624.8)"
           id="text134"><tspan
             x="0"
             y="0"
             id="tspan136"
             style="font-size:24px;font-variant:normal;font-weight:normal;writing-mode:lr-tb;fill:#000000;fill-opacity:1;fill-rule:nonzero;stroke:none;font-family:Symbol;-inkscape-font-specification:Symbol">0</tspan></text>
</g><path
         d="m 1440,6848 59,0"
         inkscape:connector-curvature="0"
         id="path138"
         style="fill:none;stroke:#000000;stroke-width:15;stroke-linecap:butt;stroke-linejoin:round;stroke-miterlimit:10;stroke-opacity:1;stroke-dasharray:none" /><path
         d="m 1440,7376 99,0"
         inkscape:connector-curvature="0"
         id="path140"
         style="fill:none;stroke:#000000;stroke-width:15;stroke-linecap:butt;stroke-linejoin:round;stroke-miterlimit:10;stroke-opacity:1;stroke-dasharray:none" /><g
         transform="scale(10,10)"
         id="g142"><text
           transform="matrix(1,0,0,-1,124.8,730.4)"
           id="text144"><tspan
             x="0"
             y="0"
             id="tspan146"
             style="font-size:24px;font-variant:normal;font-weight:normal;writing-mode:lr-tb;fill:#000000;fill-opacity:1;fill-rule:nonzero;stroke:none;font-family:Symbol;-inkscape-font-specification:Symbol">2</tspan></text>
</g><path
         d="m 1440,7904 59,0"
         inkscape:connector-curvature="0"
         id="path148"
         style="fill:none;stroke:#000000;stroke-width:15;stroke-linecap:butt;stroke-linejoin:round;stroke-miterlimit:10;stroke-opacity:1;stroke-dasharray:none" /><path
         d="m 5400,6320 -99,0"
         inkscape:connector-curvature="0"
         id="path150"
         style="fill:none;stroke:#000000;stroke-width:15;stroke-linecap:butt;stroke-linejoin:round;stroke-miterlimit:10;stroke-opacity:1;stroke-dasharray:none" /><path
         d="m 5400,6848 -59,0"
         inkscape:connector-curvature="0"
         id="path152"
         style="fill:none;stroke:#000000;stroke-width:15;stroke-linecap:butt;stroke-linejoin:round;stroke-miterlimit:10;stroke-opacity:1;stroke-dasharray:none" /><path
         d="m 5400,7376 -99,0"
         inkscape:connector-curvature="0"
         id="path154"
         style="fill:none;stroke:#000000;stroke-width:15;stroke-linecap:butt;stroke-linejoin:round;stroke-miterlimit:10;stroke-opacity:1;stroke-dasharray:none" /><path
         d="m 5400,7904 -59,0"
         inkscape:connector-curvature="0"
         id="path156"
         style="fill:none;stroke:#000000;stroke-width:15;stroke-linecap:butt;stroke-linejoin:round;stroke-miterlimit:10;stroke-opacity:1;stroke-dasharray:none" /><g
         id="g158"><g
           clip-path="url(#clipPath162)"
           id="g160"><path
             d="m 1441,6321 344,0 1,1 13,0 1,1 5,0 1,1 4,0 1,-1 23,0 1,1 2,0 2,1 1,0 1,1 1,0 1,1 2,1 1,1 5,0 1,-1 1,0 1,-1 1,-1 2,0 1,-1 14,0 1,1 2,0 1,1 1,0 1,1 1,1 2,1 1,1 1,2 1,1 1,2 2,1 1,1 1,1 1,-1 1,-1 2,-1 1,-2 1,-1 1,-1 1,-1 2,-1 1,-1 1,0 1,-1 10,0 1,1 1,1 1,0 1,1 2,1 1,2 1,1 1,2 1,3 2,2 1,3 1,2 1,2 1,1 2,0 1,-1 1,-2 1,-3 1,-2 2,-3 1,-2 1,-2 1,-1 1,-2 2,-1 1,0 1,-1 1,-1 3,0 1,-1 3,0 2,1 2,0 1,1 1,1 2,1 1,1 1,1 1,1 1,2 2,1 1,2 1,1 1,0 1,-1 2,-1 1,-2 1,-1 1,-1 1,-2 2,-1 1,-1 1,0 1,-1 7,0 1,1 2,0 1,1 1,1 1,1 1,1 2,2 1,2 1,2 1,3 1,3 2,3 1,3 1,3 1,1 1,0 2,-1 1,-3 1,-3 1,-3 1,-3 2,-3 1,-2 1,-2 1,-2 1,-1 2,-1 1,-1 1,0 1,-1 3,0 1,-1 1,0 1,1 3,0 1,1 1,1 1,1 1,1 2,1 1,1 1,2 1,1 1,2 2,0 1,1 1,0 1,-1 1,-2 2,-1 1,-2 1,-1 1,-1 1,-1 2,-1 1,-1 1,0 1,-1 3,0 1,1 2,0 1,1 2,1 1,1 1,1 1,1 1,2 2,2 1,3 1,3 1,4 1,3 1,4 2,3 1,2 1,0 1,-1 1,-2 2,-4 1,-3 1,-4 1,-3 1,-3 2,-2 1,-2 1,-2 1,-1 1,-1 2,-1 2,0 1,-1 1,0 2,1 1,0 1,1 1,1 1,1 2,1 1,1 1,2 1,2 1,1 2,1 1,2 1,0 1,1 1,0 2,-1 1,-1 1,-2 1,-1 1,-2 2,-2 1,-1 1,-2 1,0 1,-1 2,-1 4,0 2,1 1,1 1,0 1,1 1,2 2,1 1,2 1,3 1,2 1,3 2,3 1,3 1,3 1,3 1,2 2,2 1,0 1,-2 1,-2 1,-4 2,-3 1,-4 1,-3 1,-2 1,-3 1,-1 2,-2 1,-1 6,0 1,1 1,1 1,2 2,2 1,2 1,2 1,3 1,2 2,1 1,1 2,0 1,-2 2,-1 1,-3 1,-2 1,-2 1,-2 2,-2 1,-1 1,-2 1,-1 1,-1 2,0 1,-1 3,0 2,1 1,1 1,0 1,2 1,1 2,2 1,2 1,3 1,2 1,3 2,3 1,3 1,2 1,2 1,1 2,1 1,1 1,1 1,0 1,-2 2,-2 1,-2 1,-4 1,-3 1,-3 2,-2 1,-2 1,-2 1,-1 1,-1 3,0 1,1 1,1 1,1 1,2 2,1 1,2 1,2 1,2 1,2 2,1 1,1 1,1 4,0 1,-2 1,-2 1,-2 1,-3 2,-2 1,-2 1,-2 1,-2 1,-1 2,0 1,-1 2,0 1,1 2,1 1,1 1,2 1,2 1,2 2,2 1,2 1,3 1,2 1,2 2,1 1,2 2,0 1,-1 2,-2 1,-2 1,-3 1,-3 1,-3 2,-2 1,-2 1,-2 1,-1 1,-1 4,0 1,1 1,1 2,1 1,2 1,2 1,2 1,3 2,4 1,4 1,3 1,4 1,3 2,1 1,1 1,-1 1,-2 1,-4 2,-3 1,-4 1,-3 1,-3 1,-2 1,-1 2,-1 2,0 1,1 1,1 2,1 1,2 1,2 1,1 1,1 2,1 1,0 1,1 1,1 1,1 2,1 1,1 1,1 1,0 1,-1 2,-2 1,-3 1,-2 1,-3 1,-2 2,-2 1,-1 1,-1 1,-1 1,1 2,0 1,2 1,1 1,2 1,2 2,3 1,1 1,2 1,1 1,1 2,1 1,0 1,1 1,0 1,-1 2,-1 1,-2 1,-2 1,-3 1,-2 2,-2 1,-2 1,-1 1,-1 1,-1 2,1 1,0 1,1 1,2 1,2 2,2 1,3 1,2 1,3 1,1 2,1 4,0 2,1 1,1 1,1 2,0 1,-2 2,-2 1,-3 1,-3 1,-2 1,-2 2,-1 1,-1 1,0 1,1 1,1 2,2 1,3 1,2 1,3 1,3 2,2 2,0 1,-2 1,-3 2,-2 1,-3 1,-1 1,-2 1,0 2,-1 1,0 1,1 1,1 1,1 2,2 1,2 1,2 1,2 1,1 2,1 1,1 1,0 1,1 1,1 2,2 1,2 1,1 1,1 1,0 2,-1 1,-1 1,-2 1,-2 1,-1 2,-1 3,0 1,-1 2,-1 1,-2 1,-1 1,-1 1,0 2,-1 1,0 1,-1 1,-2 1,-1 2,-2 1,-1 1,-1 1,-1 1,-1 4,0 1,-1 4,0 1,1 1,1 1,1 1,1 2,2 1,2 1,3 1,2 1,3 2,3 1,3 1,3 1,2 3,0 1,-1 1,-1 5,0 1,1 1,-1 1,-1 2,-2 1,-3 1,-2 1,-2 1,-1 3,0 1,1 1,2 1,2 2,3 1,4 1,3 1,4 1,4 2,2 1,2 2,0 1,-2 2,-3 1,-2 1,-3 1,-3 1,-2 2,-1 1,-1 1,0 1,1 1,1 2,1 1,2 1,2 1,3 1,2 2,2 1,1 1,2 4,0 1,-1 1,-1 1,-2 1,-3 1,-4 2,-4 1,-4 1,-4 1,-4 1,-2 2,-3 1,-1 1,-1 2,0 2,1 1,2 1,1 1,3 1,1 2,2 2,0 1,-1 1,-2 2,-1 1,-1 1,-1 2,0 2,2 1,1 1,2 1,2 1,2 2,2 1,3 1,2 1,4 1,4 2,4 1,4 1,3 1,3 1,1 2,1 1,-1 1,-2 1,-2 1,-3 2,-4 1,-4 1,-3 1,-2 1,-2 2,-1 2,0 1,1 3,0 1,1 1,0 1,1 1,1 2,1 1,1 1,1 2,0 2,1 1,0 1,1 1,1 1,1 2,1 4,0 1,1 2,1 1,1 1,3 1,2 1,4 2,3 1,3 1,3 1,3 1,1 2,1 1,0 1,-1 1,-3 1,-4 2,-5 1,-7 1,-6 1,-6 1,-6 2,-4 1,-4 1,-2 1,-2 1,-2 3,0 1,1 1,1 1,2 2,2 1,3 1,2 1,3 1,2 2,1 2,0 1,-2 1,-1 2,-1 1,0 1,1 1,1 1,3 2,4 1,4 1,5 1,5 1,5 2,4 1,4 1,3 1,2 1,1 2,1 1,-1 1,-1 1,-3 1,-2 2,-4 1,-3 1,-2 1,-1 1,0 2,1 1,2 1,2 1,3 1,2 1,2 2,2 1,1 1,1 1,1 5,0 1,-1 1,-1 2,-1 1,-1 3,0 2,1 1,2 1,2 1,2 1,4 2,3 1,5 1,4 1,3 1,1 2,0 1,-2 1,-3 1,-4 1,-3 2,-4 1,-4 1,-4 1,-4 1,-4 2,-4 1,-4 1,-2 1,-3 1,-1 2,-1 1,-1 1,0 1,1 1,1 2,2 1,2 1,2 1,1 1,2 2,1 1,0 1,1 1,1 1,1 2,2 1,1 1,2 1,3 1,3 2,4 1,5 1,5 1,5 1,4 2,5 1,4 1,4 1,2 1,2 2,0 1,-1 1,-2 1,-3 1,-2 1,-2 2,-2 1,-2 1,-2 1,-2 1,-1 2,-1 1,1 1,1 1,1 1,1 2,1 1,0 1,-1 1,0 1,-1 2,0 1,-1 2,0 1,-1 3,0 1,-1 1,0 1,1 2,2 1,3 1,4 1,4 1,5 2,5 1,2 1,2 1,0 1,-1 2,-1 1,-1 8,0 1,1 2,0 1,1 1,2 1,3 1,3 2,3 1,4 1,3 1,4 1,3 2,2 1,1 1,1 1,1 1,0 2,1 1,1 1,2 1,3 1,3 2,4 1,5 1,4 1,4 1,3 2,3 1,1 1,1 1,1 1,1 1,2 2,1 1,1 1,1 1,2 3,0 1,-2 1,-2 1,-2 1,-2 2,-1 1,0 1,1 1,2 1,3 2,2 1,1 1,-1 1,-2 1,-3 2,-4 1,-3 1,-1 1,0 1,2 2,2 1,4 1,3 1,4 1,3 2,3 1,1 1,-1 1,-2 1,-2 2,-3 1,-2 1,-2 1,-2 1,-1 2,-1 1,-1 1,0 1,1 1,0 2,1 6,0 1,2 1,2 1,2 1,3 2,1 1,2 1,0 1,1 1,1 2,1 1,1 1,0 1,-1 1,-1 2,-2 1,-1 1,-1 1,0 1,2 1,3 2,4 1,4 1,6 1,5 1,4 2,4 1,2 1,2 1,1 1,1 2,2 1,4 1,4 1,7 1,6 2,7 1,5 1,4 1,1 1,1 2,-1 1,-1 1,1 1,2 1,4 2,4 1,5 1,5 1,3 1,3 2,1 1,1 1,1 1,2 1,5 2,6 1,8 1,9 1,8 1,7 2,5 1,2 1,-1 1,-3 1,-4 2,-6 1,-5 1,-6 1,-3 1,-1 2,2 1,4 1,8 1,9 1,10 2,11 1,9 1,8 1,5 1,3 2,2 1,1 1,1 1,2 1,2 2,3 1,3 1,4 1,5 1,4 2,4 1,3 1,1 1,1 1,-1 1,-1 2,-1 1,0 1,-1 1,-1 1,1 2,2 1,2 1,3 1,3 1,1 2,1 1,0 1,-2 1,-4 1,-4 2,-6 1,-6 1,-6 1,-6 1,-6 2,-5 1,-6 1,-6 1,-7 1,-7 2,-8 1,-8 1,-8 1,-7 1,-8 2,-9 1,-9 1,-10 1,-10 1,-8 2,-7 1,-6 1,-4 1,-3 1,-1 2,1 1,2 1,3 1,3 1,4 2,2 1,1 2,0 1,-1 2,-1 1,-2 1,-3 1,-3 1,-4 2,-5 1,-5 1,-5 1,-6 1,-5 2,-5 1,-5 1,-3 1,-1 1,0 2,1 1,2 1,1 1,0 1,-1 2,-3 1,-2 1,-2 1,-2 2,0 2,1 1,1 1,3 1,3 1,3 2,2 1,2 1,0 1,-2 1,-3 2,-3 1,-4 1,-5 1,-4 1,-4 2,-4 1,-3 1,-2 1,0 1,1 2,1 1,1 1,1 1,-1 1,-3 2,-5 1,-5 1,-5 1,-5 1,-3 2,-2 1,-1 1,1 1,3 1,3 2,3 1,4 1,2 1,2 1,1 2,-2 1,-2 1,-4 1,-3 1,-2 2,-1 1,-1 8,0 1,-1 2,-2 1,-2 1,-3 1,-2 1,-1 2,-1 1,-1 1,1 1,1 1,2 2,4 1,5 1,6 1,7 1,7 1,5 2,2 1,-1 1,-3 1,-4 1,-4 2,-3 1,-1 1,-1 1,2 1,2 2,4 1,3 1,2 1,2 1,1 2,1 1,1 1,2 1,3 1,5 2,5 1,5 1,5 1,5 1,4 2,5 1,4 1,4 1,5 1,7 2,8 1,9 1,10 1,11 1,11 2,11 1,12 1,13 1,15 1,19 2,22 1,26 1,32 1,37 1,42 2,43 1,43 1,41 1,36 1,31 2,27 1,23 1,21 1,20 1,18 2,18 1,16 1,14 1,11 1,7 2,2 1,0 1,-2 1,-3 1,-3 2,-4 1,-3 1,-5 1,-6 1,-8 2,-9 1,-10 1,-9 1,-8 1,-5 1,-3 2,-1 1,0 1,2 1,1 1,1 2,2 1,0 1,-1 1,-3 1,-5 2,-6 1,-8 1,-7 1,-5 1,-4 2,-1 1,1 1,1 1,2 1,1 3,0 1,-1 5,0 1,1 1,0 1,1 2,1 1,2 1,2 1,2 1,2 3,0 1,-1 1,-1 1,0 2,-1 3,0 1,1 2,2 1,3 1,0 1,-2 1,-4 2,-7 1,-8 1,-8 1,-6 1,-5 2,-4 1,-3 1,-3 1,-4 1,-5 2,-4 1,-4 1,-2 1,-1 1,-1 2,-1 1,-2 1,-4 1,-4 1,-4 2,-3 1,-1 1,0 1,2 1,3 1,4 2,3 1,3 1,4 1,7 1,9 2,12 1,12 1,11 1,7 1,2 2,-4 1,-6 1,-8 1,-5 1,-1 2,3 1,9 1,12 1,13 1,14 2,14 1,13 1,12 1,13 1,12 2,12 1,10 1,7 1,5 1,2 2,1 1,1 1,2 1,3 1,4 2,4 1,4 1,4 1,1 1,1 2,-1 1,0 1,1 1,2 1,3 2,4 1,1 1,0 1,-3 1,-4 2,-5 1,-5 1,-5 1,-6 1,-5 2,-5 1,-5 1,-4 1,-4 1,-4 2,-6 1,-9 1,-12 1,-16 1,-18 2,-19 1,-20 1,-18 1,-16 1,-15 1,-12 2,-12 1,-11 1,-12 1,-15 1,-16 2,-18 1,-19 1,-19 1,-18 1,-16 2,-14 1,-10 1,-6 1,-3 1,-1 2,1 1,1 1,1 1,-1 1,-2 2,-3 1,-3 1,-5 1,-4 1,-5 2,-6 1,-7 1,-9 1,-12 1,-15 2,-18 1,-21 1,-23 1,-23 1,-22 2,-19 1,-16 1,-13 1,-10 1,-8 2,-7 1,-6 1,-6 1,-6 1,-4 2,-4 1,-3 1,-3 1,-2 1,-3 2,-2 1,-3 1,-3 1,-4 1,-3 2,-4 1,-2 1,-3 1,-1 1,-2 2,-1 1,-2 1,-2 1,-4 1,-4 2,-6 1,-5 1,-5 1,-3 1,-2 2,-1 1,0 1,1 1,1 1,-1 1,-3 2,-3 1,-6 1,-5 1,-5 1,-3 2,-2 1,0 1,4 1,6 1,8 2,9 1,10 1,11 1,9 1,9 2,8 1,7 1,8 1,7 1,7 2,5 1,3 1,0 1,-2 1,-6 2,-8 1,-9 1,-9 1,-9 1,-8 2,-6 1,-4 1,-2 1,0 1,-1 2,1 1,0 1,-1 1,0 1,-1 2,-1 2,0 1,1 1,1 2,3 1,2 1,4 1,3 1,3 2,4 1,5 1,6 1,7 1,9 2,10 1,11 1,12 1,13 1,13 2,14 1,14 1,13 1,12 1,12 2,11 1,9 1,9 1,6 1,5 2,3 1,1 1,0 1,-1 1,-1 3,0 1,1 1,3 1,5 1,5 2,7 1,7 1,7 1,8 1,7 2,7 1,7 1,6 1,7 1,6 2,6 1,7 1,8 1,9 1,11 2,12 1,13 1,14 1,15 1,16 2,18 1,18 1,20 1,21 1,23 2,24 1,25 1,28 1,29 1,30 2,33 1,33 1,33 1,33 1,31 2,28 1,27 1,23 1,22 1,20 2,17 1,17 1,14 1,13 1,13 2,11 1,9 1,9 1,7 1,7 2,7 1,6 1,6 1,6 1,5 2,5 1,2 1,1 1,-1 1,-2 2,-2 1,-2 1,-1 1,1 1,1 1,2 2,3 1,4 1,4 1,6 1,7 2,9 1,11 1,14 1,14 1,14 2,13 1,13 1,13 1,14 1,15 2,16 1,16 1,14 1,11 1,5 2,0 1,-4 1,-9 1,-10 1,-12 2,-14 1,-14 1,-16 1,-16 1,-16 2,-14 1,-11 1,-9 1,-7 1,-3 2,-3 1,-3 1,-3 1,-4 1,-6 2,-8 1,-10 1,-11 1,-13 1,-14 2,-15 1,-16 1,-18 1,-21 1,-22 2,-23 1,-21 1,-19 1,-17 1,-14 2,-14 1,-12 1,-12 1,-11 1,-10 2,-7 1,-6 1,-6 1,-7 1,-10 2,-12 1,-14 1,-16 1,-15 1,-13 2,-12 1,-9 1,-8 1,-6 1,-6 1,-7 2,-7 1,-9 1,-12 1,-15 1,-19 2,-21 1,-23 1,-21 1,-19 1,-15 2,-11 1,-7 1,-5 1,-2 1,-2 2,-2 1,-2 1,-2 1,-2 1,0 2,2 1,4 1,6 1,6 1,5 2,2 1,-2 1,-7 1,-14 1,-17 2,-21 1,-21 1,-20 1,-17 1,-13 2,-9 1,-5 1,-1 1,1 1,1 2,1 1,0 1,-1 1,-2 1,-2 2,-1 1,-2 1,-3 1,-4 1,-5 2,-7 1,-7 1,-8 1,-6 1,-5 2,-1 1,2 1,7 1,9 1,13 2,14 1,15 1,14 1,12 1,10 2,6 1,3 1,-2 1,-6 1,-10 2,-11 1,-13 1,-12 1,-11 1,-10 1,-9 2,-7 1,-6 1,-3 1,-2 1,2 2,3 1,5 1,5 1,3 1,1 2,-2 1,-5 1,-5 1,-7 1,-6 2,-6 1,-5 1,-4 1,-1 1,0 2,3 1,4 1,4 1,3 1,1 2,-2 1,-3 1,-6 1,-6 1,-8 2,-9 1,-10 1,-10 1,-10 1,-10 2,-8 1,-8 1,-7 1,-6 1,-4 2,-3 1,-4 1,-4 1,-4 1,-7 2,-7 1,-8 1,-9 1,-9 1,-9 2,-9 1,-11 1,-10 1,-12 1,-10 2,-10 1,-9 1,-9 1,-8 1,-9 2,-9 1,-10 1,-11 1,-11 1,-11 2,-11 1,-11 1,-10 1,-11 1,-9 1,-9 2,-8 1,-7 1,-6 1,-7 1,-5 2,-5 1,-4 1,-4 1,-3 1,-3 2,-2 1,-2 1,-1 1,-1 1,-1 2,0 1,1 1,0 1,1 1,1 2,2 1,2 1,3 1,3 1,4 2,3 1,3 1,1 1,0 1,-1 2,-3 1,-4 1,-3 1,-2 1,0 2,1 1,2 1,4 1,4 1,5 2,4 1,3 1,1 1,-2 1,-3 2,-5 1,-6 1,-5 1,-4 1,-4 2,-1 2,0 1,2 1,1 2,0 1,-1 1,-1 1,-2 1,-3 2,-1 1,-2 1,-1 1,-1 1,-1 2,-1 1,-1 1,-1 1,-2 1,-2 2,-2 1,-2 1,-2 1,-3 1,-2 1,-2 2,-3 1,-2 1,-1 1,-2 1,-1 2,-1 2,0 1,1 1,0 2,1 1,1 1,1 1,1 1,1 2,2 1,2 1,2 1,3 1,2 2,3 1,3 1,3 1,3 1,3 2,3 1,2 1,1 1,0 1,-1 2,-2 1,-2 1,-2 1,-2 1,-1 2,1 1,1 1,2 1,3 1,3 2,2 1,1 2,0 1,-2 2,-1 1,-1 3,0 2,1 1,1 1,2 2,0 2,-1 1,-1 1,-2 1,-1 3,0 1,3 1,3 1,5 1,4 2,4 1,3 1,1 1,-2 1,-2 2,-4 1,-4 1,-4 1,-4 1,-4 1,-3 2,-2 1,-1 1,-1 1,-1 1,-1 2,-2 1,-1 1,-1 1,-2 1,-1 2,-2 1,-3 1,-2 1,-3 1,-2 2,-2 1,-2 1,-2 1,-1 1,0 2,1 1,2 1,3 1,3 1,4 2,4 1,3 1,2 1,2 1,0 2,-1 1,-1 2,0 1,1 2,2 1,3 1,4 1,5 1,4 2,4 1,3 1,2 1,1 1,0 2,-1 1,-1 1,-1 1,-2 1,-2 2,-3 1,-4 1,-4 1,-3 1,-4 2,-3 1,-2 1,-2 1,0 1,1 2,2 1,2 1,4 1,4 1,3 2,2 1,1 1,0 1,-1 1,-2 1,-1 2,-1 1,-1 2,0 1,1 2,1 2,0 1,-1 1,-2 2,-2 1,-3 1,-2 1,-2 3,0 1,1 1,2 1,2 1,1 5,0 1,-1 2,0 1,-1 1,1 1,2 1,3 2,4 1,5 1,5 1,3 1,0 2,-2 1,-5 1,-6 1,-6 1,-4 2,-4 1,-2 1,-1 1,-1 1,1 2,0 1,1 7,0 1,1 1,1 2,1 1,1 1,1 1,-1 1,-1 2,-2 1,-2 1,-2 1,-1 1,-1 3,0 1,2 1,1 1,2 2,2 1,2 1,1 1,2 1,2 1,2 2,2 1,2 1,2 1,2 1,0 2,-1 1,-3 1,-3 1,-4 1,-3 2,-3 1,-2 1,-2 1,0 1,1 2,2 1,2 1,1 1,1 1,0 2,-1 1,-2 1,-2 1,-1 1,-1 3,0 1,1 1,-1 1,0 2,-1 1,-2 1,-3 1,-3 1,-4 2,-4 1,-4 1,-4 1,-4 1,-3 2,-1 1,-1 2,0 1,2 2,1 1,3 1,2 1,3 1,3 2,3 1,3 1,3 1,1 1,1 2,1 1,-1 1,-1 1,-2 1,-2 2,-3 1,-3 1,-2 1,-1 1,0 2,2 1,2 1,4 1,5 1,5 2,5 1,3 1,2 1,0 1,-1 1,-1 6,0 2,-2 1,-3 1,-5 1,-5 1,-5 2,-6 1,-4 1,-4 1,-3 1,-3 2,-2 1,-1 1,-1 1,-1 1,-1 3,0 1,2 1,1 1,3 2,3 1,4 1,4 1,3 1,3 2,3 1,1 3,0 2,-1 1,-1 1,-2 1,-1 1,-1 2,-1 1,-2 1,-2 1,-2 1,-2 2,-1 1,-1 1,0 1,1 1,1 2,1 1,2 1,2 1,2 1,1 2,2 1,1 1,1 1,-1 1,-1 2,-2 1,-2 1,-3 1,-2 1,-2 2,-2 1,-2 1,-1 1,-1 2,0 2,1 1,2 1,3 1,4 1,5 2,5 1,7 1,6 1,7 1,7 2,5 1,3 1,0 1,-2 1,-3 2,-4 1,-4 1,-4 1,-3 1,-3 2,-3 1,-2 1,-3 1,-2 1,-2 2,-3 1,-2 1,-2 1,-1 1,-2 2,0 1,1 1,1 1,3 1,4 2,4 1,4 1,3 1,2 1,1 2,-1 1,-1 1,-1 1,-1 1,-2 2,-1 1,-1 1,-2 1,-2 1,-2 2,-2 1,-3 1,-2 1,-2 1,-2 2,-2 1,-1 1,0 1,1 1,2 2,3 1,3 1,3 1,2 1,1 2,0 1,-1 1,-2 1,-2 1,-3 2,-3 1,-3 1,-2 1,-2 1,-1 1,-1 2,-1 1,0 1,-1 1,-1 1,-2 2,-1 1,-2 1,-1 1,-2 1,-2 2,-1 2,0 1,1 1,1 2,2 1,3 1,2 1,2 1,3 2,1 1,2 1,3 1,2 1,3 2,4 1,3 1,3 1,2 1,1 2,0 1,-1 1,-2 1,-2 1,-1 2,0 1,1 1,1 1,1 1,2 2,1 2,0 1,-1 1,-1 2,-1 1,-1 1,-1 1,-1 1,-1 2,-1 1,-1 1,-2 1,-2 1,-4 2,-3 1,-4 1,-3 1,-3 1,-2 2,-2 1,-1 1,1 1,1 1,1 2,3 1,3 1,4 1,4 1,4 2,4 1,2 1,2 1,1 1,1 4,0 1,1 1,1 1,1 2,2 1,1 1,1 1,0 1,-1 2,-1 1,-1 1,0 1,-1 1,-1 2,-1 1,-2 1,-2 1,-1 1,-2 2,-2 1,-1 1,-1 1,-1 1,0 2,1 4,0 2,-1 1,-1 1,-2 1,-2 1,-2 2,-2 1,-1 2,0 1,1 2,3 1,2 1,3 1,4 1,3 2,3 1,3 1,1 1,1 1,-1 2,-1 1,-1 1,-2 1,-2 1,-2 2,-1 1,-1 1,-1 1,-1 1,-2 2,-2 1,-3 1,-3 1,-3 1,-4 2,-2 1,-3 1,-1 1,-1 1,-1 1,1 2,1 1,1 1,1 1,1 1,1 2,1 9,0 1,-1 2,0 1,-1 5,0 1,1 1,2 1,2 1,2 2,1 1,1 2,0 1,-1 2,-2 1,-1 1,-2 1,-1 1,-2 2,-1 1,0 1,-1 1,0 1,-1 11,0 1,1 2,0 1,1 1,1 1,1 1,0 2,1 2,0 1,-1 1,-2 2,-1 1,-2 1,-1 1,-1 1,-1 2,-1 1,-1 2,0 1,1 2,1 1,0 1,1 1,2 1,2 1,2 2,3 1,3 1,3 1,3 1,3 2,4 1,3 1,3 1,4 1,4 2,3 1,4 1,3 1,3 1,2 2,1 1,0 1,-1 1,-1 1,-2 2,-2 1,-4 1,-4 1,-4 1,-4 2,-4 1,-3 1,-2 1,-3 1,-2 2,-2 1,-2 1,-2 1,-2 1,-3 2,-2 1,-2 1,-1 1,-1 1,-1 2,1 1,0 1,1 1,1 1,1 2,0 1,1 1,1 1,0 1,1 2,1 1,1 1,2 1,2 1,2 2,1 1,2 1,0 1,1 5,0 1,-1 1,-2 2,-1 1,-1 1,-1 1,-1 1,-1 2,0 1,-2 1,-1 1,-3 1,-2 1,-2 2,-2 1,-1 1,-2 1,0 1,-1 3,0 1,-1 1,-1 1,-1 4,0 1,1 1,2 2,3 1,3 1,3 1,4 1,4 2,3 1,3 1,1 1,-1 1,-1 2,-1 1,-1 1,-1 1,-1 5,0 1,1 1,0 2,1 1,0 1,1 1,1 1,1 2,1 1,2 1,3 1,2 1,4 2,3 1,2 1,1 1,0 1,-1 2,-3 1,-2 1,-4 1,-2 1,-2 2,-2 1,-1 1,-1 1,-1 1,-2 2,-1 1,-1 1,-1 2,0 2,2 1,2 1,2 1,2 1,3 1,2 2,2 1,2 1,2 1,1 1,1 2,0 1,-1 1,-2 1,-1 1,-1 4,0 1,1 4,0 1,1 1,1 1,1 2,2 1,2 1,1 1,1 1,2 2,2 1,2 1,2 1,2 1,-1 2,-2 1,-4 1,-6 1,-7 1,-7 2,-7 1,-6 1,-6 1,-5 1,-4 2,-3 1,-3 1,-3 1,-2 1,-1 2,-2 1,-1 1,0 1,-1 1,0 2,-1 7,0 1,1 1,1 1,1 2,2 1,2 1,3 1,2 1,3 2,2 1,2 1,1 8,0 1,-1 2,-1 6,0 1,1 1,-1 1,0 1,-1 2,-1 1,-1 1,-1 1,-1 1,0 2,-1 1,0 1,1 1,1 1,1 2,1 1,1 1,1 1,1 3,0 1,1 1,0 1,1 1,1 2,0 1,-1 1,-1 1,-1 1,0 2,-1 1,0 1,-1 1,-1 1,-1 2,0 1,-1 1,-1 2,0 2,-1 1,-1 1,-2 1,-2 1,-2 2,-2 1,-2 1,-1 1,-1 1,-1 2,-1 3,0 1,1 2,0 1,2 1,1 1,2 1,2 2,3 1,3 1,3 1,2 1,2 2,1 1,-1 1,-2 1,-2 1,-3 1,-3 2,-2 1,-3 1,-1 1,-2 1,-1 2,0 1,-1 1,0 1,1 1,0 2,1 1,2 1,1 1,2 1,1 2,1 1,1 1,0 1,-1 1,-2 2,-1 1,-2 1,-1 1,-1 1,-1 5,0 1,1 2,1 1,1 3,0 2,-1 1,-1 1,-1 1,0 1,-1 2,0 1,1 1,0 1,1 1,2 2,1 1,2 1,1 1,2 1,1 6,0 2,-1 3,0 1,1 2,1 1,2 1,2 1,3 1,3 2,5 1,4 1,5 1,4 1,3 1,2 2,0 1,-2 1,-3 1,-3 1,-4 2,-3 1,-3 1,-3 1,-3 1,-2 2,-2 1,-1 1,-2 1,-1 1,-1 2,-1 1,-1 1,0 1,-1 4,0 1,-1 1,-1 1,-1 2,-1 1,-1 1,-1 2,0 2,1 1,1 1,1 1,2 1,1 2,2 1,1 2,0 1,-1 2,-2 1,-1 1,-2 1,-2 1,-2 2,-1 1,-1 1,-1 1,-1 4,0 1,1 1,1 1,2 2,2 1,2 1,2 1,2 1,1 3,0 1,-2 1,-2 1,-3 2,-2 1,-2 1,-2 1,-1 1,-2 2,0 1,-1 1,-1 3,0 2,1 2,0 1,1 1,0 2,-1 1,0 1,-1 1,-1 1,-1 2,-1 1,-1 1,0 1,-1 1,0 2,-1 2,0 1,-1 13,0 2,1 2,0 1,1 1,0 2,1 1,0 1,1 1,1 1,1 2,1 1,2 1,1 1,1 3,0 1,-1 1,-1 1,-1 1,-1 2,-1 1,-1 1,-1 1,-1 1,0 2,-1 2,0 1,-1 7,0 2,1 2,0 1,1 1,0 2,1 1,0 1,1 1,1 1,1 1,1 2,1 1,1 1,1 1,2 1,1 2,2 1,1 1,0 1,-1 1,-1 2,-1 1,-1 1,-1 1,-1 1,-1 5,0 1,1 3,0 1,1 1,-1 3,0 1,-1 3,0 2,1 1,0 1,1 1,2 1,1 2,2 1,3 1,2 1,3 1,3 2,2 1,2 1,1 1,2 1,1 2,0 1,-1 1,-2 1,-3 1,-3 2,-4 1,-3 1,-3 1,-3 1,-2 2,-2 1,-2 1,-1 1,-1 1,-1 2,-1 1,-1 1,0 1,-1 3,0 1,-1 3,0 1,-1 12,0 2,1 10,0 2,-1 18,0 1,1 2,0 1,1 2,0 1,1 1,0 1,1 3,0 1,-1 5,0 1,-1 1,0 1,1 5,0 1,1 1,0 2,1 1,1 1,1 1,1 1,1 2,2 1,1 1,3 1,2 1,3 2,2 1,3 1,2 1,1 1,0 1,-1 2,-2 1,-2 1,-1 1,-2 1,-1 2,-1 1,-1 1,-1 10,0 1,1 1,0 1,1 1,1 2,1 1,1 1,1 1,2 1,1 2,1 1,1 2,0 1,1 2,0 1,2 1,2 1,2 1,2 2,2 1,2 3,0 2,-1 1,0 1,-1 1,0 1,1 2,0 1,1 1,1 1,1 1,3 2,2 1,3 1,2 1,2 3,0 1,-2 1,-2 1,-2 1,-2 2,-1 1,-1 1,-1 1,-1 1,0 2,-1 1,1 2,0 1,1 4,0 1,-2 1,-2 1,-2 2,-2 1,-3 1,-2 1,-2 1,-1 2,-1 3,0 1,1 2,0 1,1 1,1 1,2 1,2 2,3 1,3 1,4 1,5 1,5 2,6 1,6 1,5 1,4 1,3 2,1 1,-2 1,-2 1,-4 1,-5 2,-5 1,-4 1,-3 1,-3 1,-1 2,-1 1,0 1,2 1,2 1,2 2,4 1,3 1,3 1,2 1,2 2,2 1,2 1,1 1,2 1,1 2,2 1,2 1,2 2,0 2,-1 1,-2 1,-2 1,-2 1,-1 2,0 1,2 1,3 1,4 1,6 2,7 1,8 1,9 1,8 1,6 1,2 2,-1 1,-4 1,-7 1,-7 1,-8 2,-7 1,-7 1,-5 1,-4 1,-4 2,-3 1,-2 1,-3 1,-2 1,-1 2,-1 2,0 1,2 1,2 2,3 1,4 1,4 1,6 1,6 2,7 1,8 1,9 1,7 1,7 2,4 1,2 1,1 1,-2 1,-2 2,-3 1,-2 1,-1 1,1 1,1 2,4 1,4 1,5 1,3 1,2 2,0 1,-4 1,-5 1,-7 1,-7 2,-7 1,-7 1,-5 1,-5 1,-4 2,-2 1,-1 1,-1 2,0 2,-1 1,-1 1,-1 1,0 1,-1 3,0 1,-1 1,-2 1,-2 2,-1 1,-2 1,-1 7,0 1,2 1,2 2,3 1,4 1,6 1,7 1,8 2,10 1,10 1,12 1,11 1,10 2,7 1,3 1,-1 1,-4 1,-7 2,-7 1,-7 1,-7 1,-5 1,-3 2,-3 1,-1 1,-1 1,-1 1,-1 2,-3 1,-4 1,-5 1,-6 1,-6 2,-6 1,-5 1,-5 1,-3 1,-3 2,-2 1,-1 1,-1 7,0 1,1 2,1 1,1 1,1 1,2 1,2 2,3 1,3 1,3 1,4 1,3 2,2 1,2 1,2 1,2 1,3 2,4 1,4 1,4 1,5 1,5 2,5 1,4 1,2 1,1 1,-2 1,-4 2,-5 1,-7 1,-7 1,-7 1,-6 2,-5 1,-3 1,-2 2,0 2,2 1,1 1,1 1,0 1,-1 2,-2 1,-3 1,-4 1,-3 1,-3 2,-3 1,-1 1,0 1,1 1,2 2,4 1,3 1,5 1,4 1,6 2,5 1,6 1,5 1,4 1,3 2,2 1,1 1,1 1,1 1,2 2,2 1,2 1,0 1,-2 1,-4 2,-4 1,-4 1,-4 1,-3 1,-2 2,-1 1,-1 1,1 1,0 1,2 2,1 1,2 1,1 1,1 1,-1 2,-1 1,-2 1,-3 1,-3 1,-3 2,-2 1,0 1,1 1,1 1,2 1,1 2,0 1,-1 1,-2 1,-3 1,-3 2,-3 1,-4 1,-3 1,-2 1,-1 2,1 1,2 1,4 1,5 1,5 2,5 1,5 1,2 1,0 1,-2 2,-5 1,-6 1,-6 1,-5 1,-4 2,-3 1,-2 5,0 1,-1 1,-2 1,-2 1,-2 2,-2 1,-2 1,0 1,1 1,2 2,4 1,4 1,7 1,6 1,8 2,7 1,6 1,5 1,4 1,3 2,4 1,4 1,5 1,5 1,5 2,3 1,0 1,-3 1,-5 1,-7 2,-7 1,-6 1,-6 1,-5 1,-5 2,-5 1,-5 1,-5 1,-4 1,-4 2,-2 1,-2 1,-1 1,-1 1,-2 1,-2 2,-3 1,-3 1,-3 1,-3 1,-2 2,-2 2,0 1,2 1,2 2,3 1,3 1,3 1,1 1,1 2,-1 1,-2 1,-2 1,-2 1,-1 2,0 1,1 1,3 1,4 1,5 2,5 1,6 1,5 1,5 1,4 2,4 1,3 1,1 1,0 1,-2 2,-3 1,-4 1,-3 1,-3 1,-1 2,-1 2,0 1,-1 1,-3 2,-3 1,-4 1,-4 1,-4 1,-3 2,-3 1,-3 1,-2 1,-3 1,-3 2,-3 1,-2 1,-2 1,-1 1,-1 3,0 1,1 1,1 1,1 2,1 1,2 1,2 1,3 1,4 2,4 1,5 1,5 1,4 1,4 1,2 2,2 1,3 1,2 1,3 1,4 2,5 1,4 1,5 1,5 1,5 2,4 1,4 1,2 1,-1 1,-3 2,-6 1,-7 1,-9 1,-9 1,-7 2,-7 1,-6 1,-5 1,-4 1,-2 2,-3 1,-2 1,-3 1,-2 1,-3 2,-3 1,-2 1,-2 2,0 2,1 1,2 1,2 1,2 1,1 2,1 1,0 1,-1 6,0 1,1 1,1 2,1 1,3 1,2 1,2 1,2 2,1 6,0 1,1 1,1 1,1 1,2 2,2 1,2 1,2 1,3 1,2 1,2 2,2 1,2 1,1 1,0 1,-2 2,-2 1,-3 1,-3 1,-3 1,-3 2,-3 1,-3 1,-3 1,-3 1,-3 2,-3 1,-2 1,-1 1,-1 1,-1 2,1 1,1 1,2 1,2 1,4 2,3 1,3 1,3 1,3 1,2 2,3 1,3 1,4 1,4 1,4 2,4 1,3 1,1 1,-1 1,-3 2,-3 1,-4 1,-4 1,-4 1,-5 2,-4 1,-5 1,-6 1,-5 1,-5 2,-4 1,-4 1,-3 1,-2 1,-1 3,0 1,2 1,2 1,4 2,4 1,4 1,4 1,3 1,1 2,0 1,-2 1,-3 1,-3 1,-3 2,-4 1,-3 1,-2 1,-2 1,-1 5,0 1,1 1,2 2,2 1,4 1,4 1,5 1,5 2,6 1,6 1,5 1,3 1,3 2,1 1,1 1,-1 1,-1 1,-2 2,-2 1,-2 1,-1 1,-1 1,0 2,2 1,1 1,3 1,3 1,2 2,2 1,0 1,-2 1,-3 1,-6 2,-6 1,-6 1,-5 1,-5 1,-3 2,-2 1,-1 2,0 1,2 2,2 1,3 1,3 1,4 1,3 2,5 1,4 1,5 1,5 1,5 2,6 1,7 1,7 1,7 1,7 2,5 1,2 1,-1 1,-4 1,-5 2,-7 1,-6 1,-6 1,-5 1,-5 2,-5 1,-4 1,-5 1,-4 1,-3 1,-2 4,0 1,1 1,1 3,0"
             inkscape:connector-curvature="0"
             id="path166"
             style="fill:none;stroke:#808080;stroke-width:15;stroke-linecap:butt;stroke-linejoin:round;stroke-miterlimit:10;stroke-opacity:1;stroke-dasharray:none" /><path
             d="m 1440,6320 367,0 5,1 5,0 6,1 5,1 6,4 5,1 5,-2 6,1 10,0 6,1 5,1 6,0 5,1 5,0 6,1 5,0 6,1 10,0 6,1 16,0 5,1 22,0 5,1 11,0 5,1 11,0 5,1 17,0 5,1 11,0 5,1 11,0 5,1 27,0 6,1 16,0 5,1 16,0 6,1 16,0 5,1 22,0 5,1 11,0 5,1 11,0 6,1 16,0 5,1 16,0 6,1 21,0 6,1 16,0 5,1 11,0 5,1 16,0 6,1 11,0 5,1 16,0 5,1 11,0 6,1 10,0 6,1 11,0 5,1 11,0 5,1 11,0 5,1 6,0 5,1 11,0 5,1 11,0 5,1 11,0 5,1 11,0 6,1 5,0 5,1 11,0 6,1 5,0 5,1 6,0 5,1 6,0 5,1 5,0 6,1 5,0 5,1 6,0 5,1 6,0 5,1 5,0 6,1 5,0 6,1 5,0 5,1 6,1 5,0 5,1 6,1 5,1 6,0 5,1 5,1 6,1 5,0 6,1 5,1 5,1 6,1 5,1 5,0 6,1 5,1 6,1 5,1 5,1 6,2 5,1 6,1 5,1 5,1 6,2 5,1 5,1 6,2 5,1 6,2 5,1 5,2 6,1 5,2 6,2 5,2 5,3 6,2 5,2 5,3 6,3 5,3 6,3 5,4 5,5 6,6 5,7 6,6 5,7 5,9 6,9 5,12 5,16 6,17 5,6 6,-7 5,-4 5,1 6,2 5,1 6,1 5,1 11,0 5,-1 6,-1 5,1 5,1 6,3 5,2 5,5 6,13 5,22 6,14 5,5 5,11 6,11 5,12 6,11 5,11 5,14 6,17 5,20 5,24 6,23 5,11 6,1 5,3 5,4 6,8 5,6 6,5 5,-18 5,-51 6,-41 5,-19 5,-16 6,-15 5,-14 6,-11 5,-7 5,-4 6,-3 5,-3 6,-5 5,-4 5,-3 6,-1 5,-3 5,-5 6,-2 5,-1 6,-3 5,-2 5,-3 6,-3 5,2 6,-15 5,-24 5,-4 6,3 5,3 5,2 6,3 5,3 6,6 5,3 5,4 6,28 5,210 6,469 5,307 5,-129 6,-192 5,-47 6,-2 5,74 5,56 6,-8 5,1 5,0 6,-2 5,-5 6,-20 5,-32 5,-39 6,-37 5,-23 6,-22 5,-31 5,-24 6,-11 5,-2 5,4 6,16 5,42 6,73 5,100 5,79 6,37 5,17 6,-11 5,-37 5,-44 6,-50 5,-72 5,-74 6,-53 5,-42 6,-31 5,-18 5,-10 6,-22 5,-47 6,-59 5,-86 5,-117 6,-63 5,-8 5,-17 6,-13 5,-6 6,-4 5,-1 5,0 6,3 5,3 6,5 5,10 5,9 6,9 5,10 5,4 6,3 5,7 6,8 5,12 5,13 6,28 5,30 6,20 5,22 5,28 6,39 5,49 5,67 6,95 5,108 6,106 5,88 5,78 6,106 5,105 6,37 5,-5 5,-19 6,-3 5,44 6,105 5,152 5,147 6,-13 5,-155 5,-46 6,35 5,112 6,130 5,229 5,-180 6,-563 5,-236 6,-82 5,-64 5,-66 6,-48 5,-46 5,-43 6,-29 5,-26 6,-23 5,-25 5,-22 6,-9 5,-9 6,-12 5,-15 5,-10 6,-2 5,-3 5,-4 6,0 5,2 6,2 5,11 5,20 6,4 5,-20 6,-19 5,-7 5,9 6,29 5,-2 5,-52 6,-83 5,-76 6,-60 5,-57 5,-41 6,-31 5,-20 6,-12 5,-6 5,-2 6,-1 5,0 5,-1 6,-1 27,0 5,-1 11,0 5,-1 6,0 5,-1 6,0 5,-1 5,-1 6,-1 5,-2 5,-1 11,0 6,1 5,-1 5,-2 6,-2 5,-1 6,0 5,-1 16,0 5,-1 27,0 6,-1 16,0 5,-1 16,0 6,-1 11,0 5,-1 16,0 6,-1 16,0 5,-1 5,0 6,-1 5,0 6,-1 5,0 5,-1 6,-1 5,0 6,-1 10,0 6,-1 5,0 5,-1 11,0 6,-1 10,0 6,-1 21,0 6,-1 21,0 6,-1 21,0 6,-1 21,0 6,-1 21,0 5,-1 17,0 5,-1 16,0 6,-1 10,0 6,-1 10,0 6,-1 11,0 5,-1 11,0 5,-1 6,0 5,-1 11,0 5,-1 16,0 6,-1 16,0 5,-1 16,0 6,-1 10,0 6,-1 16,0 5,-1 11,0 6,-1 16,0 5,-1 16,0 6,-1 16,0 5,-1 27,0 5,-1 6,0 5,-1 11,0 5,-1 17,0 5,-1 16,0 6,-1 16,0 5,-1 22,0 5,-1 5,1 6,-1 11,0 5,-1 5,0 6,-1 16,0 5,-1 6,0 5,-1 5,0 6,-1 27,0 5,-1 11,0 5,-1 11,0 5,-1 11,0 6,-1 16,0 5,-1 22,0 5,-1 5,-1 6,0"
             inkscape:connector-curvature="0"
             id="path168"
             style="fill:none;stroke:#000000;stroke-width:15;stroke-linecap:butt;stroke-linejoin:round;stroke-miterlimit:10;stroke-opacity:1;stroke-dasharray:none" /><path
             d="m 1441,6369 13,0 1,1 38,0 1,1 39,0 2,1 52,0 1,1 71,0 1,1 58,0 1,1 41,0 1,1 32,0 1,1 28,0 1,1 26,0 2,1 27,0 1,1 29,0 1,1 40,0 1,1 59,0 1,1 163,0 1,1 36,0 1,1 25,0 1,1 23,0 1,1 21,0 1,1 19,0 1,1 16,0 1,1 14,0 2,1 11,0 2,1 12,0 1,1 12,0 1,1 11,0 1,1 11,0 1,1 11,0 1,1 10,0 1,1 9,0 2,1 9,0 1,1 9,0 1,1 8,0 1,1 9,0 1,1 8,0 2,1 7,0 1,1 7,0 1,1 8,0 1,1 7,0 1,1 7,0 1,1 6,0 2,1 7,0 1,1 6,0 1,1 6,0 1,1 6,0 2,1 6,0 1,1 6,0 1,1 5,0 1,1 6,0 1,1 6,0 1,1 6,0 2,1 6,0 1,1 4,0 2,1 6,0 1,1 5,0 1,1 6,0 1,1 5,0 1,1 6,0 1,1 5,0 1,1 6,0 1,1 5,0 1,1 5,0 1,1 6,0 2,1 4,0 2,1 4,0 2,1 6,0 1,1 4,0 2,1 4,0 2,1 4,0 2,1 6,0 1,1 5,0 1,1 5,0 1,1 5,0 1,1 5,0 1,1 5,0 1,1 5,0 1,1 5,0 1,1 5,0 1,1 5,0 1,1 3,0 2,1 4,0 1,1 5,0 1,1 5,0 1,1 4,0 1,1 5,0 1,1 4,0 1,1 5,0 1,1 4,0 1,1 5,0 1,1 3,0 2,1 3,0 1,1 4,0 1,1 5,0 1,1 4,0 1,1 4,0 1,1 3,0 2,1 3,0 1,1 4,0 1,1 2,0 2,1 3,0 1,1 4,0 1,1 4,0 1,1 2,0 2,1 3,0 1,1 4,0 1,1 3,0 1,1 3,0 2,1 2,0 1,1 3,0 1,1 3,0 2,1 2,0 1,1 3,0 1,1 3,0 2,1 2,0 1,1 3,0 1,1 2,0 1,1 4,0 1,1 3,0 1,1 2,0 1,1 3,0 1,1 2,0 1,1 3,0 1,1 2,0 2,1 2,0 1,1 3,0 1,1 2,0 1,1 3,0 1,1 2,0 2,1 2,0 1,1 3,0 1,1 2,0 1,1 3,0 1,1 2,0 2,1 2,0 1,1 3,0 1,1 2,0 1,1 3,0 1,1 2,0 2,1 1,0 1,1 2,0 2,1 2,0 1,1 3,0 1,1 2,0 1,1 3,0 1,1 2,0 1,1 3,0 1,1 2,0 2,1 1,0 1,1 2,0 2,1 2,0 1,1 3,0 1,1 2,0 1,1 3,0 1,1 2,0 2,1 2,0 1,1 3,0 1,1 2,0 1,1 3,0 1,1 2,0 2,1 2,0 1,1 3,0 1,1 2,0 1,1 3,0 1,1 2,0 2,1 3,0 1,1 3,0 1,1 4,0 1,1 2,0 1,1 4,0 1,1 4,0 1,1 3,0 2,1 3,0 1,1 4,0 1,1 5,0 1,1 5,0 1,1 5,0 1,1 5,0 1,1 6,0 1,1 6,0 2,1 7,0 1,1 8,0 2,1 7,0 1,1 8,0 1,1 8,0 1,1 6,0 1,1 6,0 1,1 5,0 1,1 4,0 1,1 4,0 1,1 3,0 2,1 2,0 1,1 3,0 1,1 2,0 1,1 3,0 1,1 2,0 2,1 1,0 1,1 1,0 1,1 2,0 1,1 2,0 1,1 2,0 1,1 1,1 1,0 1,1 2,0 1,1 1,0 1,1 1,1 1,0 2,1 1,1 1,0 1,1 1,1 2,0 1,1 1,1 1,1 1,0 2,1 1,1 1,1 1,1 1,1 2,0 1,1 1,1 1,1 1,1 2,1 1,1 1,1 1,1 1,1 2,1 1,1 1,1 1,1 1,1 2,1 1,2 1,1 1,1 1,1 2,1 1,1 1,2 1,1 1,1 2,1 1,2 1,1 1,1 1,2 2,1 1,1 1,2 1,1 1,1 2,2 1,1 1,1 1,2 1,1 2,2 1,1 1,2 1,1 1,2 2,1 1,1 1,2 1,1 1,2 2,1 1,2 1,1 1,2 1,1 2,2 1,1 1,1 1,2 1,1 1,2 2,1 1,2 1,1 1,1 1,2 2,1 1,1 1,2 1,1 1,1 2,2 1,1 1,1 1,1 1,2 2,1 1,1 1,1 1,1 1,1 2,2 1,1 1,1 1,1 1,1 2,1 1,1 1,1 1,1 1,1 2,1 1,1 1,1 1,1 1,0 2,1 1,1 1,1 1,1 1,1 2,0 1,1 1,1 1,0 1,1 2,1 1,1 1,0 1,1 1,0 2,1 1,1 1,0 1,1 1,0 2,1 1,0 1,1 1,0 1,1 2,0 1,1 1,0 1,1 1,0 2,1 1,0 1,1 2,0 2,1 1,0 1,1 1,0 1,1 1,0 2,1 1,0 1,4 1,-3 1,0 2,1 1,0 1,1 1,0 1,1 2,0 1,1 2,0 1,1 2,0 1,1 1,0 1,1 1,0 2,1 2,0 1,1 1,0 2,1 2,0 1,1 5,0 1,1 5,0 1,-1 4,0 1,-1 2,0 2,-1 1,0 1,-1 1,-1 1,-1 2,0 1,-1 1,-1 1,-1 1,-2 2,-1 1,-1 1,-1 1,-2 1,-1 2,-2 1,-2 1,-1 1,-2 1,-2 2,-2 1,-2 1,-2 1,-2 1,-2 1,-2 2,-3 1,-2 1,-2 1,-3 1,-2 2,-2 1,-3 1,-3 1,-2 1,-3 2,-2 1,-3 1,-3 1,-2 1,-3 2,-3 1,-2 1,-3 1,-3 1,-3 2,-2 1,-3 1,-3 1,-3 1,-3 2,-3 1,-2 1,-3 1,-3 1,-3 2,-3 1,-3 1,-2 1,-3 1,-3 2,-3 1,-3 1,-2 1,-3 1,-3 2,-2 1,-3 1,-3 1,-2 1,-3 2,-2 1,-3 1,-2 1,-3 1,-2 2,-2 1,-2 1,-3 1,-2 1,-2 2,-2 1,-2 1,-2 1,-2 1,-1 2,-2 1,-2 1,-1 1,-2 1,-2 2,-1 1,-1 1,-2 1,-1 1,-1 2,-1 1,-1 1,-1 1,-1 1,-1 1,-1 2,0 1,-1 1,0 1,-1 3,0 1,-1 7,0 1,1 4,0 1,1 1,0 1,1 3,0 1,1 2,0 2,1 1,0 1,1 2,0 2,1 1,0 1,1 2,0 2,1 1,0 1,1 1,0 1,1 2,1 1,1 1,1 1,0 1,1 2,2 1,1 1,1 1,2 1,1 2,2 1,2 1,2 1,2 1,2 2,2 1,2 1,3 1,2 1,3 2,3 1,3 1,2 1,3 1,3 2,3 1,3 1,3 1,4 1,3 2,3 1,3 1,3 1,3 1,3 1,4 2,3 1,3 1,3 1,4 1,3 2,4 1,3 1,4 1,3 1,4 2,4 1,4 1,4 1,5 1,4 2,5 1,5 1,5 1,5 1,5 2,6 1,6 1,6 1,7 1,7 2,7 1,8 1,8 1,8 1,9 2,9 1,10 1,9 1,10 1,10 2,11 1,10 1,11 1,10 1,11 2,10 1,11 1,10 1,9 1,10 2,8 1,9 1,8 1,8 1,7 2,7 1,7 1,6 1,6 1,6 2,5 1,5 1,4 1,4 1,4 2,3 1,3 1,3 1,2 1,2 2,2 1,1 1,2 1,2 1,2 1,3 2,3 1,3 1,3 1,5 1,4 2,6 1,6 1,6 1,7 1,8 2,7 1,7 1,8 1,7 1,7 2,7 1,7 1,6 1,5 1,3 2,2 1,0 1,-2 1,-3 1,-4 2,-5 1,-6 1,-7 1,-7 1,-7 2,-7 1,-5 1,-5 1,-2 1,-1 2,-1 1,1 2,0 1,-1 2,-2 1,-4 1,-4 1,-5 1,-5 2,-6 1,-6 1,-8 1,-11 1,-13 2,-15 1,-15 1,-13 1,-10 1,-9 2,-7 1,-8 1,-8 1,-7 1,-8 2,-5 1,-5 1,-4 1,-4 1,-6 2,-7 1,-8 1,-9 1,-9 1,-8 2,-7 1,-6 1,-5 1,-5 1,-4 1,-4 2,-4 1,-4 1,-6 1,-7 1,-10 2,-12 1,-12 1,-11 1,-9 1,-7 2,-5 1,-4 1,-2 1,-2 4,0 1,1 1,2 1,3 2,4 1,4 1,3 1,2 1,1 2,-3 1,-6 1,-9 1,-11 1,-13 2,-13 1,-13 1,-11 1,-9 1,-6 2,-3 1,-2 1,-1 1,-1 1,-1 2,-1 1,-1 1,1 1,2 1,3 2,1 1,0 1,-1 1,-2 1,-4 2,-4 1,-6 1,-5 1,-5 1,-3 2,0 1,4 1,6 1,9 1,9 2,10 1,9 1,9 1,8 1,7 2,6 1,6 1,1 1,-3 1,-7 2,-11 1,-13 1,-12 1,-11 1,-8 1,-8 2,-7 1,-7 1,-4 1,0 1,6 2,9 1,12 1,13 1,9 1,3 2,-1 1,-6 1,-9 1,-11 1,-11 2,-10 1,-6 1,-6 1,-2 1,2 2,8 1,12 1,12 1,11 1,7 2,0 1,-5 1,-7 1,-7 1,-5 2,-7 1,-5 1,-5 1,-6 1,-7 2,-9 1,-8 1,-7 1,-6 1,-5 2,1 1,3 1,2 1,-2 1,-5 2,-7 1,-7 1,-7 1,-4 1,-2 2,-3 1,-6 1,-12 1,-13 1,-10 2,-7 1,-4 1,-1 1,-1 1,-2 2,-6 1,-9 1,-9 1,-8 1,-9 2,-10 1,-9 1,-5 1,-9 1,-6 1,-3 2,-2 1,-3 1,-3 1,-4 1,-3 2,-3 1,-1 1,-1 4,0 1,1 1,1 1,4 1,4 2,5 1,5 1,4 1,4 1,2 2,1 1,-2 1,-3 1,-4 1,-4 2,-4 1,-3 1,-1 1,1 1,2 2,5 1,5 1,5 1,6 1,4 2,2 1,-1 1,-3 1,-5 1,-6 2,-5 1,-4 1,-3 1,-2 1,-2 2,-2 1,-2 1,-2 1,-1 1,-1 2,0 1,1 3,0 2,-1 3,0 1,-1 2,-2 1,-3 1,-3 1,-3 1,-2 2,-2 1,-1 1,0 1,-1 1,-1 2,0 1,-1 2,0 1,1 1,1 2,1 1,0 1,1 1,0 1,1 2,1 1,1 1,2 1,2 1,3 2,3 1,3 1,3 1,3 1,2 2,2 1,2 1,0 1,-1 1,-2 2,-2 1,-3 1,-2 1,-2 1,-1 3,0 1,1 1,2 1,2 2,1 1,2 1,2 1,1 1,1 2,1 3,0 1,-1 2,0 1,-1 1,0 1,1 6,0 1,1 2,0 1,2 1,2 1,2 1,2 2,1 1,1 1,0 1,-1 1,-1 2,-2 1,-2 1,-2 1,-2 1,-2 2,-2 1,-1 1,-1 1,-1 1,-1 2,-1 1,0 1,-1 1,0 1,-1 1,-1 2,-1 1,-1 1,-2 1,-2 1,-3 2,-2 1,-2 1,-1 1,-2 1,-1 3,0 1,1 1,2 1,1 2,3 1,2 1,2 1,2 1,1 2,1 7,0 1,1 1,1 1,1 2,2 1,1 1,2 1,1 1,1 2,1 1,0 1,1 2,0 2,1 2,0 1,-1 1,-1 2,-1 1,-1 1,-1 1,-1 1,-1 2,-1 1,-1 2,0 1,1 2,1 1,1 1,1 1,2 1,1 2,2 1,0 1,1 5,0 1,-1 6,0 1,-1 1,-1 1,0 2,-1 1,-1 7,0 1,-1 1,-1 2,-2 1,-2 1,-2 1,-2 1,-1 2,-1 1,-1 3,0 2,1 1,1 1,1 1,1 1,1 2,1 1,1 1,1 1,0 1,1 4,0 1,-1 3,0 1,1 2,0 1,1 10,0 1,1 3,0 1,-1 3,0 2,-1 2,0 1,-1 17,0 1,-1 17,0 1,-1 1,0 1,-1 2,-1 1,0 1,-1 1,-1 1,-1 2,0 1,-1 1,-1 1,-1 1,-1 2,-1 1,0 1,-1 1,-1 1,-1 3,0 1,-1 4,0 1,1 1,0 1,1 1,1 2,1 1,1 1,1 1,1 1,1 2,1 1,1 1,1 1,1 3,0 1,1 3,0 2,1 8,0 1,-1 1,0 2,-1 1,-1 1,-1 1,-1 1,-1 1,-1 2,-1 1,-1 1,-1 1,-1 1,-1 2,-2 1,-1 1,-1 1,0 1,-1 2,-1 1,0 1,-1 4,0 1,1 2,0 1,1 2,1 1,1 1,0 1,1 1,1 2,1 1,0 1,1 7,0 1,-1 3,0 1,-1 2,0 2,-1 26,0 1,1 3,0 1,1 1,0 1,1 1,1 1,0 2,1 1,1 1,1 1,0 1,1 2,1 2,0 1,1 4,0 1,-1 2,0 2,-1 1,0 1,-1 1,0 1,-1 3,0 1,-1 7,0 1,-1 4,0 1,-1 3,0 1,-1 1,0 1,-1 1,0 2,-1 1,0 1,-1 2,0 2,-1 2,0 1,-1 7,0 2,1 4,0 2,1 9,0 1,-1 3,0 1,-1 2,0 1,-1 4,0 1,-1 11,0 1,1 6,0 1,1 4,0 1,1 6,0 1,1 9,0 1,1 7,0 1,-1 9,0 1,-1 8,0 2,1 6,0 1,1 5,0 1,1 9,0 1,-1 5,0 1,-1 4,0 1,-1 3,0 1,-1 3,0 2,-1 8,0 1,-1 9,0 1,1 9,0 2,-1 7,0 1,-1 4,0 1,-1 3,0 2,-1 4,0 2,-1 5,0 2,-1 14,0 1,-1 11,0 1,-1 9,0 1,-1 25,0 1,1 7,0 2,1 4,0 2,1 4,0 2,1 4,0 1,1 6,0 2,1 16,0 2,-1 8,0 1,-1 9,0 1,-1 12,0 1,-1 17,0 1,-1 33,0 2,1 12,0 1,1 11,0 1,1 23,0 1,1 15,0 1,-1 18,0 2,-1 6,0 1,-1 3,0 2,-1 3,0 1,-1 3,0 1,-1 2,0 2,-1 2,0 1,-1 4,0 1,-1 2,0 2,-1 3,0 1,-1 6,0 2,-1 7,0 1,-1 11,0 1,-1 12,0 1,-1 11,0 1,-1 11,0 1,-1 10,0 1,-1 9,0 2,-1 10,0 2,-1 14,0 1,-1 16,0 1,-1 41,0 1,1 48,0 1,-1 11,0 1,-1 8,0 1,-1 9,0 1,-1 10,0 1,-1 8,0 1,-1 9,0 1,-1 10,0 1,-1 10,0 2,-1 27,0 1,-1 9,0 1,1 35,0 1,1 20,0 1,1 90,0 1,1 14,0 1,1 8,0 1,1 8,0 1,1 6,0 1,1 6,0 1,1 5,0 1,1 5,0 1,1 5,0 1,1 5,0 1,1 5,0 1,1 4,0 1,1 5,0 1,1 5,0 1,1 3,0 2,1 4,0 2,1 3,0 1,1 5,0 1,1 4,0 1,1 5,0 1,1 4,0 1,1 5,0 1,1 4,0 1,1 5,0 1,1 3,0 2,1 3,0 1,1 4,0 1,1 5,0 1,1 4,0 1,1 3,0 2,1 3,0 1,1 4,0 1,1 3,0 1,1 3,0 2,1 3,0 1,1 4,0 1,1 4,0 1,1 4,0 1,1 3,0 2,1 3,0 1,1 4,0 1,1 4,0 1,1 4,0 1,1 3,0 2,1 3,0 1,1 5,0 1,1 4,0 1,1 5,0 1,1 5,0 1,1 5,0 1,1 6,0 1,1 6,0 1,1 8,0 1,1 8,0 1,1 10,0 1,1 11,0 1,1 13,0 1,1 16,0 1,1 19,0 2,1 28,0 2,1 65,0 2,1 41,0 2,-1 45,0 1,-1 28,0 1,-1 25,0 1,-1 28,0 1,-1 30,0 1,-1 37,0 2,-1 62,0 1,-1 34,0 1,1 41,0 1,1 19,0 1,1 16,0 1,1 13,0 1,1 13,0 2,1 14,0 1,1 13,0 2,1 14,0"
             inkscape:connector-curvature="0"
             id="path170"
             style="fill:none;stroke:#ff0000;stroke-width:15;stroke-linecap:butt;stroke-linejoin:round;stroke-miterlimit:10;stroke-opacity:1;stroke-dasharray:none" /><path
             d="m 4080,6320 0,1584"
             inkscape:connector-curvature="0"
             id="path172"
             style="fill:none;stroke:#000000;stroke-width:15;stroke-linecap:butt;stroke-linejoin:round;stroke-miterlimit:10;stroke-opacity:1;stroke-dasharray:144, 36, 3.6, 36;stroke-dashoffset:0" /></g></g></g></g></svg>
