<?xml version="1.0" encoding="UTF-8" standalone="no"?>
<!-- Created with Inkscape (http://www.inkscape.org/) -->

<svg
   xmlns:dc="http://purl.org/dc/elements/1.1/"
   xmlns:cc="http://creativecommons.org/ns#"
   xmlns:rdf="http://www.w3.org/1999/02/22-rdf-syntax-ns#"
   xmlns:svg="http://www.w3.org/2000/svg"
   xmlns="http://www.w3.org/2000/svg"
   xmlns:inkscape="http://www.inkscape.org/namespaces/inkscape"
   version="1.1"
   width="765"
   height="440"
   id="svg2"
   xml:space="preserve"><metadata
     id="metadata8"><rdf:RDF><cc:Work
         rdf:about=""><dc:format>image/svg+xml</dc:format><dc:type
           rdf:resource="http://purl.org/dc/dcmitype/StillImage" /></cc:Work></rdf:RDF></metadata><defs
     id="defs6"><clipPath
       id="clipPath18"><path
         d="m 1620,4666 0,2520 3600,0 0,-2520 -3600,0 z"
         inkscape:connector-curvature="0"
         id="path20" /></clipPath></defs><g
     transform="matrix(1.25,0,0,-1.25,0,990)"
     id="g10"><g
       transform="scale(0.1,0.1)"
       id="g12"><g
         id="g14"><g
           clip-path="url(#clipPath18)"
           id="g16"><path
             d="m 1620,5040 10,2 10,2 10,2 10,3 10,2 10,2 10,2 10,3 10,2 10,2 10,3 10,2 10,3 10,2 10,3 10,3 10,2 10,3 10,3 10,2 10,3 10,3 10,3 10,3 10,3 10,3 10,3 10,3 10,3 10,4 10,3 10,3 10,4 10,3 10,4 10,3 10,4 10,3 10,4 10,4 10,4 10,3 10,4 10,4 10,4 10,5 10,4 10,4 10,4 10,5 10,4 10,5 10,4 10,5 10,4 10,5 10,5 10,5 10,5 10,5 10,5 10,5 10,6 10,5 10,6 10,5 10,6 10,5 10,6 10,6 10,6 10,6 10,6 10,7 10,6 10,6 10,7 10,7 10,6 10,7 10,7 10,7 10,8 10,7 10,7 10,8 10,8 10,7 10,8 10,9 10,8 10,8 10,9 10,9 10,9 10,9 10,9 10,10 10,9 10,10 10,10 10,10 10,10 10,11 10,10 10,11 10,11 10,10 10,11 10,10 10,11 10,10 10,10 10,9 10,10 10,8 10,9 10,7 10,7 10,6 10,6 10,4 10,4 10,3 10,2 10,1 10,0 10,-2 10,-2 10,-3 10,-4 10,-5 10,-6 10,-7 10,-8 10,-9 10,-9 10,-10 10,-11 10,-11 10,-12 10,-12 10,-12 10,-13 10,-13 10,-14 10,-13 10,-14 10,-14 10,-14 10,-13 10,-14 10,-14 10,-14 10,-14 10,-14 10,-14 10,-14 10,-14 10,-13 10,-14 10,-13 10,-14 10,-13 10,-13 10,-13 10,-13 10,-13 10,-13 10,-13 10,-13 10,-12 10,-13 10,-13 10,-12 10,-12 10,-13 10,-12 10,-12 10,-12 10,-12 10,-12 10,-13 10,-11 10,-12 10,-12 10,-12 10,-12 10,-12 10,-12 10,-11 10,-12 10,-12 10,-11 10,-12 10,-12 10,-11 10,-12 10,-11 10,-12 10,-11 10,-12 10,-11 10,-12 10,-11 10,-11 10,-11 10,-11 10,-11 10,-11 10,-10 10,-10 10,-10 10,-10 10,-9 10,-9 10,-8 10,-8 10,-7 10,-6 10,-6 10,-6 10,-4 10,-4 10,-2 10,-2 10,-1 10,0 10,1 10,2 10,3 10,4 10,4 10,6 10,6 10,7 10,8 10,8 10,9 10,9 10,9 10,10 10,10 10,9 10,10 10,9 10,10 10,9 10,8 10,8 10,8 10,8 10,6 10,7 10,6 10,5 10,5 10,4 10,4 10,3 10,3 10,3 10,2 10,3 10,1 10,2 10,1 10,1 10,1 10,1 10,0 10,1 10,0 10,1 40,0 10,1 810,0"
             inkscape:connector-curvature="0"
             id="path22"
             style="fill:none;stroke:#b20000;stroke-width:20;stroke-linecap:butt;stroke-linejoin:round;stroke-miterlimit:10;stroke-opacity:1;stroke-dasharray:none" /><path
             d="m 3610,4902 10,-12 10,-11 10,-12 10,-11 10,-12 10,-11 10,-11 10,-11 10,-11 10,-11 10,-11 10,-10 10,-10 10,-10 10,-10 10,-9 10,-9 10,-8 10,-8 10,-7 10,-6 10,-6 10,-6 10,-4 10,-4 10,-2 10,-2 10,-1 10,0 10,1 10,2 10,3 10,4 10,4 10,6 10,6 10,7 10,8 10,8 10,9 10,9 10,9 10,10 10,10 10,9 10,10 10,9 10,10 10,9 10,8 10,8 10,8 10,8 10,6 10,7 10,6 10,5 10,5 10,4 10,4 10,3 10,3 10,3 10,2 10,3 10,1 10,2 10,1 10,1 10,1 10,1 10,0 10,1 10,0 10,1 40,0 10,1"
             inkscape:connector-curvature="0"
             id="path24"
             style="fill:none;stroke:#b2b2b2;stroke-width:20;stroke-linecap:butt;stroke-linejoin:round;stroke-miterlimit:10;stroke-opacity:1;stroke-dasharray:144, 36;stroke-dashoffset:0" /><path
             d="m 2430,5368 10,7 10,8 10,7 10,7 10,8 10,8 10,7 10,8 10,9 10,8 10,8 10,9 10,9 10,9 10,9 10,9 10,10 10,9 10,10 10,10 10,10 10,10 10,11 10,10 10,11 10,11 10,10 10,11 10,10 10,11 10,10 10,10 10,9 10,10 10,8 10,9 10,7 10,7 10,6 10,6 10,4 10,4 10,3 10,2 10,1 10,0 10,-2 10,-2 10,-3 10,-4 10,-5 10,-6 10,-7 10,-8 10,-9 10,-9 10,-10 10,-11 10,-11 10,-12 10,-12 10,-12 10,-13 10,-13 10,-14 10,-13 10,-14 10,-14 10,-14 10,-13 10,-14 10,-14 10,-14 10,-14 10,-14 10,-14 10,-14 10,-14 10,-13 10,-14"
             inkscape:connector-curvature="0"
             id="path26"
             style="fill:none;stroke:#b2b2b2;stroke-width:20;stroke-linecap:butt;stroke-linejoin:round;stroke-miterlimit:10;stroke-opacity:1;stroke-dasharray:144, 36;stroke-dashoffset:0" /><path
             d="m 1620,6396 10,-2 10,-2 10,-2 10,-3 10,-2 10,-2 10,-2 10,-3 10,-2 10,-3 10,-2 10,-2 10,-3 10,-2 10,-3 10,-3 10,-2 10,-3 10,-3 10,-3 10,-2 10,-3 10,-3 10,-3 10,-3 10,-3 10,-3 10,-4 10,-3 10,-3 10,-3 10,-4 10,-3 10,-3 10,-4 10,-4 10,-3 10,-4 10,-3 10,-4 10,-4 10,-4 10,-4 10,-4 10,-4 10,-4 10,-4 10,-5 10,-4 10,-4 10,-5 10,-4 10,-5 10,-4 10,-5 10,-5 10,-5 10,-5 10,-5 10,-5 10,-5 10,-5 10,-6 10,-5 10,-5 10,-6 10,-6 10,-5 10,-6 10,-6 10,-6 10,-6 10,-6 10,-6 10,-7 10,-6 10,-7 10,-6 10,-7 10,-6 10,-7 10,-6 10,-7 10,-6 10,-7 10,-6 10,-6 10,-6 10,-6 10,-5 10,-4 10,-5 10,-3 10,-3 10,-1 10,-1 10,1 10,2 10,3 10,5 10,7 10,9 10,12 10,13 10,16 10,18 10,21 10,24 10,27 10,29 10,31 10,34 10,37 10,39 10,40 10,43 10,44 10,45 10,46 10,47 10,47 10,46 10,46 10,45 10,44 10,42 10,40 10,38 10,36 10,33 10,31 10,27 10,25 10,22 10,18 10,16 10,13 10,11 10,8 10,5 10,3 10,1 10,-1 10,-3 10,-4 10,-6 10,-7 10,-8 10,-9 10,-10 10,-11 10,-11 10,-12 10,-12 10,-12 10,-13 10,-13 10,-13 10,-13 10,-13 10,-13 10,-14 10,-13 10,-13 10,-13 10,-13 10,-13 10,-13 10,-13 10,-13 10,-12 10,-13 10,-13 10,-12 10,-13 10,-12 10,-13 10,-12 10,-12 10,-12 10,-12 10,-13 10,-12 10,-12 10,-12 10,-12 10,-11 10,-12 10,-12 10,-12 10,-12 10,-11 10,-12 10,-12 10,-12 10,-11 10,-12 10,-11 10,-12 10,-12 10,-11 10,-12 10,-11 10,-11 10,-12 10,-11 10,-11 10,-11 10,-11 10,-11 10,-10 10,-10 10,-10 10,-10 10,-9 10,-9 10,-8 10,-8 10,-7 10,-7 10,-6 10,-5 10,-4 10,-4 10,-3 10,-1 10,-1 10,0 10,1 10,2 10,3 10,3 10,5 10,6 10,6 10,7 10,8 10,8 10,9 10,9 10,9 10,10 10,10 10,9 10,10 10,10 10,9 10,9 10,8 10,9 10,7 10,8 10,7 10,6 10,6 10,5 10,5 10,4 10,4 10,4 10,3 10,2 10,3 10,2 10,2 10,1 10,1 10,1 10,1 10,1 10,1 10,0 10,1 20,0 10,1 840,0"
             inkscape:connector-curvature="0"
             id="path28"
             style="fill:none;stroke:#ff0000;stroke-width:20;stroke-linecap:butt;stroke-linejoin:round;stroke-miterlimit:10;stroke-opacity:1;stroke-dasharray:none" /><path
             d="m 3610,6535 10,-12 10,-11 10,-12 10,-11 10,-11 10,-12 10,-11 10,-11 10,-11 10,-11 10,-11 10,-10 10,-10 10,-10 10,-10 10,-9 10,-9 10,-8 10,-8 10,-7 10,-7 10,-6 10,-5 10,-4 10,-4 10,-3 10,-1 10,-1 10,0 10,1 10,2 10,3 10,3 10,5 10,6 10,6 10,7 10,8 10,8 10,9 10,9 10,9 10,10 10,10 10,9 10,10 10,10 10,9 10,9 10,8 10,9 10,7 10,8 10,7 10,6 10,6 10,5 10,5 10,4 10,4 10,4 10,3 10,2 10,3 10,2 10,2 10,1 10,1 10,1 10,1 10,1 10,1 10,0 10,1 20,0 10,1 30,0"
             inkscape:connector-curvature="0"
             id="path30"
             style="fill:none;stroke:#b2b2b2;stroke-width:20;stroke-linecap:butt;stroke-linejoin:round;stroke-miterlimit:10;stroke-opacity:1;stroke-dasharray:144, 36;stroke-dashoffset:0" /><path
             d="m 2430,6068 10,-6 10,-7 10,-6 10,-7 10,-6 10,-6 10,-6 10,-6 10,-5 10,-4 10,-5 10,-3 10,-3 10,-1 10,-1 10,1 10,2 10,3 10,5 10,7 10,9 10,12 10,13 10,16 10,18 10,21 10,24 10,27 10,29 10,31 10,34 10,37 10,39 10,40 10,43 10,44 10,45 10,46 10,47 10,47 10,46 10,46 10,45 10,44 10,42 10,40 10,38 10,36 10,33 10,31 10,27 10,25 10,22 10,18 10,16 10,13 10,11 10,8 10,5 10,3 10,1 10,-1 10,-3 10,-4 10,-6 10,-7 10,-8 10,-9 10,-10 10,-11 10,-11 10,-12 10,-12 10,-12 10,-13 10,-13 10,-13 10,-13 10,-13 10,-13"
             inkscape:connector-curvature="0"
             id="path32"
             style="fill:none;stroke:#b2b2b2;stroke-width:20;stroke-linecap:butt;stroke-linejoin:round;stroke-miterlimit:10;stroke-opacity:1;stroke-dasharray:144, 36;stroke-dashoffset:0" /><path
             d="m 1620,4902 810,0 10,-1 40,0 10,-1 10,0 10,-1 10,0 10,-1 10,-1 10,-1 10,-1 10,-2 10,-1 10,-3 10,-2 10,-3 10,-3 10,-3 10,-4 10,-4 10,-5 10,-5 10,-6 10,-7 10,-6 10,-8 10,-8 10,-8 10,-8 10,-9 10,-10 10,-9 10,-10 10,-9 10,-10 10,-10 10,-9 10,-9 10,-9 10,-8 10,-8 10,-7 10,-6 10,-6 10,-4 10,-4 10,-3 10,-2 10,-1 10,0 10,1 10,2 10,2 10,4 10,4 10,6 10,6 10,6 10,7 10,8 10,8 10,9 10,9 10,10 10,10 10,10 10,10 10,11 10,11 10,11 10,11 10,11 10,11 10,12 10,11 10,12 10,11 10,12 10,11 10,12 10,11 10,12 10,12 10,11 10,12 10,12 10,11 10,12 10,12 10,12 10,12 10,12 10,12 10,11 10,13 10,12 10,12 10,12 10,12 10,12 10,13 10,12 10,12 10,13 10,13 10,12 10,13 10,13 10,13 10,13 10,13 10,13 10,13 10,13 10,14 10,13 10,14 10,13 10,14 10,14 10,14 10,14 10,14 10,14 10,14 10,14 10,13 10,14 10,14 10,14 10,13 10,14 10,13 10,13 10,12 10,12 10,12 10,11 10,11 10,10 10,9 10,9 10,8 10,7 10,6 10,5 10,4 10,3 10,2 10,2 10,0 10,-1 10,-2 10,-3 10,-4 10,-4 10,-6 10,-6 10,-7 10,-7 10,-9 10,-8 10,-10 10,-9 10,-10 10,-10 10,-11 10,-10 10,-11 10,-10 10,-11 10,-11 10,-10 10,-11 10,-10 10,-10 10,-10 10,-10 10,-9 10,-10 10,-9 10,-9 10,-9 10,-9 10,-9 10,-8 10,-8 10,-9 10,-8 10,-7 10,-8 10,-8 10,-7 10,-7 10,-8 10,-7 10,-7 10,-7 10,-6 10,-7 10,-7 10,-6 10,-6 10,-7 10,-6 10,-6 10,-6 10,-6 10,-6 10,-5 10,-6 10,-5 10,-6 10,-5 10,-6 10,-5 10,-5 10,-5 10,-5 10,-5 10,-5 10,-5 10,-4 10,-5 10,-4 10,-5 10,-4 10,-5 10,-4 10,-4 10,-4 10,-5 10,-4 10,-4 10,-4 10,-3 10,-4 10,-4 10,-4 10,-3 10,-4 10,-3 10,-4 10,-3 10,-4 10,-3 10,-3 10,-4 10,-3 10,-3 10,-3 10,-3 10,-3 10,-3 10,-3 10,-3 10,-3 10,-2 10,-3 10,-3 10,-2 10,-3 10,-3 10,-2 10,-3 10,-2 10,-3 10,-2 10,-2 10,-3 10,-2 10,-2 10,-2 10,-3 10,-2 10,-2 10,-2"
             inkscape:connector-curvature="0"
             id="path34"
             style="fill:none;stroke:#00b200;stroke-width:20;stroke-linecap:butt;stroke-linejoin:round;stroke-miterlimit:10;stroke-opacity:1;stroke-dasharray:none" /><path
             d="m 3610,5368 10,14 10,13 10,14 10,14 10,14 10,14 10,14 10,14 10,14 10,14 10,13 10,14 10,14 10,14 10,13 10,14 10,13 10,13 10,12 10,12 10,12 10,11 10,11 10,10 10,9 10,9 10,8 10,7 10,6 10,5 10,4 10,3 10,2 10,2 10,0 10,-1 10,-2 10,-3 10,-4 10,-4 10,-6 10,-6 10,-7 10,-7 10,-9 10,-8 10,-10 10,-9 10,-10 10,-10 10,-11 10,-10 10,-11 10,-10 10,-11 10,-11 10,-10 10,-11 10,-10 10,-10 10,-10 10,-10 10,-9 10,-10 10,-9 10,-9 10,-9 10,-9 10,-9 10,-8 10,-8 10,-9 10,-8 10,-7 10,-8 10,-8 10,-7 10,-7 10,-8 10,-7"
             inkscape:connector-curvature="0"
             id="path36"
             style="fill:none;stroke:#b2b2b2;stroke-width:20;stroke-linecap:butt;stroke-linejoin:round;stroke-miterlimit:10;stroke-opacity:1;stroke-dasharray:144, 36;stroke-dashoffset:0" /><path
             d="m 2430,4902 10,-1 40,0 10,-1 10,0 10,-1 10,0 10,-1 10,-1 10,-1 10,-1 10,-2 10,-1 10,-3 10,-2 10,-3 10,-3 10,-3 10,-4 10,-4 10,-5 10,-5 10,-6 10,-7 10,-6 10,-8 10,-8 10,-8 10,-8 10,-9 10,-10 10,-9 10,-10 10,-9 10,-10 10,-10 10,-9 10,-9 10,-9 10,-8 10,-8 10,-7 10,-6 10,-6 10,-4 10,-4 10,-3 10,-2 10,-1 10,0 10,1 10,2 10,2 10,4 10,4 10,6 10,6 10,6 10,7 10,8 10,8 10,9 10,9 10,10 10,10 10,10 10,10 10,11 10,11 10,11 10,11 10,11 10,11 10,12 10,11 10,12 10,11 10,12"
             inkscape:connector-curvature="0"
             id="path38"
             style="fill:none;stroke:#b2b2b2;stroke-width:20;stroke-linecap:butt;stroke-linejoin:round;stroke-miterlimit:10;stroke-opacity:1;stroke-dasharray:144, 36;stroke-dashoffset:0" /><path
             d="m 1620,6535 840,0 10,1 20,0 10,1 10,0 10,1 10,0 10,1 10,1 10,2 10,1 10,2 10,2 10,2 10,3 10,3 10,4 10,4 10,4 10,5 10,5 10,6 10,6 10,7 10,7 10,8 10,8 10,9 10,9 10,9 10,10 10,10 10,9 10,10 10,10 10,9 10,9 10,9 10,8 10,8 10,7 10,6 10,6 10,4 10,4 10,3 10,2 10,1 10,0 10,-1 10,-2 10,-2 10,-4 10,-4 10,-5 10,-6 10,-7 10,-7 10,-8 10,-8 10,-9 10,-9 10,-10 10,-10 10,-10 10,-11 10,-10 10,-11 10,-11 10,-11 10,-11 10,-12 10,-11 10,-12 10,-11 10,-12 10,-11 10,-12 10,-11 10,-12 10,-12 10,-11 10,-12 10,-12 10,-11 10,-12 10,-12 10,-12 10,-12 10,-12 10,-12 10,-12 10,-12 10,-12 10,-12 10,-12 10,-12 10,-12 10,-13 10,-12 10,-12 10,-13 10,-12 10,-13 10,-13 10,-12 10,-13 10,-13 10,-13 10,-13 10,-13 10,-13 10,-13 10,-14 10,-13 10,-13 10,-13 10,-13 10,-13 10,-13 10,-13 10,-12 10,-12 10,-12 10,-11 10,-11 10,-10 10,-9 10,-8 10,-7 10,-6 10,-4 10,-3 10,-1 10,1 10,3 10,5 10,8 10,10 10,14 10,15 10,19 10,22 10,25 10,27 10,31 10,33 10,35 10,38 10,41 10,42 10,44 10,45 10,46 10,46 10,47 10,46 10,47 10,45 10,44 10,42 10,41 10,39 10,37 10,34 10,31 10,29 10,27 10,23 10,21 10,19 10,16 10,13 10,12 10,9 10,7 10,5 10,3 10,2 10,1 10,-1 10,-2 10,-2 10,-4 10,-4 10,-4 10,-6 10,-5 10,-6 10,-6 10,-6 10,-7 10,-6 10,-7 10,-6 10,-7 10,-7 10,-6 10,-7 10,-6 10,-6 10,-7 10,-6 10,-6 10,-6 10,-6 10,-6 10,-6 10,-5 10,-6 10,-6 10,-5 10,-6 10,-5 10,-5 10,-5 10,-5 10,-5 10,-5 10,-5 10,-5 10,-5 10,-4 10,-5 10,-4 10,-5 10,-4 10,-5 10,-4 10,-4 10,-4 10,-4 10,-4 10,-4 10,-4 10,-4 10,-4 10,-3 10,-4 10,-4 10,-3 10,-4 10,-3 10,-4 10,-3 10,-3 10,-3 10,-4 10,-3 10,-3 10,-3 10,-3 10,-3 10,-3 10,-3 10,-3 10,-2 10,-3 10,-3 10,-2 10,-3 10,-3 10,-2 10,-3 10,-2 10,-3 10,-2 10,-2 10,-3 10,-2 10,-2 10,-3 10,-2 10,-2 10,-2 10,-2"
             inkscape:connector-curvature="0"
             id="path40"
             style="fill:none;stroke:#00ff00;stroke-width:20;stroke-linecap:butt;stroke-linejoin:round;stroke-miterlimit:10;stroke-opacity:1;stroke-dasharray:none" /><path
             d="m 3610,6068 10,-13 10,-13 10,-13 10,-13 10,-13 10,-13 10,-12 10,-12 10,-12 10,-11 10,-11 10,-10 10,-9 10,-8 10,-7 10,-6 10,-4 10,-3 10,-1 10,1 10,3 10,5 10,8 10,10 10,14 10,15 10,19 10,22 10,25 10,27 10,31 10,33 10,35 10,38 10,41 10,42 10,44 10,45 10,46 10,46 10,47 10,46 10,47 10,45 10,44 10,42 10,41 10,39 10,37 10,34 10,31 10,29 10,27 10,23 10,21 10,19 10,16 10,13 10,12 10,9 10,7 10,5 10,3 10,2 10,1 10,-1 10,-2 10,-2 10,-4 10,-4 10,-4 10,-6 10,-5 10,-6 10,-6 10,-6 10,-7 10,-6 10,-7 10,-6"
             inkscape:connector-curvature="0"
             id="path42"
             style="fill:none;stroke:#b2b2b2;stroke-width:20;stroke-linecap:butt;stroke-linejoin:round;stroke-miterlimit:10;stroke-opacity:1;stroke-dasharray:144, 36;stroke-dashoffset:0" /><path
             d="m 2430,6535 30,0 10,1 20,0 10,1 10,0 10,1 10,0 10,1 10,1 10,2 10,1 10,2 10,2 10,2 10,3 10,3 10,4 10,4 10,4 10,5 10,5 10,6 10,6 10,7 10,7 10,8 10,8 10,9 10,9 10,9 10,10 10,10 10,9 10,10 10,10 10,9 10,9 10,9 10,8 10,8 10,7 10,6 10,6 10,4 10,4 10,3 10,2 10,1 10,0 10,-1 10,-2 10,-2 10,-4 10,-4 10,-5 10,-6 10,-7 10,-7 10,-8 10,-8 10,-9 10,-9 10,-10 10,-10 10,-10 10,-11 10,-10 10,-11 10,-11 10,-11 10,-11 10,-12 10,-11 10,-12 10,-11 10,-12 10,-11"
             inkscape:connector-curvature="0"
             id="path44"
             style="fill:none;stroke:#b2b2b2;stroke-width:20;stroke-linecap:butt;stroke-linejoin:round;stroke-miterlimit:10;stroke-opacity:1;stroke-dasharray:144, 36;stroke-dashoffset:0" /></g></g><g
         transform="scale(10,10)"
         id="g46"><text
           transform="matrix(1,0,0,-1,251.668,693)"
           id="text48"><tspan
             x="0"
             y="0"
             id="tspan50"
             style="font-size:24px;font-style:italic;font-variant:normal;writing-mode:lr-tb;fill:#000000;fill-opacity:1;fill-rule:nonzero;stroke:none;font-family:Times New Roman;-inkscape-font-specification:Times-Italic">V</tspan></text>
<text
           transform="matrix(1,0,0,-1,266.3321,688.24805)"
           id="text52"><tspan
             x="0 8.04"
             y="0"
             id="tspan54"
             style="font-size:16.07999992px;font-variant:normal;font-weight:normal;writing-mode:lr-tb;fill:#000000;fill-opacity:1;fill-rule:nonzero;stroke:none;font-family:Times New Roman;-inkscape-font-specification:Times-Roman">1p</tspan></text>
<text
           transform="matrix(1,0,0,-1,369.6681,693)"
           id="text56"><tspan
             x="0"
             y="0"
             id="tspan58"
             style="font-size:24px;font-style:italic;font-variant:normal;writing-mode:lr-tb;fill:#000000;fill-opacity:1;fill-rule:nonzero;stroke:none;font-family:Times New Roman;-inkscape-font-specification:Times-Italic">V</tspan></text>
<text
           transform="matrix(1,0,0,-1,384.3322,688.24805)"
           id="text60"><tspan
             x="0 8.04"
             y="0"
             id="tspan62"
             style="font-size:16.07999992px;font-variant:normal;font-weight:normal;writing-mode:lr-tb;fill:#000000;fill-opacity:1;fill-rule:nonzero;stroke:none;font-family:Times New Roman;-inkscape-font-specification:Times-Roman">2p</tspan></text>
<text
           transform="matrix(1,0,0,-1,267.6682,539.00005)"
           id="text64"><tspan
             x="0"
             y="0"
             id="tspan66"
             style="font-size:24px;font-style:italic;font-variant:normal;writing-mode:lr-tb;fill:#000000;fill-opacity:1;fill-rule:nonzero;stroke:none;font-family:Times New Roman;-inkscape-font-specification:Times-Italic">V</tspan></text>
<text
           transform="matrix(1,0,0,-1,282.3323,534.2481)"
           id="text68"><tspan
             x="0 8.04"
             y="0"
             id="tspan70"
             style="font-size:16.07999992px;font-variant:normal;font-weight:normal;writing-mode:lr-tb;fill:#000000;fill-opacity:1;fill-rule:nonzero;stroke:none;font-family:Times New Roman;-inkscape-font-specification:Times-Roman">1s</tspan></text>
<text
           transform="matrix(1,0,0,-1,385.0003,539.00005)"
           id="text72"><tspan
             x="0"
             y="0"
             id="tspan74"
             style="font-size:24px;font-style:italic;font-variant:normal;writing-mode:lr-tb;fill:#000000;fill-opacity:1;fill-rule:nonzero;stroke:none;font-family:Times New Roman;-inkscape-font-specification:Times-Italic">V</tspan></text>
<text
           transform="matrix(1,0,0,-1,399.6644,534.2481)"
           id="text76"><tspan
             x="0 8.04"
             y="0"
             id="tspan78"
             style="font-size:16.07999992px;font-variant:normal;font-weight:normal;writing-mode:lr-tb;fill:#000000;fill-opacity:1;fill-rule:nonzero;stroke:none;font-family:Times New Roman;-inkscape-font-specification:Times-Roman">2s</tspan></text>
</g></g></g></svg>
