<?xml version="1.0" encoding="UTF-8" standalone="no"?>
<!-- Created with Inkscape (http://www.inkscape.org/) -->

<svg
   xmlns:dc="http://purl.org/dc/elements/1.1/"
   xmlns:cc="http://creativecommons.org/ns#"
   xmlns:rdf="http://www.w3.org/1999/02/22-rdf-syntax-ns#"
   xmlns:svg="http://www.w3.org/2000/svg"
   xmlns="http://www.w3.org/2000/svg"
   xmlns:inkscape="http://www.inkscape.org/namespaces/inkscape"
   version="1.1"
   width="765"
   height="580"
   id="svg2"
   xml:space="preserve"><metadata
     id="metadata8"><rdf:RDF><cc:Work
         rdf:about=""><dc:format>image/svg+xml</dc:format><dc:type
           rdf:resource="http://purl.org/dc/dcmitype/StillImage" /></cc:Work></rdf:RDF></metadata><defs
     id="defs6"><clipPath
       id="clipPath214"><path
         d="m 1440,3890 0,3960 3960,0 0,-3960 -3960,0 z"
         inkscape:connector-curvature="0"
         id="path216" /></clipPath></defs><g
     transform="matrix(1.25,0,0,-1.25,0,990)"
     id="g10"><g
       transform="scale(0.1,0.1)"
       id="g12"><path
         d="m 1440,3890 3960,0 0,3960 -3960,0 0,-3960 z"
         inkscape:connector-curvature="0"
         id="path14"
         style="fill:#ffffff;fill-opacity:1;fill-rule:nonzero;stroke:none" /><path
         d="m 1440,3890 3960,0 0,3960 -3960,0 0,-3960"
         inkscape:connector-curvature="0"
         id="path16"
         style="fill:none;stroke:#000000;stroke-width:15;stroke-linecap:butt;stroke-linejoin:round;stroke-miterlimit:10;stroke-opacity:1;stroke-dasharray:none" /><path
         d="m 1440,3890 0,99"
         inkscape:connector-curvature="0"
         id="path18"
         style="fill:none;stroke:#000000;stroke-width:15;stroke-linecap:butt;stroke-linejoin:round;stroke-miterlimit:10;stroke-opacity:1;stroke-dasharray:none" /><g
         transform="scale(10,10)"
         id="g20"><text
           transform="matrix(1,0,0,-1,139.5,372.8)"
           id="text22"><tspan
             x="0"
             y="0"
             id="tspan24"
             style="font-size:18px;font-variant:normal;font-weight:normal;writing-mode:lr-tb;fill:#000000;fill-opacity:1;fill-rule:nonzero;stroke:none;font-family:Symbol;-inkscape-font-specification:Symbol">0</tspan></text>
</g><path
         d="m 1836,3890 0,59"
         inkscape:connector-curvature="0"
         id="path26"
         style="fill:none;stroke:#000000;stroke-width:15;stroke-linecap:butt;stroke-linejoin:round;stroke-miterlimit:10;stroke-opacity:1;stroke-dasharray:none" /><path
         d="m 2232,3890 0,99"
         inkscape:connector-curvature="0"
         id="path28"
         style="fill:none;stroke:#000000;stroke-width:15;stroke-linecap:butt;stroke-linejoin:round;stroke-miterlimit:10;stroke-opacity:1;stroke-dasharray:none" /><g
         transform="scale(10,10)"
         id="g30"><text
           transform="matrix(1,0,0,-1,211.95,372.8)"
           id="text32"><tspan
             x="0 9 13.5"
             y="0"
             id="tspan34"
             style="font-size:18px;font-variant:normal;font-weight:normal;writing-mode:lr-tb;fill:#000000;fill-opacity:1;fill-rule:nonzero;stroke:none;font-family:Symbol;-inkscape-font-specification:Symbol">0.2</tspan></text>
</g><path
         d="m 2628,3890 0,59"
         inkscape:connector-curvature="0"
         id="path36"
         style="fill:none;stroke:#000000;stroke-width:15;stroke-linecap:butt;stroke-linejoin:round;stroke-miterlimit:10;stroke-opacity:1;stroke-dasharray:none" /><path
         d="m 3024,3890 0,99"
         inkscape:connector-curvature="0"
         id="path38"
         style="fill:none;stroke:#000000;stroke-width:15;stroke-linecap:butt;stroke-linejoin:round;stroke-miterlimit:10;stroke-opacity:1;stroke-dasharray:none" /><g
         transform="scale(10,10)"
         id="g40"><text
           transform="matrix(1,0,0,-1,291.15,372.8)"
           id="text42"><tspan
             x="0 9 13.5"
             y="0"
             id="tspan44"
             style="font-size:18px;font-variant:normal;font-weight:normal;writing-mode:lr-tb;fill:#000000;fill-opacity:1;fill-rule:nonzero;stroke:none;font-family:Symbol;-inkscape-font-specification:Symbol">0.4</tspan></text>
</g><path
         d="m 3420,3890 0,59"
         inkscape:connector-curvature="0"
         id="path46"
         style="fill:none;stroke:#000000;stroke-width:15;stroke-linecap:butt;stroke-linejoin:round;stroke-miterlimit:10;stroke-opacity:1;stroke-dasharray:none" /><path
         d="m 3816,3890 0,99"
         inkscape:connector-curvature="0"
         id="path48"
         style="fill:none;stroke:#000000;stroke-width:15;stroke-linecap:butt;stroke-linejoin:round;stroke-miterlimit:10;stroke-opacity:1;stroke-dasharray:none" /><g
         transform="scale(10,10)"
         id="g50"><text
           transform="matrix(1,0,0,-1,370.35,372.8)"
           id="text52"><tspan
             x="0 9 13.5"
             y="0"
             id="tspan54"
             style="font-size:18px;font-variant:normal;font-weight:normal;writing-mode:lr-tb;fill:#000000;fill-opacity:1;fill-rule:nonzero;stroke:none;font-family:Symbol;-inkscape-font-specification:Symbol">0.6</tspan></text>
</g><path
         d="m 4212,3890 0,59"
         inkscape:connector-curvature="0"
         id="path56"
         style="fill:none;stroke:#000000;stroke-width:15;stroke-linecap:butt;stroke-linejoin:round;stroke-miterlimit:10;stroke-opacity:1;stroke-dasharray:none" /><path
         d="m 4608,3890 0,99"
         inkscape:connector-curvature="0"
         id="path58"
         style="fill:none;stroke:#000000;stroke-width:15;stroke-linecap:butt;stroke-linejoin:round;stroke-miterlimit:10;stroke-opacity:1;stroke-dasharray:none" /><g
         transform="scale(10,10)"
         id="g60"><text
           transform="matrix(1,0,0,-1,449.55,372.8)"
           id="text62"><tspan
             x="0 9 13.5"
             y="0"
             id="tspan64"
             style="font-size:18px;font-variant:normal;font-weight:normal;writing-mode:lr-tb;fill:#000000;fill-opacity:1;fill-rule:nonzero;stroke:none;font-family:Symbol;-inkscape-font-specification:Symbol">0.8</tspan></text>
</g><path
         d="m 5004,3890 0,59"
         inkscape:connector-curvature="0"
         id="path66"
         style="fill:none;stroke:#000000;stroke-width:15;stroke-linecap:butt;stroke-linejoin:round;stroke-miterlimit:10;stroke-opacity:1;stroke-dasharray:none" /><path
         d="m 5400,3890 0,99"
         inkscape:connector-curvature="0"
         id="path68"
         style="fill:none;stroke:#000000;stroke-width:15;stroke-linecap:butt;stroke-linejoin:round;stroke-miterlimit:10;stroke-opacity:1;stroke-dasharray:none" /><g
         transform="scale(10,10)"
         id="g70"><text
           transform="matrix(1,0,0,-1,535.5,372.8)"
           id="text72"><tspan
             x="0"
             y="0"
             id="tspan74"
             style="font-size:18px;font-variant:normal;font-weight:normal;writing-mode:lr-tb;fill:#000000;fill-opacity:1;fill-rule:nonzero;stroke:none;font-family:Symbol;-inkscape-font-specification:Symbol">1</tspan></text>
</g><path
         d="m 1440,7850 0,-99"
         inkscape:connector-curvature="0"
         id="path76"
         style="fill:none;stroke:#000000;stroke-width:15;stroke-linecap:butt;stroke-linejoin:round;stroke-miterlimit:10;stroke-opacity:1;stroke-dasharray:none" /><path
         d="m 1836,7850 0,-59"
         inkscape:connector-curvature="0"
         id="path78"
         style="fill:none;stroke:#000000;stroke-width:15;stroke-linecap:butt;stroke-linejoin:round;stroke-miterlimit:10;stroke-opacity:1;stroke-dasharray:none" /><path
         d="m 2232,7850 0,-99"
         inkscape:connector-curvature="0"
         id="path80"
         style="fill:none;stroke:#000000;stroke-width:15;stroke-linecap:butt;stroke-linejoin:round;stroke-miterlimit:10;stroke-opacity:1;stroke-dasharray:none" /><path
         d="m 2628,7850 0,-59"
         inkscape:connector-curvature="0"
         id="path82"
         style="fill:none;stroke:#000000;stroke-width:15;stroke-linecap:butt;stroke-linejoin:round;stroke-miterlimit:10;stroke-opacity:1;stroke-dasharray:none" /><path
         d="m 3024,7850 0,-99"
         inkscape:connector-curvature="0"
         id="path84"
         style="fill:none;stroke:#000000;stroke-width:15;stroke-linecap:butt;stroke-linejoin:round;stroke-miterlimit:10;stroke-opacity:1;stroke-dasharray:none" /><path
         d="m 3420,7850 0,-59"
         inkscape:connector-curvature="0"
         id="path86"
         style="fill:none;stroke:#000000;stroke-width:15;stroke-linecap:butt;stroke-linejoin:round;stroke-miterlimit:10;stroke-opacity:1;stroke-dasharray:none" /><path
         d="m 3816,7850 0,-99"
         inkscape:connector-curvature="0"
         id="path88"
         style="fill:none;stroke:#000000;stroke-width:15;stroke-linecap:butt;stroke-linejoin:round;stroke-miterlimit:10;stroke-opacity:1;stroke-dasharray:none" /><path
         d="m 4212,7850 0,-59"
         inkscape:connector-curvature="0"
         id="path90"
         style="fill:none;stroke:#000000;stroke-width:15;stroke-linecap:butt;stroke-linejoin:round;stroke-miterlimit:10;stroke-opacity:1;stroke-dasharray:none" /><path
         d="m 4608,7850 0,-99"
         inkscape:connector-curvature="0"
         id="path92"
         style="fill:none;stroke:#000000;stroke-width:15;stroke-linecap:butt;stroke-linejoin:round;stroke-miterlimit:10;stroke-opacity:1;stroke-dasharray:none" /><path
         d="m 5004,7850 0,-59"
         inkscape:connector-curvature="0"
         id="path94"
         style="fill:none;stroke:#000000;stroke-width:15;stroke-linecap:butt;stroke-linejoin:round;stroke-miterlimit:10;stroke-opacity:1;stroke-dasharray:none" /><path
         d="m 5400,7850 0,-99"
         inkscape:connector-curvature="0"
         id="path96"
         style="fill:none;stroke:#000000;stroke-width:15;stroke-linecap:butt;stroke-linejoin:round;stroke-miterlimit:10;stroke-opacity:1;stroke-dasharray:none" /><path
         d="m 1440,3890 99,0"
         inkscape:connector-curvature="0"
         id="path98"
         style="fill:none;stroke:#000000;stroke-width:15;stroke-linecap:butt;stroke-linejoin:round;stroke-miterlimit:10;stroke-opacity:1;stroke-dasharray:none" /><g
         transform="scale(10,10)"
         id="g100"><text
           transform="matrix(1,0,0,-1,129.6,383.6)"
           id="text102"><tspan
             x="0"
             y="0"
             id="tspan104"
             style="font-size:18px;font-variant:normal;font-weight:normal;writing-mode:lr-tb;fill:#000000;fill-opacity:1;fill-rule:nonzero;stroke:none;font-family:Symbol;-inkscape-font-specification:Symbol">0</tspan></text>
</g><path
         d="m 1440,4286 59,0"
         inkscape:connector-curvature="0"
         id="path106"
         style="fill:none;stroke:#000000;stroke-width:15;stroke-linecap:butt;stroke-linejoin:round;stroke-miterlimit:10;stroke-opacity:1;stroke-dasharray:none" /><path
         d="m 1440,4682 99,0"
         inkscape:connector-curvature="0"
         id="path108"
         style="fill:none;stroke:#000000;stroke-width:15;stroke-linecap:butt;stroke-linejoin:round;stroke-miterlimit:10;stroke-opacity:1;stroke-dasharray:none" /><g
         transform="scale(10,10)"
         id="g110"><text
           transform="matrix(1,0,0,-1,116.1,462.8)"
           id="text112"><tspan
             x="0 9 13.5"
             y="0"
             id="tspan114"
             style="font-size:18px;font-variant:normal;font-weight:normal;writing-mode:lr-tb;fill:#000000;fill-opacity:1;fill-rule:nonzero;stroke:none;font-family:Symbol;-inkscape-font-specification:Symbol">0.2</tspan></text>
</g><path
         d="m 1440,5078 59,0"
         inkscape:connector-curvature="0"
         id="path116"
         style="fill:none;stroke:#000000;stroke-width:15;stroke-linecap:butt;stroke-linejoin:round;stroke-miterlimit:10;stroke-opacity:1;stroke-dasharray:none" /><path
         d="m 1440,5474 99,0"
         inkscape:connector-curvature="0"
         id="path118"
         style="fill:none;stroke:#000000;stroke-width:15;stroke-linecap:butt;stroke-linejoin:round;stroke-miterlimit:10;stroke-opacity:1;stroke-dasharray:none" /><g
         transform="scale(10,10)"
         id="g120"><text
           transform="matrix(1,0,0,-1,116.1,542)"
           id="text122"><tspan
             x="0 9 13.5"
             y="0"
             id="tspan124"
             style="font-size:18px;font-variant:normal;font-weight:normal;writing-mode:lr-tb;fill:#000000;fill-opacity:1;fill-rule:nonzero;stroke:none;font-family:Symbol;-inkscape-font-specification:Symbol">0.4</tspan></text>
</g><path
         d="m 1440,5870 59,0"
         inkscape:connector-curvature="0"
         id="path126"
         style="fill:none;stroke:#000000;stroke-width:15;stroke-linecap:butt;stroke-linejoin:round;stroke-miterlimit:10;stroke-opacity:1;stroke-dasharray:none" /><path
         d="m 1440,6266 99,0"
         inkscape:connector-curvature="0"
         id="path128"
         style="fill:none;stroke:#000000;stroke-width:15;stroke-linecap:butt;stroke-linejoin:round;stroke-miterlimit:10;stroke-opacity:1;stroke-dasharray:none" /><g
         transform="scale(10,10)"
         id="g130"><text
           transform="matrix(1,0,0,-1,116.1,621.2)"
           id="text132"><tspan
             x="0 9 13.5"
             y="0"
             id="tspan134"
             style="font-size:18px;font-variant:normal;font-weight:normal;writing-mode:lr-tb;fill:#000000;fill-opacity:1;fill-rule:nonzero;stroke:none;font-family:Symbol;-inkscape-font-specification:Symbol">0.6</tspan></text>
</g><path
         d="m 1440,6662 59,0"
         inkscape:connector-curvature="0"
         id="path136"
         style="fill:none;stroke:#000000;stroke-width:15;stroke-linecap:butt;stroke-linejoin:round;stroke-miterlimit:10;stroke-opacity:1;stroke-dasharray:none" /><path
         d="m 1440,7058 99,0"
         inkscape:connector-curvature="0"
         id="path138"
         style="fill:none;stroke:#000000;stroke-width:15;stroke-linecap:butt;stroke-linejoin:round;stroke-miterlimit:10;stroke-opacity:1;stroke-dasharray:none" /><g
         transform="scale(10,10)"
         id="g140"><text
           transform="matrix(1,0,0,-1,116.1,700.4)"
           id="text142"><tspan
             x="0 9 13.5"
             y="0"
             id="tspan144"
             style="font-size:18px;font-variant:normal;font-weight:normal;writing-mode:lr-tb;fill:#000000;fill-opacity:1;fill-rule:nonzero;stroke:none;font-family:Symbol;-inkscape-font-specification:Symbol">0.8</tspan></text>
</g><path
         d="m 1440,7454 59,0"
         inkscape:connector-curvature="0"
         id="path146"
         style="fill:none;stroke:#000000;stroke-width:15;stroke-linecap:butt;stroke-linejoin:round;stroke-miterlimit:10;stroke-opacity:1;stroke-dasharray:none" /><path
         d="m 1440,7850 99,0"
         inkscape:connector-curvature="0"
         id="path148"
         style="fill:none;stroke:#000000;stroke-width:15;stroke-linecap:butt;stroke-linejoin:round;stroke-miterlimit:10;stroke-opacity:1;stroke-dasharray:none" /><g
         transform="scale(10,10)"
         id="g150"><text
           transform="matrix(1,0,0,-1,129.6,779.6)"
           id="text152"><tspan
             x="0"
             y="0"
             id="tspan154"
             style="font-size:18px;font-variant:normal;font-weight:normal;writing-mode:lr-tb;fill:#000000;fill-opacity:1;fill-rule:nonzero;stroke:none;font-family:Symbol;-inkscape-font-specification:Symbol">1</tspan></text>
</g><path
         d="m 5400,3890 -99,0"
         inkscape:connector-curvature="0"
         id="path156"
         style="fill:none;stroke:#000000;stroke-width:15;stroke-linecap:butt;stroke-linejoin:round;stroke-miterlimit:10;stroke-opacity:1;stroke-dasharray:none" /><path
         d="m 5400,4286 -59,0"
         inkscape:connector-curvature="0"
         id="path158"
         style="fill:none;stroke:#000000;stroke-width:15;stroke-linecap:butt;stroke-linejoin:round;stroke-miterlimit:10;stroke-opacity:1;stroke-dasharray:none" /><path
         d="m 5400,4682 -99,0"
         inkscape:connector-curvature="0"
         id="path160"
         style="fill:none;stroke:#000000;stroke-width:15;stroke-linecap:butt;stroke-linejoin:round;stroke-miterlimit:10;stroke-opacity:1;stroke-dasharray:none" /><path
         d="m 5400,5078 -59,0"
         inkscape:connector-curvature="0"
         id="path162"
         style="fill:none;stroke:#000000;stroke-width:15;stroke-linecap:butt;stroke-linejoin:round;stroke-miterlimit:10;stroke-opacity:1;stroke-dasharray:none" /><path
         d="m 5400,5474 -99,0"
         inkscape:connector-curvature="0"
         id="path164"
         style="fill:none;stroke:#000000;stroke-width:15;stroke-linecap:butt;stroke-linejoin:round;stroke-miterlimit:10;stroke-opacity:1;stroke-dasharray:none" /><path
         d="m 5400,5870 -59,0"
         inkscape:connector-curvature="0"
         id="path166"
         style="fill:none;stroke:#000000;stroke-width:15;stroke-linecap:butt;stroke-linejoin:round;stroke-miterlimit:10;stroke-opacity:1;stroke-dasharray:none" /><path
         d="m 5400,6266 -99,0"
         inkscape:connector-curvature="0"
         id="path168"
         style="fill:none;stroke:#000000;stroke-width:15;stroke-linecap:butt;stroke-linejoin:round;stroke-miterlimit:10;stroke-opacity:1;stroke-dasharray:none" /><path
         d="m 5400,6662 -59,0"
         inkscape:connector-curvature="0"
         id="path170"
         style="fill:none;stroke:#000000;stroke-width:15;stroke-linecap:butt;stroke-linejoin:round;stroke-miterlimit:10;stroke-opacity:1;stroke-dasharray:none" /><path
         d="m 5400,7058 -99,0"
         inkscape:connector-curvature="0"
         id="path172"
         style="fill:none;stroke:#000000;stroke-width:15;stroke-linecap:butt;stroke-linejoin:round;stroke-miterlimit:10;stroke-opacity:1;stroke-dasharray:none" /><path
         d="m 5400,7454 -59,0"
         inkscape:connector-curvature="0"
         id="path174"
         style="fill:none;stroke:#000000;stroke-width:15;stroke-linecap:butt;stroke-linejoin:round;stroke-miterlimit:10;stroke-opacity:1;stroke-dasharray:none" /><path
         d="m 5400,7850 -99,0"
         inkscape:connector-curvature="0"
         id="path176"
         style="fill:none;stroke:#000000;stroke-width:15;stroke-linecap:butt;stroke-linejoin:round;stroke-miterlimit:10;stroke-opacity:1;stroke-dasharray:none" /><path
         d="m 3029.86,3468.8 780.281,0 0,162 -780.281,0 0,-162 z"
         inkscape:connector-curvature="0"
         id="path178"
         style="fill:#ffffff;fill-opacity:1;fill-rule:nonzero;stroke:none" /><g
         transform="scale(10,10)"
         id="g180"><text
           transform="matrix(1,0,0,-1,302.986,351.2)"
           id="text182"><tspan
             x="0 10.008 20.016001 26.01 30.006001 39.006001 49.014 59.021999 64.026001 74.033997"
             y="0"
             id="tspan184"
             style="font-size:18px;font-variant:normal;font-weight:normal;writing-mode:lr-tb;fill:#000000;fill-opacity:1;fill-rule:nonzero;stroke:none;font-family:Helvetica;-inkscape-font-specification:Helvetica">horizontal</tspan></text>
</g><path
         d="m 3004.84,3288.8 830.324,0 0,162 -830.324,0 0,-162 z"
         inkscape:connector-curvature="0"
         id="path186"
         style="fill:#ffffff;fill-opacity:1;fill-rule:nonzero;stroke:none" /><g
         transform="scale(10,10)"
         id="g188"><text
           transform="matrix(1,0,0,-1,300.484,333.2)"
           id="text190"><tspan
             x="0 10.008 20.016001 29.016001 34.02 44.028 54.035999 59.040001 65.033997 75.042 87.047997"
             y="0"
             id="tspan192"
             style="font-size:18px;font-variant:normal;font-weight:normal;writing-mode:lr-tb;fill:#000000;fill-opacity:1;fill-rule:nonzero;stroke:none;font-family:Helvetica;-inkscape-font-specification:Helvetica">next_h (eV)</tspan></text>
</g><path
         d="m 934.199,5654.9 162,0 0,430.195 -162,0 0,-430.195 z"
         inkscape:connector-curvature="0"
         id="path194"
         style="fill:#ffffff;fill-opacity:1;fill-rule:nonzero;stroke:none" /><g
         transform="scale(10,10)"
         id="g196"><text
           transform="matrix(0,1,1,0,105.3,565.49)"
           id="text198"><tspan
             x="0 10.008 20.016001 29.016001 34.02 44.028"
             y="0"
             id="tspan200"
             style="font-size:18px;font-variant:normal;font-weight:normal;writing-mode:lr-tb;fill:#000000;fill-opacity:1;fill-rule:nonzero;stroke:none;font-family:Helvetica;-inkscape-font-specification:Helvetica">next_v</tspan></text>
</g><path
         d="m 754.199,5584.98 162,0 0,570.047 -162,0 0,-570.047 z"
         inkscape:connector-curvature="0"
         id="path202"
         style="fill:#ffffff;fill-opacity:1;fill-rule:nonzero;stroke:none" /><g
         transform="scale(10,10)"
         id="g204"><text
           transform="matrix(0,1,1,0,87.3,558.498)"
           id="text206"><tspan
             x="0 9 19.007999 25.002001 30.006001 34.001999 43.001999 53.009998"
             y="0"
             id="tspan208"
             style="font-size:18px;font-variant:normal;font-weight:normal;writing-mode:lr-tb;fill:#000000;fill-opacity:1;fill-rule:nonzero;stroke:none;font-family:Helvetica;-inkscape-font-specification:Helvetica">vertical</tspan></text>
</g><g
         id="g210"><g
           clip-path="url(#clipPath214)"
           id="g212"><path
             d="M 1440,3890 5400,7850"
             inkscape:connector-curvature="0"
             id="path218"
             style="fill:none;stroke:#000000;stroke-width:15;stroke-linecap:butt;stroke-linejoin:round;stroke-miterlimit:10;stroke-opacity:1;stroke-dasharray:none" /><path
             d="m 2628,3890 0,3960"
             inkscape:connector-curvature="0"
             id="path220"
             style="fill:none;stroke:#000000;stroke-width:10;stroke-linecap:butt;stroke-linejoin:round;stroke-miterlimit:10;stroke-opacity:1;stroke-dasharray:none" /><path
             d="m 1440,5474 3960,0"
             inkscape:connector-curvature="0"
             id="path222"
             style="fill:none;stroke:#000000;stroke-width:10;stroke-linecap:butt;stroke-linejoin:round;stroke-miterlimit:10;stroke-opacity:1;stroke-dasharray:none" /></g></g><g
         transform="scale(10,10)"
         id="g224"><text
           transform="matrix(1,0,0,-1,262.8,547.4)"
           id="text226"><tspan
             x="0 12.22 22.219999 32.220001 41.099998 49.98 54.98 60.540001 66.099998 76.099998 84.980003 91.639999"
             y="0"
             id="tspan228"
             style="font-size:20px;font-style:italic;font-variant:normal;writing-mode:lr-tb;fill:#000000;fill-opacity:1;fill-rule:nonzero;stroke:none;font-family:Times New Roman;-inkscape-font-specification:Times-Italic">Above line: </tspan></text>
<text
           transform="matrix(1,0,0,-1,359.4398,547.4)"
           id="text230"><tspan
             x="0 8.8800001"
             y="0"
             id="tspan232"
             style="font-size:20px;font-variant:normal;font-weight:bold;writing-mode:lr-tb;fill:#000000;fill-opacity:1;fill-rule:nonzero;stroke:none;font-family:Times New Roman;-inkscape-font-specification:Times-Bold">ru</tspan></text>
<text
           transform="matrix(1,0,0,-1,384.4398,547.4)"
           id="text234"><tspan
             x="0 5.5599999 15.56 23.34 28.9 34.459999 40.02 45.580002 54.459999 64.459999 70.019997 75.580002 85.580002"
             y="0"
             id="tspan236"
             style="font-size:20px;font-style:italic;font-variant:normal;writing-mode:lr-tb;fill:#000000;fill-opacity:1;fill-rule:nonzero;stroke:none;font-family:Times New Roman;-inkscape-font-specification:Times-Italic">justification</tspan></text>
</g><path
         d="m 1060.75,5356.4 1567.25,0 0,126 -1567.25,0 0,-126 z"
         inkscape:connector-curvature="0"
         id="path238"
         style="fill:#ffffff;fill-opacity:1;fill-rule:nonzero;stroke:none" /><g
         transform="scale(10,10)"
         id="g240"><text
           transform="matrix(1,0,0,-1,106.075,539)"
           id="text242"><tspan
             x="0 9.3380003 15.554 19.445999 26.445999 36.554001 40.054001 43.945999 47.838001 55.622002 61.838001 66.5"
             y="0"
             id="tspan244"
             style="font-size:14px;font-variant:normal;font-weight:bold;writing-mode:lr-tb;fill:#000000;fill-opacity:1;fill-rule:nonzero;stroke:none;font-family:Times New Roman;-inkscape-font-specification:Times-Bold">Below line: </tspan></text>
<text
           transform="matrix(1,0,0,-1,176.075,539)"
           id="text246"><tspan
             x="0 3.892"
             y="0"
             id="tspan248"
             style="font-size:14px;font-style:italic;font-variant:normal;writing-mode:lr-tb;fill:#000000;fill-opacity:1;fill-rule:nonzero;stroke:none;font-family:Times New Roman;-inkscape-font-specification:Times-Italic">ld</tspan></text>
<text
           transform="matrix(1,0,0,-1,190.4672,539)"
           id="text250"><tspan
             x="0 4.6620002 12.446 17.892 22.554001 26.445999 31.108 35 41.216 48.216 52.877998 56.77 63.77"
             y="0"
             id="tspan252"
             style="font-size:14px;font-variant:normal;font-weight:bold;writing-mode:lr-tb;fill:#000000;fill-opacity:1;fill-rule:nonzero;stroke:none;font-family:Times New Roman;-inkscape-font-specification:Times-Bold">justification</tspan></text>
</g><path
         d="m 2628,4584.8 2044.77,0 0,162 -2044.77,0 0,-162 z"
         inkscape:connector-curvature="0"
         id="path254"
         style="fill:#ffffff;fill-opacity:1;fill-rule:nonzero;stroke:none" /><g
         transform="scale(10,10)"
         id="g256"><text
           transform="matrix(1,0,0,-1,262.8,462.8)"
           id="text258"><tspan
             x="0 12.996 20.988001 27.99 32.993999 40.986 49.986 54.486 61.487999 70.487999 79.487999 86.489998 94.482002 100.476 105.48 114.48 119.484 126.486 130.98599 135.99001"
             y="0"
             id="tspan260"
             style="font-size:18px;font-variant:normal;font-weight:normal;writing-mode:lr-tb;fill:#000000;fill-opacity:1;fill-rule:nonzero;stroke:none;font-family:Times New Roman;-inkscape-font-specification:Times-Roman">Nested subscripts : </tspan></text>
<text
           transform="matrix(1,0,0,-1,403.29,462.8)"
           id="text262"><tspan
             x="0 11.016"
             y="0"
             id="tspan264"
             style="font-size:18px;font-variant:normal;font-weight:normal;writing-mode:lr-tb;fill:#000000;fill-opacity:1;fill-rule:nonzero;stroke:none;font-family:Symbol;-inkscape-font-specification:Symbol">∆ϕ</tspan></text>
<text
           transform="matrix(1,0,0,-1,425.1599,459.23594)"
           id="text266"><tspan
             x="0"
             y="0"
             id="tspan268"
             style="font-size:12.06000042px;font-variant:normal;font-weight:normal;writing-mode:lr-tb;fill:#000000;fill-opacity:1;fill-rule:nonzero;stroke:none;font-family:Times New Roman;-inkscape-font-specification:Times-Roman">t</tspan></text>
<text
           transform="matrix(1,0,0,-1,428.51263,456.74102)"
           id="text270"><tspan
             x="0"
             y="0"
             id="tspan272"
             style="font-size:8.0802002px;font-variant:normal;font-weight:normal;writing-mode:lr-tb;fill:#000000;fill-opacity:1;fill-rule:nonzero;stroke:none;font-family:Times New Roman;-inkscape-font-specification:Times-Roman">2</tspan></text>
<text
           transform="matrix(1,0,0,-1,432.55286,454.99454)"
           id="text274"><tspan
             x="0"
             y="0"
             id="tspan276"
             style="font-size:5.41373014px;font-variant:normal;font-weight:normal;writing-mode:lr-tb;fill:#000000;fill-opacity:1;fill-rule:nonzero;stroke:none;font-family:Times New Roman;-inkscape-font-specification:Times-Roman">g</tspan></text>
<text
           transform="matrix(1,0,0,-1,435.25989,462.79962)"
           id="text278"><tspan
             x="0 9.882"
             y="0"
             id="tspan280"
             style="font-size:18px;font-variant:normal;font-weight:normal;writing-mode:lr-tb;fill:#000000;fill-opacity:1;fill-rule:nonzero;stroke:none;font-family:Symbol;-inkscape-font-specification:Symbol">−α</tspan></text>
<text
           transform="matrix(1,0,0,-1,456.49969,468.73946)"
           id="text282"><tspan
             x="0"
             y="0"
             id="tspan284"
             style="font-size:12.06000042px;font-variant:normal;font-weight:normal;writing-mode:lr-tb;fill:#000000;fill-opacity:1;fill-rule:nonzero;stroke:none;font-family:Times New Roman;-inkscape-font-specification:Times-Roman">4</tspan></text>
</g><path
         d="m 1609.17,5601.21 1081.31,907.33 -104.13,124.1 -1081.31,-907.33"
         inkscape:connector-curvature="0"
         id="path286"
         style="fill:#ffffff;fill-opacity:1;fill-rule:nonzero;stroke:none" /><g
         transform="scale(10,10)"
         id="g288"><text
           transform="matrix(0.766044,0.642788,0.642788,-0.766044,158.14,563.43)"
           id="text290"><tspan
             x="0 12.995998 17.999998 22.499998 31.499998"
             y="0"
             id="tspan292"
             style="font-size:17.99999809px;font-variant:normal;font-weight:normal;writing-mode:lr-tb;fill:#000000;fill-opacity:1;fill-rule:nonzero;stroke:none;font-family:Times New Roman;-inkscape-font-specification:Times-Roman">At 40</tspan></text>
<text
           transform="matrix(0.766044,0.642788,0.642788,-0.766044,185.34662,594.01322)"
           id="text294"><tspan
             x="0"
             y="0"
             id="tspan296"
             style="font-size:12.05999851px;font-variant:normal;font-weight:normal;writing-mode:lr-tb;fill:#000000;fill-opacity:1;fill-rule:nonzero;stroke:none;font-family:Times New Roman;-inkscape-font-specification:Times-Roman">o</tspan></text>
<text
           transform="matrix(0.766044,0.642788,0.642788,-0.766044,197.23132,596.23155)"
           id="text298"><tspan
             x="0 5.0039997 14.003999"
             y="0"
             id="tspan300"
             style="font-size:17.99999809px;font-variant:normal;font-weight:normal;writing-mode:lr-tb;fill:#000000;fill-opacity:1;fill-rule:nonzero;stroke:none;font-family:Times New Roman;-inkscape-font-specification:Times-Roman">: 2</tspan></text>
<text
           transform="matrix(0.766044,0.642788,0.642788,-0.766044,211.03525,615.56868)"
           id="text302"><tspan
             x="0"
             y="0"
             id="tspan304"
             style="font-size:17.99999809px;font-variant:normal;font-weight:normal;writing-mode:lr-tb;fill:#000000;fill-opacity:1;fill-rule:nonzero;stroke:none;font-family:Symbol;-inkscape-font-specification:Symbol">β</tspan><tspan
             x="9.8819494"
             y="5.9401693"
             id="tspan306"
             style="font-size:17.99999809px;font-variant:normal;font-weight:normal;writing-mode:lr-tb;fill:#000000;fill-opacity:1;fill-rule:nonzero;stroke:none;font-family:Symbol;-inkscape-font-specification:Symbol">Π</tspan></text>
<text
           transform="matrix(0.766044,0.642788,0.642788,-0.766044,235.30437,623.5261)"
           id="text308"><tspan
             x="0"
             y="0"
             id="tspan310"
             style="font-size:17.99999809px;font-style:italic;font-variant:normal;writing-mode:lr-tb;fill:#000000;fill-opacity:1;fill-rule:nonzero;stroke:none;font-family:Times New Roman;-inkscape-font-specification:Times-Italic">k</tspan></text>
<text
           transform="matrix(0.766044,0.642788,0.642788,-0.766044,235.31764,635.94368)"
           id="text312"><tspan
             x="0"
             y="0"
             id="tspan314"
             style="font-size:12.05999851px;font-variant:normal;font-weight:normal;writing-mode:lr-tb;fill:#000000;fill-opacity:1;fill-rule:nonzero;stroke:none;font-family:Times New Roman;-inkscape-font-specification:Times-Roman">2</tspan></text>
<text
           transform="matrix(0.766044,0.642788,0.642788,-0.766044,243.75514,635.26947)"
           id="text316"><tspan
             x="0 10.151999"
             y="0"
             id="tspan318"
             style="font-size:17.99999809px;font-variant:normal;font-weight:normal;writing-mode:lr-tb;fill:#000000;fill-opacity:1;fill-rule:nonzero;stroke:none;font-family:Times New Roman;-inkscape-font-specification:Times-Roman">=2</tspan></text>
<text
           transform="matrix(0.766044,0.642788,0.642788,-0.766044,254.60827,652.13042)"
           id="text320"><tspan
             x="0"
             y="0"
             id="tspan322"
             style="font-size:17.99999809px;font-variant:normal;font-weight:normal;writing-mode:lr-tb;fill:#000000;fill-opacity:1;fill-rule:nonzero;stroke:none;font-family:Symbol;-inkscape-font-specification:Symbol">α</tspan></text>
</g><path
         d="m 1872.39,7514.8 3095.22,0 0,162 -3095.22,0 0,-162 z"
         inkscape:connector-curvature="0"
         id="path324"
         style="fill:#ffffff;fill-opacity:1;fill-rule:nonzero;stroke:none" /><g
         transform="scale(10,10)"
         id="g326"><text
           transform="matrix(1,0,0,-1,187.239,755.8)"
           id="text328"><tspan
             x="0 7.9920001"
             y="0"
             id="tspan330"
             style="font-size:18px;font-variant:normal;font-weight:bold;writing-mode:lr-tb;fill:#000000;fill-opacity:1;fill-rule:nonzero;stroke:none;font-family:Times New Roman;-inkscape-font-specification:Times-Bold">cc</tspan></text>
<text
           transform="matrix(1,0,0,-1,208.227,755.8)"
           id="text332"><tspan
             x="0 3.9960001 14.004 23.004 28.007999 32.004002 37.007999 41.004002 50.004002 60.012001 65.015999 69.012001 79.019997 89.028 94.031998 107.028 111.024 116.028 126.036 131.03999 140.03999 150.048 160.056 169.056 173.052 183.06 187.056 192.06 201.06 211.06799 221.076 230.076 239.076 245.07001 249.06599 259.07401 264.078"
             y="0"
             id="tspan334"
             style="font-size:18px;font-variant:normal;font-weight:normal;writing-mode:lr-tb;fill:#000000;fill-opacity:1;fill-rule:nonzero;stroke:none;font-family:Helvetica;-inkscape-font-specification:Helvetica">justification with special subscript </tspan></text>
<text
           transform="matrix(1,0,0,-1,477.309,755.8)"
           id="text336"><tspan
             x="0"
             y="0"
             id="tspan338"
             style="font-size:18px;font-style:italic;font-variant:normal;writing-mode:lr-tb;fill:#000000;fill-opacity:1;fill-rule:nonzero;stroke:none;font-family:Times New Roman;-inkscape-font-specification:Times-Italic">k</tspan></text>
<text
           transform="matrix(1,0,0,-1,485.30119,752.23594)"
           id="text340"><tspan
             x="0"
             y="0"
             id="tspan342"
             style="font-size:18px;font-variant:normal;font-weight:normal;writing-mode:lr-tb;fill:#000000;fill-opacity:1;fill-rule:nonzero;stroke:none;font-family:Symbol;-inkscape-font-specification:Symbol">⊥</tspan></text>
</g><path
         d="m 2232,7316.8 989.98,0 0,162 -989.98,0 0,-162 z"
         inkscape:connector-curvature="0"
         id="path344"
         style="fill:#ffffff;fill-opacity:1;fill-rule:nonzero;stroke:none" /><g
         transform="scale(10,10)"
         id="g346"><text
           transform="matrix(1,0,0,-1,223.2,736)"
           id="text348"><tspan
             x="0 10.008 16.002001 21.996 32.004002 45 54"
             y="0"
             id="tspan350"
             style="font-size:18px;font-variant:normal;font-weight:normal;writing-mode:lr-tb;fill:#000000;fill-opacity:1;fill-rule:nonzero;stroke:none;font-family:Helvetica;-inkscape-font-specification:Helvetica">arrows </tspan></text>
<text
           transform="matrix(1,0,0,-1,282.2039,736)"
           id="text352"><tspan
             x="0 18.756001 36.521999 47.375999 65.141998"
             y="0"
             id="tspan354"
             style="font-size:18px;font-variant:normal;font-weight:normal;writing-mode:lr-tb;fill:#000000;fill-opacity:1;fill-rule:nonzero;stroke:none;font-family:Symbol;-inkscape-font-specification:Symbol">↔←↑→↓</tspan></text>
</g><path
         d="m 2232,7118.8 1557.52,0 0,162 -1557.52,0 0,-162 z"
         inkscape:connector-curvature="0"
         id="path356"
         style="fill:#ffffff;fill-opacity:1;fill-rule:nonzero;stroke:none" /><g
         transform="scale(10,10)"
         id="g358"><text
           transform="matrix(1,0,0,-1,223.2,716.2)"
           id="text360"><tspan
             x="0 10.008 16.002001 26.01 35.009998 44.009998 54.018002 59.021999 68.022003"
             y="0"
             id="tspan362"
             style="font-size:18px;font-variant:normal;font-weight:normal;writing-mode:lr-tb;fill:#000000;fill-opacity:1;fill-rule:nonzero;stroke:none;font-family:Helvetica;-inkscape-font-specification:Helvetica">brackets </tspan></text>
<text
           transform="matrix(1,0,0,-1,296.2262,716.2)"
           id="text364"><tspan
             x="0 8.6400003 14.562 27.558001 33.48 42.119999 51.012001 59.903999 68.795998 81.143997"
             y="0"
             id="tspan366"
             style="font-size:18px;font-variant:normal;font-weight:normal;writing-mode:lr-tb;fill:#000000;fill-opacity:1;fill-rule:nonzero;stroke:none;font-family:Symbol;-inkscape-font-specification:Symbol">{〈Α〉}|</tspan></text>
</g><path
         d="m 2232,6920.8 1709.96,0 0,162 -1709.96,0 0,-162 z"
         inkscape:connector-curvature="0"
         id="path368"
         style="fill:#ffffff;fill-opacity:1;fill-rule:nonzero;stroke:none" /><g
         transform="scale(10,10)"
         id="g370"><text
           transform="matrix(1,0,0,-1,223.2,696.4)"
           id="text372"><tspan
             x="0 14.994 25.002001 30.006001 40.014"
             y="0"
             id="tspan374"
             style="font-size:18px;font-variant:normal;font-weight:normal;writing-mode:lr-tb;fill:#000000;fill-opacity:1;fill-rule:nonzero;stroke:none;font-family:Helvetica;-inkscape-font-specification:Helvetica">math </tspan></text>
<text
           transform="matrix(1,0,0,-1,273.2219,696.4)"
           id="text376"><tspan
             x="0 8.8920002 21.726 34.560001 44.442001 48.942001 58.824001 68.706001 78.587997 88.470001 98.351997 111.186 121.068 130.95 140.832"
             y="0"
             id="tspan378"
             style="font-size:18px;font-variant:normal;font-weight:normal;writing-mode:lr-tb;fill:#000000;fill-opacity:1;fill-rule:nonzero;stroke:none;font-family:Symbol;-inkscape-font-specification:Symbol">∂∞∇√⋅≤≥−±×∝≠≡≈≅</tspan></text>
</g><path
         d="m 2232,6722.8 1637.98,0 0,162 -1637.98,0 0,-162 z"
         inkscape:connector-curvature="0"
         id="path380"
         style="fill:#ffffff;fill-opacity:1;fill-rule:nonzero;stroke:none" /><g
         transform="scale(10,10)"
         id="g382"><text
           transform="matrix(1,0,0,-1,223.2,676.6)"
           id="text384"><tspan
             x="0 9 18 32.993999 43.001999 53.009998 57.006001 66.005997"
             y="0"
             id="tspan386"
             style="font-size:18px;font-variant:normal;font-weight:normal;writing-mode:lr-tb;fill:#000000;fill-opacity:1;fill-rule:nonzero;stroke:none;font-family:Helvetica;-inkscape-font-specification:Helvetica">symbols </tspan></text>
<text
           transform="matrix(1,0,0,-1,294.2102,676.6)"
           id="text388"><tspan
             x="0 18.756001 36.521999 47.375999 65.141998 75.996002 80.928001 96.461998 108.306 115.704 123.984 137.53799 155.53799"
             y="0"
             id="tspan390"
             style="font-size:18px;font-variant:normal;font-weight:normal;writing-mode:lr-tb;fill:#000000;fill-opacity:1;fill-rule:nonzero;stroke:none;font-family:Symbol;-inkscape-font-specification:Symbol">⇔⇐⇑⇒⇓∫∴⊥″•♦…°</tspan></text>
</g></g></g></svg>
