<?xml version="1.0" encoding="UTF-8" standalone="no"?>
<!-- Created with Inkscape (http://www.inkscape.org/) -->

<svg
   xmlns:dc="http://purl.org/dc/elements/1.1/"
   xmlns:cc="http://creativecommons.org/ns#"
   xmlns:rdf="http://www.w3.org/1999/02/22-rdf-syntax-ns#"
   xmlns:svg="http://www.w3.org/2000/svg"
   xmlns="http://www.w3.org/2000/svg"
   xmlns:inkscape="http://www.inkscape.org/namespaces/inkscape"
   version="1.1"
   width="765"
   height="270"
   id="svg2"
   xml:space="preserve"><metadata
     id="metadata8"><rdf:RDF><cc:Work
         rdf:about=""><dc:format>image/svg+xml</dc:format><dc:type
           rdf:resource="http://purl.org/dc/dcmitype/StillImage" /></cc:Work></rdf:RDF></metadata><defs
     id="defs6"><clipPath
       id="clipPath92"><path
         d="m 1955,6032 0,1821 1544,0 0,-1821 -1544,0 z"
         inkscape:connector-curvature="0"
         id="path94" /></clipPath><clipPath
       id="clipPath124"><path
         d="m 1955,6032 0,1821 1544,0 0,-1821 -1544,0 z"
         inkscape:connector-curvature="0"
         id="path126" /></clipPath><clipPath
       id="clipPath158"><path
         d="m 1955,6032 0,1821 1544,0 0,-1821 -1544,0 z"
         inkscape:connector-curvature="0"
         id="path160" /></clipPath><clipPath
       id="clipPath192"><path
         d="m 1955,6032 0,1821 1544,0 0,-1821 -1544,0 z"
         inkscape:connector-curvature="0"
         id="path194" /></clipPath></defs><g
     transform="matrix(1.25,0,0,-1.25,0,990)"
     id="g10"><g
       transform="scale(0.1,0.1)"
       id="g12"><g
         transform="scale(10,10)"
         id="g14"><text
           transform="matrix(1,0,0,-1,331.9,773.3)"
           id="text16"><tspan
             x="0"
             y="0"
             id="tspan18"
             style="font-size:18px;font-variant:normal;font-weight:normal;writing-mode:lr-tb;fill:#000000;fill-opacity:1;fill-rule:nonzero;stroke:none;font-family:Symbol;-inkscape-font-specification:Symbol">µ</tspan></text>
</g><path
         d="m 3242,5777.8 359.809,0 0,162 -359.809,0 0,-162 z"
         inkscape:connector-curvature="0"
         id="path20"
         style="fill:#ffffff;fill-opacity:1;fill-rule:nonzero;stroke:none" /><g
         transform="scale(10,10)"
         id="g22"><text
           transform="matrix(1,0,0,-1,324.2,582.1)"
           id="text24"><tspan
             x="0 10.998 16.992001 29.988001"
             y="0"
             id="tspan26"
             style="font-size:18px;font-variant:normal;font-weight:normal;writing-mode:lr-tb;fill:#000000;fill-opacity:1;fill-rule:nonzero;stroke:none;font-family:Times New Roman;-inkscape-font-specification:Times-Roman">T(K)</tspan></text>
</g><path
         d="m 1955,6032 1544,0 0,1821 -1544,0 0,-1821 z"
         inkscape:connector-curvature="0"
         id="path28"
         style="fill:#ffffff;fill-opacity:1;fill-rule:nonzero;stroke:none" /><path
         d="m 1955,6032 1544,0 0,1821"
         inkscape:connector-curvature="0"
         id="path30"
         style="fill:none;stroke:#000000;stroke-width:15;stroke-linecap:butt;stroke-linejoin:round;stroke-miterlimit:10;stroke-opacity:1;stroke-dasharray:none" /><path
         d="m 1955,6032 0,45"
         inkscape:connector-curvature="0"
         id="path32"
         style="fill:none;stroke:#000000;stroke-width:15;stroke-linecap:butt;stroke-linejoin:round;stroke-miterlimit:10;stroke-opacity:1;stroke-dasharray:none" /><g
         transform="scale(10,10)"
         id="g34"><text
           transform="matrix(1,0,0,-1,191.5,588.8)"
           id="text36"><tspan
             x="0"
             y="0"
             id="tspan38"
             style="font-size:16px;font-variant:normal;font-weight:normal;writing-mode:lr-tb;fill:#000000;fill-opacity:1;fill-rule:nonzero;stroke:none;font-family:Symbol;-inkscape-font-specification:Symbol">0</tspan></text>
</g><path
         d="m 2470,6032 0,45"
         inkscape:connector-curvature="0"
         id="path40"
         style="fill:none;stroke:#000000;stroke-width:15;stroke-linecap:butt;stroke-linejoin:round;stroke-miterlimit:10;stroke-opacity:1;stroke-dasharray:none" /><g
         transform="scale(10,10)"
         id="g42"><text
           transform="matrix(1,0,0,-1,235,588.8)"
           id="text44"><tspan
             x="0 8 16"
             y="0"
             id="tspan46"
             style="font-size:16px;font-variant:normal;font-weight:normal;writing-mode:lr-tb;fill:#000000;fill-opacity:1;fill-rule:nonzero;stroke:none;font-family:Symbol;-inkscape-font-specification:Symbol">100</tspan></text>
</g><path
         d="m 2984,6032 0,45"
         inkscape:connector-curvature="0"
         id="path48"
         style="fill:none;stroke:#000000;stroke-width:15;stroke-linecap:butt;stroke-linejoin:round;stroke-miterlimit:10;stroke-opacity:1;stroke-dasharray:none" /><g
         transform="scale(10,10)"
         id="g50"><text
           transform="matrix(1,0,0,-1,286.4,588.8)"
           id="text52"><tspan
             x="0 8 16"
             y="0"
             id="tspan54"
             style="font-size:16px;font-variant:normal;font-weight:normal;writing-mode:lr-tb;fill:#000000;fill-opacity:1;fill-rule:nonzero;stroke:none;font-family:Symbol;-inkscape-font-specification:Symbol">200</tspan></text>
</g><path
         d="m 3499,6416 -38,0"
         inkscape:connector-curvature="0"
         id="path56"
         style="fill:none;stroke:#000000;stroke-width:15;stroke-linecap:butt;stroke-linejoin:round;stroke-miterlimit:10;stroke-opacity:1;stroke-dasharray:none" /><g
         transform="scale(10,10)"
         id="g58"><text
           transform="matrix(1,0,0,-1,354.7,636.8)"
           id="text60"><tspan
             x="0 8 12"
             y="0"
             id="tspan62"
             style="font-size:16px;font-variant:normal;font-weight:normal;writing-mode:lr-tb;fill:#000000;fill-opacity:1;fill-rule:nonzero;stroke:none;font-family:Symbol;-inkscape-font-specification:Symbol">0.5</tspan></text>
</g><path
         d="m 3499,6849 -38,0"
         inkscape:connector-curvature="0"
         id="path64"
         style="fill:none;stroke:#000000;stroke-width:15;stroke-linecap:butt;stroke-linejoin:round;stroke-miterlimit:10;stroke-opacity:1;stroke-dasharray:none" /><g
         transform="scale(10,10)"
         id="g66"><text
           transform="matrix(1,0,0,-1,354.7,680.1)"
           id="text68"><tspan
             x="0"
             y="0"
             id="tspan70"
             style="font-size:16px;font-variant:normal;font-weight:normal;writing-mode:lr-tb;fill:#000000;fill-opacity:1;fill-rule:nonzero;stroke:none;font-family:Symbol;-inkscape-font-specification:Symbol">1</tspan></text>
</g><path
         d="m 3499,7281 -38,0"
         inkscape:connector-curvature="0"
         id="path72"
         style="fill:none;stroke:#000000;stroke-width:15;stroke-linecap:butt;stroke-linejoin:round;stroke-miterlimit:10;stroke-opacity:1;stroke-dasharray:none" /><g
         transform="scale(10,10)"
         id="g74"><text
           transform="matrix(1,0,0,-1,354.7,723.3)"
           id="text76"><tspan
             x="0"
             y="0"
             id="tspan78"
             style="font-size:16px;font-variant:normal;font-weight:normal;writing-mode:lr-tb;fill:#000000;fill-opacity:1;fill-rule:nonzero;stroke:none;font-family:Symbol;-inkscape-font-specification:Symbol">2</tspan></text>
</g><path
         d="m 3499,7853 -38,0"
         inkscape:connector-curvature="0"
         id="path80"
         style="fill:none;stroke:#000000;stroke-width:15;stroke-linecap:butt;stroke-linejoin:round;stroke-miterlimit:10;stroke-opacity:1;stroke-dasharray:none" /><g
         transform="scale(10,10)"
         id="g82"><text
           transform="matrix(1,0,0,-1,354.7,780.5)"
           id="text84"><tspan
             x="0"
             y="0"
             id="tspan86"
             style="font-size:16px;font-variant:normal;font-weight:normal;writing-mode:lr-tb;fill:#000000;fill-opacity:1;fill-rule:nonzero;stroke:none;font-family:Symbol;-inkscape-font-specification:Symbol">5</tspan></text>
</g><g
         id="g88"><g
           clip-path="url(#clipPath92)"
           id="g90"><path
             d="m 2418,7534 193,0"
             inkscape:connector-curvature="0"
             id="path96"
             style="fill:none;stroke:#000000;stroke-width:15;stroke-linecap:butt;stroke-linejoin:round;stroke-miterlimit:10;stroke-opacity:1;stroke-dasharray:72, 36, 14.4, 36;stroke-dashoffset:0" /></g></g><g
         transform="scale(10,10)"
         id="g98"><text
           transform="matrix(1,0,0,-1,265.9,748.6)"
           id="text100"><tspan
             x="0 5.3280001"
             y="0"
             id="tspan102"
             style="font-size:16px;font-variant:normal;font-weight:normal;writing-mode:lr-tb;fill:#000000;fill-opacity:1;fill-rule:nonzero;stroke:none;font-family:Times New Roman;-inkscape-font-specification:Times-Roman">In</tspan></text>
<text
           transform="matrix(1,0,0,-1,279.2281,745.43203)"
           id="text104"><tspan
             x="0 5.3600001 8.92976"
             y="0"
             id="tspan106"
             style="font-size:10.72000027px;font-variant:normal;font-weight:normal;writing-mode:lr-tb;fill:#000000;fill-opacity:1;fill-rule:nonzero;stroke:none;font-family:Times New Roman;-inkscape-font-specification:Times-Roman">1-x</tspan></text>
<text
           transform="matrix(1,0,0,-1,293.5179,748.6)"
           id="text108"><tspan
             x="0 9.776"
             y="0"
             id="tspan110"
             style="font-size:16px;font-variant:normal;font-weight:normal;writing-mode:lr-tb;fill:#000000;fill-opacity:1;fill-rule:nonzero;stroke:none;font-family:Times New Roman;-inkscape-font-specification:Times-Roman">Tl</tspan></text>
<text
           transform="matrix(1,0,0,-1,307.7417,745.43203)"
           id="text112"><tspan
             x="0"
             y="0"
             id="tspan114"
             style="font-size:10.72000027px;font-variant:normal;font-weight:normal;writing-mode:lr-tb;fill:#000000;fill-opacity:1;fill-rule:nonzero;stroke:none;font-family:Times New Roman;-inkscape-font-specification:Times-Roman">x</tspan></text>
<text
           transform="matrix(1,0,0,-1,313.10186,748.6)"
           id="text116"><tspan
             x="0"
             y="0"
             id="tspan118"
             style="font-size:16px;font-variant:normal;font-weight:normal;writing-mode:lr-tb;fill:#000000;fill-opacity:1;fill-rule:nonzero;stroke:none;font-family:Times New Roman;-inkscape-font-specification:Times-Roman">P</tspan></text>
</g><g
         id="g120"><g
           clip-path="url(#clipPath124)"
           id="g122"><path
             d="m 2006,7329 26,-237 26,-146 26,-98 25,-69 26,-51 26,-39 25,-32 26,-25 26,-22 26,-18 25,-15 26,-14 26,-13 26,-11 25,-11 26,-10 26,-10 26,-9 25,-9 26,-10 26,-9 26,-9 25,-9 26,-9 26,-10 26,-9 25,-9 26,-10 26,-9 25,-10 26,-10 26,-10 26,-9 25,-10 26,-10 26,-10 26,-10 25,-10 26,-9 26,-10 26,-10 25,-10 26,-10 26,-9 26,-10 25,-10 26,-9 26,-10 26,-9 25,-10 26,-9 26,-9 26,-9 25,-9 26,-10 26,-9 25,-8 26,-9"
             inkscape:connector-curvature="0"
             id="path128"
             style="fill:none;stroke:#000000;stroke-width:15;stroke-linecap:butt;stroke-linejoin:round;stroke-miterlimit:10;stroke-opacity:1;stroke-dasharray:72, 36, 14.4, 36;stroke-dashoffset:0" /><path
             d="m 2418,7378 193,0"
             inkscape:connector-curvature="0"
             id="path130"
             style="fill:none;stroke:#000000;stroke-width:15;stroke-linecap:butt;stroke-linejoin:round;stroke-miterlimit:10;stroke-opacity:1;stroke-dasharray:108, 36;stroke-dashoffset:0" /></g></g><g
         transform="scale(10,10)"
         id="g132"><text
           transform="matrix(1,0,0,-1,265.9,733)"
           id="text134"><tspan
             x="0 5.3280001"
             y="0"
             id="tspan136"
             style="font-size:16px;font-variant:normal;font-weight:normal;writing-mode:lr-tb;fill:#000000;fill-opacity:1;fill-rule:nonzero;stroke:none;font-family:Times New Roman;-inkscape-font-specification:Times-Roman">In</tspan></text>
<text
           transform="matrix(1,0,0,-1,279.2281,729.83203)"
           id="text138"><tspan
             x="0 5.3600001 8.92976"
             y="0"
             id="tspan140"
             style="font-size:10.72000027px;font-variant:normal;font-weight:normal;writing-mode:lr-tb;fill:#000000;fill-opacity:1;fill-rule:nonzero;stroke:none;font-family:Times New Roman;-inkscape-font-specification:Times-Roman">1-x</tspan></text>
<text
           transform="matrix(1,0,0,-1,293.5179,733)"
           id="text142"><tspan
             x="0 9.776"
             y="0"
             id="tspan144"
             style="font-size:16px;font-variant:normal;font-weight:normal;writing-mode:lr-tb;fill:#000000;fill-opacity:1;fill-rule:nonzero;stroke:none;font-family:Times New Roman;-inkscape-font-specification:Times-Roman">Tl</tspan></text>
<text
           transform="matrix(1,0,0,-1,307.7417,729.83203)"
           id="text146"><tspan
             x="0"
             y="0"
             id="tspan148"
             style="font-size:10.72000027px;font-variant:normal;font-weight:normal;writing-mode:lr-tb;fill:#000000;fill-opacity:1;fill-rule:nonzero;stroke:none;font-family:Times New Roman;-inkscape-font-specification:Times-Roman">x</tspan></text>
<text
           transform="matrix(1,0,0,-1,313.10186,733)"
           id="text150"><tspan
             x="0 11.552"
             y="0"
             id="tspan152"
             style="font-size:16px;font-variant:normal;font-weight:normal;writing-mode:lr-tb;fill:#000000;fill-opacity:1;fill-rule:nonzero;stroke:none;font-family:Times New Roman;-inkscape-font-specification:Times-Roman">As</tspan></text>
</g><g
         id="g154"><g
           clip-path="url(#clipPath158)"
           id="g156"><path
             d="m 2006,7656 26,-207 26,-127 26,-87 25,-62 26,-46 26,-37 25,-28 26,-23 26,-20 26,-17 25,-16 26,-15 26,-14 26,-14 25,-14 26,-14 26,-13 26,-14 25,-14 26,-15 26,-14 26,-14 25,-15 26,-15 26,-14 26,-15 25,-15 26,-14 26,-15 25,-14 26,-15 26,-14 26,-15 25,-14 26,-14 26,-14 26,-14 25,-13 26,-14 26,-13 26,-13 25,-13 26,-13 26,-13 26,-12 25,-13 26,-12 26,-12 26,-12 25,-11 26,-12 26,-11 26,-12 25,-11 26,-11 26,-11 25,-10 26,-11"
             inkscape:connector-curvature="0"
             id="path162"
             style="fill:none;stroke:#000000;stroke-width:15;stroke-linecap:butt;stroke-linejoin:round;stroke-miterlimit:10;stroke-opacity:1;stroke-dasharray:108, 36;stroke-dashoffset:0" /><path
             d="m 2418,7222 193,0"
             inkscape:connector-curvature="0"
             id="path164"
             style="fill:none;stroke:#000000;stroke-width:15;stroke-linecap:butt;stroke-linejoin:round;stroke-miterlimit:10;stroke-opacity:1;stroke-dasharray:none" /></g></g><g
         transform="scale(10,10)"
         id="g166"><text
           transform="matrix(1,0,0,-1,265.9,717.4)"
           id="text168"><tspan
             x="0 11.552"
             y="0"
             id="tspan170"
             style="font-size:16px;font-variant:normal;font-weight:normal;writing-mode:lr-tb;fill:#000000;fill-opacity:1;fill-rule:nonzero;stroke:none;font-family:Times New Roman;-inkscape-font-specification:Times-Roman">Hg</tspan></text>
<text
           transform="matrix(1,0,0,-1,285.452,714.23203)"
           id="text172"><tspan
             x="0"
             y="0"
             id="tspan174"
             style="font-size:10.72000027px;font-variant:normal;font-weight:normal;writing-mode:lr-tb;fill:#000000;fill-opacity:1;fill-rule:nonzero;stroke:none;font-family:Times New Roman;-inkscape-font-specification:Times-Roman">x</tspan></text>
<text
           transform="matrix(1,0,0,-1,290.81216,717.4)"
           id="text176"><tspan
             x="0 10.672"
             y="0"
             id="tspan178"
             style="font-size:16px;font-variant:normal;font-weight:normal;writing-mode:lr-tb;fill:#000000;fill-opacity:1;fill-rule:nonzero;stroke:none;font-family:Times New Roman;-inkscape-font-specification:Times-Roman">Cd</tspan></text>
<text
           transform="matrix(1,0,0,-1,309.48406,714.23203)"
           id="text180"><tspan
             x="0 5.3600001 8.92976"
             y="0"
             id="tspan182"
             style="font-size:10.72000027px;font-variant:normal;font-weight:normal;writing-mode:lr-tb;fill:#000000;fill-opacity:1;fill-rule:nonzero;stroke:none;font-family:Times New Roman;-inkscape-font-specification:Times-Roman">1-x</tspan></text>
<text
           transform="matrix(1,0,0,-1,323.77386,717.4)"
           id="text184"><tspan
             x="0 9.776"
             y="0"
             id="tspan186"
             style="font-size:16px;font-variant:normal;font-weight:normal;writing-mode:lr-tb;fill:#000000;fill-opacity:1;fill-rule:nonzero;stroke:none;font-family:Times New Roman;-inkscape-font-specification:Times-Roman">Te</tspan></text>
</g><g
         id="g188"><g
           clip-path="url(#clipPath192)"
           id="g190"><path
             d="m 2006,7118 26,114 26,80 26,52 25,31 26,22 26,6 25,-16 26,-31 26,-42 26,-51 25,-56 26,-62 26,-71 26,-70 25,-56 26,-56 26,-68 26,-65 25,-53 26,-47 26,-44 26,-41 25,-40 26,-39 26,-37 26,-36 25,-35 26,-33 26,-32 25,-32 26,-29 26,-29 26,-28 25,-27 26,-27 26,-25 26,-25 25,-24 26,-23 26,-23 26,-22 25,-21 26,-21 26,-21 26,-20 25,-20 26,-19 26,-19 26,-19 25,-19 26,-18 26,-17 26,-18 25,-17 26,-17 26,-17 25,-17 26,-16"
             inkscape:connector-curvature="0"
             id="path196"
             style="fill:none;stroke:#000000;stroke-width:15;stroke-linecap:butt;stroke-linejoin:round;stroke-miterlimit:10;stroke-opacity:1;stroke-dasharray:none" /></g></g></g></g></svg>
