<?xml version="1.0" encoding="UTF-8" standalone="no"?>
<!-- Created with Inkscape (http://www.inkscape.org/) -->

<svg
   xmlns:dc="http://purl.org/dc/elements/1.1/"
   xmlns:cc="http://creativecommons.org/ns#"
   xmlns:rdf="http://www.w3.org/1999/02/22-rdf-syntax-ns#"
   xmlns:svg="http://www.w3.org/2000/svg"
   xmlns="http://www.w3.org/2000/svg"
   xmlns:inkscape="http://www.inkscape.org/namespaces/inkscape"
   version="1.1"
   width="765"
   height="990"
   id="svg2"
   xml:space="preserve"><metadata
     id="metadata8"><rdf:RDF><cc:Work
         rdf:about=""><dc:format>image/svg+xml</dc:format><dc:type
           rdf:resource="http://purl.org/dc/dcmitype/StillImage" /></cc:Work></rdf:RDF></metadata><defs
     id="defs6"><clipPath
       id="clipPath72"><path
         d="m 1548,1548 0,2160 2160,0 0,-2160 -2160,0 z"
         inkscape:connector-curvature="0"
         id="path74" /></clipPath></defs><g
     transform="matrix(1.25,0,0,-1.25,0,990)"
     id="g10"><g
       transform="scale(0.1,0.1)"
       id="g12"><path
         d="m 1440,1440 2376,0"
         inkscape:connector-curvature="0"
         id="path14"
         style="fill:none;stroke:#000000;stroke-width:15;stroke-linecap:butt;stroke-linejoin:round;stroke-miterlimit:10;stroke-opacity:1;stroke-dasharray:none" /><path
         d="m 1440,3816 0,-2376"
         inkscape:connector-curvature="0"
         id="path16"
         style="fill:none;stroke:#000000;stroke-width:15;stroke-linecap:butt;stroke-linejoin:round;stroke-miterlimit:10;stroke-opacity:1;stroke-dasharray:none" /><path
         d="m 1714,1440 0,36"
         inkscape:connector-curvature="0"
         id="path18"
         style="fill:none;stroke:#000000;stroke-width:15;stroke-linecap:butt;stroke-linejoin:round;stroke-miterlimit:10;stroke-opacity:1;stroke-dasharray:none" /><path
         d="m 2046,1440 0,59"
         inkscape:connector-curvature="0"
         id="path20"
         style="fill:none;stroke:#000000;stroke-width:15;stroke-linecap:butt;stroke-linejoin:round;stroke-miterlimit:10;stroke-opacity:1;stroke-dasharray:none" /><g
         transform="scale(10,10)"
         id="g22"><text
           transform="matrix(1,0,0,-1,198.6,122.4)"
           id="text24"><tspan
             x="0"
             y="0"
             id="tspan26"
             style="font-size:24px;font-variant:normal;font-weight:normal;writing-mode:lr-tb;fill:#000000;fill-opacity:1;fill-rule:nonzero;stroke:none;font-family:Symbol;-inkscape-font-specification:Symbol">1</tspan></text>
</g><path
         d="m 2379,1440 0,36"
         inkscape:connector-curvature="0"
         id="path28"
         style="fill:none;stroke:#000000;stroke-width:15;stroke-linecap:butt;stroke-linejoin:round;stroke-miterlimit:10;stroke-opacity:1;stroke-dasharray:none" /><path
         d="m 2711,1440 0,59"
         inkscape:connector-curvature="0"
         id="path30"
         style="fill:none;stroke:#000000;stroke-width:15;stroke-linecap:butt;stroke-linejoin:round;stroke-miterlimit:10;stroke-opacity:1;stroke-dasharray:none" /><g
         transform="scale(10,10)"
         id="g32"><text
           transform="matrix(1,0,0,-1,265.1,122.4)"
           id="text34"><tspan
             x="0"
             y="0"
             id="tspan36"
             style="font-size:24px;font-variant:normal;font-weight:normal;writing-mode:lr-tb;fill:#000000;fill-opacity:1;fill-rule:nonzero;stroke:none;font-family:Symbol;-inkscape-font-specification:Symbol">2</tspan></text>
</g><path
         d="m 3043,1440 0,36"
         inkscape:connector-curvature="0"
         id="path38"
         style="fill:none;stroke:#000000;stroke-width:15;stroke-linecap:butt;stroke-linejoin:round;stroke-miterlimit:10;stroke-opacity:1;stroke-dasharray:none" /><path
         d="m 3376,1440 0,59"
         inkscape:connector-curvature="0"
         id="path40"
         style="fill:none;stroke:#000000;stroke-width:15;stroke-linecap:butt;stroke-linejoin:round;stroke-miterlimit:10;stroke-opacity:1;stroke-dasharray:none" /><g
         transform="scale(10,10)"
         id="g42"><text
           transform="matrix(1,0,0,-1,331.6,122.4)"
           id="text44"><tspan
             x="0"
             y="0"
             id="tspan46"
             style="font-size:24px;font-variant:normal;font-weight:normal;writing-mode:lr-tb;fill:#000000;fill-opacity:1;fill-rule:nonzero;stroke:none;font-family:Symbol;-inkscape-font-specification:Symbol">3</tspan></text>
</g><path
         d="m 3708,1440 0,36"
         inkscape:connector-curvature="0"
         id="path48"
         style="fill:none;stroke:#000000;stroke-width:15;stroke-linecap:butt;stroke-linejoin:round;stroke-miterlimit:10;stroke-opacity:1;stroke-dasharray:none" /><path
         d="m 1440,1548 59,0"
         inkscape:connector-curvature="0"
         id="path50"
         style="fill:none;stroke:#000000;stroke-width:15;stroke-linecap:butt;stroke-linejoin:round;stroke-miterlimit:10;stroke-opacity:1;stroke-dasharray:none" /><path
         d="m 1440,1818 36,0"
         inkscape:connector-curvature="0"
         id="path52"
         style="fill:none;stroke:#000000;stroke-width:15;stroke-linecap:butt;stroke-linejoin:round;stroke-miterlimit:10;stroke-opacity:1;stroke-dasharray:none" /><path
         d="m 1440,2088 59,0"
         inkscape:connector-curvature="0"
         id="path54"
         style="fill:none;stroke:#000000;stroke-width:15;stroke-linecap:butt;stroke-linejoin:round;stroke-miterlimit:10;stroke-opacity:1;stroke-dasharray:none" /><path
         d="m 1440,2358 36,0"
         inkscape:connector-curvature="0"
         id="path56"
         style="fill:none;stroke:#000000;stroke-width:15;stroke-linecap:butt;stroke-linejoin:round;stroke-miterlimit:10;stroke-opacity:1;stroke-dasharray:none" /><path
         d="m 1440,2628 59,0"
         inkscape:connector-curvature="0"
         id="path58"
         style="fill:none;stroke:#000000;stroke-width:15;stroke-linecap:butt;stroke-linejoin:round;stroke-miterlimit:10;stroke-opacity:1;stroke-dasharray:none" /><path
         d="m 1440,2898 36,0"
         inkscape:connector-curvature="0"
         id="path60"
         style="fill:none;stroke:#000000;stroke-width:15;stroke-linecap:butt;stroke-linejoin:round;stroke-miterlimit:10;stroke-opacity:1;stroke-dasharray:none" /><path
         d="m 1440,3168 59,0"
         inkscape:connector-curvature="0"
         id="path62"
         style="fill:none;stroke:#000000;stroke-width:15;stroke-linecap:butt;stroke-linejoin:round;stroke-miterlimit:10;stroke-opacity:1;stroke-dasharray:none" /><path
         d="m 1440,3438 36,0"
         inkscape:connector-curvature="0"
         id="path64"
         style="fill:none;stroke:#000000;stroke-width:15;stroke-linecap:butt;stroke-linejoin:round;stroke-miterlimit:10;stroke-opacity:1;stroke-dasharray:none" /><path
         d="m 1440,3708 59,0"
         inkscape:connector-curvature="0"
         id="path66"
         style="fill:none;stroke:#000000;stroke-width:15;stroke-linecap:butt;stroke-linejoin:round;stroke-miterlimit:10;stroke-opacity:1;stroke-dasharray:none" /><g
         id="g68"><g
           clip-path="url(#clipPath72)"
           id="g70"><path
             d="m 1553,2377 17,-3 18,-2 18,-3 18,-3 18,-3 18,-3 17,-4 18,-3 18,-4 18,-4 18,-5 18,-4 17,-5 18,-4 18,-5 18,-6 18,-5 18,-5 17,-6 18,-6 18,-6 18,-6 18,-6 18,-6 17,-7 18,-6 18,-7 18,-7 18,-7 18,-7 17,-7 18,-7 18,-7 18,-8 18,-7 18,-8 17,-7 18,-8 18,-7 18,-8 18,-8 18,-8 17,-7 18,-8 18,-8 18,-8 18,-8 18,-8 17,-8 18,-8 18,-7 18,-8 18,-8 18,-8 17,-8 18,-8 18,-8 18,-7 18,-8 18,-8 17,-7 18,-8 18,-7 18,-8 18,-7 18,-8 17,-7 18,-7 18,-7 18,-7 18,-8 18,-6 17,-7 18,-7 18,-7 18,-7 18,-6 18,-7 17,-6 18,-7 18,-6 18,-6 18,-6 18,-6 17,-6 18,-6 18,-6 18,-5 18,-6 18,-5 17,-6 18,-5 18,-5 18,-5 18,-5 18,-5 17,-5 18,-5 18,-5 18,-4 18,-5 18,-4 17,-5 18,-4 18,-4 18,-4 18,-4 18,-4 17,-4 18,-4 18,-3 18,-4 18,-4 18,-3 17,-3 18,-4 18,-3 18,-3 18,-3 18,-3 17,-3 18,-3 18,-3 18,-3 18,-3 18,-2 17,-3 18,-3 18,-2 18,-2 18,-3 18,-2 17,-2 18,-3 18,-2 18,-2 18,-2 18,-2 17,-2 18,-2 18,-2 18,-2 18,-1 18,-2 17,-2 18,-1 18,-2 18,-2 18,-1 18,-2 17,-1 18,-2 18,-1 18,-1 18,-2 18,-1 17,-1 18,-1 18,-2 18,-1 18,-1 18,-1 17,-1 18,-1 18,-1 18,-1 18,-1 18,-1 17,-1 18,-1 18,-1 18,-1 18,-1 18,0 17,-1 18,-1 18,-1 18,-1 18,0 18,-1 17,-1 18,0 18,-1 18,-1 18,0 18,-1 17,0 18,-1 18,-1 18,0 18,-1 18,0 17,-1 18,0 18,-1 18,0 18,-1 18,0 17,-1 36,0 18,-1 18,0 18,-1 35,0 18,-1 36,0 18,-1 35,0 18,-1 18,0"
             inkscape:connector-curvature="0"
             id="path76"
             style="fill:none;stroke:#ff0000;stroke-width:15;stroke-linecap:butt;stroke-linejoin:round;stroke-miterlimit:10;stroke-opacity:1;stroke-dasharray:none" /><g
             transform="scale(1.17067,1.17067)"
             id="g78"><path
               d="m 1326.59,16300 14.52,-1671.7 15.37,-1378.7 15.38,-1154.9 15.37,-981.5 15.38,-843.1 15.38,-732.01 14.52,-640.66 15.37,-565.48 15.38,-502.28 15.37,-448.46 15.38,-403.18 15.38,-363.04 14.52,-329.73 15.37,-299.82 15.38,-274.2 15.37,-251.14 15.38,-229.78 15.38,-212.7 14.52,-196.47 15.37,-181.95 15.38,-169.13 15.37,-156.32 15.38,-146.92 15.38,-136.68 14.52,-127.27 15.37,-119.59 15.38,-112.76 15.38,-105.07 15.37,-99.08 15.38,-93.97 14.52,-87.98 15.37,-82.86 15.38,-78.58 15.38,-74.32 15.37,-70.9 15.38,-66.63 14.52,-63.21 15.37,-60.65 15.38,-56.38 15.38,-54.67 15.37,-52.1 15.38,-48.69 14.52,-46.98 15.37,-45.28 15.38,-42.71 15.38,-40.14 15.37,-39.3 15.38,-37.58 14.52,-35.03 15.37,-34.16 15.38,-32.46 15.38,-31.61 15.37,-29.9 15.38,-28.19 14.52,-28.19 15.38,-26.48 15.37,-24.77 15.38,-24.77 15.37,-23.06 15.38,-22.21 14.52,-22.21 15.38,-20.5 15.37,-19.65 15.38,-19.65 15.37,-17.94 15.38,-17.93 14.52,-17.09 15.38,-17.08 15.37,-15.38 15.38,-15.37 15.37,-14.52 15.38,-14.53 14.52,-13.66 15.38,-13.67 15.37,-12.81 15.38,-11.96 15.37,-11.96 15.38,-11.96 14.52,-11.11 15.38,-10.25 15.37,-11.1 15.38,-9.4 15.37,-10.25 15.38,-9.39 14.52,-8.55 15.38,-9.39 15.37,-8.54 15.38,-7.69 15.37,-7.69 15.38,-7.69 14.52,-7.69 15.38,-7.68 15.37,-6.84 15.38,-6.83 15.37,-5.98 15.38,-6.83 14.52,-5.98 15.38,-5.98 15.37,-5.98 15.38,-5.13 15.37,-5.98 15.38,-5.12 14.52,-5.13 15.38,-5.12 15.37,-4.27 15.38,-5.13 15.37,-4.27 15.38,-4.27 14.52,-4.27 15.38,-4.27 15.37,-4.27 15.38,-3.42 15.37,-4.27 15.38,-3.42 14.52,-3.42 15.38,-3.41 15.37,-3.42 15.38,-3.42 15.38,-3.41 15.37,-2.57 14.52,-3.41 15.38,-2.57 15.37,-2.56 15.38,-3.41 15.38,-2.57 15.37,-2.56 14.52,-2.56 15.38,-1.71 15.37,-2.56 15.38,-2.57 15.38,-2.56 15.37,-1.71 14.52,-2.56 15.38,-1.71 15.37,-1.71 15.38,-2.56 15.38,-1.71 15.37,-1.71 14.52,-1.7 15.38,-1.71 15.37,-1.71 15.38,-1.71 15.38,-1.71 15.37,-1.71 14.52,-1.71 15.38,-0.85 15.37,-1.71 15.38,-1.71 15.38,-0.85 15.37,-1.71 14.52,-0.85 15.38,-1.71 15.38,-0.86 15.37,-1.7 15.38,-0.86 15.37,-0.85 14.52,-1.71 15.38,-0.86 15.38,-0.85 15.37,-0.85 15.38,-1.71 15.37,-0.86 14.52,-0.85 15.38,-0.85 15.38,-0.86 15.37,-0.85 15.38,-0.86 15.37,-0.85 14.52,-0.86 15.38,-0.85 15.38,-0.85 15.37,-0.86 15.38,0 15.37,-0.85 14.52,-0.86 15.38,-0.85 15.38,-0.86 15.37,0 15.38,-0.85 15.37,-0.85 14.53,-0.86 15.37,0 15.38,-0.85 15.37,-0.86 15.38,0 15.37,-0.85 14.53,0 15.37,-0.85 15.38,-0.86 15.37,0 15.38,-0.85 15.37,0 14.53,-0.86 15.37,0 15.38,-0.85 15.37,0 15.38,-0.86 15.37,0 14.53,-0.85 30.75,0 15.37,-0.85 15.38,0 15.37,-0.86 29.9,0 15.38,-0.85 30.75,0 15.37,-0.86 29.9,0 15.38,-0.85 15.37,0"
               inkscape:connector-curvature="0"
               id="path80"
               style="fill:none;stroke:#ff0000;stroke-width:12.81309986;stroke-linecap:butt;stroke-linejoin:round;stroke-miterlimit:10;stroke-opacity:1;stroke-dasharray:123.006, 30.7515;stroke-dashoffset:0" /></g><path
             d="m 1553,1755 17,20 18,21 18,20 18,19 18,19 18,19 17,18 18,18 18,17 18,17 18,16 18,16 17,15 18,15 18,14 18,13 18,13 18,12 17,12 18,11 18,10 18,10 18,9 18,9 17,7 18,8 18,6 18,6 18,5 18,5 17,4 18,3 18,3 18,3 18,1 18,2 53,0 18,-1 18,-2 18,-1 17,-3 18,-3 18,-3 18,-3 18,-4 18,-5 17,-5 18,-5 18,-5 18,-6 18,-6 18,-6 17,-6 18,-7 18,-7 18,-7 18,-7 18,-8 17,-8 18,-7 18,-8 18,-8 18,-8 18,-8 17,-9 18,-8 18,-8 18,-8 18,-9 18,-8 17,-8 18,-9 18,-8 18,-8 18,-8 18,-8 17,-9 18,-8 18,-7 18,-8 18,-8 18,-8 17,-7 18,-8 18,-7 18,-8 18,-7 18,-7 17,-7 18,-6 18,-7 18,-7 18,-6 18,-7 17,-6 18,-6 18,-6 18,-6 18,-5 18,-6 17,-5 18,-6 18,-5 18,-5 18,-5 18,-5 17,-5 18,-4 18,-5 18,-4 18,-5 18,-4 17,-4 18,-4 18,-4 18,-3 18,-4 18,-4 17,-3 18,-4 18,-3 18,-3 18,-3 18,-3 17,-3 18,-3 18,-3 18,-3 18,-2 18,-3 17,-2 18,-3 18,-2 18,-2 18,-3 18,-2 17,-2 18,-2 18,-2 18,-2 18,-2 18,-2 17,-1 18,-2 18,-2 18,-2 18,-1 18,-2 17,-1 18,-2 18,-1 18,-1 18,-2 18,-1 17,-1 18,-2 18,-1 18,-1 18,-1 18,-1 17,-1 18,-1 18,-1 18,-1 18,-1 18,-1 17,-1 18,-1 18,-1 18,-1 18,-1 18,0 17,-1 18,-1 18,-1 18,0 18,-1 18,-1 17,0 18,-1 18,-1 18,0 18,-1 18,0 17,-1 18,-1 18,0 18,-1 18,0 18,-1 17,0 18,-1 36,0 18,-1 18,0 17,-1 36,0 18,-1 18,0 18,-1 35,0 18,-1 36,0 18,-1 53,0 18,-1"
             inkscape:connector-curvature="0"
             id="path82"
             style="fill:none;stroke:#00ff00;stroke-width:15;stroke-linecap:butt;stroke-linejoin:round;stroke-miterlimit:10;stroke-opacity:1;stroke-dasharray:none" /><g
             transform="scale(3.40785,3.40785)"
             id="g84"><path
               d="m 455.712,16300 10.271,0 5.282,-2259.2 5.281,-1972.5 5.282,-1579.6 5.282,-1284.37 4.989,-1058.44 5.282,-882.08 5.282,-742.99 5.281,-631.77 5.282,-541.11 5.282,-467.15 4.989,-406.12 5.282,-355.36 5.282,-312.22 5.282,-275.83 5.281,-245.03 5.282,-218.61 4.989,-195.72 5.282,-176.07 5.282,-158.46 5.282,-143.78 5.282,-130.29 5.281,-118.55 4.989,-108.28 5.282,-98.89 5.282,-90.67 5.282,-83.63 5.282,-76.88 5.282,-70.72 4.988,-65.73 5.282,-60.74 5.282,-56.34 5.282,-52.24 5.282,-48.71 5.282,-45.48 4.988,-42.25 5.282,-39.62 5.282,-36.97 5.282,-34.92 5.282,-32.57 5.282,-30.52 4.988,-28.76 5.282,-27 5.282,-25.524 5.282,-24.062 5.282,-22.595 5.282,-21.421 4.988,-20.248 5.282,-19.073 5.282,-18.194 5.282,-17.019 5.282,-16.433 5.282,-15.259 4.988,-14.672 5.282,-14.085 5.282,-13.205 5.282,-12.617 5.282,-12.032 5.282,-11.444 4.988,-10.857 5.282,-10.27 5.282,-9.977 5.282,-9.39 5.282,-9.097 5.282,-8.51 4.988,-8.216 5.282,-7.923 5.282,-7.629 5.282,-7.043 5.282,-7.043 5.282,-6.455 4.989,-6.456 5.281,-5.869 5.282,-5.868 5.282,-5.576 5.282,-5.282 5.282,-5.282 4.989,-4.988 5.282,-4.695 5.281,-4.402 5.282,-4.401 5.282,-4.109 5.282,-4.108 4.989,-3.814 5.282,-3.815 5.282,-3.521 5.281,-3.522 5.282,-3.521 5.282,-3.228 4.989,-2.934 5.282,-2.935 5.282,-2.934 5.281,-2.641 5.282,-2.934 5.282,-2.348 4.989,-2.641 5.282,-2.347 5.282,-2.348 5.282,-2.054 5.281,-2.348 5.282,-2.054 4.989,-2.054 5.282,-1.76 5.28,-2.054 5.28,-1.761 5.29,-1.761 5.28,-1.76 4.99,-1.468 5.28,-1.76 5.28,-1.467 5.28,-1.468 5.28,-1.467 5.29,-1.174 4.98,-1.467 5.29,-1.173 5.28,-1.468 5.28,-1.173 5.28,-1.174 5.28,-1.174 4.99,-1.174 5.28,-0.88 5.29,-1.174 5.28,-0.88 5.28,-0.88 5.28,-1.174 4.99,-0.88 5.28,-0.881 5.28,-0.88 5.29,-0.88 5.28,-0.587 5.28,-0.881 4.99,-0.88 5.28,-0.587 5.28,-0.88 5.28,-0.587 5.29,-0.587 5.28,-0.587 4.99,-0.88 5.28,-0.587 5.28,-0.587 5.28,-0.587 5.28,-0.587 5.29,-0.293 4.98,-0.587 5.29,-0.587 5.28,-0.587 5.28,-0.293 5.28,-0.587 5.28,-0.587 4.99,-0.293 5.28,-0.587 5.29,-0.294 5.28,-0.293 5.28,-0.587 5.28,-0.293 4.99,-0.294 5.28,-0.587 5.28,-0.293 5.29,-0.294 5.28,-0.293 5.28,-0.294 4.99,-0.293 5.28,-0.293 5.28,-0.294 5.28,-0.293 5.29,-0.294 5.28,-0.293 4.99,-0.294 5.28,-0.293 5.28,-0.293 5.28,-0.294 5.28,-0.293 5.29,0 4.98,-0.294 5.29,-0.293 5.28,-0.294 5.28,0 5.28,-0.293 5.28,-0.294 4.99,0 5.28,-0.293 5.29,-0.293 5.28,0 5.28,-0.294 5.28,0 4.99,-0.293 5.28,-0.294 5.28,0 5.29,-0.293 5.28,0 5.28,-0.294 4.99,0 5.28,-0.293 10.56,0 5.29,-0.294 5.28,0 4.99,-0.293 10.56,0 5.28,-0.293 5.28,0 5.29,-0.294 10.27,0 5.28,-0.293 10.56,0 5.28,-0.294 15.56,0 5.28,-0.293"
               inkscape:connector-curvature="0"
               id="path86"
               style="fill:none;stroke:#00ff00;stroke-width:4.40159988;stroke-linecap:butt;stroke-linejoin:round;stroke-miterlimit:10;stroke-opacity:1;stroke-dasharray:42.2553, 10.5638;stroke-dashoffset:0" /></g><path
             d="m 1553,1651 17,22 18,23 18,25 18,27 18,28 18,29 17,31 18,32 18,32 18,33 18,34 18,35 17,35 18,35 18,35 18,35 18,35 18,35 17,34 18,34 18,33 18,32 18,31 18,30 17,30 18,28 18,26 18,26 18,24 18,23 17,21 18,20 18,18 18,16 18,15 18,13 17,12 18,10 18,8 18,7 18,5 18,4 17,2 18,0 18,-1 18,-2 18,-4 18,-5 17,-6 18,-8 18,-8 18,-10 18,-11 18,-12 17,-13 18,-13 18,-15 18,-15 18,-15 18,-17 17,-17 18,-17 18,-18 18,-18 18,-19 18,-18 17,-19 18,-20 18,-19 18,-19 18,-19 18,-20 17,-19 18,-19 18,-19 18,-19 18,-19 18,-19 17,-18 18,-18 18,-18 18,-18 18,-17 18,-17 17,-17 18,-16 18,-16 18,-15 18,-16 18,-15 17,-14 18,-14 18,-14 18,-14 18,-13 18,-13 17,-12 18,-12 18,-12 18,-11 18,-11 18,-11 17,-10 18,-10 18,-10 18,-9 18,-9 18,-9 17,-9 18,-8 18,-8 18,-8 18,-7 18,-7 17,-7 18,-7 18,-7 18,-6 18,-6 18,-6 17,-5 18,-6 18,-5 18,-5 18,-5 18,-5 17,-5 18,-4 18,-4 18,-5 18,-4 18,-4 17,-3 18,-4 18,-3 18,-4 18,-3 18,-3 17,-3 18,-3 18,-3 18,-3 18,-3 18,-2 17,-3 18,-2 18,-3 18,-2 18,-2 18,-2 17,-2 18,-2 18,-2 18,-2 18,-2 18,-2 17,-1 18,-2 18,-2 18,-1 18,-2 18,-1 17,-2 18,-1 18,-1 18,-2 18,-1 18,-1 17,-1 18,-1 18,-1 18,-1 18,-1 18,-2 17,0 18,-1 18,-1 18,-1 18,-1 18,-1 17,-1 18,-1 18,0 18,-1 18,-1 18,-1 17,0 18,-1 18,0 18,-1 18,-1 18,0 17,-1 18,0 18,-1 18,-1 18,0 18,-1 35,0 18,-1 18,0 18,-1 18,0 17,-1 36,0 18,-1 18,0 18,-1 35,0 18,-1 18,0"
             inkscape:connector-curvature="0"
             id="path88"
             style="fill:none;stroke:#0000ff;stroke-width:15;stroke-linecap:butt;stroke-linejoin:round;stroke-miterlimit:10;stroke-opacity:1;stroke-dasharray:none" /><g
             transform="scale(3.40785,3.40785)"
             id="g90"><path
               d="m 455.712,16300 78.349,0 5.282,-1682.3 5.281,-1576.9 5.282,-1355.1 4.989,-1170.6 5.282,-1016.16 5.282,-886.48 5.282,-776.44 5.282,-683.42 5.281,-603.31 4.989,-534.65 5.282,-475.67 5.282,-424.31 5.282,-379.71 5.282,-340.69 5.282,-306.64 4.988,-276.72 5.282,-250.3 5.282,-226.83 5.282,-205.99 5.282,-187.81 5.282,-171.07 4.988,-156.4 5.282,-143.2 5.282,-131.46 5.282,-120.9 5.282,-110.92 5.282,-102.71 4.988,-94.48 5.282,-87.45 5.282,-80.99 5.282,-74.83 5.282,-69.54 5.282,-64.85 4.988,-60.16 5.282,-56.04 5.282,-52.24 5.282,-48.71 5.282,-45.77 5.282,-42.55 4.988,-39.91 5.282,-37.27 5.282,-35.21 5.282,-32.86 5.282,-30.82 5.282,-29.34 4.988,-27.289 5.282,-25.823 5.282,-24.062 5.282,-22.888 5.282,-21.715 5.282,-20.247 4.988,-19.367 5.282,-18.194 5.282,-17.313 5.282,-16.432 5.282,-15.259 5.282,-14.672 4.989,-14.085 5.281,-13.205 5.282,-12.324 5.282,-12.032 5.282,-11.15 5.282,-10.858 4.989,-10.27 5.282,-9.683 5.281,-9.391 5.282,-8.803 5.282,-8.216 5.282,-8.216 4.989,-7.63 5.282,-7.336 5.282,-6.749 5.281,-6.749 5.282,-6.456 5.282,-5.868 4.989,-5.869 5.282,-5.576 5.282,-5.282 5.281,-4.988 5.282,-4.989 5.282,-4.695 4.989,-4.401 5.282,-4.108 5.282,-4.108 5.282,-4.109 5.281,-3.814 5.282,-3.522 4.989,-3.521 5.282,-3.228 5.28,-3.228 5.28,-2.934 5.29,-2.934 5.28,-2.935 4.99,-2.641 5.28,-2.641 5.28,-2.641 5.28,-2.347 5.28,-2.348 5.29,-2.054 4.98,-2.347 5.29,-2.054 5.28,-2.054 5.28,-1.761 5.28,-1.761 5.28,-1.76 4.99,-1.761 5.28,-1.761 5.29,-1.467 5.28,-1.761 5.28,-1.467 5.28,-1.467 4.99,-1.174 5.28,-1.467 5.28,-1.174 5.29,-1.173 5.28,-1.174 5.28,-1.174 4.99,-1.174 5.28,-1.173 5.28,-0.881 5.28,-1.173 5.29,-0.881 5.28,-0.88 4.99,-0.88 5.28,-0.881 5.28,-0.88 5.28,-0.88 5.28,-0.881 5.29,-0.587 4.98,-0.88 5.29,-0.587 5.28,-0.88 5.28,-0.587 5.28,-0.587 5.28,-0.587 4.99,-0.587 5.28,-0.587 5.29,-0.586 5.28,-0.587 5.28,-0.587 5.28,-0.587 4.99,-0.293 5.28,-0.587 5.28,-0.587 5.29,-0.294 5.28,-0.587 5.28,-0.293 4.99,-0.587 5.28,-0.293 5.28,-0.294 5.28,-0.587 5.29,-0.293 5.28,-0.294 4.99,-0.293 5.28,-0.293 5.28,-0.294 5.28,-0.293 5.28,-0.294 5.29,-0.587 4.98,0 5.29,-0.293 5.28,-0.293 5.28,-0.294 5.28,-0.293 5.28,-0.294 4.99,-0.293 5.28,-0.294 5.29,0 5.28,-0.293 5.28,-0.294 5.28,-0.293 4.99,0 5.28,-0.293 5.28,0 5.29,-0.294 5.28,-0.293 5.28,0 4.99,-0.294 5.28,0 5.28,-0.293 5.28,-0.294 5.29,0 5.28,-0.293 10.27,0 5.28,-0.294 5.28,0 5.28,-0.293 5.29,0 4.99,-0.293 10.56,0 5.28,-0.294 5.28,0 5.28,-0.293 10.28,0 5.28,-0.294 5.28,0"
               inkscape:connector-curvature="0"
               id="path92"
               style="fill:none;stroke:#0000ff;stroke-width:4.40159988;stroke-linecap:butt;stroke-linejoin:round;stroke-miterlimit:10;stroke-opacity:1;stroke-dasharray:42.2553, 10.5638;stroke-dashoffset:0" /></g></g></g><path
         d="m 2179,3232.8 90,0 0,162 -90,0 0,-162 z"
         inkscape:connector-curvature="0"
         id="path94"
         style="fill:#ffffff;fill-opacity:1;fill-rule:nonzero;stroke:none" /><g
         transform="scale(10,10)"
         id="g96"><text
           transform="matrix(1,0,0,-1,217.9,327.6)"
           id="text98"><tspan
             x="0"
             y="0"
             id="tspan100"
             style="font-size:18px;font-style:italic;font-variant:normal;writing-mode:lr-tb;fill:#000000;fill-opacity:1;fill-rule:nonzero;stroke:none;font-family:Times New Roman;-inkscape-font-specification:Times-Italic">s</tspan></text>
</g><path
         d="m 2372,3070.8 100.078,0 0,162 -100.078,0 0,-162 z"
         inkscape:connector-curvature="0"
         id="path102"
         style="fill:#ffffff;fill-opacity:1;fill-rule:nonzero;stroke:none" /><g
         transform="scale(10,10)"
         id="g104"><text
           transform="matrix(1,0,0,-1,237.2,311.4)"
           id="text106"><tspan
             x="0"
             y="0"
             id="tspan108"
             style="font-size:18px;font-style:italic;font-variant:normal;writing-mode:lr-tb;fill:#000000;fill-opacity:1;fill-rule:nonzero;stroke:none;font-family:Times New Roman;-inkscape-font-specification:Times-Italic">p</tspan></text>
</g><path
         d="m 2698,2908.8 100.078,0 0,162 -100.078,0 0,-162 z"
         inkscape:connector-curvature="0"
         id="path110"
         style="fill:#ffffff;fill-opacity:1;fill-rule:nonzero;stroke:none" /><g
         transform="scale(10,10)"
         id="g112"><text
           transform="matrix(1,0,0,-1,269.8,295.2)"
           id="text114"><tspan
             x="0"
             y="0"
             id="tspan116"
             style="font-size:18px;font-style:italic;font-variant:normal;writing-mode:lr-tb;fill:#000000;fill-opacity:1;fill-rule:nonzero;stroke:none;font-family:Times New Roman;-inkscape-font-specification:Times-Italic">d</tspan></text>
</g><path
         d="m 3176,3070.8 665.266,0 0,162 -665.266,0 0,-162 z"
         inkscape:connector-curvature="0"
         id="path118"
         style="fill:#ffffff;fill-opacity:1;fill-rule:nonzero;stroke:none" /><g
         transform="scale(10,10)"
         id="g120"><text
           transform="matrix(1,0,0,-1,317.6,311.4)"
           id="text122"><tspan
             x="0 12.006 25.002001 35.514 41.507999 51.515999 56.52"
             y="0"
             id="tspan124"
             style="font-size:18px;font-variant:normal;font-weight:normal;writing-mode:lr-tb;fill:#000000;fill-opacity:1;fill-rule:nonzero;stroke:none;font-family:Helvetica;-inkscape-font-specification:Helvetica">EH=-0.5</tspan></text>
</g><path
         d="m 3642,1202.4 79.918,0 0,216 -79.918,0 0,-216 z"
         inkscape:connector-curvature="0"
         id="path126"
         style="fill:#ffffff;fill-opacity:1;fill-rule:nonzero;stroke:none" /><g
         transform="scale(10,10)"
         id="g128"><text
           transform="matrix(1,0,0,-1,364.2,126)"
           id="text130"><tspan
             x="0"
             y="0"
             id="tspan132"
             style="font-size:24px;font-style:italic;font-variant:normal;writing-mode:lr-tb;fill:#000000;fill-opacity:1;fill-rule:nonzero;stroke:none;font-family:Times New Roman;-inkscape-font-specification:Times-Italic">r</tspan></text>
</g></g></g></svg>