<?xml version="1.0" encoding="UTF-8" standalone="no"?>
<!-- Created with Inkscape (http://www.inkscape.org/) -->

<svg
   xmlns:dc="http://purl.org/dc/elements/1.1/"
   xmlns:cc="http://creativecommons.org/ns#"
   xmlns:rdf="http://www.w3.org/1999/02/22-rdf-syntax-ns#"
   xmlns:svg="http://www.w3.org/2000/svg"
   xmlns="http://www.w3.org/2000/svg"
   xmlns:inkscape="http://www.inkscape.org/namespaces/inkscape"
   version="1.1"
   width="765"
   height="86pt"
   id="svg2"
   xml:space="preserve"><metadata
     id="metadata8"><rdf:RDF><cc:Work
         rdf:about=""><dc:format>image/svg+xml</dc:format><dc:type
           rdf:resource="http://purl.org/dc/dcmitype/StillImage" /></cc:Work></rdf:RDF></metadata><defs
     id="defs6" /><g
     transform="matrix(1.25,0,0,-1.25,0,990)"
     id="g10"><g
       transform="scale(0.1,0.1)"
       id="g12"><path
         d="m 1440,5920 2772,0 0,2772 -2772,0 0,-2772 z"
         inkscape:connector-curvature="0"
         id="path14"
         style="fill:#ffffff;fill-opacity:1;fill-rule:nonzero;stroke:none" /><path
         d="m 3330,7608 59,36 -118,-71 59,35 -59,36 118,-71 -59,35"
         inkscape:connector-curvature="0"
         id="path16"
         style="fill:none;stroke:#000000;stroke-width:30;stroke-linecap:butt;stroke-linejoin:round;stroke-miterlimit:10;stroke-opacity:1;stroke-dasharray:none" /><path
         d="m 2360.57,7855.96 c -10.8,9.07 -24.46,14.04 -38.57,14.04 -33.14,0 -60,-26.86 -60,-60 0,-25.22 15.78,-47.76 39.48,-56.38"
         inkscape:connector-curvature="0"
         id="path18"
         style="fill:#b2b2b2;fill-opacity:1;fill-rule:nonzero;stroke:none" /><path
         d="m 2360.57,7855.96 c -10.8,9.07 -24.46,14.04 -38.57,14.04 -33.14,0 -60,-26.86 -60,-60 0,-25.22 15.78,-47.76 39.48,-56.38 l 59.09,102.34 z"
         inkscape:connector-curvature="0"
         id="path20"
         style="fill:none;stroke:#000000;stroke-width:15;stroke-linecap:butt;stroke-linejoin:round;stroke-miterlimit:10;stroke-opacity:1;stroke-dasharray:none" /><path
         d="m 3330,7905 -59,-95 59,-95 59,95 -59,95"
         inkscape:connector-curvature="0"
         id="path22"
         style="fill:#e6cc00;fill-opacity:1;fill-rule:nonzero;stroke:none" /><path
         d="m 3330,7905 -59,-95 59,-95 59,95 -59,95 z"
         inkscape:connector-curvature="0"
         id="path24"
         style="fill:none;stroke:#1a33ff;stroke-width:15;stroke-linecap:butt;stroke-linejoin:round;stroke-miterlimit:10;stroke-opacity:1;stroke-dasharray:none" /><path
         d="m 3360,7391 18,57 -48,34 -48,-34 18,-57 60,0"
         inkscape:connector-curvature="0"
         id="path26"
         style="fill:#0000cc;fill-opacity:1;fill-rule:nonzero;stroke:none" /><path
         d="m 3360,7391 18,57 -48,34 -48,-34 18,-57 60,0 z"
         inkscape:connector-curvature="0"
         id="path28"
         style="fill:none;stroke:#000000;stroke-width:15;stroke-linecap:butt;stroke-linejoin:round;stroke-miterlimit:10;stroke-opacity:1;stroke-dasharray:none" /><path
         d="m 3042,7261 72,0 0,594 -72,0 0,-594 z"
         inkscape:connector-curvature="0"
         id="path30"
         style="fill:#00cccc;fill-opacity:1;fill-rule:nonzero;stroke:none" /><path
         d="m 2826,7306 0,0 -28,5 -24,8 -19,13 -11,20 -6,26 -3,28 -3,28 -7,24 -13,19 -20,12 -26,7 -28,4 -27,5 -23,10 -17,15 -10,21 -5,27 -2,28 -4,28 -9,22 -15,17 -21,11 -27,6 -28,4 -27,6 -21,11 -15,17"
         inkscape:connector-curvature="0"
         id="path32"
         style="fill:none;stroke:#000000;stroke-width:20;stroke-linecap:butt;stroke-linejoin:round;stroke-miterlimit:10;stroke-opacity:1;stroke-dasharray:none" /><path
         d="m 2722,7417 104,-111"
         inkscape:connector-curvature="0"
         id="path34"
         style="fill:none;stroke:#000000;stroke-width:10;stroke-linecap:butt;stroke-linejoin:round;stroke-miterlimit:10;stroke-opacity:1;stroke-dasharray:none" /><path
         d="m 2826,7306 -140,56 46,44 47,43 47,-143"
         inkscape:connector-curvature="0"
         id="path36"
         style="fill:#000000;fill-opacity:1;fill-rule:nonzero;stroke:none" /><path
         d="m 2826,7306 -140,56 46,44 47,43 47,-143 z"
         inkscape:connector-curvature="0"
         id="path38"
         style="fill:none;stroke:#000000;stroke-width:10;stroke-linecap:butt;stroke-linejoin:round;stroke-miterlimit:10;stroke-opacity:1;stroke-dasharray:none" /><path
         d="m 3582,7180 0,0 -25,-9 -25,-8 -25,-9 -25,-8 -24,-8 -25,-8 -25,-7 -25,-7 -25,-7 -25,-6 -25,-6 -25,-5 -24,-4 -25,-4 -25,-4 -25,-3 -25,-2 -25,-1 -25,-1 -25,0 -24,1 -25,1 -25,2 -25,3 -25,4 -25,4 -25,4 -25,5 -24,6 -25,6 -25,7 -25,7 -25,7 -25,8 -25,8 -25,8 -24,9 -25,8 -25,9"
         inkscape:connector-curvature="0"
         id="path40"
         style="fill:#80ff00;fill-opacity:1;fill-rule:nonzero;stroke:none" /><path
         d="m 3582,7180 0,0 -25,-9 -25,-8 -25,-9 -25,-8 -24,-8 -25,-8 -25,-7 -25,-7 -25,-7 -25,-6 -25,-6 -25,-5 -24,-4 -25,-4 -25,-4 -25,-3 -25,-2 -25,-1 -25,-1 -25,0 -24,1 -25,1 -25,2 -25,3 -25,4 -25,4 -25,4 -25,5 -24,6 -25,6 -25,7 -25,7 -25,7 -25,8 -25,8 -25,8 -24,9 -25,8 -25,9 970,0 z"
         inkscape:connector-curvature="0"
         id="path42"
         style="fill:none;stroke:#000000;stroke-width:10;stroke-linecap:butt;stroke-linejoin:round;stroke-miterlimit:10;stroke-opacity:1;stroke-dasharray:none" /></g></g></svg> 
